G04 #@! TF.GenerationSoftware,KiCad,Pcbnew,5.1.6-c6e7f7d~87~ubuntu19.10.1*
G04 #@! TF.CreationDate,2020-10-15T12:23:37+04:00*
G04 #@! TF.ProjectId,ledy,6c656479-2e6b-4696-9361-645f70636258,rev?*
G04 #@! TF.SameCoordinates,Original*
G04 #@! TF.FileFunction,Copper,L1,Top*
G04 #@! TF.FilePolarity,Positive*
%FSLAX46Y46*%
G04 Gerber Fmt 4.6, Leading zero omitted, Abs format (unit mm)*
G04 Created by KiCad (PCBNEW 5.1.6-c6e7f7d~87~ubuntu19.10.1) date 2020-10-15 12:23:37*
%MOMM*%
%LPD*%
G01*
G04 APERTURE LIST*
G04 #@! TA.AperFunction,EtchedComponent*
%ADD10C,0.010000*%
G04 #@! TD*
G04 #@! TA.AperFunction,SMDPad,CuDef*
%ADD11C,4.000000*%
G04 #@! TD*
G04 #@! TA.AperFunction,Conductor*
%ADD12C,1.000000*%
G04 #@! TD*
G04 APERTURE END LIST*
D10*
G04 #@! TO.C,REF\u002A\u002A*
G36*
X220671900Y-125361903D02*
G01*
X220783450Y-125417522D01*
X220881908Y-125519931D01*
X220909023Y-125557864D01*
X220938562Y-125607500D01*
X220957728Y-125661412D01*
X220968693Y-125733364D01*
X220973629Y-125837122D01*
X220974713Y-125974101D01*
X220969818Y-126161815D01*
X220952804Y-126302758D01*
X220920177Y-126407908D01*
X220868442Y-126488243D01*
X220794104Y-126554741D01*
X220788642Y-126558678D01*
X220715380Y-126598953D01*
X220627160Y-126618880D01*
X220514962Y-126623793D01*
X220332567Y-126623793D01*
X220332491Y-126800857D01*
X220330793Y-126899470D01*
X220320450Y-126957314D01*
X220293422Y-126992006D01*
X220241668Y-127021164D01*
X220229239Y-127027121D01*
X220171077Y-127055039D01*
X220126044Y-127072672D01*
X220092559Y-127074194D01*
X220069038Y-127053781D01*
X220053900Y-127005607D01*
X220045563Y-126923846D01*
X220042444Y-126802672D01*
X220042960Y-126636260D01*
X220045529Y-126418785D01*
X220046332Y-126353736D01*
X220049222Y-126129502D01*
X220051812Y-125982821D01*
X220332414Y-125982821D01*
X220333991Y-126107326D01*
X220341000Y-126188787D01*
X220356858Y-126242515D01*
X220384981Y-126283823D01*
X220404075Y-126303971D01*
X220482135Y-126362921D01*
X220551247Y-126367720D01*
X220622560Y-126319038D01*
X220624368Y-126317241D01*
X220653383Y-126279618D01*
X220671033Y-126228484D01*
X220679936Y-126149738D01*
X220682709Y-126029276D01*
X220682759Y-126002588D01*
X220676058Y-125836583D01*
X220654248Y-125721505D01*
X220614765Y-125651254D01*
X220555044Y-125619729D01*
X220520528Y-125616552D01*
X220438611Y-125631460D01*
X220382421Y-125680548D01*
X220348598Y-125770362D01*
X220333780Y-125907445D01*
X220332414Y-125982821D01*
X220051812Y-125982821D01*
X220052287Y-125955952D01*
X220056247Y-125825382D01*
X220061826Y-125730087D01*
X220069746Y-125662364D01*
X220080731Y-125614507D01*
X220095501Y-125578813D01*
X220114782Y-125547578D01*
X220123049Y-125535824D01*
X220232712Y-125424797D01*
X220371365Y-125361847D01*
X220531754Y-125344297D01*
X220671900Y-125361903D01*
G37*
X220671900Y-125361903D02*
X220783450Y-125417522D01*
X220881908Y-125519931D01*
X220909023Y-125557864D01*
X220938562Y-125607500D01*
X220957728Y-125661412D01*
X220968693Y-125733364D01*
X220973629Y-125837122D01*
X220974713Y-125974101D01*
X220969818Y-126161815D01*
X220952804Y-126302758D01*
X220920177Y-126407908D01*
X220868442Y-126488243D01*
X220794104Y-126554741D01*
X220788642Y-126558678D01*
X220715380Y-126598953D01*
X220627160Y-126618880D01*
X220514962Y-126623793D01*
X220332567Y-126623793D01*
X220332491Y-126800857D01*
X220330793Y-126899470D01*
X220320450Y-126957314D01*
X220293422Y-126992006D01*
X220241668Y-127021164D01*
X220229239Y-127027121D01*
X220171077Y-127055039D01*
X220126044Y-127072672D01*
X220092559Y-127074194D01*
X220069038Y-127053781D01*
X220053900Y-127005607D01*
X220045563Y-126923846D01*
X220042444Y-126802672D01*
X220042960Y-126636260D01*
X220045529Y-126418785D01*
X220046332Y-126353736D01*
X220049222Y-126129502D01*
X220051812Y-125982821D01*
X220332414Y-125982821D01*
X220333991Y-126107326D01*
X220341000Y-126188787D01*
X220356858Y-126242515D01*
X220384981Y-126283823D01*
X220404075Y-126303971D01*
X220482135Y-126362921D01*
X220551247Y-126367720D01*
X220622560Y-126319038D01*
X220624368Y-126317241D01*
X220653383Y-126279618D01*
X220671033Y-126228484D01*
X220679936Y-126149738D01*
X220682709Y-126029276D01*
X220682759Y-126002588D01*
X220676058Y-125836583D01*
X220654248Y-125721505D01*
X220614765Y-125651254D01*
X220555044Y-125619729D01*
X220520528Y-125616552D01*
X220438611Y-125631460D01*
X220382421Y-125680548D01*
X220348598Y-125770362D01*
X220333780Y-125907445D01*
X220332414Y-125982821D01*
X220051812Y-125982821D01*
X220052287Y-125955952D01*
X220056247Y-125825382D01*
X220061826Y-125730087D01*
X220069746Y-125662364D01*
X220080731Y-125614507D01*
X220095501Y-125578813D01*
X220114782Y-125547578D01*
X220123049Y-125535824D01*
X220232712Y-125424797D01*
X220371365Y-125361847D01*
X220531754Y-125344297D01*
X220671900Y-125361903D01*
G36*
X222917429Y-125377719D02*
G01*
X223011123Y-125431914D01*
X223076264Y-125485707D01*
X223123907Y-125542066D01*
X223156728Y-125610987D01*
X223177406Y-125702468D01*
X223188620Y-125826506D01*
X223193049Y-125993098D01*
X223193563Y-126112851D01*
X223193563Y-126553659D01*
X223069483Y-126609283D01*
X222945402Y-126664907D01*
X222930805Y-126182095D01*
X222924773Y-126001779D01*
X222918445Y-125870901D01*
X222910606Y-125780511D01*
X222900037Y-125721664D01*
X222885523Y-125685413D01*
X222865848Y-125662810D01*
X222859535Y-125657917D01*
X222763888Y-125619706D01*
X222667207Y-125634827D01*
X222609655Y-125674943D01*
X222586245Y-125703370D01*
X222570039Y-125740672D01*
X222559741Y-125797223D01*
X222554049Y-125883394D01*
X222551664Y-126009558D01*
X222551264Y-126141042D01*
X222551186Y-126305999D01*
X222548361Y-126422761D01*
X222538907Y-126501510D01*
X222518940Y-126552431D01*
X222484576Y-126585706D01*
X222431932Y-126611520D01*
X222361617Y-126638344D01*
X222284820Y-126667542D01*
X222293962Y-126149346D01*
X222297643Y-125962539D01*
X222301950Y-125824490D01*
X222308123Y-125725568D01*
X222317402Y-125656145D01*
X222331027Y-125606590D01*
X222350239Y-125567273D01*
X222373402Y-125532584D01*
X222485152Y-125421770D01*
X222621513Y-125357689D01*
X222769825Y-125342339D01*
X222917429Y-125377719D01*
G37*
X222917429Y-125377719D02*
X223011123Y-125431914D01*
X223076264Y-125485707D01*
X223123907Y-125542066D01*
X223156728Y-125610987D01*
X223177406Y-125702468D01*
X223188620Y-125826506D01*
X223193049Y-125993098D01*
X223193563Y-126112851D01*
X223193563Y-126553659D01*
X223069483Y-126609283D01*
X222945402Y-126664907D01*
X222930805Y-126182095D01*
X222924773Y-126001779D01*
X222918445Y-125870901D01*
X222910606Y-125780511D01*
X222900037Y-125721664D01*
X222885523Y-125685413D01*
X222865848Y-125662810D01*
X222859535Y-125657917D01*
X222763888Y-125619706D01*
X222667207Y-125634827D01*
X222609655Y-125674943D01*
X222586245Y-125703370D01*
X222570039Y-125740672D01*
X222559741Y-125797223D01*
X222554049Y-125883394D01*
X222551664Y-126009558D01*
X222551264Y-126141042D01*
X222551186Y-126305999D01*
X222548361Y-126422761D01*
X222538907Y-126501510D01*
X222518940Y-126552431D01*
X222484576Y-126585706D01*
X222431932Y-126611520D01*
X222361617Y-126638344D01*
X222284820Y-126667542D01*
X222293962Y-126149346D01*
X222297643Y-125962539D01*
X222301950Y-125824490D01*
X222308123Y-125725568D01*
X222317402Y-125656145D01*
X222331027Y-125606590D01*
X222350239Y-125567273D01*
X222373402Y-125532584D01*
X222485152Y-125421770D01*
X222621513Y-125357689D01*
X222769825Y-125342339D01*
X222917429Y-125377719D01*
G36*
X219548221Y-125366015D02*
G01*
X219685061Y-125437968D01*
X219786051Y-125553766D01*
X219821925Y-125628213D01*
X219849839Y-125739992D01*
X219864129Y-125881227D01*
X219865484Y-126035371D01*
X219854595Y-126185879D01*
X219832153Y-126316205D01*
X219798850Y-126409803D01*
X219788615Y-126425922D01*
X219667382Y-126546249D01*
X219523387Y-126618317D01*
X219367139Y-126639408D01*
X219209148Y-126606802D01*
X219165180Y-126587253D01*
X219079556Y-126527012D01*
X219004408Y-126447135D01*
X218997306Y-126437004D01*
X218968439Y-126388181D01*
X218949357Y-126335990D01*
X218938084Y-126267285D01*
X218932645Y-126168918D01*
X218931062Y-126027744D01*
X218931035Y-125996092D01*
X218931107Y-125986019D01*
X219222989Y-125986019D01*
X219224687Y-126119256D01*
X219231372Y-126207674D01*
X219245425Y-126264785D01*
X219269229Y-126304102D01*
X219281379Y-126317241D01*
X219351236Y-126367172D01*
X219419059Y-126364895D01*
X219487635Y-126321584D01*
X219528535Y-126275346D01*
X219552758Y-126207857D01*
X219566361Y-126101433D01*
X219567294Y-126089020D01*
X219569616Y-125896147D01*
X219545350Y-125752900D01*
X219494824Y-125660160D01*
X219418368Y-125618807D01*
X219391076Y-125616552D01*
X219319411Y-125627893D01*
X219270390Y-125667184D01*
X219240418Y-125742326D01*
X219225899Y-125861222D01*
X219222989Y-125986019D01*
X218931107Y-125986019D01*
X218932122Y-125845659D01*
X218936688Y-125740549D01*
X218946688Y-125667714D01*
X218964079Y-125614108D01*
X218990816Y-125566681D01*
X218996724Y-125557864D01*
X219096032Y-125439007D01*
X219204242Y-125370008D01*
X219335981Y-125342619D01*
X219380717Y-125341281D01*
X219548221Y-125366015D01*
G37*
X219548221Y-125366015D02*
X219685061Y-125437968D01*
X219786051Y-125553766D01*
X219821925Y-125628213D01*
X219849839Y-125739992D01*
X219864129Y-125881227D01*
X219865484Y-126035371D01*
X219854595Y-126185879D01*
X219832153Y-126316205D01*
X219798850Y-126409803D01*
X219788615Y-126425922D01*
X219667382Y-126546249D01*
X219523387Y-126618317D01*
X219367139Y-126639408D01*
X219209148Y-126606802D01*
X219165180Y-126587253D01*
X219079556Y-126527012D01*
X219004408Y-126447135D01*
X218997306Y-126437004D01*
X218968439Y-126388181D01*
X218949357Y-126335990D01*
X218938084Y-126267285D01*
X218932645Y-126168918D01*
X218931062Y-126027744D01*
X218931035Y-125996092D01*
X218931107Y-125986019D01*
X219222989Y-125986019D01*
X219224687Y-126119256D01*
X219231372Y-126207674D01*
X219245425Y-126264785D01*
X219269229Y-126304102D01*
X219281379Y-126317241D01*
X219351236Y-126367172D01*
X219419059Y-126364895D01*
X219487635Y-126321584D01*
X219528535Y-126275346D01*
X219552758Y-126207857D01*
X219566361Y-126101433D01*
X219567294Y-126089020D01*
X219569616Y-125896147D01*
X219545350Y-125752900D01*
X219494824Y-125660160D01*
X219418368Y-125618807D01*
X219391076Y-125616552D01*
X219319411Y-125627893D01*
X219270390Y-125667184D01*
X219240418Y-125742326D01*
X219225899Y-125861222D01*
X219222989Y-125986019D01*
X218931107Y-125986019D01*
X218932122Y-125845659D01*
X218936688Y-125740549D01*
X218946688Y-125667714D01*
X218964079Y-125614108D01*
X218990816Y-125566681D01*
X218996724Y-125557864D01*
X219096032Y-125439007D01*
X219204242Y-125370008D01*
X219335981Y-125342619D01*
X219380717Y-125341281D01*
X219548221Y-125366015D01*
G36*
X221815552Y-125384676D02*
G01*
X221930658Y-125462111D01*
X222019611Y-125573949D01*
X222072749Y-125716265D01*
X222083497Y-125821015D01*
X222082276Y-125864726D01*
X222072056Y-125898194D01*
X222043961Y-125928179D01*
X221989116Y-125961440D01*
X221898645Y-126004738D01*
X221763672Y-126064833D01*
X221762989Y-126065134D01*
X221638751Y-126122037D01*
X221536873Y-126172565D01*
X221467767Y-126211280D01*
X221441846Y-126232740D01*
X221441839Y-126232913D01*
X221464685Y-126279644D01*
X221518109Y-126331154D01*
X221579442Y-126368261D01*
X221610515Y-126375632D01*
X221695289Y-126350138D01*
X221768293Y-126286291D01*
X221803913Y-126216094D01*
X221838180Y-126164343D01*
X221905303Y-126105409D01*
X221984208Y-126054496D01*
X222053821Y-126026809D01*
X222068377Y-126025287D01*
X222084763Y-126050321D01*
X222085750Y-126114311D01*
X222073708Y-126200593D01*
X222051007Y-126292501D01*
X222020014Y-126373369D01*
X222018448Y-126376509D01*
X221925181Y-126506734D01*
X221804304Y-126595311D01*
X221667027Y-126638786D01*
X221524560Y-126633706D01*
X221388112Y-126576616D01*
X221382045Y-126572602D01*
X221274710Y-126475326D01*
X221204132Y-126348409D01*
X221165074Y-126181526D01*
X221159832Y-126134639D01*
X221150548Y-125913329D01*
X221161678Y-125810124D01*
X221441839Y-125810124D01*
X221445479Y-125874503D01*
X221465389Y-125893291D01*
X221515026Y-125879235D01*
X221593267Y-125846009D01*
X221680726Y-125804359D01*
X221682899Y-125803256D01*
X221757030Y-125764265D01*
X221786781Y-125738244D01*
X221779445Y-125710965D01*
X221748553Y-125675121D01*
X221669960Y-125623251D01*
X221585323Y-125619439D01*
X221509403Y-125657189D01*
X221456965Y-125730001D01*
X221441839Y-125810124D01*
X221161678Y-125810124D01*
X221169644Y-125736261D01*
X221218634Y-125595829D01*
X221286836Y-125497447D01*
X221409935Y-125398030D01*
X221545528Y-125348711D01*
X221683955Y-125345568D01*
X221815552Y-125384676D01*
G37*
X221815552Y-125384676D02*
X221930658Y-125462111D01*
X222019611Y-125573949D01*
X222072749Y-125716265D01*
X222083497Y-125821015D01*
X222082276Y-125864726D01*
X222072056Y-125898194D01*
X222043961Y-125928179D01*
X221989116Y-125961440D01*
X221898645Y-126004738D01*
X221763672Y-126064833D01*
X221762989Y-126065134D01*
X221638751Y-126122037D01*
X221536873Y-126172565D01*
X221467767Y-126211280D01*
X221441846Y-126232740D01*
X221441839Y-126232913D01*
X221464685Y-126279644D01*
X221518109Y-126331154D01*
X221579442Y-126368261D01*
X221610515Y-126375632D01*
X221695289Y-126350138D01*
X221768293Y-126286291D01*
X221803913Y-126216094D01*
X221838180Y-126164343D01*
X221905303Y-126105409D01*
X221984208Y-126054496D01*
X222053821Y-126026809D01*
X222068377Y-126025287D01*
X222084763Y-126050321D01*
X222085750Y-126114311D01*
X222073708Y-126200593D01*
X222051007Y-126292501D01*
X222020014Y-126373369D01*
X222018448Y-126376509D01*
X221925181Y-126506734D01*
X221804304Y-126595311D01*
X221667027Y-126638786D01*
X221524560Y-126633706D01*
X221388112Y-126576616D01*
X221382045Y-126572602D01*
X221274710Y-126475326D01*
X221204132Y-126348409D01*
X221165074Y-126181526D01*
X221159832Y-126134639D01*
X221150548Y-125913329D01*
X221161678Y-125810124D01*
X221441839Y-125810124D01*
X221445479Y-125874503D01*
X221465389Y-125893291D01*
X221515026Y-125879235D01*
X221593267Y-125846009D01*
X221680726Y-125804359D01*
X221682899Y-125803256D01*
X221757030Y-125764265D01*
X221786781Y-125738244D01*
X221779445Y-125710965D01*
X221748553Y-125675121D01*
X221669960Y-125623251D01*
X221585323Y-125619439D01*
X221509403Y-125657189D01*
X221456965Y-125730001D01*
X221441839Y-125810124D01*
X221161678Y-125810124D01*
X221169644Y-125736261D01*
X221218634Y-125595829D01*
X221286836Y-125497447D01*
X221409935Y-125398030D01*
X221545528Y-125348711D01*
X221683955Y-125345568D01*
X221815552Y-125384676D01*
G36*
X224244598Y-125223857D02*
G01*
X224253154Y-125343188D01*
X224262981Y-125413506D01*
X224276599Y-125444179D01*
X224296527Y-125444571D01*
X224302989Y-125440910D01*
X224388940Y-125414398D01*
X224500745Y-125415946D01*
X224614414Y-125443199D01*
X224685510Y-125478455D01*
X224758405Y-125534778D01*
X224811693Y-125598519D01*
X224848275Y-125679510D01*
X224871050Y-125787586D01*
X224882919Y-125932580D01*
X224886782Y-126124326D01*
X224886851Y-126161109D01*
X224886897Y-126574288D01*
X224794954Y-126606339D01*
X224729652Y-126628144D01*
X224693824Y-126638297D01*
X224692770Y-126638391D01*
X224689242Y-126610860D01*
X224686239Y-126534923D01*
X224683990Y-126420565D01*
X224682724Y-126277769D01*
X224682529Y-126190951D01*
X224682123Y-126019773D01*
X224680032Y-125897088D01*
X224674947Y-125813000D01*
X224665560Y-125757614D01*
X224650561Y-125721032D01*
X224628642Y-125693359D01*
X224614957Y-125680032D01*
X224520949Y-125626328D01*
X224418364Y-125622307D01*
X224325290Y-125667725D01*
X224308078Y-125684123D01*
X224282832Y-125714957D01*
X224265320Y-125751531D01*
X224254142Y-125804415D01*
X224247896Y-125884177D01*
X224245182Y-126001385D01*
X224244598Y-126162991D01*
X224244598Y-126574288D01*
X224152655Y-126606339D01*
X224087353Y-126628144D01*
X224051525Y-126638297D01*
X224050471Y-126638391D01*
X224047775Y-126610448D01*
X224045345Y-126531630D01*
X224043278Y-126409453D01*
X224041671Y-126251432D01*
X224040623Y-126065083D01*
X224040231Y-125857920D01*
X224040230Y-125848706D01*
X224040230Y-125059020D01*
X224135115Y-125018997D01*
X224230000Y-124978973D01*
X224244598Y-125223857D01*
G37*
X224244598Y-125223857D02*
X224253154Y-125343188D01*
X224262981Y-125413506D01*
X224276599Y-125444179D01*
X224296527Y-125444571D01*
X224302989Y-125440910D01*
X224388940Y-125414398D01*
X224500745Y-125415946D01*
X224614414Y-125443199D01*
X224685510Y-125478455D01*
X224758405Y-125534778D01*
X224811693Y-125598519D01*
X224848275Y-125679510D01*
X224871050Y-125787586D01*
X224882919Y-125932580D01*
X224886782Y-126124326D01*
X224886851Y-126161109D01*
X224886897Y-126574288D01*
X224794954Y-126606339D01*
X224729652Y-126628144D01*
X224693824Y-126638297D01*
X224692770Y-126638391D01*
X224689242Y-126610860D01*
X224686239Y-126534923D01*
X224683990Y-126420565D01*
X224682724Y-126277769D01*
X224682529Y-126190951D01*
X224682123Y-126019773D01*
X224680032Y-125897088D01*
X224674947Y-125813000D01*
X224665560Y-125757614D01*
X224650561Y-125721032D01*
X224628642Y-125693359D01*
X224614957Y-125680032D01*
X224520949Y-125626328D01*
X224418364Y-125622307D01*
X224325290Y-125667725D01*
X224308078Y-125684123D01*
X224282832Y-125714957D01*
X224265320Y-125751531D01*
X224254142Y-125804415D01*
X224247896Y-125884177D01*
X224245182Y-126001385D01*
X224244598Y-126162991D01*
X224244598Y-126574288D01*
X224152655Y-126606339D01*
X224087353Y-126628144D01*
X224051525Y-126638297D01*
X224050471Y-126638391D01*
X224047775Y-126610448D01*
X224045345Y-126531630D01*
X224043278Y-126409453D01*
X224041671Y-126251432D01*
X224040623Y-126065083D01*
X224040231Y-125857920D01*
X224040230Y-125848706D01*
X224040230Y-125059020D01*
X224135115Y-125018997D01*
X224230000Y-124978973D01*
X224244598Y-125223857D01*
G36*
X225579944Y-125424360D02*
G01*
X225694343Y-125466842D01*
X225695652Y-125467658D01*
X225766403Y-125519730D01*
X225818636Y-125580584D01*
X225855371Y-125659887D01*
X225879634Y-125767309D01*
X225894445Y-125912517D01*
X225902829Y-126105179D01*
X225903564Y-126132628D01*
X225914120Y-126546521D01*
X225825291Y-126592456D01*
X225761018Y-126623498D01*
X225722210Y-126638206D01*
X225720415Y-126638391D01*
X225713700Y-126611250D01*
X225708365Y-126538041D01*
X225705083Y-126431081D01*
X225704368Y-126344469D01*
X225704351Y-126204162D01*
X225697937Y-126116051D01*
X225675580Y-126074025D01*
X225627732Y-126071975D01*
X225544849Y-126103790D01*
X225419713Y-126162272D01*
X225327697Y-126210845D01*
X225280371Y-126252986D01*
X225266458Y-126298916D01*
X225266437Y-126301189D01*
X225289395Y-126380311D01*
X225357370Y-126423055D01*
X225461398Y-126429246D01*
X225536330Y-126428172D01*
X225575839Y-126449753D01*
X225600478Y-126501591D01*
X225614659Y-126567632D01*
X225594223Y-126605104D01*
X225586528Y-126610467D01*
X225514083Y-126632006D01*
X225412633Y-126635055D01*
X225308157Y-126620778D01*
X225234125Y-126594688D01*
X225131772Y-126507785D01*
X225073591Y-126386816D01*
X225062069Y-126292308D01*
X225070862Y-126207062D01*
X225102680Y-126137476D01*
X225165684Y-126075672D01*
X225268031Y-126013772D01*
X225417882Y-125943897D01*
X225427012Y-125939948D01*
X225561997Y-125877588D01*
X225645294Y-125826446D01*
X225680997Y-125780488D01*
X225673203Y-125733683D01*
X225626007Y-125679998D01*
X225611894Y-125667644D01*
X225517359Y-125619741D01*
X225419406Y-125621758D01*
X225334097Y-125668724D01*
X225277496Y-125755669D01*
X225272237Y-125772734D01*
X225221023Y-125855504D01*
X225156037Y-125895372D01*
X225062069Y-125934882D01*
X225062069Y-125832658D01*
X225090653Y-125684072D01*
X225175495Y-125547784D01*
X225219645Y-125502191D01*
X225320005Y-125443674D01*
X225447635Y-125417184D01*
X225579944Y-125424360D01*
G37*
X225579944Y-125424360D02*
X225694343Y-125466842D01*
X225695652Y-125467658D01*
X225766403Y-125519730D01*
X225818636Y-125580584D01*
X225855371Y-125659887D01*
X225879634Y-125767309D01*
X225894445Y-125912517D01*
X225902829Y-126105179D01*
X225903564Y-126132628D01*
X225914120Y-126546521D01*
X225825291Y-126592456D01*
X225761018Y-126623498D01*
X225722210Y-126638206D01*
X225720415Y-126638391D01*
X225713700Y-126611250D01*
X225708365Y-126538041D01*
X225705083Y-126431081D01*
X225704368Y-126344469D01*
X225704351Y-126204162D01*
X225697937Y-126116051D01*
X225675580Y-126074025D01*
X225627732Y-126071975D01*
X225544849Y-126103790D01*
X225419713Y-126162272D01*
X225327697Y-126210845D01*
X225280371Y-126252986D01*
X225266458Y-126298916D01*
X225266437Y-126301189D01*
X225289395Y-126380311D01*
X225357370Y-126423055D01*
X225461398Y-126429246D01*
X225536330Y-126428172D01*
X225575839Y-126449753D01*
X225600478Y-126501591D01*
X225614659Y-126567632D01*
X225594223Y-126605104D01*
X225586528Y-126610467D01*
X225514083Y-126632006D01*
X225412633Y-126635055D01*
X225308157Y-126620778D01*
X225234125Y-126594688D01*
X225131772Y-126507785D01*
X225073591Y-126386816D01*
X225062069Y-126292308D01*
X225070862Y-126207062D01*
X225102680Y-126137476D01*
X225165684Y-126075672D01*
X225268031Y-126013772D01*
X225417882Y-125943897D01*
X225427012Y-125939948D01*
X225561997Y-125877588D01*
X225645294Y-125826446D01*
X225680997Y-125780488D01*
X225673203Y-125733683D01*
X225626007Y-125679998D01*
X225611894Y-125667644D01*
X225517359Y-125619741D01*
X225419406Y-125621758D01*
X225334097Y-125668724D01*
X225277496Y-125755669D01*
X225272237Y-125772734D01*
X225221023Y-125855504D01*
X225156037Y-125895372D01*
X225062069Y-125934882D01*
X225062069Y-125832658D01*
X225090653Y-125684072D01*
X225175495Y-125547784D01*
X225219645Y-125502191D01*
X225320005Y-125443674D01*
X225447635Y-125417184D01*
X225579944Y-125424360D01*
G36*
X226565943Y-125421920D02*
G01*
X226698565Y-125470859D01*
X226806010Y-125557419D01*
X226848032Y-125618352D01*
X226893843Y-125730161D01*
X226892891Y-125811006D01*
X226844808Y-125865378D01*
X226827017Y-125874624D01*
X226750204Y-125903450D01*
X226710976Y-125896065D01*
X226697689Y-125847658D01*
X226697012Y-125820920D01*
X226672686Y-125722548D01*
X226609281Y-125653734D01*
X226521154Y-125620498D01*
X226422663Y-125628861D01*
X226342602Y-125672296D01*
X226315561Y-125697072D01*
X226296394Y-125727129D01*
X226283446Y-125772565D01*
X226275064Y-125843476D01*
X226269593Y-125949960D01*
X226265378Y-126102112D01*
X226264287Y-126150287D01*
X226260307Y-126315095D01*
X226255781Y-126431088D01*
X226248995Y-126507833D01*
X226238231Y-126554893D01*
X226221773Y-126581835D01*
X226197906Y-126598223D01*
X226182626Y-126605463D01*
X226117733Y-126630220D01*
X226079534Y-126638391D01*
X226066912Y-126611103D01*
X226059208Y-126528603D01*
X226056380Y-126389941D01*
X226058386Y-126194162D01*
X226059011Y-126163965D01*
X226063421Y-125985349D01*
X226068635Y-125854923D01*
X226076055Y-125762492D01*
X226087082Y-125697858D01*
X226103117Y-125650825D01*
X226125561Y-125611196D01*
X226137302Y-125594215D01*
X226204619Y-125519080D01*
X226279910Y-125460638D01*
X226289128Y-125455536D01*
X226424133Y-125415260D01*
X226565943Y-125421920D01*
G37*
X226565943Y-125421920D02*
X226698565Y-125470859D01*
X226806010Y-125557419D01*
X226848032Y-125618352D01*
X226893843Y-125730161D01*
X226892891Y-125811006D01*
X226844808Y-125865378D01*
X226827017Y-125874624D01*
X226750204Y-125903450D01*
X226710976Y-125896065D01*
X226697689Y-125847658D01*
X226697012Y-125820920D01*
X226672686Y-125722548D01*
X226609281Y-125653734D01*
X226521154Y-125620498D01*
X226422663Y-125628861D01*
X226342602Y-125672296D01*
X226315561Y-125697072D01*
X226296394Y-125727129D01*
X226283446Y-125772565D01*
X226275064Y-125843476D01*
X226269593Y-125949960D01*
X226265378Y-126102112D01*
X226264287Y-126150287D01*
X226260307Y-126315095D01*
X226255781Y-126431088D01*
X226248995Y-126507833D01*
X226238231Y-126554893D01*
X226221773Y-126581835D01*
X226197906Y-126598223D01*
X226182626Y-126605463D01*
X226117733Y-126630220D01*
X226079534Y-126638391D01*
X226066912Y-126611103D01*
X226059208Y-126528603D01*
X226056380Y-126389941D01*
X226058386Y-126194162D01*
X226059011Y-126163965D01*
X226063421Y-125985349D01*
X226068635Y-125854923D01*
X226076055Y-125762492D01*
X226087082Y-125697858D01*
X226103117Y-125650825D01*
X226125561Y-125611196D01*
X226137302Y-125594215D01*
X226204619Y-125519080D01*
X226279910Y-125460638D01*
X226289128Y-125455536D01*
X226424133Y-125415260D01*
X226565943Y-125421920D01*
G36*
X227893914Y-125654455D02*
G01*
X227893543Y-125872661D01*
X227892108Y-126040519D01*
X227889002Y-126166070D01*
X227883622Y-126257355D01*
X227875362Y-126322415D01*
X227863616Y-126369291D01*
X227847781Y-126406024D01*
X227835790Y-126426991D01*
X227736490Y-126540694D01*
X227610588Y-126611965D01*
X227471291Y-126637538D01*
X227331805Y-126614150D01*
X227248743Y-126572119D01*
X227161545Y-126499411D01*
X227102117Y-126410612D01*
X227066261Y-126294320D01*
X227049781Y-126139135D01*
X227047447Y-126025287D01*
X227047761Y-126017106D01*
X227251724Y-126017106D01*
X227252970Y-126147657D01*
X227258678Y-126234080D01*
X227271804Y-126290618D01*
X227295306Y-126331514D01*
X227323386Y-126362362D01*
X227417688Y-126421905D01*
X227518940Y-126426992D01*
X227614636Y-126377279D01*
X227622084Y-126370543D01*
X227653874Y-126335502D01*
X227673808Y-126293811D01*
X227684600Y-126231762D01*
X227688965Y-126135644D01*
X227689655Y-126029379D01*
X227688159Y-125895880D01*
X227681964Y-125806822D01*
X227668514Y-125748293D01*
X227645251Y-125706382D01*
X227626175Y-125684123D01*
X227537563Y-125627985D01*
X227435508Y-125621235D01*
X227338095Y-125664114D01*
X227319296Y-125680032D01*
X227287293Y-125715382D01*
X227267318Y-125757502D01*
X227256593Y-125820251D01*
X227252339Y-125917487D01*
X227251724Y-126017106D01*
X227047761Y-126017106D01*
X227054504Y-125841947D01*
X227078472Y-125704195D01*
X227123548Y-125600632D01*
X227193928Y-125519856D01*
X227248743Y-125478455D01*
X227348376Y-125433728D01*
X227463855Y-125412967D01*
X227571199Y-125418525D01*
X227631264Y-125440943D01*
X227654835Y-125447323D01*
X227670477Y-125423535D01*
X227681395Y-125359788D01*
X227689655Y-125262687D01*
X227698699Y-125154541D01*
X227711261Y-125089475D01*
X227734119Y-125052268D01*
X227774051Y-125027699D01*
X227799138Y-125016819D01*
X227894023Y-124977072D01*
X227893914Y-125654455D01*
G37*
X227893914Y-125654455D02*
X227893543Y-125872661D01*
X227892108Y-126040519D01*
X227889002Y-126166070D01*
X227883622Y-126257355D01*
X227875362Y-126322415D01*
X227863616Y-126369291D01*
X227847781Y-126406024D01*
X227835790Y-126426991D01*
X227736490Y-126540694D01*
X227610588Y-126611965D01*
X227471291Y-126637538D01*
X227331805Y-126614150D01*
X227248743Y-126572119D01*
X227161545Y-126499411D01*
X227102117Y-126410612D01*
X227066261Y-126294320D01*
X227049781Y-126139135D01*
X227047447Y-126025287D01*
X227047761Y-126017106D01*
X227251724Y-126017106D01*
X227252970Y-126147657D01*
X227258678Y-126234080D01*
X227271804Y-126290618D01*
X227295306Y-126331514D01*
X227323386Y-126362362D01*
X227417688Y-126421905D01*
X227518940Y-126426992D01*
X227614636Y-126377279D01*
X227622084Y-126370543D01*
X227653874Y-126335502D01*
X227673808Y-126293811D01*
X227684600Y-126231762D01*
X227688965Y-126135644D01*
X227689655Y-126029379D01*
X227688159Y-125895880D01*
X227681964Y-125806822D01*
X227668514Y-125748293D01*
X227645251Y-125706382D01*
X227626175Y-125684123D01*
X227537563Y-125627985D01*
X227435508Y-125621235D01*
X227338095Y-125664114D01*
X227319296Y-125680032D01*
X227287293Y-125715382D01*
X227267318Y-125757502D01*
X227256593Y-125820251D01*
X227252339Y-125917487D01*
X227251724Y-126017106D01*
X227047761Y-126017106D01*
X227054504Y-125841947D01*
X227078472Y-125704195D01*
X227123548Y-125600632D01*
X227193928Y-125519856D01*
X227248743Y-125478455D01*
X227348376Y-125433728D01*
X227463855Y-125412967D01*
X227571199Y-125418525D01*
X227631264Y-125440943D01*
X227654835Y-125447323D01*
X227670477Y-125423535D01*
X227681395Y-125359788D01*
X227689655Y-125262687D01*
X227698699Y-125154541D01*
X227711261Y-125089475D01*
X227734119Y-125052268D01*
X227774051Y-125027699D01*
X227799138Y-125016819D01*
X227894023Y-124977072D01*
X227893914Y-125654455D01*
G36*
X229080124Y-125439840D02*
G01*
X229084579Y-125516653D01*
X229088071Y-125633391D01*
X229090315Y-125780821D01*
X229091035Y-125935455D01*
X229091035Y-126458727D01*
X228998645Y-126551117D01*
X228934978Y-126608047D01*
X228879089Y-126631107D01*
X228802702Y-126629647D01*
X228772380Y-126625934D01*
X228677610Y-126615126D01*
X228599222Y-126608933D01*
X228580115Y-126608361D01*
X228515699Y-126612102D01*
X228423571Y-126621494D01*
X228387850Y-126625934D01*
X228300114Y-126632801D01*
X228241153Y-126617885D01*
X228182690Y-126571835D01*
X228161585Y-126551117D01*
X228069195Y-126458727D01*
X228069195Y-125479947D01*
X228143558Y-125446066D01*
X228207590Y-125420970D01*
X228245052Y-125412184D01*
X228254657Y-125439950D01*
X228263635Y-125517530D01*
X228271386Y-125636348D01*
X228277314Y-125787828D01*
X228280173Y-125915805D01*
X228288161Y-126419425D01*
X228357848Y-126429278D01*
X228421229Y-126422389D01*
X228452286Y-126400083D01*
X228460967Y-126358379D01*
X228468378Y-126269544D01*
X228473931Y-126144834D01*
X228477036Y-125995507D01*
X228477484Y-125918661D01*
X228477931Y-125476287D01*
X228569874Y-125444235D01*
X228634949Y-125422443D01*
X228670347Y-125412281D01*
X228671368Y-125412184D01*
X228674920Y-125439809D01*
X228678823Y-125516411D01*
X228682751Y-125632579D01*
X228686376Y-125778904D01*
X228688908Y-125915805D01*
X228696897Y-126419425D01*
X228872069Y-126419425D01*
X228880107Y-125959965D01*
X228888146Y-125500505D01*
X228973543Y-125456344D01*
X229036593Y-125426019D01*
X229073910Y-125412258D01*
X229074987Y-125412184D01*
X229080124Y-125439840D01*
G37*
X229080124Y-125439840D02*
X229084579Y-125516653D01*
X229088071Y-125633391D01*
X229090315Y-125780821D01*
X229091035Y-125935455D01*
X229091035Y-126458727D01*
X228998645Y-126551117D01*
X228934978Y-126608047D01*
X228879089Y-126631107D01*
X228802702Y-126629647D01*
X228772380Y-126625934D01*
X228677610Y-126615126D01*
X228599222Y-126608933D01*
X228580115Y-126608361D01*
X228515699Y-126612102D01*
X228423571Y-126621494D01*
X228387850Y-126625934D01*
X228300114Y-126632801D01*
X228241153Y-126617885D01*
X228182690Y-126571835D01*
X228161585Y-126551117D01*
X228069195Y-126458727D01*
X228069195Y-125479947D01*
X228143558Y-125446066D01*
X228207590Y-125420970D01*
X228245052Y-125412184D01*
X228254657Y-125439950D01*
X228263635Y-125517530D01*
X228271386Y-125636348D01*
X228277314Y-125787828D01*
X228280173Y-125915805D01*
X228288161Y-126419425D01*
X228357848Y-126429278D01*
X228421229Y-126422389D01*
X228452286Y-126400083D01*
X228460967Y-126358379D01*
X228468378Y-126269544D01*
X228473931Y-126144834D01*
X228477036Y-125995507D01*
X228477484Y-125918661D01*
X228477931Y-125476287D01*
X228569874Y-125444235D01*
X228634949Y-125422443D01*
X228670347Y-125412281D01*
X228671368Y-125412184D01*
X228674920Y-125439809D01*
X228678823Y-125516411D01*
X228682751Y-125632579D01*
X228686376Y-125778904D01*
X228688908Y-125915805D01*
X228696897Y-126419425D01*
X228872069Y-126419425D01*
X228880107Y-125959965D01*
X228888146Y-125500505D01*
X228973543Y-125456344D01*
X229036593Y-125426019D01*
X229073910Y-125412258D01*
X229074987Y-125412184D01*
X229080124Y-125439840D01*
G36*
X229814406Y-125435156D02*
G01*
X229898469Y-125473393D01*
X229964450Y-125519726D01*
X230012794Y-125571532D01*
X230046172Y-125638363D01*
X230067253Y-125729769D01*
X230078707Y-125855301D01*
X230083203Y-126024508D01*
X230083678Y-126135933D01*
X230083678Y-126570627D01*
X230009316Y-126604509D01*
X229950746Y-126629272D01*
X229921730Y-126638391D01*
X229916179Y-126611257D01*
X229911775Y-126538094D01*
X229909078Y-126431263D01*
X229908506Y-126346437D01*
X229906046Y-126223887D01*
X229899412Y-126126668D01*
X229889726Y-126067134D01*
X229882032Y-126054483D01*
X229830311Y-126067402D01*
X229749117Y-126100539D01*
X229655102Y-126145461D01*
X229564917Y-126193735D01*
X229495215Y-126236928D01*
X229462648Y-126266608D01*
X229462519Y-126266929D01*
X229465320Y-126321857D01*
X229490439Y-126374292D01*
X229534541Y-126416881D01*
X229598909Y-126431126D01*
X229653921Y-126429466D01*
X229731835Y-126428245D01*
X229772732Y-126446498D01*
X229797295Y-126494726D01*
X229800392Y-126503820D01*
X229811040Y-126572598D01*
X229782565Y-126614360D01*
X229708344Y-126634263D01*
X229628168Y-126637944D01*
X229483890Y-126610658D01*
X229409203Y-126571690D01*
X229316963Y-126480148D01*
X229268043Y-126367782D01*
X229263654Y-126249051D01*
X229305001Y-126138411D01*
X229367197Y-126069080D01*
X229429294Y-126030265D01*
X229526895Y-125981125D01*
X229640632Y-125931292D01*
X229659590Y-125923677D01*
X229784521Y-125868545D01*
X229856539Y-125819954D01*
X229879700Y-125771647D01*
X229858064Y-125717370D01*
X229820920Y-125674943D01*
X229733127Y-125622702D01*
X229636530Y-125618784D01*
X229547944Y-125659041D01*
X229484186Y-125739326D01*
X229475817Y-125760040D01*
X229427096Y-125836225D01*
X229355965Y-125892785D01*
X229266207Y-125939201D01*
X229266207Y-125807584D01*
X229271490Y-125727168D01*
X229294142Y-125663786D01*
X229344367Y-125596163D01*
X229392582Y-125544076D01*
X229467554Y-125470322D01*
X229525806Y-125430702D01*
X229588372Y-125414810D01*
X229659193Y-125412184D01*
X229814406Y-125435156D01*
G37*
X229814406Y-125435156D02*
X229898469Y-125473393D01*
X229964450Y-125519726D01*
X230012794Y-125571532D01*
X230046172Y-125638363D01*
X230067253Y-125729769D01*
X230078707Y-125855301D01*
X230083203Y-126024508D01*
X230083678Y-126135933D01*
X230083678Y-126570627D01*
X230009316Y-126604509D01*
X229950746Y-126629272D01*
X229921730Y-126638391D01*
X229916179Y-126611257D01*
X229911775Y-126538094D01*
X229909078Y-126431263D01*
X229908506Y-126346437D01*
X229906046Y-126223887D01*
X229899412Y-126126668D01*
X229889726Y-126067134D01*
X229882032Y-126054483D01*
X229830311Y-126067402D01*
X229749117Y-126100539D01*
X229655102Y-126145461D01*
X229564917Y-126193735D01*
X229495215Y-126236928D01*
X229462648Y-126266608D01*
X229462519Y-126266929D01*
X229465320Y-126321857D01*
X229490439Y-126374292D01*
X229534541Y-126416881D01*
X229598909Y-126431126D01*
X229653921Y-126429466D01*
X229731835Y-126428245D01*
X229772732Y-126446498D01*
X229797295Y-126494726D01*
X229800392Y-126503820D01*
X229811040Y-126572598D01*
X229782565Y-126614360D01*
X229708344Y-126634263D01*
X229628168Y-126637944D01*
X229483890Y-126610658D01*
X229409203Y-126571690D01*
X229316963Y-126480148D01*
X229268043Y-126367782D01*
X229263654Y-126249051D01*
X229305001Y-126138411D01*
X229367197Y-126069080D01*
X229429294Y-126030265D01*
X229526895Y-125981125D01*
X229640632Y-125931292D01*
X229659590Y-125923677D01*
X229784521Y-125868545D01*
X229856539Y-125819954D01*
X229879700Y-125771647D01*
X229858064Y-125717370D01*
X229820920Y-125674943D01*
X229733127Y-125622702D01*
X229636530Y-125618784D01*
X229547944Y-125659041D01*
X229484186Y-125739326D01*
X229475817Y-125760040D01*
X229427096Y-125836225D01*
X229355965Y-125892785D01*
X229266207Y-125939201D01*
X229266207Y-125807584D01*
X229271490Y-125727168D01*
X229294142Y-125663786D01*
X229344367Y-125596163D01*
X229392582Y-125544076D01*
X229467554Y-125470322D01*
X229525806Y-125430702D01*
X229588372Y-125414810D01*
X229659193Y-125412184D01*
X229814406Y-125435156D01*
G36*
X230835690Y-125440018D02*
G01*
X230870585Y-125455269D01*
X230953877Y-125521235D01*
X231025103Y-125616618D01*
X231069153Y-125718406D01*
X231076322Y-125768587D01*
X231052285Y-125838647D01*
X230999561Y-125875717D01*
X230943031Y-125898164D01*
X230917146Y-125902300D01*
X230904542Y-125872283D01*
X230879654Y-125806961D01*
X230868735Y-125777445D01*
X230807508Y-125675348D01*
X230718861Y-125624423D01*
X230605193Y-125625989D01*
X230596774Y-125627994D01*
X230536088Y-125656767D01*
X230491474Y-125712859D01*
X230461002Y-125803163D01*
X230442744Y-125934571D01*
X230434771Y-126113974D01*
X230434023Y-126209433D01*
X230433652Y-126359913D01*
X230431223Y-126462495D01*
X230424760Y-126527672D01*
X230412288Y-126565938D01*
X230391833Y-126587785D01*
X230361419Y-126603707D01*
X230359661Y-126604509D01*
X230301091Y-126629272D01*
X230272075Y-126638391D01*
X230267616Y-126610822D01*
X230263799Y-126534620D01*
X230260899Y-126419541D01*
X230259191Y-126275341D01*
X230258851Y-126169814D01*
X230260588Y-125965613D01*
X230267382Y-125810697D01*
X230281607Y-125696024D01*
X230305638Y-125612551D01*
X230341848Y-125551236D01*
X230392612Y-125503034D01*
X230442739Y-125469393D01*
X230563275Y-125424619D01*
X230703557Y-125414521D01*
X230835690Y-125440018D01*
G37*
X230835690Y-125440018D02*
X230870585Y-125455269D01*
X230953877Y-125521235D01*
X231025103Y-125616618D01*
X231069153Y-125718406D01*
X231076322Y-125768587D01*
X231052285Y-125838647D01*
X230999561Y-125875717D01*
X230943031Y-125898164D01*
X230917146Y-125902300D01*
X230904542Y-125872283D01*
X230879654Y-125806961D01*
X230868735Y-125777445D01*
X230807508Y-125675348D01*
X230718861Y-125624423D01*
X230605193Y-125625989D01*
X230596774Y-125627994D01*
X230536088Y-125656767D01*
X230491474Y-125712859D01*
X230461002Y-125803163D01*
X230442744Y-125934571D01*
X230434771Y-126113974D01*
X230434023Y-126209433D01*
X230433652Y-126359913D01*
X230431223Y-126462495D01*
X230424760Y-126527672D01*
X230412288Y-126565938D01*
X230391833Y-126587785D01*
X230361419Y-126603707D01*
X230359661Y-126604509D01*
X230301091Y-126629272D01*
X230272075Y-126638391D01*
X230267616Y-126610822D01*
X230263799Y-126534620D01*
X230260899Y-126419541D01*
X230259191Y-126275341D01*
X230258851Y-126169814D01*
X230260588Y-125965613D01*
X230267382Y-125810697D01*
X230281607Y-125696024D01*
X230305638Y-125612551D01*
X230341848Y-125551236D01*
X230392612Y-125503034D01*
X230442739Y-125469393D01*
X230563275Y-125424619D01*
X230703557Y-125414521D01*
X230835690Y-125440018D01*
G36*
X231843439Y-125456540D02*
G01*
X231958950Y-125532034D01*
X232014664Y-125599617D01*
X232058804Y-125722255D01*
X232062309Y-125819298D01*
X232054368Y-125949056D01*
X231755115Y-126080039D01*
X231609611Y-126146958D01*
X231514537Y-126200790D01*
X231465101Y-126247416D01*
X231456511Y-126292720D01*
X231483972Y-126342582D01*
X231514253Y-126375632D01*
X231602363Y-126428633D01*
X231698196Y-126432347D01*
X231786212Y-126391041D01*
X231850869Y-126308983D01*
X231862433Y-126280008D01*
X231917825Y-126189509D01*
X231981553Y-126150940D01*
X232068966Y-126117946D01*
X232068966Y-126243034D01*
X232061238Y-126328156D01*
X232030966Y-126399938D01*
X231967518Y-126482356D01*
X231958088Y-126493066D01*
X231887513Y-126566391D01*
X231826847Y-126605742D01*
X231750950Y-126623845D01*
X231688030Y-126629774D01*
X231575487Y-126631251D01*
X231495370Y-126612535D01*
X231445390Y-126584747D01*
X231366838Y-126523641D01*
X231312463Y-126457554D01*
X231278052Y-126374441D01*
X231259388Y-126262254D01*
X231252256Y-126108946D01*
X231251687Y-126031136D01*
X231253622Y-125937853D01*
X231429899Y-125937853D01*
X231431944Y-125987896D01*
X231437039Y-125996092D01*
X231470666Y-125984958D01*
X231543030Y-125955493D01*
X231639747Y-125913601D01*
X231659973Y-125904597D01*
X231782203Y-125842442D01*
X231849547Y-125787815D01*
X231864348Y-125736649D01*
X231828947Y-125684876D01*
X231799711Y-125662000D01*
X231694216Y-125616250D01*
X231595476Y-125623808D01*
X231512812Y-125679651D01*
X231455548Y-125778753D01*
X231437188Y-125857414D01*
X231429899Y-125937853D01*
X231253622Y-125937853D01*
X231255459Y-125849351D01*
X231269359Y-125714853D01*
X231296894Y-125616916D01*
X231341572Y-125544811D01*
X231406901Y-125487813D01*
X231435383Y-125469393D01*
X231564763Y-125421422D01*
X231706412Y-125418403D01*
X231843439Y-125456540D01*
G37*
X231843439Y-125456540D02*
X231958950Y-125532034D01*
X232014664Y-125599617D01*
X232058804Y-125722255D01*
X232062309Y-125819298D01*
X232054368Y-125949056D01*
X231755115Y-126080039D01*
X231609611Y-126146958D01*
X231514537Y-126200790D01*
X231465101Y-126247416D01*
X231456511Y-126292720D01*
X231483972Y-126342582D01*
X231514253Y-126375632D01*
X231602363Y-126428633D01*
X231698196Y-126432347D01*
X231786212Y-126391041D01*
X231850869Y-126308983D01*
X231862433Y-126280008D01*
X231917825Y-126189509D01*
X231981553Y-126150940D01*
X232068966Y-126117946D01*
X232068966Y-126243034D01*
X232061238Y-126328156D01*
X232030966Y-126399938D01*
X231967518Y-126482356D01*
X231958088Y-126493066D01*
X231887513Y-126566391D01*
X231826847Y-126605742D01*
X231750950Y-126623845D01*
X231688030Y-126629774D01*
X231575487Y-126631251D01*
X231495370Y-126612535D01*
X231445390Y-126584747D01*
X231366838Y-126523641D01*
X231312463Y-126457554D01*
X231278052Y-126374441D01*
X231259388Y-126262254D01*
X231252256Y-126108946D01*
X231251687Y-126031136D01*
X231253622Y-125937853D01*
X231429899Y-125937853D01*
X231431944Y-125987896D01*
X231437039Y-125996092D01*
X231470666Y-125984958D01*
X231543030Y-125955493D01*
X231639747Y-125913601D01*
X231659973Y-125904597D01*
X231782203Y-125842442D01*
X231849547Y-125787815D01*
X231864348Y-125736649D01*
X231828947Y-125684876D01*
X231799711Y-125662000D01*
X231694216Y-125616250D01*
X231595476Y-125623808D01*
X231512812Y-125679651D01*
X231455548Y-125778753D01*
X231437188Y-125857414D01*
X231429899Y-125937853D01*
X231253622Y-125937853D01*
X231255459Y-125849351D01*
X231269359Y-125714853D01*
X231296894Y-125616916D01*
X231341572Y-125544811D01*
X231406901Y-125487813D01*
X231435383Y-125469393D01*
X231564763Y-125421422D01*
X231706412Y-125418403D01*
X231843439Y-125456540D01*
G36*
X225709014Y-115952998D02*
G01*
X225867006Y-115953863D01*
X225981347Y-115956205D01*
X226059407Y-115960762D01*
X226108554Y-115968270D01*
X226136159Y-115979466D01*
X226149592Y-115995088D01*
X226156221Y-116015873D01*
X226156865Y-116018563D01*
X226166935Y-116067113D01*
X226185575Y-116162905D01*
X226210845Y-116295743D01*
X226240807Y-116455431D01*
X226273522Y-116631774D01*
X226274664Y-116637967D01*
X226307433Y-116810782D01*
X226338093Y-116963469D01*
X226364664Y-117086871D01*
X226385167Y-117171831D01*
X226397626Y-117209190D01*
X226398220Y-117209852D01*
X226434919Y-117228095D01*
X226510586Y-117258497D01*
X226608878Y-117294493D01*
X226609425Y-117294685D01*
X226733233Y-117341222D01*
X226879196Y-117400504D01*
X227016781Y-117460109D01*
X227023293Y-117463056D01*
X227247390Y-117564765D01*
X227743619Y-117225897D01*
X227895846Y-117122592D01*
X228033741Y-117030237D01*
X228149315Y-116954084D01*
X228234579Y-116899385D01*
X228281544Y-116871393D01*
X228286004Y-116869317D01*
X228320134Y-116878560D01*
X228383881Y-116923156D01*
X228479731Y-117005209D01*
X228610169Y-117126821D01*
X228743328Y-117256205D01*
X228871694Y-117383702D01*
X228986581Y-117500046D01*
X229081073Y-117598052D01*
X229148253Y-117670536D01*
X229181206Y-117710313D01*
X229182432Y-117712361D01*
X229186074Y-117739656D01*
X229172350Y-117784234D01*
X229137869Y-117852112D01*
X229079239Y-117949311D01*
X228993070Y-118081851D01*
X228878200Y-118252476D01*
X228776254Y-118402655D01*
X228685123Y-118537350D01*
X228610073Y-118648740D01*
X228556369Y-118729005D01*
X228529280Y-118770325D01*
X228527574Y-118773130D01*
X228530882Y-118812721D01*
X228555953Y-118889669D01*
X228597798Y-118989432D01*
X228612712Y-119021291D01*
X228677786Y-119163226D01*
X228747212Y-119324273D01*
X228803609Y-119463621D01*
X228844247Y-119567044D01*
X228876526Y-119645642D01*
X228895178Y-119686720D01*
X228897497Y-119689885D01*
X228931803Y-119695128D01*
X229012669Y-119709494D01*
X229129343Y-119730937D01*
X229271075Y-119757413D01*
X229427110Y-119786877D01*
X229586698Y-119817283D01*
X229739085Y-119846588D01*
X229873521Y-119872745D01*
X229979252Y-119893710D01*
X230045526Y-119907439D01*
X230061782Y-119911320D01*
X230078573Y-119920900D01*
X230091249Y-119942536D01*
X230100378Y-119983531D01*
X230106531Y-120051189D01*
X230110280Y-120152812D01*
X230112192Y-120295703D01*
X230112840Y-120487165D01*
X230112874Y-120565645D01*
X230112874Y-121203906D01*
X229959598Y-121234160D01*
X229874322Y-121250564D01*
X229747070Y-121274509D01*
X229593315Y-121303107D01*
X229428534Y-121333467D01*
X229382989Y-121341806D01*
X229230932Y-121371370D01*
X229098468Y-121400442D01*
X228996714Y-121426329D01*
X228936788Y-121446337D01*
X228926805Y-121452301D01*
X228902293Y-121494534D01*
X228867148Y-121576370D01*
X228828173Y-121681683D01*
X228820442Y-121704368D01*
X228769360Y-121845018D01*
X228705954Y-122003714D01*
X228643904Y-122146225D01*
X228643598Y-122146886D01*
X228540267Y-122370440D01*
X229219961Y-123370232D01*
X228783621Y-123807300D01*
X228651649Y-123937381D01*
X228531279Y-124052048D01*
X228429273Y-124145181D01*
X228352391Y-124210658D01*
X228307393Y-124242357D01*
X228300938Y-124244368D01*
X228263040Y-124228529D01*
X228185708Y-124184496D01*
X228077389Y-124117490D01*
X227946532Y-124032734D01*
X227805052Y-123937816D01*
X227661461Y-123840998D01*
X227533435Y-123756751D01*
X227429105Y-123690258D01*
X227356600Y-123646702D01*
X227324158Y-123631264D01*
X227284576Y-123644328D01*
X227209519Y-123678750D01*
X227114468Y-123727380D01*
X227104392Y-123732785D01*
X226976391Y-123796980D01*
X226888618Y-123828463D01*
X226834028Y-123828798D01*
X226805575Y-123799548D01*
X226805410Y-123799138D01*
X226791188Y-123764498D01*
X226757269Y-123682269D01*
X226706284Y-123558814D01*
X226640862Y-123400498D01*
X226563634Y-123213686D01*
X226477229Y-123004742D01*
X226393551Y-122802446D01*
X226301588Y-122579200D01*
X226217150Y-122372392D01*
X226142769Y-122188362D01*
X226080974Y-122033451D01*
X226034297Y-121913996D01*
X226005268Y-121836339D01*
X225996322Y-121807356D01*
X226018756Y-121774110D01*
X226077439Y-121721123D01*
X226155689Y-121662704D01*
X226378534Y-121477952D01*
X226552718Y-121266182D01*
X226676154Y-121031856D01*
X226746754Y-120779434D01*
X226762431Y-120513377D01*
X226751036Y-120390575D01*
X226688950Y-120135793D01*
X226582023Y-119910801D01*
X226436889Y-119717817D01*
X226260178Y-119559061D01*
X226058522Y-119436750D01*
X225838554Y-119353105D01*
X225606906Y-119310344D01*
X225370209Y-119310687D01*
X225135095Y-119356352D01*
X224908196Y-119449559D01*
X224696144Y-119592527D01*
X224607636Y-119673383D01*
X224437889Y-119881007D01*
X224319699Y-120107895D01*
X224252278Y-120347433D01*
X224234840Y-120593007D01*
X224266598Y-120838003D01*
X224346765Y-121075808D01*
X224474555Y-121299807D01*
X224649180Y-121503387D01*
X224844312Y-121662704D01*
X224925591Y-121723602D01*
X224983009Y-121776015D01*
X225003678Y-121807406D01*
X224992856Y-121841639D01*
X224962077Y-121923419D01*
X224913874Y-122046407D01*
X224850778Y-122204263D01*
X224775322Y-122390649D01*
X224690038Y-122599226D01*
X224606219Y-122802496D01*
X224513745Y-123025933D01*
X224428089Y-123232984D01*
X224351882Y-123417286D01*
X224287753Y-123572475D01*
X224238332Y-123692188D01*
X224206248Y-123770061D01*
X224194359Y-123799138D01*
X224166274Y-123828677D01*
X224111949Y-123828591D01*
X224024395Y-123797326D01*
X223896619Y-123733329D01*
X223895608Y-123732785D01*
X223799402Y-123683121D01*
X223721631Y-123646945D01*
X223677777Y-123631408D01*
X223675842Y-123631264D01*
X223642829Y-123647024D01*
X223569946Y-123690850D01*
X223465322Y-123757557D01*
X223337090Y-123841964D01*
X223194948Y-123937816D01*
X223050233Y-124034867D01*
X222919804Y-124119270D01*
X222812110Y-124185801D01*
X222735598Y-124229238D01*
X222699062Y-124244368D01*
X222665418Y-124224482D01*
X222597776Y-124168903D01*
X222502893Y-124083754D01*
X222387530Y-123975153D01*
X222258445Y-123849221D01*
X222216229Y-123807149D01*
X221779739Y-123369931D01*
X222111977Y-122882340D01*
X222212946Y-122732605D01*
X222301562Y-122598220D01*
X222372854Y-122486969D01*
X222421850Y-122406639D01*
X222443578Y-122365014D01*
X222444215Y-122362053D01*
X222432760Y-122322818D01*
X222401949Y-122243895D01*
X222357116Y-122138509D01*
X222325647Y-122067954D01*
X222266808Y-121932876D01*
X222211396Y-121796409D01*
X222168436Y-121681103D01*
X222156766Y-121645977D01*
X222123611Y-121552174D01*
X222091201Y-121479694D01*
X222073399Y-121452301D01*
X222034114Y-121435536D01*
X221948374Y-121411770D01*
X221827303Y-121383697D01*
X221682027Y-121354009D01*
X221617012Y-121341806D01*
X221451913Y-121311468D01*
X221293552Y-121282093D01*
X221157404Y-121256569D01*
X221058943Y-121237785D01*
X221040402Y-121234160D01*
X220887127Y-121203906D01*
X220887127Y-120565645D01*
X220887471Y-120355770D01*
X220888884Y-120196980D01*
X220891936Y-120081973D01*
X220897197Y-120003446D01*
X220905237Y-119954096D01*
X220916627Y-119926619D01*
X220931937Y-119913713D01*
X220938218Y-119911320D01*
X220976104Y-119902833D01*
X221059805Y-119885900D01*
X221178567Y-119862566D01*
X221321639Y-119834875D01*
X221478268Y-119804873D01*
X221637703Y-119774604D01*
X221789191Y-119746115D01*
X221921981Y-119721449D01*
X222025319Y-119702651D01*
X222088455Y-119691767D01*
X222102503Y-119689885D01*
X222115230Y-119664704D01*
X222143400Y-119597622D01*
X222181748Y-119501333D01*
X222196391Y-119463621D01*
X222255452Y-119317921D01*
X222325000Y-119156951D01*
X222387288Y-119021291D01*
X222433121Y-118917561D01*
X222463613Y-118832326D01*
X222473792Y-118780126D01*
X222472169Y-118773130D01*
X222450657Y-118740102D01*
X222401535Y-118666643D01*
X222330077Y-118560577D01*
X222241555Y-118429726D01*
X222141241Y-118281912D01*
X222121406Y-118252734D01*
X222005012Y-118079863D01*
X221919452Y-117948226D01*
X221861316Y-117851761D01*
X221827192Y-117784408D01*
X221813669Y-117740106D01*
X221817336Y-117712794D01*
X221817430Y-117712620D01*
X221846293Y-117676746D01*
X221910133Y-117607391D01*
X222002031Y-117511745D01*
X222115067Y-117396999D01*
X222242321Y-117270341D01*
X222256672Y-117256205D01*
X222417043Y-117100903D01*
X222540805Y-116986870D01*
X222630445Y-116912002D01*
X222688448Y-116874196D01*
X222713996Y-116869317D01*
X222751282Y-116890603D01*
X222828657Y-116939773D01*
X222938133Y-117011575D01*
X223071720Y-117100755D01*
X223221430Y-117202063D01*
X223256382Y-117225897D01*
X223752610Y-117564765D01*
X223976707Y-117463056D01*
X224112989Y-117403783D01*
X224259276Y-117344170D01*
X224385035Y-117296640D01*
X224390575Y-117294685D01*
X224488943Y-117258677D01*
X224564771Y-117228229D01*
X224601718Y-117209905D01*
X224601780Y-117209852D01*
X224613504Y-117176729D01*
X224633432Y-117095267D01*
X224659587Y-116974625D01*
X224689990Y-116823959D01*
X224722663Y-116652428D01*
X224725336Y-116637967D01*
X224758110Y-116461235D01*
X224788198Y-116300810D01*
X224813661Y-116166888D01*
X224832559Y-116069663D01*
X224842953Y-116019332D01*
X224843135Y-116018563D01*
X224849461Y-115997153D01*
X224861761Y-115980988D01*
X224887406Y-115969331D01*
X224933765Y-115961445D01*
X225008208Y-115956593D01*
X225118105Y-115954039D01*
X225270825Y-115953045D01*
X225473738Y-115952874D01*
X225500000Y-115952874D01*
X225709014Y-115952998D01*
G37*
X225709014Y-115952998D02*
X225867006Y-115953863D01*
X225981347Y-115956205D01*
X226059407Y-115960762D01*
X226108554Y-115968270D01*
X226136159Y-115979466D01*
X226149592Y-115995088D01*
X226156221Y-116015873D01*
X226156865Y-116018563D01*
X226166935Y-116067113D01*
X226185575Y-116162905D01*
X226210845Y-116295743D01*
X226240807Y-116455431D01*
X226273522Y-116631774D01*
X226274664Y-116637967D01*
X226307433Y-116810782D01*
X226338093Y-116963469D01*
X226364664Y-117086871D01*
X226385167Y-117171831D01*
X226397626Y-117209190D01*
X226398220Y-117209852D01*
X226434919Y-117228095D01*
X226510586Y-117258497D01*
X226608878Y-117294493D01*
X226609425Y-117294685D01*
X226733233Y-117341222D01*
X226879196Y-117400504D01*
X227016781Y-117460109D01*
X227023293Y-117463056D01*
X227247390Y-117564765D01*
X227743619Y-117225897D01*
X227895846Y-117122592D01*
X228033741Y-117030237D01*
X228149315Y-116954084D01*
X228234579Y-116899385D01*
X228281544Y-116871393D01*
X228286004Y-116869317D01*
X228320134Y-116878560D01*
X228383881Y-116923156D01*
X228479731Y-117005209D01*
X228610169Y-117126821D01*
X228743328Y-117256205D01*
X228871694Y-117383702D01*
X228986581Y-117500046D01*
X229081073Y-117598052D01*
X229148253Y-117670536D01*
X229181206Y-117710313D01*
X229182432Y-117712361D01*
X229186074Y-117739656D01*
X229172350Y-117784234D01*
X229137869Y-117852112D01*
X229079239Y-117949311D01*
X228993070Y-118081851D01*
X228878200Y-118252476D01*
X228776254Y-118402655D01*
X228685123Y-118537350D01*
X228610073Y-118648740D01*
X228556369Y-118729005D01*
X228529280Y-118770325D01*
X228527574Y-118773130D01*
X228530882Y-118812721D01*
X228555953Y-118889669D01*
X228597798Y-118989432D01*
X228612712Y-119021291D01*
X228677786Y-119163226D01*
X228747212Y-119324273D01*
X228803609Y-119463621D01*
X228844247Y-119567044D01*
X228876526Y-119645642D01*
X228895178Y-119686720D01*
X228897497Y-119689885D01*
X228931803Y-119695128D01*
X229012669Y-119709494D01*
X229129343Y-119730937D01*
X229271075Y-119757413D01*
X229427110Y-119786877D01*
X229586698Y-119817283D01*
X229739085Y-119846588D01*
X229873521Y-119872745D01*
X229979252Y-119893710D01*
X230045526Y-119907439D01*
X230061782Y-119911320D01*
X230078573Y-119920900D01*
X230091249Y-119942536D01*
X230100378Y-119983531D01*
X230106531Y-120051189D01*
X230110280Y-120152812D01*
X230112192Y-120295703D01*
X230112840Y-120487165D01*
X230112874Y-120565645D01*
X230112874Y-121203906D01*
X229959598Y-121234160D01*
X229874322Y-121250564D01*
X229747070Y-121274509D01*
X229593315Y-121303107D01*
X229428534Y-121333467D01*
X229382989Y-121341806D01*
X229230932Y-121371370D01*
X229098468Y-121400442D01*
X228996714Y-121426329D01*
X228936788Y-121446337D01*
X228926805Y-121452301D01*
X228902293Y-121494534D01*
X228867148Y-121576370D01*
X228828173Y-121681683D01*
X228820442Y-121704368D01*
X228769360Y-121845018D01*
X228705954Y-122003714D01*
X228643904Y-122146225D01*
X228643598Y-122146886D01*
X228540267Y-122370440D01*
X229219961Y-123370232D01*
X228783621Y-123807300D01*
X228651649Y-123937381D01*
X228531279Y-124052048D01*
X228429273Y-124145181D01*
X228352391Y-124210658D01*
X228307393Y-124242357D01*
X228300938Y-124244368D01*
X228263040Y-124228529D01*
X228185708Y-124184496D01*
X228077389Y-124117490D01*
X227946532Y-124032734D01*
X227805052Y-123937816D01*
X227661461Y-123840998D01*
X227533435Y-123756751D01*
X227429105Y-123690258D01*
X227356600Y-123646702D01*
X227324158Y-123631264D01*
X227284576Y-123644328D01*
X227209519Y-123678750D01*
X227114468Y-123727380D01*
X227104392Y-123732785D01*
X226976391Y-123796980D01*
X226888618Y-123828463D01*
X226834028Y-123828798D01*
X226805575Y-123799548D01*
X226805410Y-123799138D01*
X226791188Y-123764498D01*
X226757269Y-123682269D01*
X226706284Y-123558814D01*
X226640862Y-123400498D01*
X226563634Y-123213686D01*
X226477229Y-123004742D01*
X226393551Y-122802446D01*
X226301588Y-122579200D01*
X226217150Y-122372392D01*
X226142769Y-122188362D01*
X226080974Y-122033451D01*
X226034297Y-121913996D01*
X226005268Y-121836339D01*
X225996322Y-121807356D01*
X226018756Y-121774110D01*
X226077439Y-121721123D01*
X226155689Y-121662704D01*
X226378534Y-121477952D01*
X226552718Y-121266182D01*
X226676154Y-121031856D01*
X226746754Y-120779434D01*
X226762431Y-120513377D01*
X226751036Y-120390575D01*
X226688950Y-120135793D01*
X226582023Y-119910801D01*
X226436889Y-119717817D01*
X226260178Y-119559061D01*
X226058522Y-119436750D01*
X225838554Y-119353105D01*
X225606906Y-119310344D01*
X225370209Y-119310687D01*
X225135095Y-119356352D01*
X224908196Y-119449559D01*
X224696144Y-119592527D01*
X224607636Y-119673383D01*
X224437889Y-119881007D01*
X224319699Y-120107895D01*
X224252278Y-120347433D01*
X224234840Y-120593007D01*
X224266598Y-120838003D01*
X224346765Y-121075808D01*
X224474555Y-121299807D01*
X224649180Y-121503387D01*
X224844312Y-121662704D01*
X224925591Y-121723602D01*
X224983009Y-121776015D01*
X225003678Y-121807406D01*
X224992856Y-121841639D01*
X224962077Y-121923419D01*
X224913874Y-122046407D01*
X224850778Y-122204263D01*
X224775322Y-122390649D01*
X224690038Y-122599226D01*
X224606219Y-122802496D01*
X224513745Y-123025933D01*
X224428089Y-123232984D01*
X224351882Y-123417286D01*
X224287753Y-123572475D01*
X224238332Y-123692188D01*
X224206248Y-123770061D01*
X224194359Y-123799138D01*
X224166274Y-123828677D01*
X224111949Y-123828591D01*
X224024395Y-123797326D01*
X223896619Y-123733329D01*
X223895608Y-123732785D01*
X223799402Y-123683121D01*
X223721631Y-123646945D01*
X223677777Y-123631408D01*
X223675842Y-123631264D01*
X223642829Y-123647024D01*
X223569946Y-123690850D01*
X223465322Y-123757557D01*
X223337090Y-123841964D01*
X223194948Y-123937816D01*
X223050233Y-124034867D01*
X222919804Y-124119270D01*
X222812110Y-124185801D01*
X222735598Y-124229238D01*
X222699062Y-124244368D01*
X222665418Y-124224482D01*
X222597776Y-124168903D01*
X222502893Y-124083754D01*
X222387530Y-123975153D01*
X222258445Y-123849221D01*
X222216229Y-123807149D01*
X221779739Y-123369931D01*
X222111977Y-122882340D01*
X222212946Y-122732605D01*
X222301562Y-122598220D01*
X222372854Y-122486969D01*
X222421850Y-122406639D01*
X222443578Y-122365014D01*
X222444215Y-122362053D01*
X222432760Y-122322818D01*
X222401949Y-122243895D01*
X222357116Y-122138509D01*
X222325647Y-122067954D01*
X222266808Y-121932876D01*
X222211396Y-121796409D01*
X222168436Y-121681103D01*
X222156766Y-121645977D01*
X222123611Y-121552174D01*
X222091201Y-121479694D01*
X222073399Y-121452301D01*
X222034114Y-121435536D01*
X221948374Y-121411770D01*
X221827303Y-121383697D01*
X221682027Y-121354009D01*
X221617012Y-121341806D01*
X221451913Y-121311468D01*
X221293552Y-121282093D01*
X221157404Y-121256569D01*
X221058943Y-121237785D01*
X221040402Y-121234160D01*
X220887127Y-121203906D01*
X220887127Y-120565645D01*
X220887471Y-120355770D01*
X220888884Y-120196980D01*
X220891936Y-120081973D01*
X220897197Y-120003446D01*
X220905237Y-119954096D01*
X220916627Y-119926619D01*
X220931937Y-119913713D01*
X220938218Y-119911320D01*
X220976104Y-119902833D01*
X221059805Y-119885900D01*
X221178567Y-119862566D01*
X221321639Y-119834875D01*
X221478268Y-119804873D01*
X221637703Y-119774604D01*
X221789191Y-119746115D01*
X221921981Y-119721449D01*
X222025319Y-119702651D01*
X222088455Y-119691767D01*
X222102503Y-119689885D01*
X222115230Y-119664704D01*
X222143400Y-119597622D01*
X222181748Y-119501333D01*
X222196391Y-119463621D01*
X222255452Y-119317921D01*
X222325000Y-119156951D01*
X222387288Y-119021291D01*
X222433121Y-118917561D01*
X222463613Y-118832326D01*
X222473792Y-118780126D01*
X222472169Y-118773130D01*
X222450657Y-118740102D01*
X222401535Y-118666643D01*
X222330077Y-118560577D01*
X222241555Y-118429726D01*
X222141241Y-118281912D01*
X222121406Y-118252734D01*
X222005012Y-118079863D01*
X221919452Y-117948226D01*
X221861316Y-117851761D01*
X221827192Y-117784408D01*
X221813669Y-117740106D01*
X221817336Y-117712794D01*
X221817430Y-117712620D01*
X221846293Y-117676746D01*
X221910133Y-117607391D01*
X222002031Y-117511745D01*
X222115067Y-117396999D01*
X222242321Y-117270341D01*
X222256672Y-117256205D01*
X222417043Y-117100903D01*
X222540805Y-116986870D01*
X222630445Y-116912002D01*
X222688448Y-116874196D01*
X222713996Y-116869317D01*
X222751282Y-116890603D01*
X222828657Y-116939773D01*
X222938133Y-117011575D01*
X223071720Y-117100755D01*
X223221430Y-117202063D01*
X223256382Y-117225897D01*
X223752610Y-117564765D01*
X223976707Y-117463056D01*
X224112989Y-117403783D01*
X224259276Y-117344170D01*
X224385035Y-117296640D01*
X224390575Y-117294685D01*
X224488943Y-117258677D01*
X224564771Y-117228229D01*
X224601718Y-117209905D01*
X224601780Y-117209852D01*
X224613504Y-117176729D01*
X224633432Y-117095267D01*
X224659587Y-116974625D01*
X224689990Y-116823959D01*
X224722663Y-116652428D01*
X224725336Y-116637967D01*
X224758110Y-116461235D01*
X224788198Y-116300810D01*
X224813661Y-116166888D01*
X224832559Y-116069663D01*
X224842953Y-116019332D01*
X224843135Y-116018563D01*
X224849461Y-115997153D01*
X224861761Y-115980988D01*
X224887406Y-115969331D01*
X224933765Y-115961445D01*
X225008208Y-115956593D01*
X225118105Y-115954039D01*
X225270825Y-115953045D01*
X225473738Y-115952874D01*
X225500000Y-115952874D01*
X225709014Y-115952998D01*
G04 #@! TD*
D11*
G04 #@! TO.P,+,1*
G04 #@! TO.N,+15V*
X236000000Y-122000000D03*
G04 #@! TD*
G04 #@! TO.P,GND,1*
G04 #@! TO.N,GND*
X214000000Y-122000000D03*
G04 #@! TD*
G04 #@! TO.P,D5,1*
G04 #@! TO.N,Net-(D4-Pad2)*
G04 #@! TA.AperFunction,SMDPad,CuDef*
G36*
G01*
X233670000Y-103974000D02*
X233670000Y-101824000D01*
G75*
G02*
X233920000Y-101574000I250000J0D01*
G01*
X234670000Y-101574000D01*
G75*
G02*
X234920000Y-101824000I0J-250000D01*
G01*
X234920000Y-103974000D01*
G75*
G02*
X234670000Y-104224000I-250000J0D01*
G01*
X233920000Y-104224000D01*
G75*
G02*
X233670000Y-103974000I0J250000D01*
G01*
G37*
G04 #@! TD.AperFunction*
G04 #@! TO.P,D5,2*
G04 #@! TO.N,+15V*
G04 #@! TA.AperFunction,SMDPad,CuDef*
G36*
G01*
X236470000Y-103974000D02*
X236470000Y-101824000D01*
G75*
G02*
X236720000Y-101574000I250000J0D01*
G01*
X237470000Y-101574000D01*
G75*
G02*
X237720000Y-101824000I0J-250000D01*
G01*
X237720000Y-103974000D01*
G75*
G02*
X237470000Y-104224000I-250000J0D01*
G01*
X236720000Y-104224000D01*
G75*
G02*
X236470000Y-103974000I0J250000D01*
G01*
G37*
G04 #@! TD.AperFunction*
G04 #@! TD*
G04 #@! TO.P,D4,1*
G04 #@! TO.N,Net-(D3-Pad2)*
G04 #@! TA.AperFunction,SMDPad,CuDef*
G36*
G01*
X228170000Y-103974000D02*
X228170000Y-101824000D01*
G75*
G02*
X228420000Y-101574000I250000J0D01*
G01*
X229170000Y-101574000D01*
G75*
G02*
X229420000Y-101824000I0J-250000D01*
G01*
X229420000Y-103974000D01*
G75*
G02*
X229170000Y-104224000I-250000J0D01*
G01*
X228420000Y-104224000D01*
G75*
G02*
X228170000Y-103974000I0J250000D01*
G01*
G37*
G04 #@! TD.AperFunction*
G04 #@! TO.P,D4,2*
G04 #@! TO.N,Net-(D4-Pad2)*
G04 #@! TA.AperFunction,SMDPad,CuDef*
G36*
G01*
X230970000Y-103974000D02*
X230970000Y-101824000D01*
G75*
G02*
X231220000Y-101574000I250000J0D01*
G01*
X231970000Y-101574000D01*
G75*
G02*
X232220000Y-101824000I0J-250000D01*
G01*
X232220000Y-103974000D01*
G75*
G02*
X231970000Y-104224000I-250000J0D01*
G01*
X231220000Y-104224000D01*
G75*
G02*
X230970000Y-103974000I0J250000D01*
G01*
G37*
G04 #@! TD.AperFunction*
G04 #@! TD*
G04 #@! TO.P,D3,1*
G04 #@! TO.N,Net-(D2-Pad2)*
G04 #@! TA.AperFunction,SMDPad,CuDef*
G36*
G01*
X222670000Y-103974000D02*
X222670000Y-101824000D01*
G75*
G02*
X222920000Y-101574000I250000J0D01*
G01*
X223670000Y-101574000D01*
G75*
G02*
X223920000Y-101824000I0J-250000D01*
G01*
X223920000Y-103974000D01*
G75*
G02*
X223670000Y-104224000I-250000J0D01*
G01*
X222920000Y-104224000D01*
G75*
G02*
X222670000Y-103974000I0J250000D01*
G01*
G37*
G04 #@! TD.AperFunction*
G04 #@! TO.P,D3,2*
G04 #@! TO.N,Net-(D3-Pad2)*
G04 #@! TA.AperFunction,SMDPad,CuDef*
G36*
G01*
X225470000Y-103974000D02*
X225470000Y-101824000D01*
G75*
G02*
X225720000Y-101574000I250000J0D01*
G01*
X226470000Y-101574000D01*
G75*
G02*
X226720000Y-101824000I0J-250000D01*
G01*
X226720000Y-103974000D01*
G75*
G02*
X226470000Y-104224000I-250000J0D01*
G01*
X225720000Y-104224000D01*
G75*
G02*
X225470000Y-103974000I0J250000D01*
G01*
G37*
G04 #@! TD.AperFunction*
G04 #@! TD*
G04 #@! TO.P,D2,1*
G04 #@! TO.N,Net-(D1-Pad2)*
G04 #@! TA.AperFunction,SMDPad,CuDef*
G36*
G01*
X217170000Y-103974000D02*
X217170000Y-101824000D01*
G75*
G02*
X217420000Y-101574000I250000J0D01*
G01*
X218170000Y-101574000D01*
G75*
G02*
X218420000Y-101824000I0J-250000D01*
G01*
X218420000Y-103974000D01*
G75*
G02*
X218170000Y-104224000I-250000J0D01*
G01*
X217420000Y-104224000D01*
G75*
G02*
X217170000Y-103974000I0J250000D01*
G01*
G37*
G04 #@! TD.AperFunction*
G04 #@! TO.P,D2,2*
G04 #@! TO.N,Net-(D2-Pad2)*
G04 #@! TA.AperFunction,SMDPad,CuDef*
G36*
G01*
X219970000Y-103974000D02*
X219970000Y-101824000D01*
G75*
G02*
X220220000Y-101574000I250000J0D01*
G01*
X220970000Y-101574000D01*
G75*
G02*
X221220000Y-101824000I0J-250000D01*
G01*
X221220000Y-103974000D01*
G75*
G02*
X220970000Y-104224000I-250000J0D01*
G01*
X220220000Y-104224000D01*
G75*
G02*
X219970000Y-103974000I0J250000D01*
G01*
G37*
G04 #@! TD.AperFunction*
G04 #@! TD*
G04 #@! TO.P,D1,1*
G04 #@! TO.N,GND*
G04 #@! TA.AperFunction,SMDPad,CuDef*
G36*
G01*
X211670000Y-103974000D02*
X211670000Y-101824000D01*
G75*
G02*
X211920000Y-101574000I250000J0D01*
G01*
X212670000Y-101574000D01*
G75*
G02*
X212920000Y-101824000I0J-250000D01*
G01*
X212920000Y-103974000D01*
G75*
G02*
X212670000Y-104224000I-250000J0D01*
G01*
X211920000Y-104224000D01*
G75*
G02*
X211670000Y-103974000I0J250000D01*
G01*
G37*
G04 #@! TD.AperFunction*
G04 #@! TO.P,D1,2*
G04 #@! TO.N,Net-(D1-Pad2)*
G04 #@! TA.AperFunction,SMDPad,CuDef*
G36*
G01*
X214470000Y-103974000D02*
X214470000Y-101824000D01*
G75*
G02*
X214720000Y-101574000I250000J0D01*
G01*
X215470000Y-101574000D01*
G75*
G02*
X215720000Y-101824000I0J-250000D01*
G01*
X215720000Y-103974000D01*
G75*
G02*
X215470000Y-104224000I-250000J0D01*
G01*
X214720000Y-104224000D01*
G75*
G02*
X214470000Y-103974000I0J250000D01*
G01*
G37*
G04 #@! TD.AperFunction*
G04 #@! TD*
G04 #@! TO.P,D10,1*
G04 #@! TO.N,Net-(D10-Pad1)*
G04 #@! TA.AperFunction,SMDPad,CuDef*
G36*
G01*
X233670000Y-98474000D02*
X233670000Y-96324000D01*
G75*
G02*
X233920000Y-96074000I250000J0D01*
G01*
X234670000Y-96074000D01*
G75*
G02*
X234920000Y-96324000I0J-250000D01*
G01*
X234920000Y-98474000D01*
G75*
G02*
X234670000Y-98724000I-250000J0D01*
G01*
X233920000Y-98724000D01*
G75*
G02*
X233670000Y-98474000I0J250000D01*
G01*
G37*
G04 #@! TD.AperFunction*
G04 #@! TO.P,D10,2*
G04 #@! TO.N,+15V*
G04 #@! TA.AperFunction,SMDPad,CuDef*
G36*
G01*
X236470000Y-98474000D02*
X236470000Y-96324000D01*
G75*
G02*
X236720000Y-96074000I250000J0D01*
G01*
X237470000Y-96074000D01*
G75*
G02*
X237720000Y-96324000I0J-250000D01*
G01*
X237720000Y-98474000D01*
G75*
G02*
X237470000Y-98724000I-250000J0D01*
G01*
X236720000Y-98724000D01*
G75*
G02*
X236470000Y-98474000I0J250000D01*
G01*
G37*
G04 #@! TD.AperFunction*
G04 #@! TD*
G04 #@! TO.P,D9,1*
G04 #@! TO.N,Net-(D8-Pad2)*
G04 #@! TA.AperFunction,SMDPad,CuDef*
G36*
G01*
X228170000Y-98474000D02*
X228170000Y-96324000D01*
G75*
G02*
X228420000Y-96074000I250000J0D01*
G01*
X229170000Y-96074000D01*
G75*
G02*
X229420000Y-96324000I0J-250000D01*
G01*
X229420000Y-98474000D01*
G75*
G02*
X229170000Y-98724000I-250000J0D01*
G01*
X228420000Y-98724000D01*
G75*
G02*
X228170000Y-98474000I0J250000D01*
G01*
G37*
G04 #@! TD.AperFunction*
G04 #@! TO.P,D9,2*
G04 #@! TO.N,Net-(D10-Pad1)*
G04 #@! TA.AperFunction,SMDPad,CuDef*
G36*
G01*
X230970000Y-98474000D02*
X230970000Y-96324000D01*
G75*
G02*
X231220000Y-96074000I250000J0D01*
G01*
X231970000Y-96074000D01*
G75*
G02*
X232220000Y-96324000I0J-250000D01*
G01*
X232220000Y-98474000D01*
G75*
G02*
X231970000Y-98724000I-250000J0D01*
G01*
X231220000Y-98724000D01*
G75*
G02*
X230970000Y-98474000I0J250000D01*
G01*
G37*
G04 #@! TD.AperFunction*
G04 #@! TD*
G04 #@! TO.P,D8,1*
G04 #@! TO.N,Net-(D7-Pad2)*
G04 #@! TA.AperFunction,SMDPad,CuDef*
G36*
G01*
X222670000Y-98474000D02*
X222670000Y-96324000D01*
G75*
G02*
X222920000Y-96074000I250000J0D01*
G01*
X223670000Y-96074000D01*
G75*
G02*
X223920000Y-96324000I0J-250000D01*
G01*
X223920000Y-98474000D01*
G75*
G02*
X223670000Y-98724000I-250000J0D01*
G01*
X222920000Y-98724000D01*
G75*
G02*
X222670000Y-98474000I0J250000D01*
G01*
G37*
G04 #@! TD.AperFunction*
G04 #@! TO.P,D8,2*
G04 #@! TO.N,Net-(D8-Pad2)*
G04 #@! TA.AperFunction,SMDPad,CuDef*
G36*
G01*
X225470000Y-98474000D02*
X225470000Y-96324000D01*
G75*
G02*
X225720000Y-96074000I250000J0D01*
G01*
X226470000Y-96074000D01*
G75*
G02*
X226720000Y-96324000I0J-250000D01*
G01*
X226720000Y-98474000D01*
G75*
G02*
X226470000Y-98724000I-250000J0D01*
G01*
X225720000Y-98724000D01*
G75*
G02*
X225470000Y-98474000I0J250000D01*
G01*
G37*
G04 #@! TD.AperFunction*
G04 #@! TD*
G04 #@! TO.P,D7,1*
G04 #@! TO.N,Net-(D6-Pad2)*
G04 #@! TA.AperFunction,SMDPad,CuDef*
G36*
G01*
X217170000Y-98474000D02*
X217170000Y-96324000D01*
G75*
G02*
X217420000Y-96074000I250000J0D01*
G01*
X218170000Y-96074000D01*
G75*
G02*
X218420000Y-96324000I0J-250000D01*
G01*
X218420000Y-98474000D01*
G75*
G02*
X218170000Y-98724000I-250000J0D01*
G01*
X217420000Y-98724000D01*
G75*
G02*
X217170000Y-98474000I0J250000D01*
G01*
G37*
G04 #@! TD.AperFunction*
G04 #@! TO.P,D7,2*
G04 #@! TO.N,Net-(D7-Pad2)*
G04 #@! TA.AperFunction,SMDPad,CuDef*
G36*
G01*
X219970000Y-98474000D02*
X219970000Y-96324000D01*
G75*
G02*
X220220000Y-96074000I250000J0D01*
G01*
X220970000Y-96074000D01*
G75*
G02*
X221220000Y-96324000I0J-250000D01*
G01*
X221220000Y-98474000D01*
G75*
G02*
X220970000Y-98724000I-250000J0D01*
G01*
X220220000Y-98724000D01*
G75*
G02*
X219970000Y-98474000I0J250000D01*
G01*
G37*
G04 #@! TD.AperFunction*
G04 #@! TD*
G04 #@! TO.P,D6,1*
G04 #@! TO.N,GND*
G04 #@! TA.AperFunction,SMDPad,CuDef*
G36*
G01*
X211670000Y-98474000D02*
X211670000Y-96324000D01*
G75*
G02*
X211920000Y-96074000I250000J0D01*
G01*
X212670000Y-96074000D01*
G75*
G02*
X212920000Y-96324000I0J-250000D01*
G01*
X212920000Y-98474000D01*
G75*
G02*
X212670000Y-98724000I-250000J0D01*
G01*
X211920000Y-98724000D01*
G75*
G02*
X211670000Y-98474000I0J250000D01*
G01*
G37*
G04 #@! TD.AperFunction*
G04 #@! TO.P,D6,2*
G04 #@! TO.N,Net-(D6-Pad2)*
G04 #@! TA.AperFunction,SMDPad,CuDef*
G36*
G01*
X214470000Y-98474000D02*
X214470000Y-96324000D01*
G75*
G02*
X214720000Y-96074000I250000J0D01*
G01*
X215470000Y-96074000D01*
G75*
G02*
X215720000Y-96324000I0J-250000D01*
G01*
X215720000Y-98474000D01*
G75*
G02*
X215470000Y-98724000I-250000J0D01*
G01*
X214720000Y-98724000D01*
G75*
G02*
X214470000Y-98474000I0J250000D01*
G01*
G37*
G04 #@! TD.AperFunction*
G04 #@! TD*
G04 #@! TO.P,D15,1*
G04 #@! TO.N,Net-(D14-Pad2)*
G04 #@! TA.AperFunction,SMDPad,CuDef*
G36*
G01*
X233670000Y-92974000D02*
X233670000Y-90824000D01*
G75*
G02*
X233920000Y-90574000I250000J0D01*
G01*
X234670000Y-90574000D01*
G75*
G02*
X234920000Y-90824000I0J-250000D01*
G01*
X234920000Y-92974000D01*
G75*
G02*
X234670000Y-93224000I-250000J0D01*
G01*
X233920000Y-93224000D01*
G75*
G02*
X233670000Y-92974000I0J250000D01*
G01*
G37*
G04 #@! TD.AperFunction*
G04 #@! TO.P,D15,2*
G04 #@! TO.N,+15V*
G04 #@! TA.AperFunction,SMDPad,CuDef*
G36*
G01*
X236470000Y-92974000D02*
X236470000Y-90824000D01*
G75*
G02*
X236720000Y-90574000I250000J0D01*
G01*
X237470000Y-90574000D01*
G75*
G02*
X237720000Y-90824000I0J-250000D01*
G01*
X237720000Y-92974000D01*
G75*
G02*
X237470000Y-93224000I-250000J0D01*
G01*
X236720000Y-93224000D01*
G75*
G02*
X236470000Y-92974000I0J250000D01*
G01*
G37*
G04 #@! TD.AperFunction*
G04 #@! TD*
G04 #@! TO.P,D14,1*
G04 #@! TO.N,Net-(D13-Pad2)*
G04 #@! TA.AperFunction,SMDPad,CuDef*
G36*
G01*
X228170000Y-92974000D02*
X228170000Y-90824000D01*
G75*
G02*
X228420000Y-90574000I250000J0D01*
G01*
X229170000Y-90574000D01*
G75*
G02*
X229420000Y-90824000I0J-250000D01*
G01*
X229420000Y-92974000D01*
G75*
G02*
X229170000Y-93224000I-250000J0D01*
G01*
X228420000Y-93224000D01*
G75*
G02*
X228170000Y-92974000I0J250000D01*
G01*
G37*
G04 #@! TD.AperFunction*
G04 #@! TO.P,D14,2*
G04 #@! TO.N,Net-(D14-Pad2)*
G04 #@! TA.AperFunction,SMDPad,CuDef*
G36*
G01*
X230970000Y-92974000D02*
X230970000Y-90824000D01*
G75*
G02*
X231220000Y-90574000I250000J0D01*
G01*
X231970000Y-90574000D01*
G75*
G02*
X232220000Y-90824000I0J-250000D01*
G01*
X232220000Y-92974000D01*
G75*
G02*
X231970000Y-93224000I-250000J0D01*
G01*
X231220000Y-93224000D01*
G75*
G02*
X230970000Y-92974000I0J250000D01*
G01*
G37*
G04 #@! TD.AperFunction*
G04 #@! TD*
G04 #@! TO.P,D13,1*
G04 #@! TO.N,Net-(D12-Pad2)*
G04 #@! TA.AperFunction,SMDPad,CuDef*
G36*
G01*
X222670000Y-92974000D02*
X222670000Y-90824000D01*
G75*
G02*
X222920000Y-90574000I250000J0D01*
G01*
X223670000Y-90574000D01*
G75*
G02*
X223920000Y-90824000I0J-250000D01*
G01*
X223920000Y-92974000D01*
G75*
G02*
X223670000Y-93224000I-250000J0D01*
G01*
X222920000Y-93224000D01*
G75*
G02*
X222670000Y-92974000I0J250000D01*
G01*
G37*
G04 #@! TD.AperFunction*
G04 #@! TO.P,D13,2*
G04 #@! TO.N,Net-(D13-Pad2)*
G04 #@! TA.AperFunction,SMDPad,CuDef*
G36*
G01*
X225470000Y-92974000D02*
X225470000Y-90824000D01*
G75*
G02*
X225720000Y-90574000I250000J0D01*
G01*
X226470000Y-90574000D01*
G75*
G02*
X226720000Y-90824000I0J-250000D01*
G01*
X226720000Y-92974000D01*
G75*
G02*
X226470000Y-93224000I-250000J0D01*
G01*
X225720000Y-93224000D01*
G75*
G02*
X225470000Y-92974000I0J250000D01*
G01*
G37*
G04 #@! TD.AperFunction*
G04 #@! TD*
G04 #@! TO.P,D12,1*
G04 #@! TO.N,Net-(D11-Pad2)*
G04 #@! TA.AperFunction,SMDPad,CuDef*
G36*
G01*
X217170000Y-92974000D02*
X217170000Y-90824000D01*
G75*
G02*
X217420000Y-90574000I250000J0D01*
G01*
X218170000Y-90574000D01*
G75*
G02*
X218420000Y-90824000I0J-250000D01*
G01*
X218420000Y-92974000D01*
G75*
G02*
X218170000Y-93224000I-250000J0D01*
G01*
X217420000Y-93224000D01*
G75*
G02*
X217170000Y-92974000I0J250000D01*
G01*
G37*
G04 #@! TD.AperFunction*
G04 #@! TO.P,D12,2*
G04 #@! TO.N,Net-(D12-Pad2)*
G04 #@! TA.AperFunction,SMDPad,CuDef*
G36*
G01*
X219970000Y-92974000D02*
X219970000Y-90824000D01*
G75*
G02*
X220220000Y-90574000I250000J0D01*
G01*
X220970000Y-90574000D01*
G75*
G02*
X221220000Y-90824000I0J-250000D01*
G01*
X221220000Y-92974000D01*
G75*
G02*
X220970000Y-93224000I-250000J0D01*
G01*
X220220000Y-93224000D01*
G75*
G02*
X219970000Y-92974000I0J250000D01*
G01*
G37*
G04 #@! TD.AperFunction*
G04 #@! TD*
G04 #@! TO.P,D11,1*
G04 #@! TO.N,GND*
G04 #@! TA.AperFunction,SMDPad,CuDef*
G36*
G01*
X211670000Y-92974000D02*
X211670000Y-90824000D01*
G75*
G02*
X211920000Y-90574000I250000J0D01*
G01*
X212670000Y-90574000D01*
G75*
G02*
X212920000Y-90824000I0J-250000D01*
G01*
X212920000Y-92974000D01*
G75*
G02*
X212670000Y-93224000I-250000J0D01*
G01*
X211920000Y-93224000D01*
G75*
G02*
X211670000Y-92974000I0J250000D01*
G01*
G37*
G04 #@! TD.AperFunction*
G04 #@! TO.P,D11,2*
G04 #@! TO.N,Net-(D11-Pad2)*
G04 #@! TA.AperFunction,SMDPad,CuDef*
G36*
G01*
X214470000Y-92974000D02*
X214470000Y-90824000D01*
G75*
G02*
X214720000Y-90574000I250000J0D01*
G01*
X215470000Y-90574000D01*
G75*
G02*
X215720000Y-90824000I0J-250000D01*
G01*
X215720000Y-92974000D01*
G75*
G02*
X215470000Y-93224000I-250000J0D01*
G01*
X214720000Y-93224000D01*
G75*
G02*
X214470000Y-92974000I0J250000D01*
G01*
G37*
G04 #@! TD.AperFunction*
G04 #@! TD*
G04 #@! TO.P,D20,1*
G04 #@! TO.N,Net-(D19-Pad2)*
G04 #@! TA.AperFunction,SMDPad,CuDef*
G36*
G01*
X233670000Y-87474000D02*
X233670000Y-85324000D01*
G75*
G02*
X233920000Y-85074000I250000J0D01*
G01*
X234670000Y-85074000D01*
G75*
G02*
X234920000Y-85324000I0J-250000D01*
G01*
X234920000Y-87474000D01*
G75*
G02*
X234670000Y-87724000I-250000J0D01*
G01*
X233920000Y-87724000D01*
G75*
G02*
X233670000Y-87474000I0J250000D01*
G01*
G37*
G04 #@! TD.AperFunction*
G04 #@! TO.P,D20,2*
G04 #@! TO.N,+15V*
G04 #@! TA.AperFunction,SMDPad,CuDef*
G36*
G01*
X236470000Y-87474000D02*
X236470000Y-85324000D01*
G75*
G02*
X236720000Y-85074000I250000J0D01*
G01*
X237470000Y-85074000D01*
G75*
G02*
X237720000Y-85324000I0J-250000D01*
G01*
X237720000Y-87474000D01*
G75*
G02*
X237470000Y-87724000I-250000J0D01*
G01*
X236720000Y-87724000D01*
G75*
G02*
X236470000Y-87474000I0J250000D01*
G01*
G37*
G04 #@! TD.AperFunction*
G04 #@! TD*
G04 #@! TO.P,D19,1*
G04 #@! TO.N,Net-(D18-Pad2)*
G04 #@! TA.AperFunction,SMDPad,CuDef*
G36*
G01*
X228170000Y-87474000D02*
X228170000Y-85324000D01*
G75*
G02*
X228420000Y-85074000I250000J0D01*
G01*
X229170000Y-85074000D01*
G75*
G02*
X229420000Y-85324000I0J-250000D01*
G01*
X229420000Y-87474000D01*
G75*
G02*
X229170000Y-87724000I-250000J0D01*
G01*
X228420000Y-87724000D01*
G75*
G02*
X228170000Y-87474000I0J250000D01*
G01*
G37*
G04 #@! TD.AperFunction*
G04 #@! TO.P,D19,2*
G04 #@! TO.N,Net-(D19-Pad2)*
G04 #@! TA.AperFunction,SMDPad,CuDef*
G36*
G01*
X230970000Y-87474000D02*
X230970000Y-85324000D01*
G75*
G02*
X231220000Y-85074000I250000J0D01*
G01*
X231970000Y-85074000D01*
G75*
G02*
X232220000Y-85324000I0J-250000D01*
G01*
X232220000Y-87474000D01*
G75*
G02*
X231970000Y-87724000I-250000J0D01*
G01*
X231220000Y-87724000D01*
G75*
G02*
X230970000Y-87474000I0J250000D01*
G01*
G37*
G04 #@! TD.AperFunction*
G04 #@! TD*
G04 #@! TO.P,D18,1*
G04 #@! TO.N,Net-(D17-Pad2)*
G04 #@! TA.AperFunction,SMDPad,CuDef*
G36*
G01*
X222670000Y-87474000D02*
X222670000Y-85324000D01*
G75*
G02*
X222920000Y-85074000I250000J0D01*
G01*
X223670000Y-85074000D01*
G75*
G02*
X223920000Y-85324000I0J-250000D01*
G01*
X223920000Y-87474000D01*
G75*
G02*
X223670000Y-87724000I-250000J0D01*
G01*
X222920000Y-87724000D01*
G75*
G02*
X222670000Y-87474000I0J250000D01*
G01*
G37*
G04 #@! TD.AperFunction*
G04 #@! TO.P,D18,2*
G04 #@! TO.N,Net-(D18-Pad2)*
G04 #@! TA.AperFunction,SMDPad,CuDef*
G36*
G01*
X225470000Y-87474000D02*
X225470000Y-85324000D01*
G75*
G02*
X225720000Y-85074000I250000J0D01*
G01*
X226470000Y-85074000D01*
G75*
G02*
X226720000Y-85324000I0J-250000D01*
G01*
X226720000Y-87474000D01*
G75*
G02*
X226470000Y-87724000I-250000J0D01*
G01*
X225720000Y-87724000D01*
G75*
G02*
X225470000Y-87474000I0J250000D01*
G01*
G37*
G04 #@! TD.AperFunction*
G04 #@! TD*
G04 #@! TO.P,D17,1*
G04 #@! TO.N,Net-(D16-Pad2)*
G04 #@! TA.AperFunction,SMDPad,CuDef*
G36*
G01*
X217170000Y-87474000D02*
X217170000Y-85324000D01*
G75*
G02*
X217420000Y-85074000I250000J0D01*
G01*
X218170000Y-85074000D01*
G75*
G02*
X218420000Y-85324000I0J-250000D01*
G01*
X218420000Y-87474000D01*
G75*
G02*
X218170000Y-87724000I-250000J0D01*
G01*
X217420000Y-87724000D01*
G75*
G02*
X217170000Y-87474000I0J250000D01*
G01*
G37*
G04 #@! TD.AperFunction*
G04 #@! TO.P,D17,2*
G04 #@! TO.N,Net-(D17-Pad2)*
G04 #@! TA.AperFunction,SMDPad,CuDef*
G36*
G01*
X219970000Y-87474000D02*
X219970000Y-85324000D01*
G75*
G02*
X220220000Y-85074000I250000J0D01*
G01*
X220970000Y-85074000D01*
G75*
G02*
X221220000Y-85324000I0J-250000D01*
G01*
X221220000Y-87474000D01*
G75*
G02*
X220970000Y-87724000I-250000J0D01*
G01*
X220220000Y-87724000D01*
G75*
G02*
X219970000Y-87474000I0J250000D01*
G01*
G37*
G04 #@! TD.AperFunction*
G04 #@! TD*
G04 #@! TO.P,D16,1*
G04 #@! TO.N,GND*
G04 #@! TA.AperFunction,SMDPad,CuDef*
G36*
G01*
X211670000Y-87474000D02*
X211670000Y-85324000D01*
G75*
G02*
X211920000Y-85074000I250000J0D01*
G01*
X212670000Y-85074000D01*
G75*
G02*
X212920000Y-85324000I0J-250000D01*
G01*
X212920000Y-87474000D01*
G75*
G02*
X212670000Y-87724000I-250000J0D01*
G01*
X211920000Y-87724000D01*
G75*
G02*
X211670000Y-87474000I0J250000D01*
G01*
G37*
G04 #@! TD.AperFunction*
G04 #@! TO.P,D16,2*
G04 #@! TO.N,Net-(D16-Pad2)*
G04 #@! TA.AperFunction,SMDPad,CuDef*
G36*
G01*
X214470000Y-87474000D02*
X214470000Y-85324000D01*
G75*
G02*
X214720000Y-85074000I250000J0D01*
G01*
X215470000Y-85074000D01*
G75*
G02*
X215720000Y-85324000I0J-250000D01*
G01*
X215720000Y-87474000D01*
G75*
G02*
X215470000Y-87724000I-250000J0D01*
G01*
X214720000Y-87724000D01*
G75*
G02*
X214470000Y-87474000I0J250000D01*
G01*
G37*
G04 #@! TD.AperFunction*
G04 #@! TD*
G04 #@! TO.P,D25,1*
G04 #@! TO.N,Net-(D24-Pad2)*
G04 #@! TA.AperFunction,SMDPad,CuDef*
G36*
G01*
X233670000Y-81974000D02*
X233670000Y-79824000D01*
G75*
G02*
X233920000Y-79574000I250000J0D01*
G01*
X234670000Y-79574000D01*
G75*
G02*
X234920000Y-79824000I0J-250000D01*
G01*
X234920000Y-81974000D01*
G75*
G02*
X234670000Y-82224000I-250000J0D01*
G01*
X233920000Y-82224000D01*
G75*
G02*
X233670000Y-81974000I0J250000D01*
G01*
G37*
G04 #@! TD.AperFunction*
G04 #@! TO.P,D25,2*
G04 #@! TO.N,+15V*
G04 #@! TA.AperFunction,SMDPad,CuDef*
G36*
G01*
X236470000Y-81974000D02*
X236470000Y-79824000D01*
G75*
G02*
X236720000Y-79574000I250000J0D01*
G01*
X237470000Y-79574000D01*
G75*
G02*
X237720000Y-79824000I0J-250000D01*
G01*
X237720000Y-81974000D01*
G75*
G02*
X237470000Y-82224000I-250000J0D01*
G01*
X236720000Y-82224000D01*
G75*
G02*
X236470000Y-81974000I0J250000D01*
G01*
G37*
G04 #@! TD.AperFunction*
G04 #@! TD*
G04 #@! TO.P,D24,1*
G04 #@! TO.N,Net-(D23-Pad2)*
G04 #@! TA.AperFunction,SMDPad,CuDef*
G36*
G01*
X228170000Y-81974000D02*
X228170000Y-79824000D01*
G75*
G02*
X228420000Y-79574000I250000J0D01*
G01*
X229170000Y-79574000D01*
G75*
G02*
X229420000Y-79824000I0J-250000D01*
G01*
X229420000Y-81974000D01*
G75*
G02*
X229170000Y-82224000I-250000J0D01*
G01*
X228420000Y-82224000D01*
G75*
G02*
X228170000Y-81974000I0J250000D01*
G01*
G37*
G04 #@! TD.AperFunction*
G04 #@! TO.P,D24,2*
G04 #@! TO.N,Net-(D24-Pad2)*
G04 #@! TA.AperFunction,SMDPad,CuDef*
G36*
G01*
X230970000Y-81974000D02*
X230970000Y-79824000D01*
G75*
G02*
X231220000Y-79574000I250000J0D01*
G01*
X231970000Y-79574000D01*
G75*
G02*
X232220000Y-79824000I0J-250000D01*
G01*
X232220000Y-81974000D01*
G75*
G02*
X231970000Y-82224000I-250000J0D01*
G01*
X231220000Y-82224000D01*
G75*
G02*
X230970000Y-81974000I0J250000D01*
G01*
G37*
G04 #@! TD.AperFunction*
G04 #@! TD*
G04 #@! TO.P,D23,1*
G04 #@! TO.N,Net-(D22-Pad2)*
G04 #@! TA.AperFunction,SMDPad,CuDef*
G36*
G01*
X222670000Y-81974000D02*
X222670000Y-79824000D01*
G75*
G02*
X222920000Y-79574000I250000J0D01*
G01*
X223670000Y-79574000D01*
G75*
G02*
X223920000Y-79824000I0J-250000D01*
G01*
X223920000Y-81974000D01*
G75*
G02*
X223670000Y-82224000I-250000J0D01*
G01*
X222920000Y-82224000D01*
G75*
G02*
X222670000Y-81974000I0J250000D01*
G01*
G37*
G04 #@! TD.AperFunction*
G04 #@! TO.P,D23,2*
G04 #@! TO.N,Net-(D23-Pad2)*
G04 #@! TA.AperFunction,SMDPad,CuDef*
G36*
G01*
X225470000Y-81974000D02*
X225470000Y-79824000D01*
G75*
G02*
X225720000Y-79574000I250000J0D01*
G01*
X226470000Y-79574000D01*
G75*
G02*
X226720000Y-79824000I0J-250000D01*
G01*
X226720000Y-81974000D01*
G75*
G02*
X226470000Y-82224000I-250000J0D01*
G01*
X225720000Y-82224000D01*
G75*
G02*
X225470000Y-81974000I0J250000D01*
G01*
G37*
G04 #@! TD.AperFunction*
G04 #@! TD*
G04 #@! TO.P,D22,1*
G04 #@! TO.N,Net-(D21-Pad2)*
G04 #@! TA.AperFunction,SMDPad,CuDef*
G36*
G01*
X217170000Y-81974000D02*
X217170000Y-79824000D01*
G75*
G02*
X217420000Y-79574000I250000J0D01*
G01*
X218170000Y-79574000D01*
G75*
G02*
X218420000Y-79824000I0J-250000D01*
G01*
X218420000Y-81974000D01*
G75*
G02*
X218170000Y-82224000I-250000J0D01*
G01*
X217420000Y-82224000D01*
G75*
G02*
X217170000Y-81974000I0J250000D01*
G01*
G37*
G04 #@! TD.AperFunction*
G04 #@! TO.P,D22,2*
G04 #@! TO.N,Net-(D22-Pad2)*
G04 #@! TA.AperFunction,SMDPad,CuDef*
G36*
G01*
X219970000Y-81974000D02*
X219970000Y-79824000D01*
G75*
G02*
X220220000Y-79574000I250000J0D01*
G01*
X220970000Y-79574000D01*
G75*
G02*
X221220000Y-79824000I0J-250000D01*
G01*
X221220000Y-81974000D01*
G75*
G02*
X220970000Y-82224000I-250000J0D01*
G01*
X220220000Y-82224000D01*
G75*
G02*
X219970000Y-81974000I0J250000D01*
G01*
G37*
G04 #@! TD.AperFunction*
G04 #@! TD*
G04 #@! TO.P,D21,2*
G04 #@! TO.N,Net-(D21-Pad2)*
G04 #@! TA.AperFunction,SMDPad,CuDef*
G36*
G01*
X214470000Y-81974000D02*
X214470000Y-79824000D01*
G75*
G02*
X214720000Y-79574000I250000J0D01*
G01*
X215470000Y-79574000D01*
G75*
G02*
X215720000Y-79824000I0J-250000D01*
G01*
X215720000Y-81974000D01*
G75*
G02*
X215470000Y-82224000I-250000J0D01*
G01*
X214720000Y-82224000D01*
G75*
G02*
X214470000Y-81974000I0J250000D01*
G01*
G37*
G04 #@! TD.AperFunction*
G04 #@! TO.P,D21,1*
G04 #@! TO.N,GND*
G04 #@! TA.AperFunction,SMDPad,CuDef*
G36*
G01*
X211670000Y-81974000D02*
X211670000Y-79824000D01*
G75*
G02*
X211920000Y-79574000I250000J0D01*
G01*
X212670000Y-79574000D01*
G75*
G02*
X212920000Y-79824000I0J-250000D01*
G01*
X212920000Y-81974000D01*
G75*
G02*
X212670000Y-82224000I-250000J0D01*
G01*
X211920000Y-82224000D01*
G75*
G02*
X211670000Y-81974000I0J250000D01*
G01*
G37*
G04 #@! TD.AperFunction*
G04 #@! TD*
D12*
G04 #@! TO.N,GND*
X212295000Y-80899000D02*
X212295000Y-102899000D01*
X212295000Y-120295000D02*
X214000000Y-122000000D01*
X212295000Y-102899000D02*
X212295000Y-120295000D01*
G04 #@! TO.N,Net-(D1-Pad2)*
X217795000Y-102899000D02*
X215095000Y-102899000D01*
G04 #@! TO.N,Net-(D2-Pad2)*
X223295000Y-102899000D02*
X220595000Y-102899000D01*
G04 #@! TO.N,Net-(D3-Pad2)*
X228795000Y-102899000D02*
X226095000Y-102899000D01*
G04 #@! TO.N,Net-(D4-Pad2)*
X234295000Y-102899000D02*
X231595000Y-102899000D01*
G04 #@! TO.N,+15V*
X237095000Y-80899000D02*
X237095000Y-102899000D01*
X237095000Y-120905000D02*
X236000000Y-122000000D01*
X237095000Y-102899000D02*
X237095000Y-120905000D01*
G04 #@! TO.N,Net-(D6-Pad2)*
X217795000Y-97399000D02*
X215095000Y-97399000D01*
G04 #@! TO.N,Net-(D7-Pad2)*
X223295000Y-97399000D02*
X220595000Y-97399000D01*
G04 #@! TO.N,Net-(D8-Pad2)*
X228795000Y-97399000D02*
X226095000Y-97399000D01*
G04 #@! TO.N,Net-(D10-Pad1)*
X234295000Y-97399000D02*
X231595000Y-97399000D01*
G04 #@! TO.N,Net-(D11-Pad2)*
X217795000Y-91899000D02*
X215095000Y-91899000D01*
G04 #@! TO.N,Net-(D12-Pad2)*
X223295000Y-91899000D02*
X220595000Y-91899000D01*
G04 #@! TO.N,Net-(D13-Pad2)*
X228795000Y-91899000D02*
X226095000Y-91899000D01*
G04 #@! TO.N,Net-(D14-Pad2)*
X234295000Y-91899000D02*
X231595000Y-91899000D01*
G04 #@! TO.N,Net-(D16-Pad2)*
X217795000Y-86399000D02*
X215095000Y-86399000D01*
G04 #@! TO.N,Net-(D17-Pad2)*
X223295000Y-86399000D02*
X220595000Y-86399000D01*
G04 #@! TO.N,Net-(D18-Pad2)*
X228795000Y-86399000D02*
X226095000Y-86399000D01*
G04 #@! TO.N,Net-(D19-Pad2)*
X234295000Y-86399000D02*
X231595000Y-86399000D01*
G04 #@! TO.N,Net-(D21-Pad2)*
X217795000Y-80899000D02*
X215095000Y-80899000D01*
G04 #@! TO.N,Net-(D22-Pad2)*
X223295000Y-80899000D02*
X220595000Y-80899000D01*
G04 #@! TO.N,Net-(D23-Pad2)*
X228795000Y-80899000D02*
X226095000Y-80899000D01*
G04 #@! TO.N,Net-(D24-Pad2)*
X234295000Y-80899000D02*
X231595000Y-80899000D01*
G04 #@! TD*
M02*
