G04 #@! TF.GenerationSoftware,KiCad,Pcbnew,5.1.6-c6e7f7d~87~ubuntu19.10.1*
G04 #@! TF.CreationDate,2020-10-15T12:23:37+04:00*
G04 #@! TF.ProjectId,ledy,6c656479-2e6b-4696-9361-645f70636258,rev?*
G04 #@! TF.SameCoordinates,Original*
G04 #@! TF.FileFunction,Legend,Top*
G04 #@! TF.FilePolarity,Positive*
%FSLAX46Y46*%
G04 Gerber Fmt 4.6, Leading zero omitted, Abs format (unit mm)*
G04 Created by KiCad (PCBNEW 5.1.6-c6e7f7d~87~ubuntu19.10.1) date 2020-10-15 12:23:37*
%MOMM*%
%LPD*%
G01*
G04 APERTURE LIST*
%ADD10C,0.150000*%
%ADD11C,0.010000*%
%ADD12C,0.120000*%
G04 APERTURE END LIST*
D10*
X209000000Y-114702380D02*
X209000000Y-113702380D01*
X209428571Y-114702380D02*
X209428571Y-114178571D01*
X209380952Y-114083333D01*
X209285714Y-114035714D01*
X209142857Y-114035714D01*
X209047619Y-114083333D01*
X209000000Y-114130952D01*
X209761904Y-114035714D02*
X210142857Y-114035714D01*
X209904761Y-113702380D02*
X209904761Y-114559523D01*
X209952380Y-114654761D01*
X210047619Y-114702380D01*
X210142857Y-114702380D01*
X210333333Y-114035714D02*
X210714285Y-114035714D01*
X210476190Y-113702380D02*
X210476190Y-114559523D01*
X210523809Y-114654761D01*
X210619047Y-114702380D01*
X210714285Y-114702380D01*
X211047619Y-114035714D02*
X211047619Y-115035714D01*
X211047619Y-114083333D02*
X211142857Y-114035714D01*
X211333333Y-114035714D01*
X211428571Y-114083333D01*
X211476190Y-114130952D01*
X211523809Y-114226190D01*
X211523809Y-114511904D01*
X211476190Y-114607142D01*
X211428571Y-114654761D01*
X211333333Y-114702380D01*
X211142857Y-114702380D01*
X211047619Y-114654761D01*
X211904761Y-114654761D02*
X212000000Y-114702380D01*
X212190476Y-114702380D01*
X212285714Y-114654761D01*
X212333333Y-114559523D01*
X212333333Y-114511904D01*
X212285714Y-114416666D01*
X212190476Y-114369047D01*
X212047619Y-114369047D01*
X211952380Y-114321428D01*
X211904761Y-114226190D01*
X211904761Y-114178571D01*
X211952380Y-114083333D01*
X212047619Y-114035714D01*
X212190476Y-114035714D01*
X212285714Y-114083333D01*
X212761904Y-114607142D02*
X212809523Y-114654761D01*
X212761904Y-114702380D01*
X212714285Y-114654761D01*
X212761904Y-114607142D01*
X212761904Y-114702380D01*
X212761904Y-114083333D02*
X212809523Y-114130952D01*
X212761904Y-114178571D01*
X212714285Y-114130952D01*
X212761904Y-114083333D01*
X212761904Y-114178571D01*
X213952380Y-113654761D02*
X213095238Y-114940476D01*
X215000000Y-113654761D02*
X214142857Y-114940476D01*
X215190476Y-114035714D02*
X215571428Y-114035714D01*
X215333333Y-113702380D02*
X215333333Y-114559523D01*
X215380952Y-114654761D01*
X215476190Y-114702380D01*
X215571428Y-114702380D01*
X216285714Y-114654761D02*
X216190476Y-114702380D01*
X216000000Y-114702380D01*
X215904761Y-114654761D01*
X215857142Y-114559523D01*
X215857142Y-114178571D01*
X215904761Y-114083333D01*
X216000000Y-114035714D01*
X216190476Y-114035714D01*
X216285714Y-114083333D01*
X216333333Y-114178571D01*
X216333333Y-114273809D01*
X215857142Y-114369047D01*
X217190476Y-114654761D02*
X217095238Y-114702380D01*
X216904761Y-114702380D01*
X216809523Y-114654761D01*
X216761904Y-114607142D01*
X216714285Y-114511904D01*
X216714285Y-114226190D01*
X216761904Y-114130952D01*
X216809523Y-114083333D01*
X216904761Y-114035714D01*
X217095238Y-114035714D01*
X217190476Y-114083333D01*
X217619047Y-114702380D02*
X217619047Y-113702380D01*
X217714285Y-114321428D02*
X218000000Y-114702380D01*
X218000000Y-114035714D02*
X217619047Y-114416666D01*
X218428571Y-114035714D02*
X218428571Y-114702380D01*
X218428571Y-114130952D02*
X218476190Y-114083333D01*
X218571428Y-114035714D01*
X218714285Y-114035714D01*
X218809523Y-114083333D01*
X218857142Y-114178571D01*
X218857142Y-114702380D01*
X219476190Y-114702380D02*
X219380952Y-114654761D01*
X219333333Y-114607142D01*
X219285714Y-114511904D01*
X219285714Y-114226190D01*
X219333333Y-114130952D01*
X219380952Y-114083333D01*
X219476190Y-114035714D01*
X219619047Y-114035714D01*
X219714285Y-114083333D01*
X219761904Y-114130952D01*
X219809523Y-114226190D01*
X219809523Y-114511904D01*
X219761904Y-114607142D01*
X219714285Y-114654761D01*
X219619047Y-114702380D01*
X219476190Y-114702380D01*
X220380952Y-114702380D02*
X220285714Y-114654761D01*
X220238095Y-114559523D01*
X220238095Y-113702380D01*
X220904761Y-114702380D02*
X220809523Y-114654761D01*
X220761904Y-114607142D01*
X220714285Y-114511904D01*
X220714285Y-114226190D01*
X220761904Y-114130952D01*
X220809523Y-114083333D01*
X220904761Y-114035714D01*
X221047619Y-114035714D01*
X221142857Y-114083333D01*
X221190476Y-114130952D01*
X221238095Y-114226190D01*
X221238095Y-114511904D01*
X221190476Y-114607142D01*
X221142857Y-114654761D01*
X221047619Y-114702380D01*
X220904761Y-114702380D01*
X222095238Y-114035714D02*
X222095238Y-114845238D01*
X222047619Y-114940476D01*
X222000000Y-114988095D01*
X221904761Y-115035714D01*
X221761904Y-115035714D01*
X221666666Y-114988095D01*
X222095238Y-114654761D02*
X222000000Y-114702380D01*
X221809523Y-114702380D01*
X221714285Y-114654761D01*
X221666666Y-114607142D01*
X221619047Y-114511904D01*
X221619047Y-114226190D01*
X221666666Y-114130952D01*
X221714285Y-114083333D01*
X221809523Y-114035714D01*
X222000000Y-114035714D01*
X222095238Y-114083333D01*
X223000000Y-114035714D02*
X223000000Y-114845238D01*
X222952380Y-114940476D01*
X222904761Y-114988095D01*
X222809523Y-115035714D01*
X222666666Y-115035714D01*
X222571428Y-114988095D01*
X223000000Y-114654761D02*
X222904761Y-114702380D01*
X222714285Y-114702380D01*
X222619047Y-114654761D01*
X222571428Y-114607142D01*
X222523809Y-114511904D01*
X222523809Y-114226190D01*
X222571428Y-114130952D01*
X222619047Y-114083333D01*
X222714285Y-114035714D01*
X222904761Y-114035714D01*
X223000000Y-114083333D01*
X223476190Y-114607142D02*
X223523809Y-114654761D01*
X223476190Y-114702380D01*
X223428571Y-114654761D01*
X223476190Y-114607142D01*
X223476190Y-114702380D01*
X223857142Y-114035714D02*
X224047619Y-114702380D01*
X224238095Y-114226190D01*
X224428571Y-114702380D01*
X224619047Y-114035714D01*
X225380952Y-114654761D02*
X225285714Y-114702380D01*
X225095238Y-114702380D01*
X225000000Y-114654761D01*
X224952380Y-114559523D01*
X224952380Y-114178571D01*
X225000000Y-114083333D01*
X225095238Y-114035714D01*
X225285714Y-114035714D01*
X225380952Y-114083333D01*
X225428571Y-114178571D01*
X225428571Y-114273809D01*
X224952380Y-114369047D01*
X225857142Y-114702380D02*
X225857142Y-113702380D01*
X225857142Y-114083333D02*
X225952380Y-114035714D01*
X226142857Y-114035714D01*
X226238095Y-114083333D01*
X226285714Y-114130952D01*
X226333333Y-114226190D01*
X226333333Y-114511904D01*
X226285714Y-114607142D01*
X226238095Y-114654761D01*
X226142857Y-114702380D01*
X225952380Y-114702380D01*
X225857142Y-114654761D01*
X226714285Y-114654761D02*
X226809523Y-114702380D01*
X227000000Y-114702380D01*
X227095238Y-114654761D01*
X227142857Y-114559523D01*
X227142857Y-114511904D01*
X227095238Y-114416666D01*
X227000000Y-114369047D01*
X226857142Y-114369047D01*
X226761904Y-114321428D01*
X226714285Y-114226190D01*
X226714285Y-114178571D01*
X226761904Y-114083333D01*
X226857142Y-114035714D01*
X227000000Y-114035714D01*
X227095238Y-114083333D01*
X227571428Y-114702380D02*
X227571428Y-114035714D01*
X227571428Y-113702380D02*
X227523809Y-113750000D01*
X227571428Y-113797619D01*
X227619047Y-113750000D01*
X227571428Y-113702380D01*
X227571428Y-113797619D01*
X227904761Y-114035714D02*
X228285714Y-114035714D01*
X228047619Y-113702380D02*
X228047619Y-114559523D01*
X228095238Y-114654761D01*
X228190476Y-114702380D01*
X228285714Y-114702380D01*
X229000000Y-114654761D02*
X228904761Y-114702380D01*
X228714285Y-114702380D01*
X228619047Y-114654761D01*
X228571428Y-114559523D01*
X228571428Y-114178571D01*
X228619047Y-114083333D01*
X228714285Y-114035714D01*
X228904761Y-114035714D01*
X229000000Y-114083333D01*
X229047619Y-114178571D01*
X229047619Y-114273809D01*
X228571428Y-114369047D01*
D11*
G04 #@! TO.C,REF\u002A\u002A*
G36*
X234803600Y-109489054D02*
G01*
X234814465Y-109602993D01*
X234846082Y-109710616D01*
X234896985Y-109809615D01*
X234965707Y-109897684D01*
X235050781Y-109972516D01*
X235147768Y-110030384D01*
X235254036Y-110070005D01*
X235361050Y-110088573D01*
X235466700Y-110087434D01*
X235568875Y-110067930D01*
X235665466Y-110031406D01*
X235754362Y-109979205D01*
X235833454Y-109912673D01*
X235900631Y-109833152D01*
X235953783Y-109741987D01*
X235990801Y-109640523D01*
X236009573Y-109530102D01*
X236011511Y-109480206D01*
X236011511Y-109392267D01*
X236063440Y-109392267D01*
X236099747Y-109395111D01*
X236126645Y-109406911D01*
X236153751Y-109430649D01*
X236192133Y-109469031D01*
X236192133Y-111660602D01*
X236192124Y-111922739D01*
X236192092Y-112163241D01*
X236192028Y-112383048D01*
X236191924Y-112583101D01*
X236191773Y-112764344D01*
X236191566Y-112927716D01*
X236191294Y-113074160D01*
X236190950Y-113204617D01*
X236190526Y-113320029D01*
X236190013Y-113421338D01*
X236189403Y-113509484D01*
X236188688Y-113585410D01*
X236187860Y-113650057D01*
X236186911Y-113704367D01*
X236185833Y-113749280D01*
X236184617Y-113785740D01*
X236183255Y-113814687D01*
X236181739Y-113837063D01*
X236180062Y-113853809D01*
X236178214Y-113865868D01*
X236176187Y-113874180D01*
X236173975Y-113879687D01*
X236172892Y-113881537D01*
X236168729Y-113888549D01*
X236165195Y-113894996D01*
X236161365Y-113900900D01*
X236156318Y-113906286D01*
X236149129Y-113911178D01*
X236138877Y-113915598D01*
X236124636Y-113919572D01*
X236105486Y-113923121D01*
X236080501Y-113926270D01*
X236048760Y-113929042D01*
X236009338Y-113931461D01*
X235961314Y-113933551D01*
X235903763Y-113935335D01*
X235835763Y-113936837D01*
X235756390Y-113938080D01*
X235664721Y-113939089D01*
X235559834Y-113939885D01*
X235440804Y-113940494D01*
X235306710Y-113940939D01*
X235156627Y-113941243D01*
X234989633Y-113941430D01*
X234804804Y-113941524D01*
X234601217Y-113941548D01*
X234377950Y-113941525D01*
X234134078Y-113941480D01*
X233868679Y-113941437D01*
X233830296Y-113941432D01*
X233563318Y-113941389D01*
X233317998Y-113941318D01*
X233093417Y-113941213D01*
X232888655Y-113941066D01*
X232702794Y-113940869D01*
X232534912Y-113940616D01*
X232384092Y-113940300D01*
X232249413Y-113939913D01*
X232129956Y-113939447D01*
X232024801Y-113938897D01*
X231933029Y-113938253D01*
X231853721Y-113937511D01*
X231785957Y-113936661D01*
X231728818Y-113935697D01*
X231681383Y-113934611D01*
X231642734Y-113933397D01*
X231611951Y-113932047D01*
X231588115Y-113930555D01*
X231570306Y-113928911D01*
X231557605Y-113927111D01*
X231549092Y-113925145D01*
X231544734Y-113923477D01*
X231536272Y-113919906D01*
X231528503Y-113917270D01*
X231521398Y-113914634D01*
X231514927Y-113911062D01*
X231509061Y-113905621D01*
X231503771Y-113897375D01*
X231499026Y-113885390D01*
X231494798Y-113868731D01*
X231491057Y-113846463D01*
X231487773Y-113817652D01*
X231484917Y-113781363D01*
X231482460Y-113736661D01*
X231480371Y-113682611D01*
X231478622Y-113618279D01*
X231477183Y-113542730D01*
X231476024Y-113455030D01*
X231475117Y-113354243D01*
X231474431Y-113239434D01*
X231473937Y-113109670D01*
X231473605Y-112964015D01*
X231473407Y-112801535D01*
X231473313Y-112621295D01*
X231473292Y-112422360D01*
X231473315Y-112203796D01*
X231473354Y-111964668D01*
X231473378Y-111704040D01*
X231473378Y-111661889D01*
X231473364Y-111398992D01*
X231473339Y-111157732D01*
X231473329Y-110937165D01*
X231473358Y-110736352D01*
X231473452Y-110554349D01*
X231473638Y-110390216D01*
X231473941Y-110243011D01*
X231474386Y-110111792D01*
X231474966Y-110001867D01*
X231777803Y-110001867D01*
X231817593Y-110059711D01*
X231828764Y-110075479D01*
X231838834Y-110089441D01*
X231847862Y-110102784D01*
X231855903Y-110116693D01*
X231863014Y-110132356D01*
X231869253Y-110150958D01*
X231874675Y-110173686D01*
X231879338Y-110201727D01*
X231883299Y-110236267D01*
X231886615Y-110278492D01*
X231889341Y-110329589D01*
X231891536Y-110390744D01*
X231893255Y-110463144D01*
X231894556Y-110547975D01*
X231895495Y-110646422D01*
X231896130Y-110759674D01*
X231896516Y-110888916D01*
X231896712Y-111035334D01*
X231896773Y-111200116D01*
X231896757Y-111384447D01*
X231896720Y-111589513D01*
X231896711Y-111712133D01*
X231896735Y-111929082D01*
X231896769Y-112124642D01*
X231896757Y-112299999D01*
X231896642Y-112456341D01*
X231896370Y-112594857D01*
X231895882Y-112716734D01*
X231895124Y-112823160D01*
X231894038Y-112915322D01*
X231892569Y-112994409D01*
X231890660Y-113061608D01*
X231888256Y-113118107D01*
X231885299Y-113165093D01*
X231881734Y-113203755D01*
X231877505Y-113235280D01*
X231872554Y-113260855D01*
X231866827Y-113281670D01*
X231860267Y-113298911D01*
X231852817Y-113313765D01*
X231844421Y-113327422D01*
X231835024Y-113341069D01*
X231824568Y-113355893D01*
X231818477Y-113364783D01*
X231779704Y-113422400D01*
X232311268Y-113422400D01*
X232434517Y-113422365D01*
X232537013Y-113422215D01*
X232620580Y-113421878D01*
X232687044Y-113421286D01*
X232738229Y-113420367D01*
X232775959Y-113419051D01*
X232802060Y-113417269D01*
X232818356Y-113414951D01*
X232826672Y-113412026D01*
X232828832Y-113408424D01*
X232826661Y-113404075D01*
X232825465Y-113402645D01*
X232800315Y-113365573D01*
X232774417Y-113312772D01*
X232750808Y-113250770D01*
X232742539Y-113224357D01*
X232737922Y-113206416D01*
X232734021Y-113185355D01*
X232730752Y-113159089D01*
X232728034Y-113125532D01*
X232725785Y-113082599D01*
X232723923Y-113028204D01*
X232722364Y-112960262D01*
X232721028Y-112876688D01*
X232719831Y-112775395D01*
X232718692Y-112654300D01*
X232718315Y-112609600D01*
X232717298Y-112484449D01*
X232716540Y-112380082D01*
X232716097Y-112294707D01*
X232716030Y-112226533D01*
X232716395Y-112173765D01*
X232717252Y-112134614D01*
X232718659Y-112107285D01*
X232720675Y-112089986D01*
X232723357Y-112080926D01*
X232726764Y-112078312D01*
X232730956Y-112080351D01*
X232735429Y-112084667D01*
X232745784Y-112097602D01*
X232767842Y-112126676D01*
X232800043Y-112169759D01*
X232840826Y-112224718D01*
X232888630Y-112289423D01*
X232941895Y-112361742D01*
X232999060Y-112439544D01*
X233058563Y-112520698D01*
X233118845Y-112603072D01*
X233178345Y-112684536D01*
X233235502Y-112762957D01*
X233288755Y-112836204D01*
X233336543Y-112902147D01*
X233377307Y-112958654D01*
X233409484Y-113003593D01*
X233431515Y-113034834D01*
X233436083Y-113041466D01*
X233459004Y-113078369D01*
X233485812Y-113126359D01*
X233511211Y-113175897D01*
X233514432Y-113182577D01*
X233536110Y-113230772D01*
X233548696Y-113268334D01*
X233554426Y-113304160D01*
X233555544Y-113346200D01*
X233554910Y-113422400D01*
X234709349Y-113422400D01*
X234618185Y-113328669D01*
X234571388Y-113278775D01*
X234521101Y-113222295D01*
X234475056Y-113168026D01*
X234454631Y-113142673D01*
X234424193Y-113103128D01*
X234384138Y-113049916D01*
X234335639Y-112984667D01*
X234279865Y-112909011D01*
X234217989Y-112824577D01*
X234151181Y-112732994D01*
X234080613Y-112635892D01*
X234007455Y-112534901D01*
X233932879Y-112431650D01*
X233858056Y-112327768D01*
X233784157Y-112224885D01*
X233712354Y-112124631D01*
X233643816Y-112028636D01*
X233579716Y-111938527D01*
X233521225Y-111855936D01*
X233469514Y-111782492D01*
X233425753Y-111719824D01*
X233391115Y-111669561D01*
X233366770Y-111633334D01*
X233353889Y-111612771D01*
X233352131Y-111608668D01*
X233360090Y-111597342D01*
X233380885Y-111570162D01*
X233413153Y-111528829D01*
X233455530Y-111475044D01*
X233506653Y-111410506D01*
X233565159Y-111336918D01*
X233629686Y-111255978D01*
X233698869Y-111169388D01*
X233771347Y-111078848D01*
X233845754Y-110986060D01*
X233905483Y-110911702D01*
X234916489Y-110911702D01*
X234922398Y-110924659D01*
X234936728Y-110946908D01*
X234937775Y-110948391D01*
X234956562Y-110978544D01*
X234976209Y-111015375D01*
X234980108Y-111023511D01*
X234983644Y-111031940D01*
X234986770Y-111042059D01*
X234989514Y-111055260D01*
X234991908Y-111072938D01*
X234993981Y-111096484D01*
X234995765Y-111127293D01*
X234997288Y-111166757D01*
X234998581Y-111216269D01*
X234999674Y-111277223D01*
X235000597Y-111351011D01*
X235001381Y-111439028D01*
X235002055Y-111542665D01*
X235002650Y-111663316D01*
X235003195Y-111802374D01*
X235003721Y-111961232D01*
X235004255Y-112140089D01*
X235004794Y-112325207D01*
X235005228Y-112489145D01*
X235005491Y-112633303D01*
X235005516Y-112759079D01*
X235005235Y-112867871D01*
X235004581Y-112961077D01*
X235003486Y-113040097D01*
X235001882Y-113106328D01*
X234999703Y-113161170D01*
X234996881Y-113206021D01*
X234993349Y-113242278D01*
X234989039Y-113271341D01*
X234983883Y-113294609D01*
X234977815Y-113313479D01*
X234970767Y-113329351D01*
X234962671Y-113343622D01*
X234953460Y-113357691D01*
X234944960Y-113370158D01*
X234927824Y-113396452D01*
X234917678Y-113414037D01*
X234916489Y-113417257D01*
X234927396Y-113418334D01*
X234958589Y-113419335D01*
X235007777Y-113420235D01*
X235072667Y-113421010D01*
X235150970Y-113421637D01*
X235240393Y-113422091D01*
X235338644Y-113422349D01*
X235407555Y-113422400D01*
X235512548Y-113422180D01*
X235609390Y-113421548D01*
X235695893Y-113420549D01*
X235769868Y-113419227D01*
X235829126Y-113417626D01*
X235871480Y-113415791D01*
X235894740Y-113413765D01*
X235898622Y-113412493D01*
X235890924Y-113397591D01*
X235882926Y-113389560D01*
X235869754Y-113372434D01*
X235852515Y-113342183D01*
X235840593Y-113317622D01*
X235813955Y-113258711D01*
X235810880Y-112081845D01*
X235807805Y-110904978D01*
X235362147Y-110904978D01*
X235264330Y-110905142D01*
X235173936Y-110905611D01*
X235093370Y-110906347D01*
X235025038Y-110907316D01*
X234971344Y-110908480D01*
X234934695Y-110909803D01*
X234917496Y-110911249D01*
X234916489Y-110911702D01*
X233905483Y-110911702D01*
X233920730Y-110892722D01*
X233994910Y-110800537D01*
X234066931Y-110711204D01*
X234135431Y-110626424D01*
X234199045Y-110547898D01*
X234256412Y-110477326D01*
X234306167Y-110416409D01*
X234346948Y-110366847D01*
X234364112Y-110346178D01*
X234450404Y-110245516D01*
X234527003Y-110162259D01*
X234595817Y-110094438D01*
X234658752Y-110040089D01*
X234668133Y-110032722D01*
X234707644Y-110002117D01*
X233575884Y-110001867D01*
X233581173Y-110049844D01*
X233577870Y-110107188D01*
X233556339Y-110175463D01*
X233516365Y-110255212D01*
X233471057Y-110327495D01*
X233454839Y-110350140D01*
X233426786Y-110387696D01*
X233388570Y-110438021D01*
X233341863Y-110498973D01*
X233288339Y-110568411D01*
X233229669Y-110644194D01*
X233167525Y-110724180D01*
X233103579Y-110806228D01*
X233039505Y-110888196D01*
X232976973Y-110967943D01*
X232917657Y-111043327D01*
X232863229Y-111112207D01*
X232815361Y-111172442D01*
X232775725Y-111221889D01*
X232745994Y-111258408D01*
X232727839Y-111279858D01*
X232724780Y-111283156D01*
X232721921Y-111275149D01*
X232719707Y-111244855D01*
X232718143Y-111192556D01*
X232717233Y-111118531D01*
X232716980Y-111023063D01*
X232717387Y-110906434D01*
X232718296Y-110786445D01*
X232719618Y-110654333D01*
X232721143Y-110542594D01*
X232723119Y-110449025D01*
X232725794Y-110371419D01*
X232729418Y-110307574D01*
X232734239Y-110255283D01*
X232740506Y-110212344D01*
X232748468Y-110176551D01*
X232758373Y-110145700D01*
X232770469Y-110117586D01*
X232785007Y-110090005D01*
X232799689Y-110064966D01*
X232837686Y-110001867D01*
X231777803Y-110001867D01*
X231474966Y-110001867D01*
X231474999Y-109995617D01*
X231475805Y-109893544D01*
X231476830Y-109804633D01*
X231478100Y-109727941D01*
X231479640Y-109662527D01*
X231481476Y-109607449D01*
X231483633Y-109561765D01*
X231486137Y-109524534D01*
X231489013Y-109494813D01*
X231492287Y-109471662D01*
X231495985Y-109454139D01*
X231500131Y-109441301D01*
X231504753Y-109432208D01*
X231509874Y-109425918D01*
X231515522Y-109421488D01*
X231521721Y-109417978D01*
X231528496Y-109414445D01*
X231534492Y-109410876D01*
X231539725Y-109408300D01*
X231547901Y-109405972D01*
X231560114Y-109403878D01*
X231577459Y-109402007D01*
X231601031Y-109400347D01*
X231631923Y-109398884D01*
X231671232Y-109397608D01*
X231720050Y-109396504D01*
X231779473Y-109395561D01*
X231850596Y-109394767D01*
X231934512Y-109394109D01*
X232032317Y-109393575D01*
X232145106Y-109393153D01*
X232273971Y-109392829D01*
X232420009Y-109392592D01*
X232584314Y-109392430D01*
X232767980Y-109392330D01*
X232972103Y-109392280D01*
X233183247Y-109392267D01*
X234803600Y-109392267D01*
X234803600Y-109489054D01*
G37*
X234803600Y-109489054D02*
X234814465Y-109602993D01*
X234846082Y-109710616D01*
X234896985Y-109809615D01*
X234965707Y-109897684D01*
X235050781Y-109972516D01*
X235147768Y-110030384D01*
X235254036Y-110070005D01*
X235361050Y-110088573D01*
X235466700Y-110087434D01*
X235568875Y-110067930D01*
X235665466Y-110031406D01*
X235754362Y-109979205D01*
X235833454Y-109912673D01*
X235900631Y-109833152D01*
X235953783Y-109741987D01*
X235990801Y-109640523D01*
X236009573Y-109530102D01*
X236011511Y-109480206D01*
X236011511Y-109392267D01*
X236063440Y-109392267D01*
X236099747Y-109395111D01*
X236126645Y-109406911D01*
X236153751Y-109430649D01*
X236192133Y-109469031D01*
X236192133Y-111660602D01*
X236192124Y-111922739D01*
X236192092Y-112163241D01*
X236192028Y-112383048D01*
X236191924Y-112583101D01*
X236191773Y-112764344D01*
X236191566Y-112927716D01*
X236191294Y-113074160D01*
X236190950Y-113204617D01*
X236190526Y-113320029D01*
X236190013Y-113421338D01*
X236189403Y-113509484D01*
X236188688Y-113585410D01*
X236187860Y-113650057D01*
X236186911Y-113704367D01*
X236185833Y-113749280D01*
X236184617Y-113785740D01*
X236183255Y-113814687D01*
X236181739Y-113837063D01*
X236180062Y-113853809D01*
X236178214Y-113865868D01*
X236176187Y-113874180D01*
X236173975Y-113879687D01*
X236172892Y-113881537D01*
X236168729Y-113888549D01*
X236165195Y-113894996D01*
X236161365Y-113900900D01*
X236156318Y-113906286D01*
X236149129Y-113911178D01*
X236138877Y-113915598D01*
X236124636Y-113919572D01*
X236105486Y-113923121D01*
X236080501Y-113926270D01*
X236048760Y-113929042D01*
X236009338Y-113931461D01*
X235961314Y-113933551D01*
X235903763Y-113935335D01*
X235835763Y-113936837D01*
X235756390Y-113938080D01*
X235664721Y-113939089D01*
X235559834Y-113939885D01*
X235440804Y-113940494D01*
X235306710Y-113940939D01*
X235156627Y-113941243D01*
X234989633Y-113941430D01*
X234804804Y-113941524D01*
X234601217Y-113941548D01*
X234377950Y-113941525D01*
X234134078Y-113941480D01*
X233868679Y-113941437D01*
X233830296Y-113941432D01*
X233563318Y-113941389D01*
X233317998Y-113941318D01*
X233093417Y-113941213D01*
X232888655Y-113941066D01*
X232702794Y-113940869D01*
X232534912Y-113940616D01*
X232384092Y-113940300D01*
X232249413Y-113939913D01*
X232129956Y-113939447D01*
X232024801Y-113938897D01*
X231933029Y-113938253D01*
X231853721Y-113937511D01*
X231785957Y-113936661D01*
X231728818Y-113935697D01*
X231681383Y-113934611D01*
X231642734Y-113933397D01*
X231611951Y-113932047D01*
X231588115Y-113930555D01*
X231570306Y-113928911D01*
X231557605Y-113927111D01*
X231549092Y-113925145D01*
X231544734Y-113923477D01*
X231536272Y-113919906D01*
X231528503Y-113917270D01*
X231521398Y-113914634D01*
X231514927Y-113911062D01*
X231509061Y-113905621D01*
X231503771Y-113897375D01*
X231499026Y-113885390D01*
X231494798Y-113868731D01*
X231491057Y-113846463D01*
X231487773Y-113817652D01*
X231484917Y-113781363D01*
X231482460Y-113736661D01*
X231480371Y-113682611D01*
X231478622Y-113618279D01*
X231477183Y-113542730D01*
X231476024Y-113455030D01*
X231475117Y-113354243D01*
X231474431Y-113239434D01*
X231473937Y-113109670D01*
X231473605Y-112964015D01*
X231473407Y-112801535D01*
X231473313Y-112621295D01*
X231473292Y-112422360D01*
X231473315Y-112203796D01*
X231473354Y-111964668D01*
X231473378Y-111704040D01*
X231473378Y-111661889D01*
X231473364Y-111398992D01*
X231473339Y-111157732D01*
X231473329Y-110937165D01*
X231473358Y-110736352D01*
X231473452Y-110554349D01*
X231473638Y-110390216D01*
X231473941Y-110243011D01*
X231474386Y-110111792D01*
X231474966Y-110001867D01*
X231777803Y-110001867D01*
X231817593Y-110059711D01*
X231828764Y-110075479D01*
X231838834Y-110089441D01*
X231847862Y-110102784D01*
X231855903Y-110116693D01*
X231863014Y-110132356D01*
X231869253Y-110150958D01*
X231874675Y-110173686D01*
X231879338Y-110201727D01*
X231883299Y-110236267D01*
X231886615Y-110278492D01*
X231889341Y-110329589D01*
X231891536Y-110390744D01*
X231893255Y-110463144D01*
X231894556Y-110547975D01*
X231895495Y-110646422D01*
X231896130Y-110759674D01*
X231896516Y-110888916D01*
X231896712Y-111035334D01*
X231896773Y-111200116D01*
X231896757Y-111384447D01*
X231896720Y-111589513D01*
X231896711Y-111712133D01*
X231896735Y-111929082D01*
X231896769Y-112124642D01*
X231896757Y-112299999D01*
X231896642Y-112456341D01*
X231896370Y-112594857D01*
X231895882Y-112716734D01*
X231895124Y-112823160D01*
X231894038Y-112915322D01*
X231892569Y-112994409D01*
X231890660Y-113061608D01*
X231888256Y-113118107D01*
X231885299Y-113165093D01*
X231881734Y-113203755D01*
X231877505Y-113235280D01*
X231872554Y-113260855D01*
X231866827Y-113281670D01*
X231860267Y-113298911D01*
X231852817Y-113313765D01*
X231844421Y-113327422D01*
X231835024Y-113341069D01*
X231824568Y-113355893D01*
X231818477Y-113364783D01*
X231779704Y-113422400D01*
X232311268Y-113422400D01*
X232434517Y-113422365D01*
X232537013Y-113422215D01*
X232620580Y-113421878D01*
X232687044Y-113421286D01*
X232738229Y-113420367D01*
X232775959Y-113419051D01*
X232802060Y-113417269D01*
X232818356Y-113414951D01*
X232826672Y-113412026D01*
X232828832Y-113408424D01*
X232826661Y-113404075D01*
X232825465Y-113402645D01*
X232800315Y-113365573D01*
X232774417Y-113312772D01*
X232750808Y-113250770D01*
X232742539Y-113224357D01*
X232737922Y-113206416D01*
X232734021Y-113185355D01*
X232730752Y-113159089D01*
X232728034Y-113125532D01*
X232725785Y-113082599D01*
X232723923Y-113028204D01*
X232722364Y-112960262D01*
X232721028Y-112876688D01*
X232719831Y-112775395D01*
X232718692Y-112654300D01*
X232718315Y-112609600D01*
X232717298Y-112484449D01*
X232716540Y-112380082D01*
X232716097Y-112294707D01*
X232716030Y-112226533D01*
X232716395Y-112173765D01*
X232717252Y-112134614D01*
X232718659Y-112107285D01*
X232720675Y-112089986D01*
X232723357Y-112080926D01*
X232726764Y-112078312D01*
X232730956Y-112080351D01*
X232735429Y-112084667D01*
X232745784Y-112097602D01*
X232767842Y-112126676D01*
X232800043Y-112169759D01*
X232840826Y-112224718D01*
X232888630Y-112289423D01*
X232941895Y-112361742D01*
X232999060Y-112439544D01*
X233058563Y-112520698D01*
X233118845Y-112603072D01*
X233178345Y-112684536D01*
X233235502Y-112762957D01*
X233288755Y-112836204D01*
X233336543Y-112902147D01*
X233377307Y-112958654D01*
X233409484Y-113003593D01*
X233431515Y-113034834D01*
X233436083Y-113041466D01*
X233459004Y-113078369D01*
X233485812Y-113126359D01*
X233511211Y-113175897D01*
X233514432Y-113182577D01*
X233536110Y-113230772D01*
X233548696Y-113268334D01*
X233554426Y-113304160D01*
X233555544Y-113346200D01*
X233554910Y-113422400D01*
X234709349Y-113422400D01*
X234618185Y-113328669D01*
X234571388Y-113278775D01*
X234521101Y-113222295D01*
X234475056Y-113168026D01*
X234454631Y-113142673D01*
X234424193Y-113103128D01*
X234384138Y-113049916D01*
X234335639Y-112984667D01*
X234279865Y-112909011D01*
X234217989Y-112824577D01*
X234151181Y-112732994D01*
X234080613Y-112635892D01*
X234007455Y-112534901D01*
X233932879Y-112431650D01*
X233858056Y-112327768D01*
X233784157Y-112224885D01*
X233712354Y-112124631D01*
X233643816Y-112028636D01*
X233579716Y-111938527D01*
X233521225Y-111855936D01*
X233469514Y-111782492D01*
X233425753Y-111719824D01*
X233391115Y-111669561D01*
X233366770Y-111633334D01*
X233353889Y-111612771D01*
X233352131Y-111608668D01*
X233360090Y-111597342D01*
X233380885Y-111570162D01*
X233413153Y-111528829D01*
X233455530Y-111475044D01*
X233506653Y-111410506D01*
X233565159Y-111336918D01*
X233629686Y-111255978D01*
X233698869Y-111169388D01*
X233771347Y-111078848D01*
X233845754Y-110986060D01*
X233905483Y-110911702D01*
X234916489Y-110911702D01*
X234922398Y-110924659D01*
X234936728Y-110946908D01*
X234937775Y-110948391D01*
X234956562Y-110978544D01*
X234976209Y-111015375D01*
X234980108Y-111023511D01*
X234983644Y-111031940D01*
X234986770Y-111042059D01*
X234989514Y-111055260D01*
X234991908Y-111072938D01*
X234993981Y-111096484D01*
X234995765Y-111127293D01*
X234997288Y-111166757D01*
X234998581Y-111216269D01*
X234999674Y-111277223D01*
X235000597Y-111351011D01*
X235001381Y-111439028D01*
X235002055Y-111542665D01*
X235002650Y-111663316D01*
X235003195Y-111802374D01*
X235003721Y-111961232D01*
X235004255Y-112140089D01*
X235004794Y-112325207D01*
X235005228Y-112489145D01*
X235005491Y-112633303D01*
X235005516Y-112759079D01*
X235005235Y-112867871D01*
X235004581Y-112961077D01*
X235003486Y-113040097D01*
X235001882Y-113106328D01*
X234999703Y-113161170D01*
X234996881Y-113206021D01*
X234993349Y-113242278D01*
X234989039Y-113271341D01*
X234983883Y-113294609D01*
X234977815Y-113313479D01*
X234970767Y-113329351D01*
X234962671Y-113343622D01*
X234953460Y-113357691D01*
X234944960Y-113370158D01*
X234927824Y-113396452D01*
X234917678Y-113414037D01*
X234916489Y-113417257D01*
X234927396Y-113418334D01*
X234958589Y-113419335D01*
X235007777Y-113420235D01*
X235072667Y-113421010D01*
X235150970Y-113421637D01*
X235240393Y-113422091D01*
X235338644Y-113422349D01*
X235407555Y-113422400D01*
X235512548Y-113422180D01*
X235609390Y-113421548D01*
X235695893Y-113420549D01*
X235769868Y-113419227D01*
X235829126Y-113417626D01*
X235871480Y-113415791D01*
X235894740Y-113413765D01*
X235898622Y-113412493D01*
X235890924Y-113397591D01*
X235882926Y-113389560D01*
X235869754Y-113372434D01*
X235852515Y-113342183D01*
X235840593Y-113317622D01*
X235813955Y-113258711D01*
X235810880Y-112081845D01*
X235807805Y-110904978D01*
X235362147Y-110904978D01*
X235264330Y-110905142D01*
X235173936Y-110905611D01*
X235093370Y-110906347D01*
X235025038Y-110907316D01*
X234971344Y-110908480D01*
X234934695Y-110909803D01*
X234917496Y-110911249D01*
X234916489Y-110911702D01*
X233905483Y-110911702D01*
X233920730Y-110892722D01*
X233994910Y-110800537D01*
X234066931Y-110711204D01*
X234135431Y-110626424D01*
X234199045Y-110547898D01*
X234256412Y-110477326D01*
X234306167Y-110416409D01*
X234346948Y-110366847D01*
X234364112Y-110346178D01*
X234450404Y-110245516D01*
X234527003Y-110162259D01*
X234595817Y-110094438D01*
X234658752Y-110040089D01*
X234668133Y-110032722D01*
X234707644Y-110002117D01*
X233575884Y-110001867D01*
X233581173Y-110049844D01*
X233577870Y-110107188D01*
X233556339Y-110175463D01*
X233516365Y-110255212D01*
X233471057Y-110327495D01*
X233454839Y-110350140D01*
X233426786Y-110387696D01*
X233388570Y-110438021D01*
X233341863Y-110498973D01*
X233288339Y-110568411D01*
X233229669Y-110644194D01*
X233167525Y-110724180D01*
X233103579Y-110806228D01*
X233039505Y-110888196D01*
X232976973Y-110967943D01*
X232917657Y-111043327D01*
X232863229Y-111112207D01*
X232815361Y-111172442D01*
X232775725Y-111221889D01*
X232745994Y-111258408D01*
X232727839Y-111279858D01*
X232724780Y-111283156D01*
X232721921Y-111275149D01*
X232719707Y-111244855D01*
X232718143Y-111192556D01*
X232717233Y-111118531D01*
X232716980Y-111023063D01*
X232717387Y-110906434D01*
X232718296Y-110786445D01*
X232719618Y-110654333D01*
X232721143Y-110542594D01*
X232723119Y-110449025D01*
X232725794Y-110371419D01*
X232729418Y-110307574D01*
X232734239Y-110255283D01*
X232740506Y-110212344D01*
X232748468Y-110176551D01*
X232758373Y-110145700D01*
X232770469Y-110117586D01*
X232785007Y-110090005D01*
X232799689Y-110064966D01*
X232837686Y-110001867D01*
X231777803Y-110001867D01*
X231474966Y-110001867D01*
X231474999Y-109995617D01*
X231475805Y-109893544D01*
X231476830Y-109804633D01*
X231478100Y-109727941D01*
X231479640Y-109662527D01*
X231481476Y-109607449D01*
X231483633Y-109561765D01*
X231486137Y-109524534D01*
X231489013Y-109494813D01*
X231492287Y-109471662D01*
X231495985Y-109454139D01*
X231500131Y-109441301D01*
X231504753Y-109432208D01*
X231509874Y-109425918D01*
X231515522Y-109421488D01*
X231521721Y-109417978D01*
X231528496Y-109414445D01*
X231534492Y-109410876D01*
X231539725Y-109408300D01*
X231547901Y-109405972D01*
X231560114Y-109403878D01*
X231577459Y-109402007D01*
X231601031Y-109400347D01*
X231631923Y-109398884D01*
X231671232Y-109397608D01*
X231720050Y-109396504D01*
X231779473Y-109395561D01*
X231850596Y-109394767D01*
X231934512Y-109394109D01*
X232032317Y-109393575D01*
X232145106Y-109393153D01*
X232273971Y-109392829D01*
X232420009Y-109392592D01*
X232584314Y-109392430D01*
X232767980Y-109392330D01*
X232972103Y-109392280D01*
X233183247Y-109392267D01*
X234803600Y-109392267D01*
X234803600Y-109489054D01*
G36*
X238078429Y-109949071D02*
G01*
X238238570Y-109970245D01*
X238402510Y-110010385D01*
X238572313Y-110069889D01*
X238750043Y-110149154D01*
X238761310Y-110154699D01*
X238819005Y-110182725D01*
X238870552Y-110206802D01*
X238912191Y-110225249D01*
X238940162Y-110236386D01*
X238949733Y-110238933D01*
X238968950Y-110243941D01*
X238973561Y-110248147D01*
X238968458Y-110258580D01*
X238952418Y-110284868D01*
X238927288Y-110324257D01*
X238894914Y-110373991D01*
X238857143Y-110431315D01*
X238815822Y-110493476D01*
X238772798Y-110557718D01*
X238729917Y-110621285D01*
X238689026Y-110681425D01*
X238651971Y-110735380D01*
X238620600Y-110780397D01*
X238596759Y-110813721D01*
X238582294Y-110832597D01*
X238580309Y-110834787D01*
X238570191Y-110830138D01*
X238547850Y-110812962D01*
X238517280Y-110786440D01*
X238501536Y-110771964D01*
X238405047Y-110696682D01*
X238298336Y-110641241D01*
X238182832Y-110606141D01*
X238059962Y-110591880D01*
X237990561Y-110593051D01*
X237869423Y-110610212D01*
X237760205Y-110646094D01*
X237662582Y-110700959D01*
X237576228Y-110775070D01*
X237500815Y-110868688D01*
X237436018Y-110982076D01*
X237398601Y-111068667D01*
X237354748Y-111204366D01*
X237322428Y-111351850D01*
X237301557Y-111507314D01*
X237292051Y-111666956D01*
X237293827Y-111826973D01*
X237306803Y-111983561D01*
X237330894Y-112132918D01*
X237366018Y-112271240D01*
X237412092Y-112394724D01*
X237428373Y-112428978D01*
X237496620Y-112543064D01*
X237577079Y-112639557D01*
X237668570Y-112717670D01*
X237769911Y-112776617D01*
X237879920Y-112815612D01*
X237997415Y-112833868D01*
X238038883Y-112835211D01*
X238160441Y-112824290D01*
X238280878Y-112791474D01*
X238398666Y-112737439D01*
X238512277Y-112662865D01*
X238603685Y-112584539D01*
X238650215Y-112540008D01*
X238831483Y-112837271D01*
X238876580Y-112911433D01*
X238917819Y-112979646D01*
X238953735Y-113039459D01*
X238982866Y-113088420D01*
X239003750Y-113124079D01*
X239014924Y-113143984D01*
X239016375Y-113147079D01*
X239008146Y-113156718D01*
X238982567Y-113173999D01*
X238942873Y-113197283D01*
X238892297Y-113224934D01*
X238834074Y-113255315D01*
X238771437Y-113286790D01*
X238707621Y-113317722D01*
X238645860Y-113346473D01*
X238589388Y-113371408D01*
X238541438Y-113390889D01*
X238517986Y-113399318D01*
X238384221Y-113437133D01*
X238246327Y-113462136D01*
X238098622Y-113475140D01*
X237971833Y-113477468D01*
X237903878Y-113476373D01*
X237838277Y-113474275D01*
X237780847Y-113471434D01*
X237737403Y-113468106D01*
X237723298Y-113466422D01*
X237584284Y-113437587D01*
X237442757Y-113392468D01*
X237305275Y-113333750D01*
X237178394Y-113264120D01*
X237100889Y-113211441D01*
X236973481Y-113103239D01*
X236855178Y-112976671D01*
X236748172Y-112834866D01*
X236654652Y-112680951D01*
X236576810Y-112518053D01*
X236532956Y-112400756D01*
X236482708Y-112217128D01*
X236449209Y-112022581D01*
X236432449Y-111821325D01*
X236432416Y-111617568D01*
X236449101Y-111415521D01*
X236482493Y-111219392D01*
X236532580Y-111033391D01*
X236536397Y-111021803D01*
X236599281Y-110859750D01*
X236676028Y-110711832D01*
X236769242Y-110573865D01*
X236881527Y-110441661D01*
X236925392Y-110396399D01*
X237061534Y-110272457D01*
X237201491Y-110169915D01*
X237347411Y-110087656D01*
X237501442Y-110024564D01*
X237665732Y-109979523D01*
X237761289Y-109962033D01*
X237920023Y-109946466D01*
X238078429Y-109949071D01*
G37*
X238078429Y-109949071D02*
X238238570Y-109970245D01*
X238402510Y-110010385D01*
X238572313Y-110069889D01*
X238750043Y-110149154D01*
X238761310Y-110154699D01*
X238819005Y-110182725D01*
X238870552Y-110206802D01*
X238912191Y-110225249D01*
X238940162Y-110236386D01*
X238949733Y-110238933D01*
X238968950Y-110243941D01*
X238973561Y-110248147D01*
X238968458Y-110258580D01*
X238952418Y-110284868D01*
X238927288Y-110324257D01*
X238894914Y-110373991D01*
X238857143Y-110431315D01*
X238815822Y-110493476D01*
X238772798Y-110557718D01*
X238729917Y-110621285D01*
X238689026Y-110681425D01*
X238651971Y-110735380D01*
X238620600Y-110780397D01*
X238596759Y-110813721D01*
X238582294Y-110832597D01*
X238580309Y-110834787D01*
X238570191Y-110830138D01*
X238547850Y-110812962D01*
X238517280Y-110786440D01*
X238501536Y-110771964D01*
X238405047Y-110696682D01*
X238298336Y-110641241D01*
X238182832Y-110606141D01*
X238059962Y-110591880D01*
X237990561Y-110593051D01*
X237869423Y-110610212D01*
X237760205Y-110646094D01*
X237662582Y-110700959D01*
X237576228Y-110775070D01*
X237500815Y-110868688D01*
X237436018Y-110982076D01*
X237398601Y-111068667D01*
X237354748Y-111204366D01*
X237322428Y-111351850D01*
X237301557Y-111507314D01*
X237292051Y-111666956D01*
X237293827Y-111826973D01*
X237306803Y-111983561D01*
X237330894Y-112132918D01*
X237366018Y-112271240D01*
X237412092Y-112394724D01*
X237428373Y-112428978D01*
X237496620Y-112543064D01*
X237577079Y-112639557D01*
X237668570Y-112717670D01*
X237769911Y-112776617D01*
X237879920Y-112815612D01*
X237997415Y-112833868D01*
X238038883Y-112835211D01*
X238160441Y-112824290D01*
X238280878Y-112791474D01*
X238398666Y-112737439D01*
X238512277Y-112662865D01*
X238603685Y-112584539D01*
X238650215Y-112540008D01*
X238831483Y-112837271D01*
X238876580Y-112911433D01*
X238917819Y-112979646D01*
X238953735Y-113039459D01*
X238982866Y-113088420D01*
X239003750Y-113124079D01*
X239014924Y-113143984D01*
X239016375Y-113147079D01*
X239008146Y-113156718D01*
X238982567Y-113173999D01*
X238942873Y-113197283D01*
X238892297Y-113224934D01*
X238834074Y-113255315D01*
X238771437Y-113286790D01*
X238707621Y-113317722D01*
X238645860Y-113346473D01*
X238589388Y-113371408D01*
X238541438Y-113390889D01*
X238517986Y-113399318D01*
X238384221Y-113437133D01*
X238246327Y-113462136D01*
X238098622Y-113475140D01*
X237971833Y-113477468D01*
X237903878Y-113476373D01*
X237838277Y-113474275D01*
X237780847Y-113471434D01*
X237737403Y-113468106D01*
X237723298Y-113466422D01*
X237584284Y-113437587D01*
X237442757Y-113392468D01*
X237305275Y-113333750D01*
X237178394Y-113264120D01*
X237100889Y-113211441D01*
X236973481Y-113103239D01*
X236855178Y-112976671D01*
X236748172Y-112834866D01*
X236654652Y-112680951D01*
X236576810Y-112518053D01*
X236532956Y-112400756D01*
X236482708Y-112217128D01*
X236449209Y-112022581D01*
X236432449Y-111821325D01*
X236432416Y-111617568D01*
X236449101Y-111415521D01*
X236482493Y-111219392D01*
X236532580Y-111033391D01*
X236536397Y-111021803D01*
X236599281Y-110859750D01*
X236676028Y-110711832D01*
X236769242Y-110573865D01*
X236881527Y-110441661D01*
X236925392Y-110396399D01*
X237061534Y-110272457D01*
X237201491Y-110169915D01*
X237347411Y-110087656D01*
X237501442Y-110024564D01*
X237665732Y-109979523D01*
X237761289Y-109962033D01*
X237920023Y-109946466D01*
X238078429Y-109949071D01*
G36*
X240423574Y-110866552D02*
G01*
X240575492Y-110886567D01*
X240710756Y-110920202D01*
X240830239Y-110967725D01*
X240934815Y-111029405D01*
X241012424Y-111092965D01*
X241081265Y-111167099D01*
X241135006Y-111246871D01*
X241177910Y-111339091D01*
X241193384Y-111382161D01*
X241206244Y-111421142D01*
X241217446Y-111457289D01*
X241227120Y-111492434D01*
X241235396Y-111528410D01*
X241242403Y-111567050D01*
X241248272Y-111610185D01*
X241253131Y-111659649D01*
X241257110Y-111717273D01*
X241260340Y-111784891D01*
X241262949Y-111864334D01*
X241265067Y-111957436D01*
X241266824Y-112066027D01*
X241268349Y-112191942D01*
X241269772Y-112337012D01*
X241271025Y-112479778D01*
X241272351Y-112635968D01*
X241273556Y-112771239D01*
X241274766Y-112887246D01*
X241276106Y-112985645D01*
X241277700Y-113068093D01*
X241279675Y-113136246D01*
X241282156Y-113191760D01*
X241285269Y-113236292D01*
X241289138Y-113271498D01*
X241293889Y-113299034D01*
X241299648Y-113320556D01*
X241306539Y-113337722D01*
X241314689Y-113352186D01*
X241324223Y-113365606D01*
X241335266Y-113379638D01*
X241339566Y-113385071D01*
X241355386Y-113407910D01*
X241362422Y-113423463D01*
X241362444Y-113423922D01*
X241351567Y-113426121D01*
X241320582Y-113428147D01*
X241271957Y-113429942D01*
X241208163Y-113431451D01*
X241131669Y-113432616D01*
X241044944Y-113433380D01*
X240950457Y-113433686D01*
X240939550Y-113433689D01*
X240516657Y-113433689D01*
X240513395Y-113337622D01*
X240510133Y-113241556D01*
X240448044Y-113292543D01*
X240350714Y-113360057D01*
X240240813Y-113414749D01*
X240154349Y-113444978D01*
X240085278Y-113459666D01*
X240001925Y-113469659D01*
X239912159Y-113474646D01*
X239823845Y-113474313D01*
X239744851Y-113468351D01*
X239708622Y-113462638D01*
X239568603Y-113424776D01*
X239442178Y-113369932D01*
X239330260Y-113298924D01*
X239233762Y-113212568D01*
X239153600Y-113111679D01*
X239090687Y-112997076D01*
X239046312Y-112870984D01*
X239033978Y-112814401D01*
X239026368Y-112752202D01*
X239022739Y-112677363D01*
X239022245Y-112643467D01*
X239022310Y-112640282D01*
X239782248Y-112640282D01*
X239791541Y-112715333D01*
X239819728Y-112779160D01*
X239868197Y-112834798D01*
X239873254Y-112839211D01*
X239921548Y-112874037D01*
X239973257Y-112896620D01*
X240033989Y-112908540D01*
X240109352Y-112911383D01*
X240127459Y-112910978D01*
X240181278Y-112908325D01*
X240221308Y-112902909D01*
X240256324Y-112892745D01*
X240295103Y-112875850D01*
X240305745Y-112870672D01*
X240366396Y-112834844D01*
X240413215Y-112792212D01*
X240425952Y-112776973D01*
X240470622Y-112720462D01*
X240470622Y-112524586D01*
X240470086Y-112445939D01*
X240468396Y-112387988D01*
X240465428Y-112348875D01*
X240461057Y-112326741D01*
X240456972Y-112320274D01*
X240441047Y-112317111D01*
X240407264Y-112314488D01*
X240360340Y-112312655D01*
X240304993Y-112311857D01*
X240296106Y-112311842D01*
X240175330Y-112317096D01*
X240072660Y-112333263D01*
X239986106Y-112360961D01*
X239913681Y-112400808D01*
X239858751Y-112447758D01*
X239814204Y-112505645D01*
X239789480Y-112568693D01*
X239782248Y-112640282D01*
X239022310Y-112640282D01*
X239024178Y-112549712D01*
X239032522Y-112470812D01*
X239048768Y-112399590D01*
X239074405Y-112328864D01*
X239098401Y-112276493D01*
X239157020Y-112181196D01*
X239235117Y-112093170D01*
X239330315Y-112014017D01*
X239440238Y-111945340D01*
X239562510Y-111888741D01*
X239694755Y-111845821D01*
X239759422Y-111830882D01*
X239895604Y-111808777D01*
X240044049Y-111794194D01*
X240195505Y-111787813D01*
X240322064Y-111789445D01*
X240483950Y-111796224D01*
X240476530Y-111737245D01*
X240457238Y-111638092D01*
X240426104Y-111557372D01*
X240382269Y-111494466D01*
X240324871Y-111448756D01*
X240253048Y-111419622D01*
X240165941Y-111406447D01*
X240062686Y-111408611D01*
X240024711Y-111412612D01*
X239883520Y-111437780D01*
X239746707Y-111478814D01*
X239652178Y-111516815D01*
X239607018Y-111536190D01*
X239568585Y-111551760D01*
X239542234Y-111561405D01*
X239534546Y-111563452D01*
X239524802Y-111554374D01*
X239508083Y-111525405D01*
X239484232Y-111476217D01*
X239453093Y-111406484D01*
X239414507Y-111315879D01*
X239407910Y-111300089D01*
X239377853Y-111227772D01*
X239350874Y-111162425D01*
X239328136Y-111106906D01*
X239310806Y-111064072D01*
X239300048Y-111036781D01*
X239296941Y-111027942D01*
X239306940Y-111023187D01*
X239333217Y-111017910D01*
X239361489Y-111014231D01*
X239391646Y-111009474D01*
X239439433Y-111000028D01*
X239500612Y-110986820D01*
X239570946Y-110970776D01*
X239646194Y-110952820D01*
X239674755Y-110945797D01*
X239779816Y-110920209D01*
X239867480Y-110900147D01*
X239942068Y-110884969D01*
X240007903Y-110874035D01*
X240069307Y-110866704D01*
X240130602Y-110862335D01*
X240196110Y-110860287D01*
X240254128Y-110859889D01*
X240423574Y-110866552D01*
G37*
X240423574Y-110866552D02*
X240575492Y-110886567D01*
X240710756Y-110920202D01*
X240830239Y-110967725D01*
X240934815Y-111029405D01*
X241012424Y-111092965D01*
X241081265Y-111167099D01*
X241135006Y-111246871D01*
X241177910Y-111339091D01*
X241193384Y-111382161D01*
X241206244Y-111421142D01*
X241217446Y-111457289D01*
X241227120Y-111492434D01*
X241235396Y-111528410D01*
X241242403Y-111567050D01*
X241248272Y-111610185D01*
X241253131Y-111659649D01*
X241257110Y-111717273D01*
X241260340Y-111784891D01*
X241262949Y-111864334D01*
X241265067Y-111957436D01*
X241266824Y-112066027D01*
X241268349Y-112191942D01*
X241269772Y-112337012D01*
X241271025Y-112479778D01*
X241272351Y-112635968D01*
X241273556Y-112771239D01*
X241274766Y-112887246D01*
X241276106Y-112985645D01*
X241277700Y-113068093D01*
X241279675Y-113136246D01*
X241282156Y-113191760D01*
X241285269Y-113236292D01*
X241289138Y-113271498D01*
X241293889Y-113299034D01*
X241299648Y-113320556D01*
X241306539Y-113337722D01*
X241314689Y-113352186D01*
X241324223Y-113365606D01*
X241335266Y-113379638D01*
X241339566Y-113385071D01*
X241355386Y-113407910D01*
X241362422Y-113423463D01*
X241362444Y-113423922D01*
X241351567Y-113426121D01*
X241320582Y-113428147D01*
X241271957Y-113429942D01*
X241208163Y-113431451D01*
X241131669Y-113432616D01*
X241044944Y-113433380D01*
X240950457Y-113433686D01*
X240939550Y-113433689D01*
X240516657Y-113433689D01*
X240513395Y-113337622D01*
X240510133Y-113241556D01*
X240448044Y-113292543D01*
X240350714Y-113360057D01*
X240240813Y-113414749D01*
X240154349Y-113444978D01*
X240085278Y-113459666D01*
X240001925Y-113469659D01*
X239912159Y-113474646D01*
X239823845Y-113474313D01*
X239744851Y-113468351D01*
X239708622Y-113462638D01*
X239568603Y-113424776D01*
X239442178Y-113369932D01*
X239330260Y-113298924D01*
X239233762Y-113212568D01*
X239153600Y-113111679D01*
X239090687Y-112997076D01*
X239046312Y-112870984D01*
X239033978Y-112814401D01*
X239026368Y-112752202D01*
X239022739Y-112677363D01*
X239022245Y-112643467D01*
X239022310Y-112640282D01*
X239782248Y-112640282D01*
X239791541Y-112715333D01*
X239819728Y-112779160D01*
X239868197Y-112834798D01*
X239873254Y-112839211D01*
X239921548Y-112874037D01*
X239973257Y-112896620D01*
X240033989Y-112908540D01*
X240109352Y-112911383D01*
X240127459Y-112910978D01*
X240181278Y-112908325D01*
X240221308Y-112902909D01*
X240256324Y-112892745D01*
X240295103Y-112875850D01*
X240305745Y-112870672D01*
X240366396Y-112834844D01*
X240413215Y-112792212D01*
X240425952Y-112776973D01*
X240470622Y-112720462D01*
X240470622Y-112524586D01*
X240470086Y-112445939D01*
X240468396Y-112387988D01*
X240465428Y-112348875D01*
X240461057Y-112326741D01*
X240456972Y-112320274D01*
X240441047Y-112317111D01*
X240407264Y-112314488D01*
X240360340Y-112312655D01*
X240304993Y-112311857D01*
X240296106Y-112311842D01*
X240175330Y-112317096D01*
X240072660Y-112333263D01*
X239986106Y-112360961D01*
X239913681Y-112400808D01*
X239858751Y-112447758D01*
X239814204Y-112505645D01*
X239789480Y-112568693D01*
X239782248Y-112640282D01*
X239022310Y-112640282D01*
X239024178Y-112549712D01*
X239032522Y-112470812D01*
X239048768Y-112399590D01*
X239074405Y-112328864D01*
X239098401Y-112276493D01*
X239157020Y-112181196D01*
X239235117Y-112093170D01*
X239330315Y-112014017D01*
X239440238Y-111945340D01*
X239562510Y-111888741D01*
X239694755Y-111845821D01*
X239759422Y-111830882D01*
X239895604Y-111808777D01*
X240044049Y-111794194D01*
X240195505Y-111787813D01*
X240322064Y-111789445D01*
X240483950Y-111796224D01*
X240476530Y-111737245D01*
X240457238Y-111638092D01*
X240426104Y-111557372D01*
X240382269Y-111494466D01*
X240324871Y-111448756D01*
X240253048Y-111419622D01*
X240165941Y-111406447D01*
X240062686Y-111408611D01*
X240024711Y-111412612D01*
X239883520Y-111437780D01*
X239746707Y-111478814D01*
X239652178Y-111516815D01*
X239607018Y-111536190D01*
X239568585Y-111551760D01*
X239542234Y-111561405D01*
X239534546Y-111563452D01*
X239524802Y-111554374D01*
X239508083Y-111525405D01*
X239484232Y-111476217D01*
X239453093Y-111406484D01*
X239414507Y-111315879D01*
X239407910Y-111300089D01*
X239377853Y-111227772D01*
X239350874Y-111162425D01*
X239328136Y-111106906D01*
X239310806Y-111064072D01*
X239300048Y-111036781D01*
X239296941Y-111027942D01*
X239306940Y-111023187D01*
X239333217Y-111017910D01*
X239361489Y-111014231D01*
X239391646Y-111009474D01*
X239439433Y-111000028D01*
X239500612Y-110986820D01*
X239570946Y-110970776D01*
X239646194Y-110952820D01*
X239674755Y-110945797D01*
X239779816Y-110920209D01*
X239867480Y-110900147D01*
X239942068Y-110884969D01*
X240007903Y-110874035D01*
X240069307Y-110866704D01*
X240130602Y-110862335D01*
X240196110Y-110860287D01*
X240254128Y-110859889D01*
X240423574Y-110866552D01*
G36*
X243936507Y-111472245D02*
G01*
X243936526Y-111706662D01*
X243936552Y-111919603D01*
X243936625Y-112112168D01*
X243936782Y-112285459D01*
X243937064Y-112440576D01*
X243937509Y-112578620D01*
X243938156Y-112700692D01*
X243939045Y-112807894D01*
X243940213Y-112901326D01*
X243941701Y-112982090D01*
X243943546Y-113051286D01*
X243945789Y-113110015D01*
X243948469Y-113159379D01*
X243951623Y-113200478D01*
X243955292Y-113234413D01*
X243959513Y-113262286D01*
X243964327Y-113285198D01*
X243969773Y-113304249D01*
X243975888Y-113320540D01*
X243982712Y-113335173D01*
X243990285Y-113349249D01*
X243998645Y-113363868D01*
X244003839Y-113372974D01*
X244038104Y-113433689D01*
X243179955Y-113433689D01*
X243179955Y-113337733D01*
X243179224Y-113294370D01*
X243177272Y-113261205D01*
X243174463Y-113243424D01*
X243173221Y-113241778D01*
X243161799Y-113248662D01*
X243139084Y-113266505D01*
X243116385Y-113285879D01*
X243061800Y-113326614D01*
X242992321Y-113367617D01*
X242915270Y-113405123D01*
X242837965Y-113435364D01*
X242807113Y-113445012D01*
X242738616Y-113459578D01*
X242655764Y-113469539D01*
X242566371Y-113474583D01*
X242478248Y-113474396D01*
X242399207Y-113468666D01*
X242361511Y-113462858D01*
X242223414Y-113424797D01*
X242096113Y-113367073D01*
X241980292Y-113290211D01*
X241876637Y-113194739D01*
X241785833Y-113081179D01*
X241719031Y-112970381D01*
X241664164Y-112853625D01*
X241622163Y-112734276D01*
X241592167Y-112608283D01*
X241573311Y-112471594D01*
X241564732Y-112320158D01*
X241564006Y-112242711D01*
X241566100Y-112185934D01*
X242395217Y-112185934D01*
X242395424Y-112279002D01*
X242398337Y-112366692D01*
X242404000Y-112443772D01*
X242412455Y-112505009D01*
X242415038Y-112517350D01*
X242446840Y-112624633D01*
X242488498Y-112711658D01*
X242540363Y-112778642D01*
X242602781Y-112825805D01*
X242676100Y-112853365D01*
X242760669Y-112861541D01*
X242856835Y-112850551D01*
X242920311Y-112834829D01*
X242969454Y-112816639D01*
X243023583Y-112790791D01*
X243064244Y-112767089D01*
X243134800Y-112720721D01*
X243134800Y-111570530D01*
X243067392Y-111526962D01*
X242988867Y-111486040D01*
X242904681Y-111459389D01*
X242819557Y-111447465D01*
X242738216Y-111450722D01*
X242665380Y-111469615D01*
X242633426Y-111485184D01*
X242575501Y-111528181D01*
X242526544Y-111584953D01*
X242485390Y-111657575D01*
X242450874Y-111748121D01*
X242421833Y-111858666D01*
X242420552Y-111864533D01*
X242410381Y-111926788D01*
X242402739Y-112004594D01*
X242397670Y-112092720D01*
X242395217Y-112185934D01*
X241566100Y-112185934D01*
X241571857Y-112029895D01*
X241593802Y-111834059D01*
X241629786Y-111655332D01*
X241679759Y-111493845D01*
X241743668Y-111349726D01*
X241821462Y-111223106D01*
X241913089Y-111114115D01*
X242018497Y-111022883D01*
X242063662Y-110991932D01*
X242164611Y-110935785D01*
X242267901Y-110896174D01*
X242377989Y-110872014D01*
X242499330Y-110862219D01*
X242591836Y-110863265D01*
X242721490Y-110874231D01*
X242834084Y-110896046D01*
X242932875Y-110929714D01*
X243021121Y-110976236D01*
X243069986Y-111010448D01*
X243099353Y-111032362D01*
X243121043Y-111047333D01*
X243129253Y-111051733D01*
X243130868Y-111040904D01*
X243132159Y-111010251D01*
X243133138Y-110962526D01*
X243133817Y-110900479D01*
X243134210Y-110826862D01*
X243134330Y-110744427D01*
X243134188Y-110655925D01*
X243133797Y-110564107D01*
X243133171Y-110471724D01*
X243132320Y-110381528D01*
X243131260Y-110296271D01*
X243130001Y-110218703D01*
X243128556Y-110151576D01*
X243126938Y-110097641D01*
X243125161Y-110059650D01*
X243124669Y-110052667D01*
X243117092Y-109982251D01*
X243105531Y-109927102D01*
X243087792Y-109879981D01*
X243061682Y-109833647D01*
X243055415Y-109824067D01*
X243030983Y-109787378D01*
X243936311Y-109787378D01*
X243936507Y-111472245D01*
G37*
X243936507Y-111472245D02*
X243936526Y-111706662D01*
X243936552Y-111919603D01*
X243936625Y-112112168D01*
X243936782Y-112285459D01*
X243937064Y-112440576D01*
X243937509Y-112578620D01*
X243938156Y-112700692D01*
X243939045Y-112807894D01*
X243940213Y-112901326D01*
X243941701Y-112982090D01*
X243943546Y-113051286D01*
X243945789Y-113110015D01*
X243948469Y-113159379D01*
X243951623Y-113200478D01*
X243955292Y-113234413D01*
X243959513Y-113262286D01*
X243964327Y-113285198D01*
X243969773Y-113304249D01*
X243975888Y-113320540D01*
X243982712Y-113335173D01*
X243990285Y-113349249D01*
X243998645Y-113363868D01*
X244003839Y-113372974D01*
X244038104Y-113433689D01*
X243179955Y-113433689D01*
X243179955Y-113337733D01*
X243179224Y-113294370D01*
X243177272Y-113261205D01*
X243174463Y-113243424D01*
X243173221Y-113241778D01*
X243161799Y-113248662D01*
X243139084Y-113266505D01*
X243116385Y-113285879D01*
X243061800Y-113326614D01*
X242992321Y-113367617D01*
X242915270Y-113405123D01*
X242837965Y-113435364D01*
X242807113Y-113445012D01*
X242738616Y-113459578D01*
X242655764Y-113469539D01*
X242566371Y-113474583D01*
X242478248Y-113474396D01*
X242399207Y-113468666D01*
X242361511Y-113462858D01*
X242223414Y-113424797D01*
X242096113Y-113367073D01*
X241980292Y-113290211D01*
X241876637Y-113194739D01*
X241785833Y-113081179D01*
X241719031Y-112970381D01*
X241664164Y-112853625D01*
X241622163Y-112734276D01*
X241592167Y-112608283D01*
X241573311Y-112471594D01*
X241564732Y-112320158D01*
X241564006Y-112242711D01*
X241566100Y-112185934D01*
X242395217Y-112185934D01*
X242395424Y-112279002D01*
X242398337Y-112366692D01*
X242404000Y-112443772D01*
X242412455Y-112505009D01*
X242415038Y-112517350D01*
X242446840Y-112624633D01*
X242488498Y-112711658D01*
X242540363Y-112778642D01*
X242602781Y-112825805D01*
X242676100Y-112853365D01*
X242760669Y-112861541D01*
X242856835Y-112850551D01*
X242920311Y-112834829D01*
X242969454Y-112816639D01*
X243023583Y-112790791D01*
X243064244Y-112767089D01*
X243134800Y-112720721D01*
X243134800Y-111570530D01*
X243067392Y-111526962D01*
X242988867Y-111486040D01*
X242904681Y-111459389D01*
X242819557Y-111447465D01*
X242738216Y-111450722D01*
X242665380Y-111469615D01*
X242633426Y-111485184D01*
X242575501Y-111528181D01*
X242526544Y-111584953D01*
X242485390Y-111657575D01*
X242450874Y-111748121D01*
X242421833Y-111858666D01*
X242420552Y-111864533D01*
X242410381Y-111926788D01*
X242402739Y-112004594D01*
X242397670Y-112092720D01*
X242395217Y-112185934D01*
X241566100Y-112185934D01*
X241571857Y-112029895D01*
X241593802Y-111834059D01*
X241629786Y-111655332D01*
X241679759Y-111493845D01*
X241743668Y-111349726D01*
X241821462Y-111223106D01*
X241913089Y-111114115D01*
X242018497Y-111022883D01*
X242063662Y-110991932D01*
X242164611Y-110935785D01*
X242267901Y-110896174D01*
X242377989Y-110872014D01*
X242499330Y-110862219D01*
X242591836Y-110863265D01*
X242721490Y-110874231D01*
X242834084Y-110896046D01*
X242932875Y-110929714D01*
X243021121Y-110976236D01*
X243069986Y-111010448D01*
X243099353Y-111032362D01*
X243121043Y-111047333D01*
X243129253Y-111051733D01*
X243130868Y-111040904D01*
X243132159Y-111010251D01*
X243133138Y-110962526D01*
X243133817Y-110900479D01*
X243134210Y-110826862D01*
X243134330Y-110744427D01*
X243134188Y-110655925D01*
X243133797Y-110564107D01*
X243133171Y-110471724D01*
X243132320Y-110381528D01*
X243131260Y-110296271D01*
X243130001Y-110218703D01*
X243128556Y-110151576D01*
X243126938Y-110097641D01*
X243125161Y-110059650D01*
X243124669Y-110052667D01*
X243117092Y-109982251D01*
X243105531Y-109927102D01*
X243087792Y-109879981D01*
X243061682Y-109833647D01*
X243055415Y-109824067D01*
X243030983Y-109787378D01*
X243936311Y-109787378D01*
X243936507Y-111472245D01*
G36*
X235476957Y-109026571D02*
G01*
X235573232Y-109050809D01*
X235659816Y-109093641D01*
X235734627Y-109153419D01*
X235795582Y-109228494D01*
X235840601Y-109317220D01*
X235866864Y-109413530D01*
X235872714Y-109510795D01*
X235857860Y-109604654D01*
X235824160Y-109692511D01*
X235773472Y-109771770D01*
X235707655Y-109839836D01*
X235628566Y-109894112D01*
X235538066Y-109932002D01*
X235486800Y-109944426D01*
X235442302Y-109951947D01*
X235408001Y-109954919D01*
X235375040Y-109953094D01*
X235334566Y-109946225D01*
X235301469Y-109939250D01*
X235208053Y-109907741D01*
X235124381Y-109856617D01*
X235052335Y-109787429D01*
X234993800Y-109701728D01*
X234979852Y-109674489D01*
X234963414Y-109638122D01*
X234953106Y-109607582D01*
X234947540Y-109575450D01*
X234945331Y-109534307D01*
X234945052Y-109488222D01*
X234949139Y-109403865D01*
X234962554Y-109334586D01*
X234987744Y-109273961D01*
X235027154Y-109215567D01*
X235065702Y-109171302D01*
X235137594Y-109105484D01*
X235212687Y-109060053D01*
X235295438Y-109032850D01*
X235373072Y-109022576D01*
X235476957Y-109026571D01*
G37*
X235476957Y-109026571D02*
X235573232Y-109050809D01*
X235659816Y-109093641D01*
X235734627Y-109153419D01*
X235795582Y-109228494D01*
X235840601Y-109317220D01*
X235866864Y-109413530D01*
X235872714Y-109510795D01*
X235857860Y-109604654D01*
X235824160Y-109692511D01*
X235773472Y-109771770D01*
X235707655Y-109839836D01*
X235628566Y-109894112D01*
X235538066Y-109932002D01*
X235486800Y-109944426D01*
X235442302Y-109951947D01*
X235408001Y-109954919D01*
X235375040Y-109953094D01*
X235334566Y-109946225D01*
X235301469Y-109939250D01*
X235208053Y-109907741D01*
X235124381Y-109856617D01*
X235052335Y-109787429D01*
X234993800Y-109701728D01*
X234979852Y-109674489D01*
X234963414Y-109638122D01*
X234953106Y-109607582D01*
X234947540Y-109575450D01*
X234945331Y-109534307D01*
X234945052Y-109488222D01*
X234949139Y-109403865D01*
X234962554Y-109334586D01*
X234987744Y-109273961D01*
X235027154Y-109215567D01*
X235065702Y-109171302D01*
X235137594Y-109105484D01*
X235212687Y-109060053D01*
X235295438Y-109032850D01*
X235373072Y-109022576D01*
X235476957Y-109026571D01*
G36*
X231628629Y-114269066D02*
G01*
X231668111Y-114269467D01*
X231783800Y-114272259D01*
X231880689Y-114280550D01*
X231962081Y-114295232D01*
X232031277Y-114317193D01*
X232091580Y-114347322D01*
X232146292Y-114386510D01*
X232165833Y-114403532D01*
X232198250Y-114443363D01*
X232227480Y-114497413D01*
X232250009Y-114557323D01*
X232262321Y-114614739D01*
X232263600Y-114635956D01*
X232255583Y-114694769D01*
X232234101Y-114759013D01*
X232203001Y-114819821D01*
X232166134Y-114868330D01*
X232160146Y-114874182D01*
X232109421Y-114915321D01*
X232053875Y-114947435D01*
X231990304Y-114971365D01*
X231915506Y-114987953D01*
X231826278Y-114998041D01*
X231719418Y-115002469D01*
X231670472Y-115002845D01*
X231608238Y-115002545D01*
X231564472Y-115001292D01*
X231535069Y-114998554D01*
X231515921Y-114993801D01*
X231502923Y-114986501D01*
X231495955Y-114980267D01*
X231489374Y-114972694D01*
X231484212Y-114962924D01*
X231480297Y-114948340D01*
X231477457Y-114926326D01*
X231475520Y-114894264D01*
X231474316Y-114849536D01*
X231473672Y-114789526D01*
X231473417Y-114711617D01*
X231473378Y-114635956D01*
X231473130Y-114535041D01*
X231473183Y-114454427D01*
X231474143Y-114415822D01*
X231620133Y-114415822D01*
X231620133Y-114856089D01*
X231713266Y-114856004D01*
X231769307Y-114854396D01*
X231828001Y-114850256D01*
X231876972Y-114844464D01*
X231878462Y-114844226D01*
X231957608Y-114825090D01*
X232018998Y-114795287D01*
X232065695Y-114752878D01*
X232095365Y-114706961D01*
X232113647Y-114656026D01*
X232112229Y-114608200D01*
X232091012Y-114556933D01*
X232049511Y-114503899D01*
X231992002Y-114464600D01*
X231917250Y-114438331D01*
X231867292Y-114429035D01*
X231810584Y-114422507D01*
X231750481Y-114417782D01*
X231699361Y-114415817D01*
X231696333Y-114415808D01*
X231620133Y-114415822D01*
X231474143Y-114415822D01*
X231474740Y-114391851D01*
X231479002Y-114345055D01*
X231487170Y-114311778D01*
X231500444Y-114289759D01*
X231520026Y-114276739D01*
X231547117Y-114270457D01*
X231582918Y-114268653D01*
X231628629Y-114269066D01*
G37*
X231628629Y-114269066D02*
X231668111Y-114269467D01*
X231783800Y-114272259D01*
X231880689Y-114280550D01*
X231962081Y-114295232D01*
X232031277Y-114317193D01*
X232091580Y-114347322D01*
X232146292Y-114386510D01*
X232165833Y-114403532D01*
X232198250Y-114443363D01*
X232227480Y-114497413D01*
X232250009Y-114557323D01*
X232262321Y-114614739D01*
X232263600Y-114635956D01*
X232255583Y-114694769D01*
X232234101Y-114759013D01*
X232203001Y-114819821D01*
X232166134Y-114868330D01*
X232160146Y-114874182D01*
X232109421Y-114915321D01*
X232053875Y-114947435D01*
X231990304Y-114971365D01*
X231915506Y-114987953D01*
X231826278Y-114998041D01*
X231719418Y-115002469D01*
X231670472Y-115002845D01*
X231608238Y-115002545D01*
X231564472Y-115001292D01*
X231535069Y-114998554D01*
X231515921Y-114993801D01*
X231502923Y-114986501D01*
X231495955Y-114980267D01*
X231489374Y-114972694D01*
X231484212Y-114962924D01*
X231480297Y-114948340D01*
X231477457Y-114926326D01*
X231475520Y-114894264D01*
X231474316Y-114849536D01*
X231473672Y-114789526D01*
X231473417Y-114711617D01*
X231473378Y-114635956D01*
X231473130Y-114535041D01*
X231473183Y-114454427D01*
X231474143Y-114415822D01*
X231620133Y-114415822D01*
X231620133Y-114856089D01*
X231713266Y-114856004D01*
X231769307Y-114854396D01*
X231828001Y-114850256D01*
X231876972Y-114844464D01*
X231878462Y-114844226D01*
X231957608Y-114825090D01*
X232018998Y-114795287D01*
X232065695Y-114752878D01*
X232095365Y-114706961D01*
X232113647Y-114656026D01*
X232112229Y-114608200D01*
X232091012Y-114556933D01*
X232049511Y-114503899D01*
X231992002Y-114464600D01*
X231917250Y-114438331D01*
X231867292Y-114429035D01*
X231810584Y-114422507D01*
X231750481Y-114417782D01*
X231699361Y-114415817D01*
X231696333Y-114415808D01*
X231620133Y-114415822D01*
X231474143Y-114415822D01*
X231474740Y-114391851D01*
X231479002Y-114345055D01*
X231487170Y-114311778D01*
X231500444Y-114289759D01*
X231520026Y-114276739D01*
X231547117Y-114270457D01*
X231582918Y-114268653D01*
X231628629Y-114269066D01*
G36*
X233037206Y-114269146D02*
G01*
X233106614Y-114269518D01*
X233159003Y-114270385D01*
X233197153Y-114271946D01*
X233223841Y-114274403D01*
X233241847Y-114277957D01*
X233253951Y-114282810D01*
X233262931Y-114289161D01*
X233266182Y-114292084D01*
X233285957Y-114323142D01*
X233289518Y-114358828D01*
X233276509Y-114390510D01*
X233270494Y-114396913D01*
X233260765Y-114403121D01*
X233245099Y-114407910D01*
X233220592Y-114411514D01*
X233184339Y-114414164D01*
X233133435Y-114416095D01*
X233064974Y-114417539D01*
X233002383Y-114418418D01*
X232754666Y-114421467D01*
X232751281Y-114486378D01*
X232747895Y-114551289D01*
X232916042Y-114551289D01*
X232989041Y-114551919D01*
X233042483Y-114554553D01*
X233079372Y-114560309D01*
X233102712Y-114570304D01*
X233115506Y-114585656D01*
X233120758Y-114607482D01*
X233121555Y-114627738D01*
X233119077Y-114652592D01*
X233109723Y-114670906D01*
X233090617Y-114683637D01*
X233058882Y-114691741D01*
X233011641Y-114696176D01*
X232946017Y-114697899D01*
X232910199Y-114698045D01*
X232749022Y-114698045D01*
X232749022Y-114856089D01*
X232997378Y-114856089D01*
X233078787Y-114856202D01*
X233140658Y-114856712D01*
X233186032Y-114857870D01*
X233217946Y-114859930D01*
X233239441Y-114863146D01*
X233253557Y-114867772D01*
X233263332Y-114874059D01*
X233268311Y-114878667D01*
X233285390Y-114905560D01*
X233290889Y-114929467D01*
X233283037Y-114958667D01*
X233268311Y-114980267D01*
X233260454Y-114987066D01*
X233250312Y-114992346D01*
X233235156Y-114996298D01*
X233212259Y-114999113D01*
X233178891Y-115000982D01*
X233132325Y-115002098D01*
X233069833Y-115002651D01*
X232988686Y-115002833D01*
X232946578Y-115002845D01*
X232856402Y-115002765D01*
X232786076Y-115002398D01*
X232732871Y-115001552D01*
X232694060Y-115000036D01*
X232666913Y-114997659D01*
X232648702Y-114994229D01*
X232636700Y-114989554D01*
X232628178Y-114983444D01*
X232624844Y-114980267D01*
X232618245Y-114972670D01*
X232613073Y-114962870D01*
X232609154Y-114948239D01*
X232606316Y-114926152D01*
X232604385Y-114893982D01*
X232603188Y-114849103D01*
X232602552Y-114788889D01*
X232602303Y-114710713D01*
X232602266Y-114637923D01*
X232602300Y-114544707D01*
X232602535Y-114471431D01*
X232603170Y-114415458D01*
X232604406Y-114374151D01*
X232606444Y-114344872D01*
X232609483Y-114324984D01*
X232613723Y-114311850D01*
X232619365Y-114302832D01*
X232626609Y-114295293D01*
X232628394Y-114293612D01*
X232637055Y-114286172D01*
X232647118Y-114280409D01*
X232661375Y-114276112D01*
X232682617Y-114273064D01*
X232713636Y-114271051D01*
X232757223Y-114269860D01*
X232816169Y-114269275D01*
X232893266Y-114269083D01*
X232947999Y-114269067D01*
X233037206Y-114269146D01*
G37*
X233037206Y-114269146D02*
X233106614Y-114269518D01*
X233159003Y-114270385D01*
X233197153Y-114271946D01*
X233223841Y-114274403D01*
X233241847Y-114277957D01*
X233253951Y-114282810D01*
X233262931Y-114289161D01*
X233266182Y-114292084D01*
X233285957Y-114323142D01*
X233289518Y-114358828D01*
X233276509Y-114390510D01*
X233270494Y-114396913D01*
X233260765Y-114403121D01*
X233245099Y-114407910D01*
X233220592Y-114411514D01*
X233184339Y-114414164D01*
X233133435Y-114416095D01*
X233064974Y-114417539D01*
X233002383Y-114418418D01*
X232754666Y-114421467D01*
X232751281Y-114486378D01*
X232747895Y-114551289D01*
X232916042Y-114551289D01*
X232989041Y-114551919D01*
X233042483Y-114554553D01*
X233079372Y-114560309D01*
X233102712Y-114570304D01*
X233115506Y-114585656D01*
X233120758Y-114607482D01*
X233121555Y-114627738D01*
X233119077Y-114652592D01*
X233109723Y-114670906D01*
X233090617Y-114683637D01*
X233058882Y-114691741D01*
X233011641Y-114696176D01*
X232946017Y-114697899D01*
X232910199Y-114698045D01*
X232749022Y-114698045D01*
X232749022Y-114856089D01*
X232997378Y-114856089D01*
X233078787Y-114856202D01*
X233140658Y-114856712D01*
X233186032Y-114857870D01*
X233217946Y-114859930D01*
X233239441Y-114863146D01*
X233253557Y-114867772D01*
X233263332Y-114874059D01*
X233268311Y-114878667D01*
X233285390Y-114905560D01*
X233290889Y-114929467D01*
X233283037Y-114958667D01*
X233268311Y-114980267D01*
X233260454Y-114987066D01*
X233250312Y-114992346D01*
X233235156Y-114996298D01*
X233212259Y-114999113D01*
X233178891Y-115000982D01*
X233132325Y-115002098D01*
X233069833Y-115002651D01*
X232988686Y-115002833D01*
X232946578Y-115002845D01*
X232856402Y-115002765D01*
X232786076Y-115002398D01*
X232732871Y-115001552D01*
X232694060Y-115000036D01*
X232666913Y-114997659D01*
X232648702Y-114994229D01*
X232636700Y-114989554D01*
X232628178Y-114983444D01*
X232624844Y-114980267D01*
X232618245Y-114972670D01*
X232613073Y-114962870D01*
X232609154Y-114948239D01*
X232606316Y-114926152D01*
X232604385Y-114893982D01*
X232603188Y-114849103D01*
X232602552Y-114788889D01*
X232602303Y-114710713D01*
X232602266Y-114637923D01*
X232602300Y-114544707D01*
X232602535Y-114471431D01*
X232603170Y-114415458D01*
X232604406Y-114374151D01*
X232606444Y-114344872D01*
X232609483Y-114324984D01*
X232613723Y-114311850D01*
X232619365Y-114302832D01*
X232626609Y-114295293D01*
X232628394Y-114293612D01*
X232637055Y-114286172D01*
X232647118Y-114280409D01*
X232661375Y-114276112D01*
X232682617Y-114273064D01*
X232713636Y-114271051D01*
X232757223Y-114269860D01*
X232816169Y-114269275D01*
X232893266Y-114269083D01*
X232947999Y-114269067D01*
X233037206Y-114269146D01*
G36*
X234058297Y-114270351D02*
G01*
X234133112Y-114275581D01*
X234202694Y-114283750D01*
X234262998Y-114294550D01*
X234309980Y-114307673D01*
X234339594Y-114322813D01*
X234344140Y-114327269D01*
X234359946Y-114361850D01*
X234355153Y-114397351D01*
X234330636Y-114427725D01*
X234329466Y-114428596D01*
X234315046Y-114437954D01*
X234299992Y-114442876D01*
X234278995Y-114443473D01*
X234246743Y-114439861D01*
X234197927Y-114432154D01*
X234194000Y-114431505D01*
X234121261Y-114422569D01*
X234042783Y-114418161D01*
X233964073Y-114418119D01*
X233890639Y-114422279D01*
X233827989Y-114430479D01*
X233781630Y-114442557D01*
X233778584Y-114443771D01*
X233744952Y-114462615D01*
X233733136Y-114481685D01*
X233742386Y-114500439D01*
X233771953Y-114518337D01*
X233821089Y-114534837D01*
X233889043Y-114549396D01*
X233934355Y-114556406D01*
X234028544Y-114569889D01*
X234103456Y-114582214D01*
X234162283Y-114594449D01*
X234208215Y-114607661D01*
X234244445Y-114622917D01*
X234274162Y-114641285D01*
X234300558Y-114663831D01*
X234321770Y-114685971D01*
X234346935Y-114716819D01*
X234359319Y-114743345D01*
X234363192Y-114776026D01*
X234363333Y-114787995D01*
X234360424Y-114827712D01*
X234348798Y-114857259D01*
X234328677Y-114883486D01*
X234287784Y-114923576D01*
X234242183Y-114954149D01*
X234188487Y-114976203D01*
X234123308Y-114990735D01*
X234043256Y-114998741D01*
X233944943Y-115001218D01*
X233928711Y-115001177D01*
X233863151Y-114999818D01*
X233798134Y-114996730D01*
X233740748Y-114992356D01*
X233698078Y-114987140D01*
X233694628Y-114986541D01*
X233652204Y-114976491D01*
X233616220Y-114963796D01*
X233595850Y-114952190D01*
X233576893Y-114921572D01*
X233575573Y-114885918D01*
X233591915Y-114854144D01*
X233595571Y-114850551D01*
X233610685Y-114839876D01*
X233629585Y-114835276D01*
X233658838Y-114836059D01*
X233694349Y-114840127D01*
X233734030Y-114843762D01*
X233789655Y-114846828D01*
X233854594Y-114849053D01*
X233922215Y-114850164D01*
X233940000Y-114850237D01*
X234007872Y-114849964D01*
X234057546Y-114848646D01*
X234093390Y-114845827D01*
X234119776Y-114841050D01*
X234141074Y-114833857D01*
X234153874Y-114827867D01*
X234182000Y-114811233D01*
X234199932Y-114796168D01*
X234202553Y-114791897D01*
X234197024Y-114774263D01*
X234170740Y-114757192D01*
X234125522Y-114741458D01*
X234063192Y-114727838D01*
X234044829Y-114724804D01*
X233948910Y-114709738D01*
X233872359Y-114697146D01*
X233812220Y-114686111D01*
X233765540Y-114675720D01*
X233729363Y-114665056D01*
X233700735Y-114653205D01*
X233676702Y-114639251D01*
X233654308Y-114622281D01*
X233630598Y-114601378D01*
X233622620Y-114594049D01*
X233594647Y-114566699D01*
X233579840Y-114545029D01*
X233574048Y-114520232D01*
X233573111Y-114488983D01*
X233583425Y-114427705D01*
X233614248Y-114375640D01*
X233665405Y-114332958D01*
X233736717Y-114299825D01*
X233787600Y-114284964D01*
X233842900Y-114275366D01*
X233909147Y-114269936D01*
X233982294Y-114268367D01*
X234058297Y-114270351D01*
G37*
X234058297Y-114270351D02*
X234133112Y-114275581D01*
X234202694Y-114283750D01*
X234262998Y-114294550D01*
X234309980Y-114307673D01*
X234339594Y-114322813D01*
X234344140Y-114327269D01*
X234359946Y-114361850D01*
X234355153Y-114397351D01*
X234330636Y-114427725D01*
X234329466Y-114428596D01*
X234315046Y-114437954D01*
X234299992Y-114442876D01*
X234278995Y-114443473D01*
X234246743Y-114439861D01*
X234197927Y-114432154D01*
X234194000Y-114431505D01*
X234121261Y-114422569D01*
X234042783Y-114418161D01*
X233964073Y-114418119D01*
X233890639Y-114422279D01*
X233827989Y-114430479D01*
X233781630Y-114442557D01*
X233778584Y-114443771D01*
X233744952Y-114462615D01*
X233733136Y-114481685D01*
X233742386Y-114500439D01*
X233771953Y-114518337D01*
X233821089Y-114534837D01*
X233889043Y-114549396D01*
X233934355Y-114556406D01*
X234028544Y-114569889D01*
X234103456Y-114582214D01*
X234162283Y-114594449D01*
X234208215Y-114607661D01*
X234244445Y-114622917D01*
X234274162Y-114641285D01*
X234300558Y-114663831D01*
X234321770Y-114685971D01*
X234346935Y-114716819D01*
X234359319Y-114743345D01*
X234363192Y-114776026D01*
X234363333Y-114787995D01*
X234360424Y-114827712D01*
X234348798Y-114857259D01*
X234328677Y-114883486D01*
X234287784Y-114923576D01*
X234242183Y-114954149D01*
X234188487Y-114976203D01*
X234123308Y-114990735D01*
X234043256Y-114998741D01*
X233944943Y-115001218D01*
X233928711Y-115001177D01*
X233863151Y-114999818D01*
X233798134Y-114996730D01*
X233740748Y-114992356D01*
X233698078Y-114987140D01*
X233694628Y-114986541D01*
X233652204Y-114976491D01*
X233616220Y-114963796D01*
X233595850Y-114952190D01*
X233576893Y-114921572D01*
X233575573Y-114885918D01*
X233591915Y-114854144D01*
X233595571Y-114850551D01*
X233610685Y-114839876D01*
X233629585Y-114835276D01*
X233658838Y-114836059D01*
X233694349Y-114840127D01*
X233734030Y-114843762D01*
X233789655Y-114846828D01*
X233854594Y-114849053D01*
X233922215Y-114850164D01*
X233940000Y-114850237D01*
X234007872Y-114849964D01*
X234057546Y-114848646D01*
X234093390Y-114845827D01*
X234119776Y-114841050D01*
X234141074Y-114833857D01*
X234153874Y-114827867D01*
X234182000Y-114811233D01*
X234199932Y-114796168D01*
X234202553Y-114791897D01*
X234197024Y-114774263D01*
X234170740Y-114757192D01*
X234125522Y-114741458D01*
X234063192Y-114727838D01*
X234044829Y-114724804D01*
X233948910Y-114709738D01*
X233872359Y-114697146D01*
X233812220Y-114686111D01*
X233765540Y-114675720D01*
X233729363Y-114665056D01*
X233700735Y-114653205D01*
X233676702Y-114639251D01*
X233654308Y-114622281D01*
X233630598Y-114601378D01*
X233622620Y-114594049D01*
X233594647Y-114566699D01*
X233579840Y-114545029D01*
X233574048Y-114520232D01*
X233573111Y-114488983D01*
X233583425Y-114427705D01*
X233614248Y-114375640D01*
X233665405Y-114332958D01*
X233736717Y-114299825D01*
X233787600Y-114284964D01*
X233842900Y-114275366D01*
X233909147Y-114269936D01*
X233982294Y-114268367D01*
X234058297Y-114270351D01*
G36*
X234826178Y-114291645D02*
G01*
X234832758Y-114299218D01*
X234837921Y-114308987D01*
X234841836Y-114323571D01*
X234844676Y-114345585D01*
X234846613Y-114377648D01*
X234847817Y-114422375D01*
X234848461Y-114482385D01*
X234848716Y-114560294D01*
X234848755Y-114635956D01*
X234848686Y-114729802D01*
X234848362Y-114803689D01*
X234847614Y-114860232D01*
X234846268Y-114902049D01*
X234844154Y-114931757D01*
X234841100Y-114951973D01*
X234836934Y-114965314D01*
X234831484Y-114974398D01*
X234826178Y-114980267D01*
X234793174Y-114999947D01*
X234758009Y-114998181D01*
X234726545Y-114976717D01*
X234719316Y-114968337D01*
X234713666Y-114958614D01*
X234709401Y-114944861D01*
X234706327Y-114924389D01*
X234704248Y-114894512D01*
X234702970Y-114852541D01*
X234702299Y-114795789D01*
X234702041Y-114721567D01*
X234702000Y-114637537D01*
X234702000Y-114324485D01*
X234729709Y-114296776D01*
X234763863Y-114273463D01*
X234796994Y-114272623D01*
X234826178Y-114291645D01*
G37*
X234826178Y-114291645D02*
X234832758Y-114299218D01*
X234837921Y-114308987D01*
X234841836Y-114323571D01*
X234844676Y-114345585D01*
X234846613Y-114377648D01*
X234847817Y-114422375D01*
X234848461Y-114482385D01*
X234848716Y-114560294D01*
X234848755Y-114635956D01*
X234848686Y-114729802D01*
X234848362Y-114803689D01*
X234847614Y-114860232D01*
X234846268Y-114902049D01*
X234844154Y-114931757D01*
X234841100Y-114951973D01*
X234836934Y-114965314D01*
X234831484Y-114974398D01*
X234826178Y-114980267D01*
X234793174Y-114999947D01*
X234758009Y-114998181D01*
X234726545Y-114976717D01*
X234719316Y-114968337D01*
X234713666Y-114958614D01*
X234709401Y-114944861D01*
X234706327Y-114924389D01*
X234704248Y-114894512D01*
X234702970Y-114852541D01*
X234702299Y-114795789D01*
X234702041Y-114721567D01*
X234702000Y-114637537D01*
X234702000Y-114324485D01*
X234729709Y-114296776D01*
X234763863Y-114273463D01*
X234796994Y-114272623D01*
X234826178Y-114291645D01*
G36*
X235799919Y-114274599D02*
G01*
X235868435Y-114286095D01*
X235921057Y-114303967D01*
X235955292Y-114327499D01*
X235964621Y-114340924D01*
X235974107Y-114372148D01*
X235967723Y-114400395D01*
X235947570Y-114427182D01*
X235916255Y-114439713D01*
X235870817Y-114438696D01*
X235835674Y-114431906D01*
X235757581Y-114418971D01*
X235677774Y-114417742D01*
X235588445Y-114428241D01*
X235563771Y-114432690D01*
X235480709Y-114456108D01*
X235415727Y-114490945D01*
X235369539Y-114536604D01*
X235342855Y-114592494D01*
X235337337Y-114621388D01*
X235340949Y-114680012D01*
X235364271Y-114731879D01*
X235405176Y-114775978D01*
X235461541Y-114811299D01*
X235531240Y-114836829D01*
X235612148Y-114851559D01*
X235702140Y-114854478D01*
X235799090Y-114844575D01*
X235804564Y-114843641D01*
X235843125Y-114836459D01*
X235864506Y-114829521D01*
X235873773Y-114819227D01*
X235875994Y-114801976D01*
X235876044Y-114792841D01*
X235876044Y-114754489D01*
X235807569Y-114754489D01*
X235747100Y-114750347D01*
X235705835Y-114737147D01*
X235681825Y-114713730D01*
X235673123Y-114678936D01*
X235673017Y-114674394D01*
X235678108Y-114644654D01*
X235695567Y-114623419D01*
X235728061Y-114609366D01*
X235778257Y-114601173D01*
X235826877Y-114598161D01*
X235897544Y-114596433D01*
X235948802Y-114599070D01*
X235983761Y-114608800D01*
X236005530Y-114628353D01*
X236017220Y-114660456D01*
X236021940Y-114707838D01*
X236022800Y-114770071D01*
X236021391Y-114839535D01*
X236017152Y-114886786D01*
X236010064Y-114912012D01*
X236008689Y-114913988D01*
X235969772Y-114945508D01*
X235912714Y-114970470D01*
X235841131Y-114988340D01*
X235758642Y-114998586D01*
X235668861Y-115000673D01*
X235575408Y-114994068D01*
X235520444Y-114985956D01*
X235434234Y-114961554D01*
X235354108Y-114921662D01*
X235287023Y-114869887D01*
X235276827Y-114859539D01*
X235243698Y-114816035D01*
X235213806Y-114762118D01*
X235190643Y-114705592D01*
X235177702Y-114654259D01*
X235176142Y-114634544D01*
X235182782Y-114593419D01*
X235200432Y-114542252D01*
X235225703Y-114488394D01*
X235255211Y-114439195D01*
X235281281Y-114406334D01*
X235342235Y-114357452D01*
X235421031Y-114318545D01*
X235514843Y-114290494D01*
X235620850Y-114274179D01*
X235718000Y-114270192D01*
X235799919Y-114274599D01*
G37*
X235799919Y-114274599D02*
X235868435Y-114286095D01*
X235921057Y-114303967D01*
X235955292Y-114327499D01*
X235964621Y-114340924D01*
X235974107Y-114372148D01*
X235967723Y-114400395D01*
X235947570Y-114427182D01*
X235916255Y-114439713D01*
X235870817Y-114438696D01*
X235835674Y-114431906D01*
X235757581Y-114418971D01*
X235677774Y-114417742D01*
X235588445Y-114428241D01*
X235563771Y-114432690D01*
X235480709Y-114456108D01*
X235415727Y-114490945D01*
X235369539Y-114536604D01*
X235342855Y-114592494D01*
X235337337Y-114621388D01*
X235340949Y-114680012D01*
X235364271Y-114731879D01*
X235405176Y-114775978D01*
X235461541Y-114811299D01*
X235531240Y-114836829D01*
X235612148Y-114851559D01*
X235702140Y-114854478D01*
X235799090Y-114844575D01*
X235804564Y-114843641D01*
X235843125Y-114836459D01*
X235864506Y-114829521D01*
X235873773Y-114819227D01*
X235875994Y-114801976D01*
X235876044Y-114792841D01*
X235876044Y-114754489D01*
X235807569Y-114754489D01*
X235747100Y-114750347D01*
X235705835Y-114737147D01*
X235681825Y-114713730D01*
X235673123Y-114678936D01*
X235673017Y-114674394D01*
X235678108Y-114644654D01*
X235695567Y-114623419D01*
X235728061Y-114609366D01*
X235778257Y-114601173D01*
X235826877Y-114598161D01*
X235897544Y-114596433D01*
X235948802Y-114599070D01*
X235983761Y-114608800D01*
X236005530Y-114628353D01*
X236017220Y-114660456D01*
X236021940Y-114707838D01*
X236022800Y-114770071D01*
X236021391Y-114839535D01*
X236017152Y-114886786D01*
X236010064Y-114912012D01*
X236008689Y-114913988D01*
X235969772Y-114945508D01*
X235912714Y-114970470D01*
X235841131Y-114988340D01*
X235758642Y-114998586D01*
X235668861Y-115000673D01*
X235575408Y-114994068D01*
X235520444Y-114985956D01*
X235434234Y-114961554D01*
X235354108Y-114921662D01*
X235287023Y-114869887D01*
X235276827Y-114859539D01*
X235243698Y-114816035D01*
X235213806Y-114762118D01*
X235190643Y-114705592D01*
X235177702Y-114654259D01*
X235176142Y-114634544D01*
X235182782Y-114593419D01*
X235200432Y-114542252D01*
X235225703Y-114488394D01*
X235255211Y-114439195D01*
X235281281Y-114406334D01*
X235342235Y-114357452D01*
X235421031Y-114318545D01*
X235514843Y-114290494D01*
X235620850Y-114274179D01*
X235718000Y-114270192D01*
X235799919Y-114274599D01*
G36*
X236449886Y-114273448D02*
G01*
X236473452Y-114287273D01*
X236504265Y-114309881D01*
X236543922Y-114342338D01*
X236594020Y-114385708D01*
X236656157Y-114441058D01*
X236731928Y-114509451D01*
X236818666Y-114588084D01*
X236999289Y-114751878D01*
X237004933Y-114532029D01*
X237006971Y-114456351D01*
X237008937Y-114399994D01*
X237011266Y-114359706D01*
X237014394Y-114332235D01*
X237018755Y-114314329D01*
X237024784Y-114302737D01*
X237032916Y-114294208D01*
X237037228Y-114290623D01*
X237071759Y-114271670D01*
X237104617Y-114274441D01*
X237130682Y-114290633D01*
X237157333Y-114312199D01*
X237160648Y-114627151D01*
X237161565Y-114719779D01*
X237162032Y-114792544D01*
X237161887Y-114848161D01*
X237160968Y-114889342D01*
X237159113Y-114918803D01*
X237156161Y-114939255D01*
X237151950Y-114953413D01*
X237146318Y-114963991D01*
X237140073Y-114972474D01*
X237126561Y-114988207D01*
X237113117Y-114998636D01*
X237097876Y-115002639D01*
X237078974Y-114999094D01*
X237054545Y-114986879D01*
X237022727Y-114964871D01*
X236981652Y-114931949D01*
X236929458Y-114886991D01*
X236864278Y-114828875D01*
X236790444Y-114762099D01*
X236525155Y-114521458D01*
X236519511Y-114740589D01*
X236517469Y-114816128D01*
X236515498Y-114872354D01*
X236513161Y-114912524D01*
X236510019Y-114939896D01*
X236505636Y-114957728D01*
X236499576Y-114969279D01*
X236491400Y-114977807D01*
X236487216Y-114981282D01*
X236450235Y-115000372D01*
X236415292Y-114997493D01*
X236384864Y-114973100D01*
X236377903Y-114963286D01*
X236372477Y-114951826D01*
X236368397Y-114935968D01*
X236365471Y-114912963D01*
X236363508Y-114880062D01*
X236362317Y-114834516D01*
X236361708Y-114773573D01*
X236361489Y-114694486D01*
X236361466Y-114635956D01*
X236361540Y-114544407D01*
X236361887Y-114472687D01*
X236362699Y-114418045D01*
X236364167Y-114377732D01*
X236366481Y-114348998D01*
X236369833Y-114329093D01*
X236374412Y-114315268D01*
X236380411Y-114304772D01*
X236384864Y-114298811D01*
X236396150Y-114284691D01*
X236406699Y-114274029D01*
X236418107Y-114267892D01*
X236431970Y-114267343D01*
X236449886Y-114273448D01*
G37*
X236449886Y-114273448D02*
X236473452Y-114287273D01*
X236504265Y-114309881D01*
X236543922Y-114342338D01*
X236594020Y-114385708D01*
X236656157Y-114441058D01*
X236731928Y-114509451D01*
X236818666Y-114588084D01*
X236999289Y-114751878D01*
X237004933Y-114532029D01*
X237006971Y-114456351D01*
X237008937Y-114399994D01*
X237011266Y-114359706D01*
X237014394Y-114332235D01*
X237018755Y-114314329D01*
X237024784Y-114302737D01*
X237032916Y-114294208D01*
X237037228Y-114290623D01*
X237071759Y-114271670D01*
X237104617Y-114274441D01*
X237130682Y-114290633D01*
X237157333Y-114312199D01*
X237160648Y-114627151D01*
X237161565Y-114719779D01*
X237162032Y-114792544D01*
X237161887Y-114848161D01*
X237160968Y-114889342D01*
X237159113Y-114918803D01*
X237156161Y-114939255D01*
X237151950Y-114953413D01*
X237146318Y-114963991D01*
X237140073Y-114972474D01*
X237126561Y-114988207D01*
X237113117Y-114998636D01*
X237097876Y-115002639D01*
X237078974Y-114999094D01*
X237054545Y-114986879D01*
X237022727Y-114964871D01*
X236981652Y-114931949D01*
X236929458Y-114886991D01*
X236864278Y-114828875D01*
X236790444Y-114762099D01*
X236525155Y-114521458D01*
X236519511Y-114740589D01*
X236517469Y-114816128D01*
X236515498Y-114872354D01*
X236513161Y-114912524D01*
X236510019Y-114939896D01*
X236505636Y-114957728D01*
X236499576Y-114969279D01*
X236491400Y-114977807D01*
X236487216Y-114981282D01*
X236450235Y-115000372D01*
X236415292Y-114997493D01*
X236384864Y-114973100D01*
X236377903Y-114963286D01*
X236372477Y-114951826D01*
X236368397Y-114935968D01*
X236365471Y-114912963D01*
X236363508Y-114880062D01*
X236362317Y-114834516D01*
X236361708Y-114773573D01*
X236361489Y-114694486D01*
X236361466Y-114635956D01*
X236361540Y-114544407D01*
X236361887Y-114472687D01*
X236362699Y-114418045D01*
X236364167Y-114377732D01*
X236366481Y-114348998D01*
X236369833Y-114329093D01*
X236374412Y-114315268D01*
X236380411Y-114304772D01*
X236384864Y-114298811D01*
X236396150Y-114284691D01*
X236406699Y-114274029D01*
X236418107Y-114267892D01*
X236431970Y-114267343D01*
X236449886Y-114273448D01*
G36*
X237980343Y-114269260D02*
G01*
X238056701Y-114270174D01*
X238115217Y-114272311D01*
X238158255Y-114276175D01*
X238188183Y-114282267D01*
X238207368Y-114291090D01*
X238218176Y-114303146D01*
X238222973Y-114318939D01*
X238224127Y-114338970D01*
X238224133Y-114341335D01*
X238223131Y-114363992D01*
X238218396Y-114381503D01*
X238207333Y-114394574D01*
X238187348Y-114403913D01*
X238155846Y-114410227D01*
X238110232Y-114414222D01*
X238047913Y-114416606D01*
X237966293Y-114418086D01*
X237941277Y-114418414D01*
X237699200Y-114421467D01*
X237695814Y-114486378D01*
X237692429Y-114551289D01*
X237860576Y-114551289D01*
X237926266Y-114551531D01*
X237973172Y-114552556D01*
X238005083Y-114554811D01*
X238025791Y-114558742D01*
X238039084Y-114564798D01*
X238048755Y-114573424D01*
X238048817Y-114573493D01*
X238066356Y-114607112D01*
X238065722Y-114643448D01*
X238047314Y-114674423D01*
X238043671Y-114677607D01*
X238030741Y-114685812D01*
X238013024Y-114691521D01*
X237986570Y-114695162D01*
X237947432Y-114697167D01*
X237891662Y-114697964D01*
X237855994Y-114698045D01*
X237693555Y-114698045D01*
X237693555Y-114856089D01*
X237940161Y-114856089D01*
X238021580Y-114856231D01*
X238083410Y-114856814D01*
X238128637Y-114858068D01*
X238160248Y-114860227D01*
X238181231Y-114863523D01*
X238194573Y-114868189D01*
X238203261Y-114874457D01*
X238205450Y-114876733D01*
X238221614Y-114908280D01*
X238222797Y-114944168D01*
X238209536Y-114975285D01*
X238199043Y-114985271D01*
X238188129Y-114990769D01*
X238171217Y-114995022D01*
X238145633Y-114998180D01*
X238108701Y-115000392D01*
X238057746Y-115001806D01*
X237990094Y-115002572D01*
X237903069Y-115002838D01*
X237883394Y-115002845D01*
X237794911Y-115002787D01*
X237726227Y-115002467D01*
X237674564Y-115001667D01*
X237637145Y-115000167D01*
X237611190Y-114997749D01*
X237593922Y-114994194D01*
X237582562Y-114989282D01*
X237574332Y-114982795D01*
X237569817Y-114978138D01*
X237563021Y-114969889D01*
X237557712Y-114959669D01*
X237553706Y-114944800D01*
X237550821Y-114922602D01*
X237548874Y-114890393D01*
X237547681Y-114845496D01*
X237547061Y-114785228D01*
X237546829Y-114706911D01*
X237546800Y-114640994D01*
X237546871Y-114548628D01*
X237547208Y-114476117D01*
X237547998Y-114420737D01*
X237549426Y-114379765D01*
X237551679Y-114350478D01*
X237554943Y-114330153D01*
X237559404Y-114316066D01*
X237565248Y-114305495D01*
X237570197Y-114298811D01*
X237593594Y-114269067D01*
X237883774Y-114269067D01*
X237980343Y-114269260D01*
G37*
X237980343Y-114269260D02*
X238056701Y-114270174D01*
X238115217Y-114272311D01*
X238158255Y-114276175D01*
X238188183Y-114282267D01*
X238207368Y-114291090D01*
X238218176Y-114303146D01*
X238222973Y-114318939D01*
X238224127Y-114338970D01*
X238224133Y-114341335D01*
X238223131Y-114363992D01*
X238218396Y-114381503D01*
X238207333Y-114394574D01*
X238187348Y-114403913D01*
X238155846Y-114410227D01*
X238110232Y-114414222D01*
X238047913Y-114416606D01*
X237966293Y-114418086D01*
X237941277Y-114418414D01*
X237699200Y-114421467D01*
X237695814Y-114486378D01*
X237692429Y-114551289D01*
X237860576Y-114551289D01*
X237926266Y-114551531D01*
X237973172Y-114552556D01*
X238005083Y-114554811D01*
X238025791Y-114558742D01*
X238039084Y-114564798D01*
X238048755Y-114573424D01*
X238048817Y-114573493D01*
X238066356Y-114607112D01*
X238065722Y-114643448D01*
X238047314Y-114674423D01*
X238043671Y-114677607D01*
X238030741Y-114685812D01*
X238013024Y-114691521D01*
X237986570Y-114695162D01*
X237947432Y-114697167D01*
X237891662Y-114697964D01*
X237855994Y-114698045D01*
X237693555Y-114698045D01*
X237693555Y-114856089D01*
X237940161Y-114856089D01*
X238021580Y-114856231D01*
X238083410Y-114856814D01*
X238128637Y-114858068D01*
X238160248Y-114860227D01*
X238181231Y-114863523D01*
X238194573Y-114868189D01*
X238203261Y-114874457D01*
X238205450Y-114876733D01*
X238221614Y-114908280D01*
X238222797Y-114944168D01*
X238209536Y-114975285D01*
X238199043Y-114985271D01*
X238188129Y-114990769D01*
X238171217Y-114995022D01*
X238145633Y-114998180D01*
X238108701Y-115000392D01*
X238057746Y-115001806D01*
X237990094Y-115002572D01*
X237903069Y-115002838D01*
X237883394Y-115002845D01*
X237794911Y-115002787D01*
X237726227Y-115002467D01*
X237674564Y-115001667D01*
X237637145Y-115000167D01*
X237611190Y-114997749D01*
X237593922Y-114994194D01*
X237582562Y-114989282D01*
X237574332Y-114982795D01*
X237569817Y-114978138D01*
X237563021Y-114969889D01*
X237557712Y-114959669D01*
X237553706Y-114944800D01*
X237550821Y-114922602D01*
X237548874Y-114890393D01*
X237547681Y-114845496D01*
X237547061Y-114785228D01*
X237546829Y-114706911D01*
X237546800Y-114640994D01*
X237546871Y-114548628D01*
X237547208Y-114476117D01*
X237547998Y-114420737D01*
X237549426Y-114379765D01*
X237551679Y-114350478D01*
X237554943Y-114330153D01*
X237559404Y-114316066D01*
X237565248Y-114305495D01*
X237570197Y-114298811D01*
X237593594Y-114269067D01*
X237883774Y-114269067D01*
X237980343Y-114269260D01*
G36*
X238768309Y-114269275D02*
G01*
X238897288Y-114273636D01*
X239006991Y-114286861D01*
X239099226Y-114309741D01*
X239175802Y-114343070D01*
X239238527Y-114387638D01*
X239289212Y-114444236D01*
X239329663Y-114513658D01*
X239330459Y-114515351D01*
X239354601Y-114577483D01*
X239363203Y-114632509D01*
X239356231Y-114687887D01*
X239333654Y-114751073D01*
X239329372Y-114760689D01*
X239300172Y-114816966D01*
X239267356Y-114860451D01*
X239225002Y-114897417D01*
X239167190Y-114934135D01*
X239163831Y-114936052D01*
X239113504Y-114960227D01*
X239056621Y-114978282D01*
X238989527Y-114990839D01*
X238908565Y-114998522D01*
X238810082Y-115001953D01*
X238775286Y-115002251D01*
X238609594Y-115002845D01*
X238586197Y-114973100D01*
X238579257Y-114963319D01*
X238573842Y-114951897D01*
X238569765Y-114936095D01*
X238566837Y-114913175D01*
X238564867Y-114880396D01*
X238564225Y-114856089D01*
X238720844Y-114856089D01*
X238814726Y-114856089D01*
X238869664Y-114854483D01*
X238926060Y-114850255D01*
X238972345Y-114844292D01*
X238975139Y-114843790D01*
X239057348Y-114821736D01*
X239121114Y-114788600D01*
X239168452Y-114742847D01*
X239201382Y-114682939D01*
X239207108Y-114667061D01*
X239212721Y-114642333D01*
X239210291Y-114617902D01*
X239198467Y-114585400D01*
X239191340Y-114569434D01*
X239168000Y-114527006D01*
X239139880Y-114497240D01*
X239108940Y-114476511D01*
X239046966Y-114449537D01*
X238967651Y-114429998D01*
X238875253Y-114418746D01*
X238808333Y-114416270D01*
X238720844Y-114415822D01*
X238720844Y-114856089D01*
X238564225Y-114856089D01*
X238563668Y-114835021D01*
X238563050Y-114774311D01*
X238562825Y-114695526D01*
X238562800Y-114633920D01*
X238562800Y-114324485D01*
X238590509Y-114296776D01*
X238602806Y-114285544D01*
X238616103Y-114277853D01*
X238634672Y-114273040D01*
X238662786Y-114270446D01*
X238704717Y-114269410D01*
X238764737Y-114269270D01*
X238768309Y-114269275D01*
G37*
X238768309Y-114269275D02*
X238897288Y-114273636D01*
X239006991Y-114286861D01*
X239099226Y-114309741D01*
X239175802Y-114343070D01*
X239238527Y-114387638D01*
X239289212Y-114444236D01*
X239329663Y-114513658D01*
X239330459Y-114515351D01*
X239354601Y-114577483D01*
X239363203Y-114632509D01*
X239356231Y-114687887D01*
X239333654Y-114751073D01*
X239329372Y-114760689D01*
X239300172Y-114816966D01*
X239267356Y-114860451D01*
X239225002Y-114897417D01*
X239167190Y-114934135D01*
X239163831Y-114936052D01*
X239113504Y-114960227D01*
X239056621Y-114978282D01*
X238989527Y-114990839D01*
X238908565Y-114998522D01*
X238810082Y-115001953D01*
X238775286Y-115002251D01*
X238609594Y-115002845D01*
X238586197Y-114973100D01*
X238579257Y-114963319D01*
X238573842Y-114951897D01*
X238569765Y-114936095D01*
X238566837Y-114913175D01*
X238564867Y-114880396D01*
X238564225Y-114856089D01*
X238720844Y-114856089D01*
X238814726Y-114856089D01*
X238869664Y-114854483D01*
X238926060Y-114850255D01*
X238972345Y-114844292D01*
X238975139Y-114843790D01*
X239057348Y-114821736D01*
X239121114Y-114788600D01*
X239168452Y-114742847D01*
X239201382Y-114682939D01*
X239207108Y-114667061D01*
X239212721Y-114642333D01*
X239210291Y-114617902D01*
X239198467Y-114585400D01*
X239191340Y-114569434D01*
X239168000Y-114527006D01*
X239139880Y-114497240D01*
X239108940Y-114476511D01*
X239046966Y-114449537D01*
X238967651Y-114429998D01*
X238875253Y-114418746D01*
X238808333Y-114416270D01*
X238720844Y-114415822D01*
X238720844Y-114856089D01*
X238564225Y-114856089D01*
X238563668Y-114835021D01*
X238563050Y-114774311D01*
X238562825Y-114695526D01*
X238562800Y-114633920D01*
X238562800Y-114324485D01*
X238590509Y-114296776D01*
X238602806Y-114285544D01*
X238616103Y-114277853D01*
X238634672Y-114273040D01*
X238662786Y-114270446D01*
X238704717Y-114269410D01*
X238764737Y-114269270D01*
X238768309Y-114269275D01*
G36*
X241494665Y-114271034D02*
G01*
X241514255Y-114278035D01*
X241515010Y-114278377D01*
X241541613Y-114298678D01*
X241556270Y-114319561D01*
X241559138Y-114329352D01*
X241558996Y-114342361D01*
X241554961Y-114360895D01*
X241546146Y-114387257D01*
X241531669Y-114423752D01*
X241510645Y-114472687D01*
X241482188Y-114536365D01*
X241445415Y-114617093D01*
X241425175Y-114661216D01*
X241388625Y-114739985D01*
X241354315Y-114812423D01*
X241323552Y-114875880D01*
X241297648Y-114927708D01*
X241277910Y-114965259D01*
X241265650Y-114985884D01*
X241263224Y-114988733D01*
X241232183Y-115001302D01*
X241197121Y-114999619D01*
X241169000Y-114984332D01*
X241167854Y-114983089D01*
X241156668Y-114966154D01*
X241137904Y-114933170D01*
X241113875Y-114888380D01*
X241086897Y-114836032D01*
X241077201Y-114816742D01*
X241004014Y-114670150D01*
X240924240Y-114829393D01*
X240895767Y-114884415D01*
X240869350Y-114932132D01*
X240847148Y-114968893D01*
X240831319Y-114991044D01*
X240825954Y-114995741D01*
X240784257Y-115002102D01*
X240749849Y-114988733D01*
X240739728Y-114974446D01*
X240722214Y-114942692D01*
X240698735Y-114896597D01*
X240670720Y-114839285D01*
X240639599Y-114773880D01*
X240606799Y-114703507D01*
X240573750Y-114631291D01*
X240541881Y-114560355D01*
X240512619Y-114493825D01*
X240487395Y-114434826D01*
X240467636Y-114386481D01*
X240454772Y-114351915D01*
X240450231Y-114334253D01*
X240450277Y-114333613D01*
X240461326Y-114311388D01*
X240483410Y-114288753D01*
X240484710Y-114287768D01*
X240511853Y-114272425D01*
X240536958Y-114272574D01*
X240546368Y-114275466D01*
X240557834Y-114281718D01*
X240570010Y-114294014D01*
X240584357Y-114314908D01*
X240602336Y-114346949D01*
X240625407Y-114392688D01*
X240655030Y-114454677D01*
X240681745Y-114511898D01*
X240712480Y-114578226D01*
X240740021Y-114637874D01*
X240762938Y-114687725D01*
X240779798Y-114724664D01*
X240789173Y-114745573D01*
X240790540Y-114748845D01*
X240796689Y-114743497D01*
X240810822Y-114721109D01*
X240831057Y-114684946D01*
X240855515Y-114638277D01*
X240865248Y-114619022D01*
X240898217Y-114554004D01*
X240923643Y-114506654D01*
X240943612Y-114474219D01*
X240960210Y-114453946D01*
X240975524Y-114443082D01*
X240991640Y-114438875D01*
X241002143Y-114438400D01*
X241020670Y-114440042D01*
X241036904Y-114446831D01*
X241053035Y-114461566D01*
X241071251Y-114487044D01*
X241093739Y-114526061D01*
X241122689Y-114581414D01*
X241138662Y-114612903D01*
X241164570Y-114663087D01*
X241187167Y-114704704D01*
X241204458Y-114734242D01*
X241214450Y-114748189D01*
X241215809Y-114748770D01*
X241222261Y-114737793D01*
X241236708Y-114709290D01*
X241257703Y-114666244D01*
X241283797Y-114611638D01*
X241313546Y-114548454D01*
X241328180Y-114517071D01*
X241366250Y-114436078D01*
X241396905Y-114373756D01*
X241421737Y-114328071D01*
X241442337Y-114296989D01*
X241460298Y-114278478D01*
X241477210Y-114270504D01*
X241494665Y-114271034D01*
G37*
X241494665Y-114271034D02*
X241514255Y-114278035D01*
X241515010Y-114278377D01*
X241541613Y-114298678D01*
X241556270Y-114319561D01*
X241559138Y-114329352D01*
X241558996Y-114342361D01*
X241554961Y-114360895D01*
X241546146Y-114387257D01*
X241531669Y-114423752D01*
X241510645Y-114472687D01*
X241482188Y-114536365D01*
X241445415Y-114617093D01*
X241425175Y-114661216D01*
X241388625Y-114739985D01*
X241354315Y-114812423D01*
X241323552Y-114875880D01*
X241297648Y-114927708D01*
X241277910Y-114965259D01*
X241265650Y-114985884D01*
X241263224Y-114988733D01*
X241232183Y-115001302D01*
X241197121Y-114999619D01*
X241169000Y-114984332D01*
X241167854Y-114983089D01*
X241156668Y-114966154D01*
X241137904Y-114933170D01*
X241113875Y-114888380D01*
X241086897Y-114836032D01*
X241077201Y-114816742D01*
X241004014Y-114670150D01*
X240924240Y-114829393D01*
X240895767Y-114884415D01*
X240869350Y-114932132D01*
X240847148Y-114968893D01*
X240831319Y-114991044D01*
X240825954Y-114995741D01*
X240784257Y-115002102D01*
X240749849Y-114988733D01*
X240739728Y-114974446D01*
X240722214Y-114942692D01*
X240698735Y-114896597D01*
X240670720Y-114839285D01*
X240639599Y-114773880D01*
X240606799Y-114703507D01*
X240573750Y-114631291D01*
X240541881Y-114560355D01*
X240512619Y-114493825D01*
X240487395Y-114434826D01*
X240467636Y-114386481D01*
X240454772Y-114351915D01*
X240450231Y-114334253D01*
X240450277Y-114333613D01*
X240461326Y-114311388D01*
X240483410Y-114288753D01*
X240484710Y-114287768D01*
X240511853Y-114272425D01*
X240536958Y-114272574D01*
X240546368Y-114275466D01*
X240557834Y-114281718D01*
X240570010Y-114294014D01*
X240584357Y-114314908D01*
X240602336Y-114346949D01*
X240625407Y-114392688D01*
X240655030Y-114454677D01*
X240681745Y-114511898D01*
X240712480Y-114578226D01*
X240740021Y-114637874D01*
X240762938Y-114687725D01*
X240779798Y-114724664D01*
X240789173Y-114745573D01*
X240790540Y-114748845D01*
X240796689Y-114743497D01*
X240810822Y-114721109D01*
X240831057Y-114684946D01*
X240855515Y-114638277D01*
X240865248Y-114619022D01*
X240898217Y-114554004D01*
X240923643Y-114506654D01*
X240943612Y-114474219D01*
X240960210Y-114453946D01*
X240975524Y-114443082D01*
X240991640Y-114438875D01*
X241002143Y-114438400D01*
X241020670Y-114440042D01*
X241036904Y-114446831D01*
X241053035Y-114461566D01*
X241071251Y-114487044D01*
X241093739Y-114526061D01*
X241122689Y-114581414D01*
X241138662Y-114612903D01*
X241164570Y-114663087D01*
X241187167Y-114704704D01*
X241204458Y-114734242D01*
X241214450Y-114748189D01*
X241215809Y-114748770D01*
X241222261Y-114737793D01*
X241236708Y-114709290D01*
X241257703Y-114666244D01*
X241283797Y-114611638D01*
X241313546Y-114548454D01*
X241328180Y-114517071D01*
X241366250Y-114436078D01*
X241396905Y-114373756D01*
X241421737Y-114328071D01*
X241442337Y-114296989D01*
X241460298Y-114278478D01*
X241477210Y-114270504D01*
X241494665Y-114271034D01*
G36*
X241938614Y-114275877D02*
G01*
X241962327Y-114290647D01*
X241988978Y-114312227D01*
X241988978Y-114633773D01*
X241988893Y-114727830D01*
X241988529Y-114801932D01*
X241987724Y-114858704D01*
X241986313Y-114900768D01*
X241984133Y-114930748D01*
X241981021Y-114951267D01*
X241976814Y-114964949D01*
X241971348Y-114974416D01*
X241967472Y-114979082D01*
X241936034Y-114999575D01*
X241900233Y-114998739D01*
X241868873Y-114981264D01*
X241842222Y-114959684D01*
X241842222Y-114312227D01*
X241868873Y-114290647D01*
X241894594Y-114274949D01*
X241915600Y-114269067D01*
X241938614Y-114275877D01*
G37*
X241938614Y-114275877D02*
X241962327Y-114290647D01*
X241988978Y-114312227D01*
X241988978Y-114633773D01*
X241988893Y-114727830D01*
X241988529Y-114801932D01*
X241987724Y-114858704D01*
X241986313Y-114900768D01*
X241984133Y-114930748D01*
X241981021Y-114951267D01*
X241976814Y-114964949D01*
X241971348Y-114974416D01*
X241967472Y-114979082D01*
X241936034Y-114999575D01*
X241900233Y-114998739D01*
X241868873Y-114981264D01*
X241842222Y-114959684D01*
X241842222Y-114312227D01*
X241868873Y-114290647D01*
X241894594Y-114274949D01*
X241915600Y-114269067D01*
X241938614Y-114275877D01*
G36*
X242713065Y-114269163D02*
G01*
X242791772Y-114269542D01*
X242852863Y-114270333D01*
X242898817Y-114271670D01*
X242932114Y-114273683D01*
X242955236Y-114276506D01*
X242970662Y-114280269D01*
X242980871Y-114285105D01*
X242985813Y-114288822D01*
X243011457Y-114321358D01*
X243014559Y-114355138D01*
X242998711Y-114385826D01*
X242988348Y-114398089D01*
X242977196Y-114406450D01*
X242961035Y-114411657D01*
X242935642Y-114414457D01*
X242896798Y-114415596D01*
X242840280Y-114415821D01*
X242829180Y-114415822D01*
X242683244Y-114415822D01*
X242683244Y-114686756D01*
X242683148Y-114772154D01*
X242682711Y-114837864D01*
X242681712Y-114886774D01*
X242679928Y-114921773D01*
X242677137Y-114945749D01*
X242673117Y-114961593D01*
X242667645Y-114972191D01*
X242660666Y-114980267D01*
X242627734Y-115000112D01*
X242593354Y-114998548D01*
X242562176Y-114975906D01*
X242559886Y-114973100D01*
X242552429Y-114962492D01*
X242546747Y-114950081D01*
X242542601Y-114932850D01*
X242539750Y-114907784D01*
X242537954Y-114871867D01*
X242536972Y-114822083D01*
X242536564Y-114755417D01*
X242536489Y-114679589D01*
X242536489Y-114415822D01*
X242397127Y-114415822D01*
X242337322Y-114415418D01*
X242295918Y-114413840D01*
X242268748Y-114410547D01*
X242251646Y-114404992D01*
X242240443Y-114396631D01*
X242239083Y-114395178D01*
X242222725Y-114361939D01*
X242224172Y-114324362D01*
X242242978Y-114291645D01*
X242250250Y-114285298D01*
X242259627Y-114280266D01*
X242273609Y-114276396D01*
X242294696Y-114273537D01*
X242325389Y-114271535D01*
X242368189Y-114270239D01*
X242425595Y-114269498D01*
X242500110Y-114269158D01*
X242594233Y-114269068D01*
X242614260Y-114269067D01*
X242713065Y-114269163D01*
G37*
X242713065Y-114269163D02*
X242791772Y-114269542D01*
X242852863Y-114270333D01*
X242898817Y-114271670D01*
X242932114Y-114273683D01*
X242955236Y-114276506D01*
X242970662Y-114280269D01*
X242980871Y-114285105D01*
X242985813Y-114288822D01*
X243011457Y-114321358D01*
X243014559Y-114355138D01*
X242998711Y-114385826D01*
X242988348Y-114398089D01*
X242977196Y-114406450D01*
X242961035Y-114411657D01*
X242935642Y-114414457D01*
X242896798Y-114415596D01*
X242840280Y-114415821D01*
X242829180Y-114415822D01*
X242683244Y-114415822D01*
X242683244Y-114686756D01*
X242683148Y-114772154D01*
X242682711Y-114837864D01*
X242681712Y-114886774D01*
X242679928Y-114921773D01*
X242677137Y-114945749D01*
X242673117Y-114961593D01*
X242667645Y-114972191D01*
X242660666Y-114980267D01*
X242627734Y-115000112D01*
X242593354Y-114998548D01*
X242562176Y-114975906D01*
X242559886Y-114973100D01*
X242552429Y-114962492D01*
X242546747Y-114950081D01*
X242542601Y-114932850D01*
X242539750Y-114907784D01*
X242537954Y-114871867D01*
X242536972Y-114822083D01*
X242536564Y-114755417D01*
X242536489Y-114679589D01*
X242536489Y-114415822D01*
X242397127Y-114415822D01*
X242337322Y-114415418D01*
X242295918Y-114413840D01*
X242268748Y-114410547D01*
X242251646Y-114404992D01*
X242240443Y-114396631D01*
X242239083Y-114395178D01*
X242222725Y-114361939D01*
X242224172Y-114324362D01*
X242242978Y-114291645D01*
X242250250Y-114285298D01*
X242259627Y-114280266D01*
X242273609Y-114276396D01*
X242294696Y-114273537D01*
X242325389Y-114271535D01*
X242368189Y-114270239D01*
X242425595Y-114269498D01*
X242500110Y-114269158D01*
X242594233Y-114269068D01*
X242614260Y-114269067D01*
X242713065Y-114269163D01*
G36*
X243978823Y-114274533D02*
G01*
X244010202Y-114296776D01*
X244037911Y-114324485D01*
X244037911Y-114633920D01*
X244037838Y-114725799D01*
X244037495Y-114797840D01*
X244036692Y-114852780D01*
X244035241Y-114893360D01*
X244032952Y-114922317D01*
X244029636Y-114942391D01*
X244025105Y-114956321D01*
X244019169Y-114966845D01*
X244014514Y-114973100D01*
X243983783Y-114997673D01*
X243948496Y-115000341D01*
X243916245Y-114985271D01*
X243905588Y-114976374D01*
X243898464Y-114964557D01*
X243894167Y-114945526D01*
X243891991Y-114914992D01*
X243891228Y-114868662D01*
X243891155Y-114832871D01*
X243891155Y-114698045D01*
X243394444Y-114698045D01*
X243394444Y-114820700D01*
X243393931Y-114876787D01*
X243391876Y-114915333D01*
X243387508Y-114941361D01*
X243380056Y-114959897D01*
X243371047Y-114973100D01*
X243340144Y-114997604D01*
X243305196Y-115000506D01*
X243271738Y-114983089D01*
X243262604Y-114973959D01*
X243256152Y-114961855D01*
X243251897Y-114943001D01*
X243249352Y-114913620D01*
X243248029Y-114869937D01*
X243247443Y-114808175D01*
X243247375Y-114794000D01*
X243246891Y-114677631D01*
X243246641Y-114581727D01*
X243246723Y-114504177D01*
X243247231Y-114442869D01*
X243248262Y-114395690D01*
X243249913Y-114360530D01*
X243252279Y-114335276D01*
X243255457Y-114317817D01*
X243259544Y-114306041D01*
X243264634Y-114297835D01*
X243270266Y-114291645D01*
X243302128Y-114271844D01*
X243335357Y-114274533D01*
X243366735Y-114296776D01*
X243379433Y-114311126D01*
X243387526Y-114326978D01*
X243392042Y-114349554D01*
X243394006Y-114384078D01*
X243394444Y-114435776D01*
X243394444Y-114551289D01*
X243891155Y-114551289D01*
X243891155Y-114432756D01*
X243891662Y-114378148D01*
X243893698Y-114341275D01*
X243898035Y-114317307D01*
X243905447Y-114301415D01*
X243913733Y-114291645D01*
X243945594Y-114271844D01*
X243978823Y-114274533D01*
G37*
X243978823Y-114274533D02*
X244010202Y-114296776D01*
X244037911Y-114324485D01*
X244037911Y-114633920D01*
X244037838Y-114725799D01*
X244037495Y-114797840D01*
X244036692Y-114852780D01*
X244035241Y-114893360D01*
X244032952Y-114922317D01*
X244029636Y-114942391D01*
X244025105Y-114956321D01*
X244019169Y-114966845D01*
X244014514Y-114973100D01*
X243983783Y-114997673D01*
X243948496Y-115000341D01*
X243916245Y-114985271D01*
X243905588Y-114976374D01*
X243898464Y-114964557D01*
X243894167Y-114945526D01*
X243891991Y-114914992D01*
X243891228Y-114868662D01*
X243891155Y-114832871D01*
X243891155Y-114698045D01*
X243394444Y-114698045D01*
X243394444Y-114820700D01*
X243393931Y-114876787D01*
X243391876Y-114915333D01*
X243387508Y-114941361D01*
X243380056Y-114959897D01*
X243371047Y-114973100D01*
X243340144Y-114997604D01*
X243305196Y-115000506D01*
X243271738Y-114983089D01*
X243262604Y-114973959D01*
X243256152Y-114961855D01*
X243251897Y-114943001D01*
X243249352Y-114913620D01*
X243248029Y-114869937D01*
X243247443Y-114808175D01*
X243247375Y-114794000D01*
X243246891Y-114677631D01*
X243246641Y-114581727D01*
X243246723Y-114504177D01*
X243247231Y-114442869D01*
X243248262Y-114395690D01*
X243249913Y-114360530D01*
X243252279Y-114335276D01*
X243255457Y-114317817D01*
X243259544Y-114306041D01*
X243264634Y-114297835D01*
X243270266Y-114291645D01*
X243302128Y-114271844D01*
X243335357Y-114274533D01*
X243366735Y-114296776D01*
X243379433Y-114311126D01*
X243387526Y-114326978D01*
X243392042Y-114349554D01*
X243394006Y-114384078D01*
X243394444Y-114435776D01*
X243394444Y-114551289D01*
X243891155Y-114551289D01*
X243891155Y-114432756D01*
X243891662Y-114378148D01*
X243893698Y-114341275D01*
X243898035Y-114317307D01*
X243905447Y-114301415D01*
X243913733Y-114291645D01*
X243945594Y-114271844D01*
X243978823Y-114274533D01*
G04 #@! TO.C,G\u002A\u002A\u002A*
G36*
X208698431Y-107394723D02*
G01*
X208840002Y-107403500D01*
X208936782Y-107421988D01*
X209008677Y-107453345D01*
X209049979Y-107481001D01*
X209162590Y-107612980D01*
X209247490Y-107822370D01*
X209299005Y-108066493D01*
X209365274Y-108242049D01*
X209493486Y-108386660D01*
X209661262Y-108477035D01*
X209703858Y-108487855D01*
X209855741Y-108487689D01*
X210067119Y-108440692D01*
X210122171Y-108423720D01*
X210331520Y-108369908D01*
X210500789Y-108363673D01*
X210642771Y-108412055D01*
X210770259Y-108522093D01*
X210896046Y-108700828D01*
X211011825Y-108913287D01*
X211096409Y-109083449D01*
X211146748Y-109199865D01*
X211168149Y-109283650D01*
X211165918Y-109355920D01*
X211145359Y-109437790D01*
X211144412Y-109440958D01*
X211061705Y-109602083D01*
X210905703Y-109765900D01*
X210886047Y-109782619D01*
X210711339Y-109961071D01*
X210619145Y-110137731D01*
X210609567Y-110316916D01*
X210682707Y-110502940D01*
X210838669Y-110700120D01*
X210909568Y-110769526D01*
X211060399Y-110924717D01*
X211145764Y-111060729D01*
X211169132Y-111198995D01*
X211133977Y-111360949D01*
X211043769Y-111568024D01*
X211040104Y-111575448D01*
X210904884Y-111822280D01*
X210777245Y-111994568D01*
X210648309Y-112100821D01*
X210509197Y-112149546D01*
X210435333Y-112155000D01*
X210269804Y-112137659D01*
X210102387Y-112095037D01*
X210078693Y-112086171D01*
X209859856Y-112034787D01*
X209659234Y-112055482D01*
X209490420Y-112142352D01*
X209367008Y-112289493D01*
X209316954Y-112417048D01*
X209276511Y-112573550D01*
X209234775Y-112734748D01*
X209232235Y-112744546D01*
X209160547Y-112901340D01*
X209059654Y-113019713D01*
X208992925Y-113070490D01*
X208925104Y-113102292D01*
X208834883Y-113119319D01*
X208700956Y-113125773D01*
X208520668Y-113125983D01*
X208333060Y-113121153D01*
X208169625Y-113110424D01*
X208054321Y-113095669D01*
X208021148Y-113086949D01*
X207900260Y-112997047D01*
X207798060Y-112842548D01*
X207726293Y-112643238D01*
X207709852Y-112562403D01*
X207666467Y-112366183D01*
X207604166Y-112231343D01*
X207510184Y-112134819D01*
X207451948Y-112096431D01*
X207270034Y-112036421D01*
X207048223Y-112042762D01*
X206862333Y-112091500D01*
X206649071Y-112147018D01*
X206471587Y-112143866D01*
X206318400Y-112076198D01*
X206178031Y-111938168D01*
X206038999Y-111723930D01*
X206000355Y-111652556D01*
X205896736Y-111425255D01*
X205850063Y-111242676D01*
X205846333Y-111182032D01*
X205852548Y-111086264D01*
X205879496Y-111005303D01*
X205939636Y-110917247D01*
X206045423Y-110800195D01*
X206089465Y-110754563D01*
X206264039Y-110553054D01*
X206363027Y-110377155D01*
X206386518Y-110214503D01*
X206334597Y-110052732D01*
X206207353Y-109879477D01*
X206096412Y-109766319D01*
X205971483Y-109643828D01*
X205896896Y-109555647D01*
X205859800Y-109479740D01*
X205847341Y-109394072D01*
X205846333Y-109337568D01*
X205849392Y-109318177D01*
X206142666Y-109318177D01*
X206171717Y-109367097D01*
X206248405Y-109454530D01*
X206357038Y-109562796D01*
X206373730Y-109578450D01*
X206541142Y-109756500D01*
X206641437Y-109927287D01*
X206685332Y-110116881D01*
X206684765Y-110335195D01*
X206631051Y-110594011D01*
X206508348Y-110805728D01*
X206327833Y-110967376D01*
X206218993Y-111056464D01*
X206168690Y-111146413D01*
X206175119Y-111256387D01*
X206236476Y-111405551D01*
X206278991Y-111485956D01*
X206377643Y-111655153D01*
X206459332Y-111757756D01*
X206541829Y-111804386D01*
X206642907Y-111805663D01*
X206765316Y-111776564D01*
X207049646Y-111712550D01*
X207283858Y-111702985D01*
X207484545Y-111750181D01*
X207668298Y-111856448D01*
X207735960Y-111911765D01*
X207883774Y-112068779D01*
X207975410Y-112242724D01*
X208026410Y-112451333D01*
X208062639Y-112622581D01*
X208110782Y-112726940D01*
X208183135Y-112782190D01*
X208269972Y-112803430D01*
X208410935Y-112812226D01*
X208570227Y-112806830D01*
X208722331Y-112790085D01*
X208841732Y-112764836D01*
X208902913Y-112733927D01*
X208903681Y-112732786D01*
X208928121Y-112663385D01*
X208953613Y-112546129D01*
X208962160Y-112493666D01*
X209038033Y-112211916D01*
X209173795Y-111989207D01*
X209368575Y-111826685D01*
X209525277Y-111754264D01*
X209736349Y-111699983D01*
X209932415Y-111700407D01*
X210149005Y-111756545D01*
X210194569Y-111773273D01*
X210326949Y-111816037D01*
X210432530Y-111836743D01*
X210473715Y-111834757D01*
X210525149Y-111787008D01*
X210599344Y-111686542D01*
X210682162Y-111556843D01*
X210759464Y-111421397D01*
X210817112Y-111303689D01*
X210840968Y-111227205D01*
X210841018Y-111224629D01*
X210828541Y-111155112D01*
X210782354Y-111087832D01*
X210687002Y-111003691D01*
X210621547Y-110953446D01*
X210451843Y-110775905D01*
X210341152Y-110553271D01*
X210294168Y-110305400D01*
X210315583Y-110052145D01*
X210370159Y-109890166D01*
X210447913Y-109766660D01*
X210564149Y-109632897D01*
X210644396Y-109559249D01*
X210749962Y-109461561D01*
X210821348Y-109374018D01*
X210841161Y-109326415D01*
X210818597Y-109244244D01*
X210761385Y-109119035D01*
X210684140Y-108976609D01*
X210601478Y-108842788D01*
X210528015Y-108743392D01*
X210491871Y-108709319D01*
X210414488Y-108690667D01*
X210292920Y-108713860D01*
X210219273Y-108738285D01*
X209943150Y-108802270D01*
X209677814Y-108798175D01*
X209437776Y-108729439D01*
X209237545Y-108599498D01*
X209133703Y-108481094D01*
X209064748Y-108352549D01*
X208999116Y-108183087D01*
X208961827Y-108052514D01*
X208921400Y-107907777D01*
X208877932Y-107796716D01*
X208843599Y-107746245D01*
X208765239Y-107724005D01*
X208634589Y-107712153D01*
X208477572Y-107710071D01*
X208320109Y-107717144D01*
X208188121Y-107732756D01*
X208107532Y-107756290D01*
X208097905Y-107763974D01*
X208066960Y-107834955D01*
X208037154Y-107956967D01*
X208023715Y-108039535D01*
X207950672Y-108310190D01*
X207814712Y-108529117D01*
X207623484Y-108689534D01*
X207384634Y-108784658D01*
X207155884Y-108809166D01*
X207003843Y-108797171D01*
X206871036Y-108768236D01*
X206820000Y-108747166D01*
X206656604Y-108688077D01*
X206515311Y-108706322D01*
X206405077Y-108800083D01*
X206330888Y-108916623D01*
X206254960Y-109053304D01*
X206190289Y-109184466D01*
X206149873Y-109284446D01*
X206142666Y-109318177D01*
X205849392Y-109318177D01*
X205876240Y-109148045D01*
X205957489Y-108930181D01*
X206077370Y-108711008D01*
X206223176Y-108517554D01*
X206240952Y-108498261D01*
X206369998Y-108392468D01*
X206511419Y-108346659D01*
X206682469Y-108359084D01*
X206900405Y-108427999D01*
X206907458Y-108430767D01*
X207110779Y-108489655D01*
X207270649Y-108489219D01*
X207438911Y-108418589D01*
X207580437Y-108288597D01*
X207670932Y-108124433D01*
X207686995Y-108057602D01*
X207748595Y-107783030D01*
X207839259Y-107584845D01*
X207934354Y-107481001D01*
X208000796Y-107439958D01*
X208079637Y-107413765D01*
X208190779Y-107399264D01*
X208354127Y-107393298D01*
X208492166Y-107392500D01*
X208698431Y-107394723D01*
G37*
X208698431Y-107394723D02*
X208840002Y-107403500D01*
X208936782Y-107421988D01*
X209008677Y-107453345D01*
X209049979Y-107481001D01*
X209162590Y-107612980D01*
X209247490Y-107822370D01*
X209299005Y-108066493D01*
X209365274Y-108242049D01*
X209493486Y-108386660D01*
X209661262Y-108477035D01*
X209703858Y-108487855D01*
X209855741Y-108487689D01*
X210067119Y-108440692D01*
X210122171Y-108423720D01*
X210331520Y-108369908D01*
X210500789Y-108363673D01*
X210642771Y-108412055D01*
X210770259Y-108522093D01*
X210896046Y-108700828D01*
X211011825Y-108913287D01*
X211096409Y-109083449D01*
X211146748Y-109199865D01*
X211168149Y-109283650D01*
X211165918Y-109355920D01*
X211145359Y-109437790D01*
X211144412Y-109440958D01*
X211061705Y-109602083D01*
X210905703Y-109765900D01*
X210886047Y-109782619D01*
X210711339Y-109961071D01*
X210619145Y-110137731D01*
X210609567Y-110316916D01*
X210682707Y-110502940D01*
X210838669Y-110700120D01*
X210909568Y-110769526D01*
X211060399Y-110924717D01*
X211145764Y-111060729D01*
X211169132Y-111198995D01*
X211133977Y-111360949D01*
X211043769Y-111568024D01*
X211040104Y-111575448D01*
X210904884Y-111822280D01*
X210777245Y-111994568D01*
X210648309Y-112100821D01*
X210509197Y-112149546D01*
X210435333Y-112155000D01*
X210269804Y-112137659D01*
X210102387Y-112095037D01*
X210078693Y-112086171D01*
X209859856Y-112034787D01*
X209659234Y-112055482D01*
X209490420Y-112142352D01*
X209367008Y-112289493D01*
X209316954Y-112417048D01*
X209276511Y-112573550D01*
X209234775Y-112734748D01*
X209232235Y-112744546D01*
X209160547Y-112901340D01*
X209059654Y-113019713D01*
X208992925Y-113070490D01*
X208925104Y-113102292D01*
X208834883Y-113119319D01*
X208700956Y-113125773D01*
X208520668Y-113125983D01*
X208333060Y-113121153D01*
X208169625Y-113110424D01*
X208054321Y-113095669D01*
X208021148Y-113086949D01*
X207900260Y-112997047D01*
X207798060Y-112842548D01*
X207726293Y-112643238D01*
X207709852Y-112562403D01*
X207666467Y-112366183D01*
X207604166Y-112231343D01*
X207510184Y-112134819D01*
X207451948Y-112096431D01*
X207270034Y-112036421D01*
X207048223Y-112042762D01*
X206862333Y-112091500D01*
X206649071Y-112147018D01*
X206471587Y-112143866D01*
X206318400Y-112076198D01*
X206178031Y-111938168D01*
X206038999Y-111723930D01*
X206000355Y-111652556D01*
X205896736Y-111425255D01*
X205850063Y-111242676D01*
X205846333Y-111182032D01*
X205852548Y-111086264D01*
X205879496Y-111005303D01*
X205939636Y-110917247D01*
X206045423Y-110800195D01*
X206089465Y-110754563D01*
X206264039Y-110553054D01*
X206363027Y-110377155D01*
X206386518Y-110214503D01*
X206334597Y-110052732D01*
X206207353Y-109879477D01*
X206096412Y-109766319D01*
X205971483Y-109643828D01*
X205896896Y-109555647D01*
X205859800Y-109479740D01*
X205847341Y-109394072D01*
X205846333Y-109337568D01*
X205849392Y-109318177D01*
X206142666Y-109318177D01*
X206171717Y-109367097D01*
X206248405Y-109454530D01*
X206357038Y-109562796D01*
X206373730Y-109578450D01*
X206541142Y-109756500D01*
X206641437Y-109927287D01*
X206685332Y-110116881D01*
X206684765Y-110335195D01*
X206631051Y-110594011D01*
X206508348Y-110805728D01*
X206327833Y-110967376D01*
X206218993Y-111056464D01*
X206168690Y-111146413D01*
X206175119Y-111256387D01*
X206236476Y-111405551D01*
X206278991Y-111485956D01*
X206377643Y-111655153D01*
X206459332Y-111757756D01*
X206541829Y-111804386D01*
X206642907Y-111805663D01*
X206765316Y-111776564D01*
X207049646Y-111712550D01*
X207283858Y-111702985D01*
X207484545Y-111750181D01*
X207668298Y-111856448D01*
X207735960Y-111911765D01*
X207883774Y-112068779D01*
X207975410Y-112242724D01*
X208026410Y-112451333D01*
X208062639Y-112622581D01*
X208110782Y-112726940D01*
X208183135Y-112782190D01*
X208269972Y-112803430D01*
X208410935Y-112812226D01*
X208570227Y-112806830D01*
X208722331Y-112790085D01*
X208841732Y-112764836D01*
X208902913Y-112733927D01*
X208903681Y-112732786D01*
X208928121Y-112663385D01*
X208953613Y-112546129D01*
X208962160Y-112493666D01*
X209038033Y-112211916D01*
X209173795Y-111989207D01*
X209368575Y-111826685D01*
X209525277Y-111754264D01*
X209736349Y-111699983D01*
X209932415Y-111700407D01*
X210149005Y-111756545D01*
X210194569Y-111773273D01*
X210326949Y-111816037D01*
X210432530Y-111836743D01*
X210473715Y-111834757D01*
X210525149Y-111787008D01*
X210599344Y-111686542D01*
X210682162Y-111556843D01*
X210759464Y-111421397D01*
X210817112Y-111303689D01*
X210840968Y-111227205D01*
X210841018Y-111224629D01*
X210828541Y-111155112D01*
X210782354Y-111087832D01*
X210687002Y-111003691D01*
X210621547Y-110953446D01*
X210451843Y-110775905D01*
X210341152Y-110553271D01*
X210294168Y-110305400D01*
X210315583Y-110052145D01*
X210370159Y-109890166D01*
X210447913Y-109766660D01*
X210564149Y-109632897D01*
X210644396Y-109559249D01*
X210749962Y-109461561D01*
X210821348Y-109374018D01*
X210841161Y-109326415D01*
X210818597Y-109244244D01*
X210761385Y-109119035D01*
X210684140Y-108976609D01*
X210601478Y-108842788D01*
X210528015Y-108743392D01*
X210491871Y-108709319D01*
X210414488Y-108690667D01*
X210292920Y-108713860D01*
X210219273Y-108738285D01*
X209943150Y-108802270D01*
X209677814Y-108798175D01*
X209437776Y-108729439D01*
X209237545Y-108599498D01*
X209133703Y-108481094D01*
X209064748Y-108352549D01*
X208999116Y-108183087D01*
X208961827Y-108052514D01*
X208921400Y-107907777D01*
X208877932Y-107796716D01*
X208843599Y-107746245D01*
X208765239Y-107724005D01*
X208634589Y-107712153D01*
X208477572Y-107710071D01*
X208320109Y-107717144D01*
X208188121Y-107732756D01*
X208107532Y-107756290D01*
X208097905Y-107763974D01*
X208066960Y-107834955D01*
X208037154Y-107956967D01*
X208023715Y-108039535D01*
X207950672Y-108310190D01*
X207814712Y-108529117D01*
X207623484Y-108689534D01*
X207384634Y-108784658D01*
X207155884Y-108809166D01*
X207003843Y-108797171D01*
X206871036Y-108768236D01*
X206820000Y-108747166D01*
X206656604Y-108688077D01*
X206515311Y-108706322D01*
X206405077Y-108800083D01*
X206330888Y-108916623D01*
X206254960Y-109053304D01*
X206190289Y-109184466D01*
X206149873Y-109284446D01*
X206142666Y-109318177D01*
X205849392Y-109318177D01*
X205876240Y-109148045D01*
X205957489Y-108930181D01*
X206077370Y-108711008D01*
X206223176Y-108517554D01*
X206240952Y-108498261D01*
X206369998Y-108392468D01*
X206511419Y-108346659D01*
X206682469Y-108359084D01*
X206900405Y-108427999D01*
X206907458Y-108430767D01*
X207110779Y-108489655D01*
X207270649Y-108489219D01*
X207438911Y-108418589D01*
X207580437Y-108288597D01*
X207670932Y-108124433D01*
X207686995Y-108057602D01*
X207748595Y-107783030D01*
X207839259Y-107584845D01*
X207934354Y-107481001D01*
X208000796Y-107439958D01*
X208079637Y-107413765D01*
X208190779Y-107399264D01*
X208354127Y-107393298D01*
X208492166Y-107392500D01*
X208698431Y-107394723D01*
G36*
X212878261Y-111838747D02*
G01*
X212985601Y-111911371D01*
X213036261Y-112042278D01*
X213043000Y-112141188D01*
X213016864Y-112301742D01*
X212934536Y-112401947D01*
X212790133Y-112447309D01*
X212711583Y-112451333D01*
X212591129Y-112441689D01*
X212539513Y-112409407D01*
X212535000Y-112387833D01*
X212571608Y-112336646D01*
X212637370Y-112324333D01*
X212775885Y-112308958D01*
X212849414Y-112254347D01*
X212873385Y-112147765D01*
X212873666Y-112129304D01*
X212869337Y-112041042D01*
X212840992Y-111999246D01*
X212765594Y-111986547D01*
X212683166Y-111985666D01*
X212492666Y-111985666D01*
X212492666Y-112324333D01*
X212489794Y-112497428D01*
X212479222Y-112601324D01*
X212458014Y-112651354D01*
X212427838Y-112663000D01*
X212357341Y-112628727D01*
X212338426Y-112598936D01*
X212328424Y-112526400D01*
X212325617Y-112397093D01*
X212330583Y-112238653D01*
X212330815Y-112234488D01*
X212351366Y-112040847D01*
X212395289Y-111916795D01*
X212475531Y-111847894D01*
X212605040Y-111819711D01*
X212705863Y-111816333D01*
X212878261Y-111838747D01*
G37*
X212878261Y-111838747D02*
X212985601Y-111911371D01*
X213036261Y-112042278D01*
X213043000Y-112141188D01*
X213016864Y-112301742D01*
X212934536Y-112401947D01*
X212790133Y-112447309D01*
X212711583Y-112451333D01*
X212591129Y-112441689D01*
X212539513Y-112409407D01*
X212535000Y-112387833D01*
X212571608Y-112336646D01*
X212637370Y-112324333D01*
X212775885Y-112308958D01*
X212849414Y-112254347D01*
X212873385Y-112147765D01*
X212873666Y-112129304D01*
X212869337Y-112041042D01*
X212840992Y-111999246D01*
X212765594Y-111986547D01*
X212683166Y-111985666D01*
X212492666Y-111985666D01*
X212492666Y-112324333D01*
X212489794Y-112497428D01*
X212479222Y-112601324D01*
X212458014Y-112651354D01*
X212427838Y-112663000D01*
X212357341Y-112628727D01*
X212338426Y-112598936D01*
X212328424Y-112526400D01*
X212325617Y-112397093D01*
X212330583Y-112238653D01*
X212330815Y-112234488D01*
X212351366Y-112040847D01*
X212395289Y-111916795D01*
X212475531Y-111847894D01*
X212605040Y-111819711D01*
X212705863Y-111816333D01*
X212878261Y-111838747D01*
G36*
X211946832Y-111624411D02*
G01*
X212079615Y-111688404D01*
X212084790Y-111692405D01*
X212148799Y-111753366D01*
X212182417Y-111825669D01*
X212194994Y-111937702D01*
X212196333Y-112031072D01*
X212182038Y-112225080D01*
X212130610Y-112350855D01*
X212029228Y-112421267D01*
X211865076Y-112449183D01*
X211777689Y-112451333D01*
X211593733Y-112439169D01*
X211470892Y-112399639D01*
X211433567Y-112374558D01*
X211364537Y-112286276D01*
X211326025Y-112147244D01*
X211317844Y-112080168D01*
X211315270Y-112034478D01*
X211475210Y-112034478D01*
X211489070Y-112162090D01*
X211527201Y-112258111D01*
X211550750Y-112281034D01*
X211643603Y-112307419D01*
X211772215Y-112310318D01*
X211902978Y-112293041D01*
X212002280Y-112258895D01*
X212031587Y-112233693D01*
X212061032Y-112138722D01*
X212066926Y-112011694D01*
X212050537Y-111892267D01*
X212018533Y-111824800D01*
X211947713Y-111794030D01*
X211828725Y-111775980D01*
X211773000Y-111774000D01*
X211644603Y-111784447D01*
X211549077Y-111810779D01*
X211527466Y-111824800D01*
X211487412Y-111910354D01*
X211475210Y-112034478D01*
X211315270Y-112034478D01*
X211310220Y-111944873D01*
X211327768Y-111856738D01*
X211381825Y-111779391D01*
X211425877Y-111733609D01*
X211523120Y-111651500D01*
X211623119Y-111613693D01*
X211764034Y-111604666D01*
X211946832Y-111624411D01*
G37*
X211946832Y-111624411D02*
X212079615Y-111688404D01*
X212084790Y-111692405D01*
X212148799Y-111753366D01*
X212182417Y-111825669D01*
X212194994Y-111937702D01*
X212196333Y-112031072D01*
X212182038Y-112225080D01*
X212130610Y-112350855D01*
X212029228Y-112421267D01*
X211865076Y-112449183D01*
X211777689Y-112451333D01*
X211593733Y-112439169D01*
X211470892Y-112399639D01*
X211433567Y-112374558D01*
X211364537Y-112286276D01*
X211326025Y-112147244D01*
X211317844Y-112080168D01*
X211315270Y-112034478D01*
X211475210Y-112034478D01*
X211489070Y-112162090D01*
X211527201Y-112258111D01*
X211550750Y-112281034D01*
X211643603Y-112307419D01*
X211772215Y-112310318D01*
X211902978Y-112293041D01*
X212002280Y-112258895D01*
X212031587Y-112233693D01*
X212061032Y-112138722D01*
X212066926Y-112011694D01*
X212050537Y-111892267D01*
X212018533Y-111824800D01*
X211947713Y-111794030D01*
X211828725Y-111775980D01*
X211773000Y-111774000D01*
X211644603Y-111784447D01*
X211549077Y-111810779D01*
X211527466Y-111824800D01*
X211487412Y-111910354D01*
X211475210Y-112034478D01*
X211315270Y-112034478D01*
X211310220Y-111944873D01*
X211327768Y-111856738D01*
X211381825Y-111779391D01*
X211425877Y-111733609D01*
X211523120Y-111651500D01*
X211623119Y-111613693D01*
X211764034Y-111604666D01*
X211946832Y-111624411D01*
G36*
X213679239Y-111841186D02*
G01*
X213790620Y-111906564D01*
X213844584Y-111998697D01*
X213831084Y-112103813D01*
X213780809Y-112173142D01*
X213702088Y-112216560D01*
X213593784Y-112238141D01*
X213485092Y-112237469D01*
X213405209Y-112214126D01*
X213381666Y-112178848D01*
X213420660Y-112129623D01*
X213519250Y-112104765D01*
X213628937Y-112076975D01*
X213664299Y-112033373D01*
X213629139Y-111990767D01*
X213527262Y-111965965D01*
X213487500Y-111964500D01*
X213318166Y-111964500D01*
X213318166Y-112133833D01*
X213323033Y-112242731D01*
X213352934Y-112293367D01*
X213430819Y-112312121D01*
X213476916Y-112316305D01*
X213595037Y-112341528D01*
X213635665Y-112390096D01*
X213635666Y-112390388D01*
X213599133Y-112428400D01*
X213509397Y-112448951D01*
X213396250Y-112451313D01*
X213289487Y-112434756D01*
X213220800Y-112400533D01*
X213191822Y-112331468D01*
X213173428Y-112210576D01*
X213170000Y-112126856D01*
X213182315Y-111972919D01*
X213229431Y-111878897D01*
X213326597Y-111831275D01*
X213489067Y-111816541D01*
X213520489Y-111816333D01*
X213679239Y-111841186D01*
G37*
X213679239Y-111841186D02*
X213790620Y-111906564D01*
X213844584Y-111998697D01*
X213831084Y-112103813D01*
X213780809Y-112173142D01*
X213702088Y-112216560D01*
X213593784Y-112238141D01*
X213485092Y-112237469D01*
X213405209Y-112214126D01*
X213381666Y-112178848D01*
X213420660Y-112129623D01*
X213519250Y-112104765D01*
X213628937Y-112076975D01*
X213664299Y-112033373D01*
X213629139Y-111990767D01*
X213527262Y-111965965D01*
X213487500Y-111964500D01*
X213318166Y-111964500D01*
X213318166Y-112133833D01*
X213323033Y-112242731D01*
X213352934Y-112293367D01*
X213430819Y-112312121D01*
X213476916Y-112316305D01*
X213595037Y-112341528D01*
X213635665Y-112390096D01*
X213635666Y-112390388D01*
X213599133Y-112428400D01*
X213509397Y-112448951D01*
X213396250Y-112451313D01*
X213289487Y-112434756D01*
X213220800Y-112400533D01*
X213191822Y-112331468D01*
X213173428Y-112210576D01*
X213170000Y-112126856D01*
X213182315Y-111972919D01*
X213229431Y-111878897D01*
X213326597Y-111831275D01*
X213489067Y-111816541D01*
X213520489Y-111816333D01*
X213679239Y-111841186D01*
G36*
X214386050Y-111831249D02*
G01*
X214517606Y-111881892D01*
X214597032Y-111987890D01*
X214637150Y-112160186D01*
X214642259Y-112211467D01*
X214650853Y-112347358D01*
X214643897Y-112419231D01*
X214615717Y-112447153D01*
X214574454Y-112451333D01*
X214522078Y-112440190D01*
X214493006Y-112393183D01*
X214478027Y-112289943D01*
X214473962Y-112229083D01*
X214461166Y-112006833D01*
X214281250Y-111993815D01*
X214101333Y-111980798D01*
X214101333Y-112216065D01*
X214097837Y-112351286D01*
X214082424Y-112422048D01*
X214047707Y-112448439D01*
X214014812Y-112451333D01*
X213970378Y-112444817D01*
X213945724Y-112413322D01*
X213936525Y-112338929D01*
X213938456Y-112203721D01*
X213940728Y-112144416D01*
X213953166Y-111837500D01*
X214189543Y-111825014D01*
X214386050Y-111831249D01*
G37*
X214386050Y-111831249D02*
X214517606Y-111881892D01*
X214597032Y-111987890D01*
X214637150Y-112160186D01*
X214642259Y-112211467D01*
X214650853Y-112347358D01*
X214643897Y-112419231D01*
X214615717Y-112447153D01*
X214574454Y-112451333D01*
X214522078Y-112440190D01*
X214493006Y-112393183D01*
X214478027Y-112289943D01*
X214473962Y-112229083D01*
X214461166Y-112006833D01*
X214281250Y-111993815D01*
X214101333Y-111980798D01*
X214101333Y-112216065D01*
X214097837Y-112351286D01*
X214082424Y-112422048D01*
X214047707Y-112448439D01*
X214014812Y-112451333D01*
X213970378Y-112444817D01*
X213945724Y-112413322D01*
X213936525Y-112338929D01*
X213938456Y-112203721D01*
X213940728Y-112144416D01*
X213953166Y-111837500D01*
X214189543Y-111825014D01*
X214386050Y-111831249D01*
G36*
X215584478Y-111820896D02*
G01*
X215647013Y-111840218D01*
X215666896Y-111882752D01*
X215667666Y-111901000D01*
X215655134Y-111953325D01*
X215603531Y-111980014D01*
X215491848Y-111990505D01*
X215466583Y-111991322D01*
X215265500Y-111996979D01*
X215456000Y-112024171D01*
X215613863Y-112053966D01*
X215704318Y-112095423D01*
X215744614Y-112161147D01*
X215752333Y-112240675D01*
X215728708Y-112346609D01*
X215651070Y-112413043D01*
X215509274Y-112445626D01*
X215374116Y-112451333D01*
X215240033Y-112444699D01*
X215174037Y-112421685D01*
X215159666Y-112387833D01*
X215186279Y-112344725D01*
X215275494Y-112325714D01*
X215339583Y-112323685D01*
X215469635Y-112314197D01*
X215566878Y-112291116D01*
X215615649Y-112260991D01*
X215600285Y-112230370D01*
X215581813Y-112222408D01*
X215497552Y-112203724D01*
X215380094Y-112188724D01*
X215376137Y-112188381D01*
X215239907Y-112150490D01*
X215162061Y-112074217D01*
X215152729Y-111974246D01*
X215183793Y-111909619D01*
X215244480Y-111850079D01*
X215335501Y-111822288D01*
X215458400Y-111816333D01*
X215584478Y-111820896D01*
G37*
X215584478Y-111820896D02*
X215647013Y-111840218D01*
X215666896Y-111882752D01*
X215667666Y-111901000D01*
X215655134Y-111953325D01*
X215603531Y-111980014D01*
X215491848Y-111990505D01*
X215466583Y-111991322D01*
X215265500Y-111996979D01*
X215456000Y-112024171D01*
X215613863Y-112053966D01*
X215704318Y-112095423D01*
X215744614Y-112161147D01*
X215752333Y-112240675D01*
X215728708Y-112346609D01*
X215651070Y-112413043D01*
X215509274Y-112445626D01*
X215374116Y-112451333D01*
X215240033Y-112444699D01*
X215174037Y-112421685D01*
X215159666Y-112387833D01*
X215186279Y-112344725D01*
X215275494Y-112325714D01*
X215339583Y-112323685D01*
X215469635Y-112314197D01*
X215566878Y-112291116D01*
X215615649Y-112260991D01*
X215600285Y-112230370D01*
X215581813Y-112222408D01*
X215497552Y-112203724D01*
X215380094Y-112188724D01*
X215376137Y-112188381D01*
X215239907Y-112150490D01*
X215162061Y-112074217D01*
X215152729Y-111974246D01*
X215183793Y-111909619D01*
X215244480Y-111850079D01*
X215335501Y-111822288D01*
X215458400Y-111816333D01*
X215584478Y-111820896D01*
G36*
X216365306Y-111840134D02*
G01*
X216486670Y-111914542D01*
X216547300Y-112044070D01*
X216556666Y-112148438D01*
X216533666Y-112299248D01*
X216458504Y-112394716D01*
X216321942Y-112442378D01*
X216185317Y-112451333D01*
X216044518Y-112443704D01*
X215959157Y-112414517D01*
X215902900Y-112357247D01*
X215853892Y-112244181D01*
X215837000Y-112133833D01*
X215837574Y-112130305D01*
X216006333Y-112130305D01*
X216036984Y-112254754D01*
X216122800Y-112319270D01*
X216254571Y-112318918D01*
X216320370Y-112298637D01*
X216372582Y-112235097D01*
X216387333Y-112129304D01*
X216383004Y-112041042D01*
X216354659Y-111999246D01*
X216279261Y-111986547D01*
X216196833Y-111985666D01*
X216079777Y-111988907D01*
X216024346Y-112010293D01*
X216007503Y-112067315D01*
X216006333Y-112130305D01*
X215837574Y-112130305D01*
X215863492Y-111971225D01*
X215946615Y-111868692D01*
X216091834Y-111821146D01*
X216178067Y-111816333D01*
X216365306Y-111840134D01*
G37*
X216365306Y-111840134D02*
X216486670Y-111914542D01*
X216547300Y-112044070D01*
X216556666Y-112148438D01*
X216533666Y-112299248D01*
X216458504Y-112394716D01*
X216321942Y-112442378D01*
X216185317Y-112451333D01*
X216044518Y-112443704D01*
X215959157Y-112414517D01*
X215902900Y-112357247D01*
X215853892Y-112244181D01*
X215837000Y-112133833D01*
X215837574Y-112130305D01*
X216006333Y-112130305D01*
X216036984Y-112254754D01*
X216122800Y-112319270D01*
X216254571Y-112318918D01*
X216320370Y-112298637D01*
X216372582Y-112235097D01*
X216387333Y-112129304D01*
X216383004Y-112041042D01*
X216354659Y-111999246D01*
X216279261Y-111986547D01*
X216196833Y-111985666D01*
X216079777Y-111988907D01*
X216024346Y-112010293D01*
X216007503Y-112067315D01*
X216006333Y-112130305D01*
X215837574Y-112130305D01*
X215863492Y-111971225D01*
X215946615Y-111868692D01*
X216091834Y-111821146D01*
X216178067Y-111816333D01*
X216365306Y-111840134D01*
G36*
X216787224Y-111839133D02*
G01*
X216806706Y-111917988D01*
X216810666Y-112026510D01*
X216828117Y-112186082D01*
X216888208Y-112279672D01*
X217002550Y-112320075D01*
X217080937Y-112324333D01*
X217141351Y-112317982D01*
X217174910Y-112285430D01*
X217191548Y-112206424D01*
X217200137Y-112081328D01*
X217213084Y-111937201D01*
X217237166Y-111858526D01*
X217278960Y-111826213D01*
X217288841Y-111823853D01*
X217327663Y-111824552D01*
X217349068Y-111856284D01*
X217356626Y-111935679D01*
X217353905Y-112079367D01*
X217352341Y-112119775D01*
X217339833Y-112430166D01*
X217107000Y-112442152D01*
X216917389Y-112436590D01*
X216791410Y-112395043D01*
X216778916Y-112386835D01*
X216723764Y-112334445D01*
X216694834Y-112260131D01*
X216684396Y-112138010D01*
X216683666Y-112067932D01*
X216688626Y-111921237D01*
X216706189Y-111842818D01*
X216740382Y-111816721D01*
X216747166Y-111816333D01*
X216787224Y-111839133D01*
G37*
X216787224Y-111839133D02*
X216806706Y-111917988D01*
X216810666Y-112026510D01*
X216828117Y-112186082D01*
X216888208Y-112279672D01*
X217002550Y-112320075D01*
X217080937Y-112324333D01*
X217141351Y-112317982D01*
X217174910Y-112285430D01*
X217191548Y-112206424D01*
X217200137Y-112081328D01*
X217213084Y-111937201D01*
X217237166Y-111858526D01*
X217278960Y-111826213D01*
X217288841Y-111823853D01*
X217327663Y-111824552D01*
X217349068Y-111856284D01*
X217356626Y-111935679D01*
X217353905Y-112079367D01*
X217352341Y-112119775D01*
X217339833Y-112430166D01*
X217107000Y-112442152D01*
X216917389Y-112436590D01*
X216791410Y-112395043D01*
X216778916Y-112386835D01*
X216723764Y-112334445D01*
X216694834Y-112260131D01*
X216684396Y-112138010D01*
X216683666Y-112067932D01*
X216688626Y-111921237D01*
X216706189Y-111842818D01*
X216740382Y-111816721D01*
X216747166Y-111816333D01*
X216787224Y-111839133D01*
G36*
X217966880Y-111821873D02*
G01*
X218023174Y-111844875D01*
X218038260Y-111894917D01*
X218038333Y-111901000D01*
X218025868Y-111953909D01*
X217974112Y-111978929D01*
X217861518Y-111985634D01*
X217847833Y-111985666D01*
X217657333Y-111985666D01*
X217657333Y-112218500D01*
X217653658Y-112353053D01*
X217637769Y-112423149D01*
X217602370Y-112448850D01*
X217572666Y-112451333D01*
X217523737Y-112441227D01*
X217498248Y-112397532D01*
X217488903Y-112300184D01*
X217488000Y-112218500D01*
X217506625Y-112026537D01*
X217568389Y-111902108D01*
X217682124Y-111835342D01*
X217847833Y-111816333D01*
X217966880Y-111821873D01*
G37*
X217966880Y-111821873D02*
X218023174Y-111844875D01*
X218038260Y-111894917D01*
X218038333Y-111901000D01*
X218025868Y-111953909D01*
X217974112Y-111978929D01*
X217861518Y-111985634D01*
X217847833Y-111985666D01*
X217657333Y-111985666D01*
X217657333Y-112218500D01*
X217653658Y-112353053D01*
X217637769Y-112423149D01*
X217602370Y-112448850D01*
X217572666Y-112451333D01*
X217523737Y-112441227D01*
X217498248Y-112397532D01*
X217488903Y-112300184D01*
X217488000Y-112218500D01*
X217506625Y-112026537D01*
X217568389Y-111902108D01*
X217682124Y-111835342D01*
X217847833Y-111816333D01*
X217966880Y-111821873D01*
G36*
X218647449Y-111819481D02*
G01*
X218723370Y-111833286D01*
X218753606Y-111864290D01*
X218758000Y-111901000D01*
X218747893Y-111949928D01*
X218704199Y-111975417D01*
X218606851Y-111984763D01*
X218525166Y-111985666D01*
X218292333Y-111985666D01*
X218292333Y-112129304D01*
X218305433Y-112232595D01*
X218355789Y-112292294D01*
X218459982Y-112319188D01*
X218592129Y-112324333D01*
X218708563Y-112335264D01*
X218755542Y-112371313D01*
X218758000Y-112387833D01*
X218738349Y-112424857D01*
X218668761Y-112444648D01*
X218533280Y-112451235D01*
X218506400Y-112451333D01*
X218356979Y-112446212D01*
X218266191Y-112425777D01*
X218208353Y-112382417D01*
X218188900Y-112357247D01*
X218139892Y-112244181D01*
X218123000Y-112133833D01*
X218144960Y-112006303D01*
X218188900Y-111910419D01*
X218240791Y-111855884D01*
X218315468Y-111827286D01*
X218438614Y-111817015D01*
X218506400Y-111816333D01*
X218647449Y-111819481D01*
G37*
X218647449Y-111819481D02*
X218723370Y-111833286D01*
X218753606Y-111864290D01*
X218758000Y-111901000D01*
X218747893Y-111949928D01*
X218704199Y-111975417D01*
X218606851Y-111984763D01*
X218525166Y-111985666D01*
X218292333Y-111985666D01*
X218292333Y-112129304D01*
X218305433Y-112232595D01*
X218355789Y-112292294D01*
X218459982Y-112319188D01*
X218592129Y-112324333D01*
X218708563Y-112335264D01*
X218755542Y-112371313D01*
X218758000Y-112387833D01*
X218738349Y-112424857D01*
X218668761Y-112444648D01*
X218533280Y-112451235D01*
X218506400Y-112451333D01*
X218356979Y-112446212D01*
X218266191Y-112425777D01*
X218208353Y-112382417D01*
X218188900Y-112357247D01*
X218139892Y-112244181D01*
X218123000Y-112133833D01*
X218144960Y-112006303D01*
X218188900Y-111910419D01*
X218240791Y-111855884D01*
X218315468Y-111827286D01*
X218438614Y-111817015D01*
X218506400Y-111816333D01*
X218647449Y-111819481D01*
G36*
X219374484Y-111826232D02*
G01*
X219455000Y-111863526D01*
X219496413Y-111912532D01*
X219544356Y-112038720D01*
X219517897Y-112141451D01*
X219426210Y-112210815D01*
X219278466Y-112236906D01*
X219200296Y-112232388D01*
X219094489Y-112203579D01*
X219067061Y-112161857D01*
X219116751Y-112123049D01*
X219210459Y-112104795D01*
X219330107Y-112080096D01*
X219371735Y-112031198D01*
X219371833Y-112028000D01*
X219343871Y-111983846D01*
X219251182Y-111965652D01*
X219202500Y-111964500D01*
X219033166Y-111964500D01*
X219033166Y-112133833D01*
X219038033Y-112242731D01*
X219067934Y-112293367D01*
X219145819Y-112312121D01*
X219191916Y-112316305D01*
X219310037Y-112341528D01*
X219350665Y-112390096D01*
X219350666Y-112390388D01*
X219314133Y-112428400D01*
X219224397Y-112448951D01*
X219111250Y-112451313D01*
X219004487Y-112434756D01*
X218935800Y-112400533D01*
X218906822Y-112331468D01*
X218888428Y-112210576D01*
X218885000Y-112126856D01*
X218897043Y-111973926D01*
X218943334Y-111880114D01*
X219039111Y-111832130D01*
X219199611Y-111816686D01*
X219241074Y-111816333D01*
X219374484Y-111826232D01*
G37*
X219374484Y-111826232D02*
X219455000Y-111863526D01*
X219496413Y-111912532D01*
X219544356Y-112038720D01*
X219517897Y-112141451D01*
X219426210Y-112210815D01*
X219278466Y-112236906D01*
X219200296Y-112232388D01*
X219094489Y-112203579D01*
X219067061Y-112161857D01*
X219116751Y-112123049D01*
X219210459Y-112104795D01*
X219330107Y-112080096D01*
X219371735Y-112031198D01*
X219371833Y-112028000D01*
X219343871Y-111983846D01*
X219251182Y-111965652D01*
X219202500Y-111964500D01*
X219033166Y-111964500D01*
X219033166Y-112133833D01*
X219038033Y-112242731D01*
X219067934Y-112293367D01*
X219145819Y-112312121D01*
X219191916Y-112316305D01*
X219310037Y-112341528D01*
X219350665Y-112390096D01*
X219350666Y-112390388D01*
X219314133Y-112428400D01*
X219224397Y-112448951D01*
X219111250Y-112451313D01*
X219004487Y-112434756D01*
X218935800Y-112400533D01*
X218906822Y-112331468D01*
X218888428Y-112210576D01*
X218885000Y-112126856D01*
X218897043Y-111973926D01*
X218943334Y-111880114D01*
X219039111Y-111832130D01*
X219199611Y-111816686D01*
X219241074Y-111816333D01*
X219374484Y-111826232D01*
G36*
X220150437Y-111567906D02*
G01*
X220174934Y-111594605D01*
X220189008Y-111657400D01*
X220195509Y-111771257D01*
X220197291Y-111951148D01*
X220197333Y-112006833D01*
X220196271Y-112205130D01*
X220191186Y-112333738D01*
X220179225Y-112407625D01*
X220157538Y-112441760D01*
X220123273Y-112451113D01*
X220112666Y-112451333D01*
X220074895Y-112445760D01*
X220050399Y-112419060D01*
X220036325Y-112356266D01*
X220029823Y-112242408D01*
X220028041Y-112062518D01*
X220028000Y-112006833D01*
X220029061Y-111808536D01*
X220034147Y-111679928D01*
X220046107Y-111606041D01*
X220067795Y-111571905D01*
X220102060Y-111562553D01*
X220112666Y-111562333D01*
X220150437Y-111567906D01*
G37*
X220150437Y-111567906D02*
X220174934Y-111594605D01*
X220189008Y-111657400D01*
X220195509Y-111771257D01*
X220197291Y-111951148D01*
X220197333Y-112006833D01*
X220196271Y-112205130D01*
X220191186Y-112333738D01*
X220179225Y-112407625D01*
X220157538Y-112441760D01*
X220123273Y-112451113D01*
X220112666Y-112451333D01*
X220074895Y-112445760D01*
X220050399Y-112419060D01*
X220036325Y-112356266D01*
X220029823Y-112242408D01*
X220028041Y-112062518D01*
X220028000Y-112006833D01*
X220029061Y-111808536D01*
X220034147Y-111679928D01*
X220046107Y-111606041D01*
X220067795Y-111571905D01*
X220102060Y-111562553D01*
X220112666Y-111562333D01*
X220150437Y-111567906D01*
G36*
X220570275Y-111839493D02*
G01*
X220677142Y-111914641D01*
X220733719Y-112050275D01*
X220747666Y-112218500D01*
X220743991Y-112353053D01*
X220728102Y-112423149D01*
X220692703Y-112448850D01*
X220663000Y-112451333D01*
X220613859Y-112441113D01*
X220588384Y-112397020D01*
X220579163Y-112298900D01*
X220578333Y-112221055D01*
X220578333Y-111990777D01*
X220419935Y-111977638D01*
X220299282Y-111951663D01*
X220248866Y-111896460D01*
X220247498Y-111890416D01*
X220253445Y-111842368D01*
X220308364Y-111820695D01*
X220405895Y-111816333D01*
X220570275Y-111839493D01*
G37*
X220570275Y-111839493D02*
X220677142Y-111914641D01*
X220733719Y-112050275D01*
X220747666Y-112218500D01*
X220743991Y-112353053D01*
X220728102Y-112423149D01*
X220692703Y-112448850D01*
X220663000Y-112451333D01*
X220613859Y-112441113D01*
X220588384Y-112397020D01*
X220579163Y-112298900D01*
X220578333Y-112221055D01*
X220578333Y-111990777D01*
X220419935Y-111977638D01*
X220299282Y-111951663D01*
X220248866Y-111896460D01*
X220247498Y-111890416D01*
X220253445Y-111842368D01*
X220308364Y-111820695D01*
X220405895Y-111816333D01*
X220570275Y-111839493D01*
G36*
X221342996Y-111828220D02*
G01*
X221445099Y-111873598D01*
X221495507Y-111967037D01*
X221509635Y-112123110D01*
X221509666Y-112133833D01*
X221503180Y-112277345D01*
X221479043Y-112360309D01*
X221430241Y-112406172D01*
X221427783Y-112407510D01*
X221311803Y-112441901D01*
X221164801Y-112450876D01*
X221021389Y-112435920D01*
X220916179Y-112398519D01*
X220898857Y-112384809D01*
X220839621Y-112281335D01*
X220853047Y-112179299D01*
X220928217Y-112093660D01*
X221054213Y-112039380D01*
X221159252Y-112028000D01*
X221257366Y-112038939D01*
X221294916Y-112080831D01*
X221298000Y-112112666D01*
X221281425Y-112171020D01*
X221216722Y-112194565D01*
X221149833Y-112197333D01*
X221041833Y-112210258D01*
X221002445Y-112252770D01*
X221001666Y-112263267D01*
X221021089Y-112304930D01*
X221091721Y-112319363D01*
X221181583Y-112316184D01*
X221295217Y-112302877D01*
X221349766Y-112271118D01*
X221370782Y-112200224D01*
X221375223Y-112159439D01*
X221368391Y-112038770D01*
X221310482Y-111971324D01*
X221188683Y-111945403D01*
X221139250Y-111943981D01*
X221033678Y-111927204D01*
X221001666Y-111879833D01*
X221029174Y-111836008D01*
X221120716Y-111817662D01*
X221173783Y-111816333D01*
X221342996Y-111828220D01*
G37*
X221342996Y-111828220D02*
X221445099Y-111873598D01*
X221495507Y-111967037D01*
X221509635Y-112123110D01*
X221509666Y-112133833D01*
X221503180Y-112277345D01*
X221479043Y-112360309D01*
X221430241Y-112406172D01*
X221427783Y-112407510D01*
X221311803Y-112441901D01*
X221164801Y-112450876D01*
X221021389Y-112435920D01*
X220916179Y-112398519D01*
X220898857Y-112384809D01*
X220839621Y-112281335D01*
X220853047Y-112179299D01*
X220928217Y-112093660D01*
X221054213Y-112039380D01*
X221159252Y-112028000D01*
X221257366Y-112038939D01*
X221294916Y-112080831D01*
X221298000Y-112112666D01*
X221281425Y-112171020D01*
X221216722Y-112194565D01*
X221149833Y-112197333D01*
X221041833Y-112210258D01*
X221002445Y-112252770D01*
X221001666Y-112263267D01*
X221021089Y-112304930D01*
X221091721Y-112319363D01*
X221181583Y-112316184D01*
X221295217Y-112302877D01*
X221349766Y-112271118D01*
X221370782Y-112200224D01*
X221375223Y-112159439D01*
X221368391Y-112038770D01*
X221310482Y-111971324D01*
X221188683Y-111945403D01*
X221139250Y-111943981D01*
X221033678Y-111927204D01*
X221001666Y-111879833D01*
X221029174Y-111836008D01*
X221120716Y-111817662D01*
X221173783Y-111816333D01*
X221342996Y-111828220D01*
G36*
X222121335Y-111822493D02*
G01*
X222174409Y-111847785D01*
X222187000Y-111901000D01*
X222174535Y-111953909D01*
X222122779Y-111978929D01*
X222010185Y-111985634D01*
X221996500Y-111985666D01*
X221806000Y-111985666D01*
X221806000Y-112218500D01*
X221802325Y-112353053D01*
X221786436Y-112423149D01*
X221751036Y-112448850D01*
X221721333Y-112451333D01*
X221673868Y-112441978D01*
X221648319Y-112400954D01*
X221638145Y-112308820D01*
X221636666Y-112199733D01*
X221653392Y-112014957D01*
X221711289Y-111897485D01*
X221821937Y-111835294D01*
X221996916Y-111816361D01*
X222005919Y-111816333D01*
X222121335Y-111822493D01*
G37*
X222121335Y-111822493D02*
X222174409Y-111847785D01*
X222187000Y-111901000D01*
X222174535Y-111953909D01*
X222122779Y-111978929D01*
X222010185Y-111985634D01*
X221996500Y-111985666D01*
X221806000Y-111985666D01*
X221806000Y-112218500D01*
X221802325Y-112353053D01*
X221786436Y-112423149D01*
X221751036Y-112448850D01*
X221721333Y-112451333D01*
X221673868Y-112441978D01*
X221648319Y-112400954D01*
X221638145Y-112308820D01*
X221636666Y-112199733D01*
X221653392Y-112014957D01*
X221711289Y-111897485D01*
X221821937Y-111835294D01*
X221996916Y-111816361D01*
X222005919Y-111816333D01*
X222121335Y-111822493D01*
G36*
X222947177Y-111568797D02*
G01*
X222972220Y-111599022D01*
X222985471Y-111669254D01*
X222990602Y-111795742D01*
X222991333Y-111936772D01*
X222985162Y-112154014D01*
X222960170Y-112300551D01*
X222906632Y-112389855D01*
X222814828Y-112435397D01*
X222675036Y-112450649D01*
X222619983Y-112451333D01*
X222479185Y-112443704D01*
X222393823Y-112414517D01*
X222337567Y-112357247D01*
X222288558Y-112244181D01*
X222271666Y-112133833D01*
X222300352Y-111968675D01*
X222387731Y-111864324D01*
X222535788Y-111818809D01*
X222591567Y-111816333D01*
X222709695Y-111822021D01*
X222765175Y-111845575D01*
X222779631Y-111896729D01*
X222779666Y-111901000D01*
X222765466Y-111956392D01*
X222708072Y-111980873D01*
X222610333Y-111985666D01*
X222501912Y-111990169D01*
X222453728Y-112017839D01*
X222441376Y-112089914D01*
X222441000Y-112133026D01*
X222452474Y-112238754D01*
X222498322Y-112290462D01*
X222543778Y-112306182D01*
X222661212Y-112315634D01*
X222734278Y-112304136D01*
X222777292Y-112282845D01*
X222803438Y-112240470D01*
X222816829Y-112158962D01*
X222821579Y-112020276D01*
X222822000Y-111919313D01*
X222823599Y-111745181D01*
X222831025Y-111639076D01*
X222848218Y-111584383D01*
X222879120Y-111564485D01*
X222906666Y-111562333D01*
X222947177Y-111568797D01*
G37*
X222947177Y-111568797D02*
X222972220Y-111599022D01*
X222985471Y-111669254D01*
X222990602Y-111795742D01*
X222991333Y-111936772D01*
X222985162Y-112154014D01*
X222960170Y-112300551D01*
X222906632Y-112389855D01*
X222814828Y-112435397D01*
X222675036Y-112450649D01*
X222619983Y-112451333D01*
X222479185Y-112443704D01*
X222393823Y-112414517D01*
X222337567Y-112357247D01*
X222288558Y-112244181D01*
X222271666Y-112133833D01*
X222300352Y-111968675D01*
X222387731Y-111864324D01*
X222535788Y-111818809D01*
X222591567Y-111816333D01*
X222709695Y-111822021D01*
X222765175Y-111845575D01*
X222779631Y-111896729D01*
X222779666Y-111901000D01*
X222765466Y-111956392D01*
X222708072Y-111980873D01*
X222610333Y-111985666D01*
X222501912Y-111990169D01*
X222453728Y-112017839D01*
X222441376Y-112089914D01*
X222441000Y-112133026D01*
X222452474Y-112238754D01*
X222498322Y-112290462D01*
X222543778Y-112306182D01*
X222661212Y-112315634D01*
X222734278Y-112304136D01*
X222777292Y-112282845D01*
X222803438Y-112240470D01*
X222816829Y-112158962D01*
X222821579Y-112020276D01*
X222822000Y-111919313D01*
X222823599Y-111745181D01*
X222831025Y-111639076D01*
X222848218Y-111584383D01*
X222879120Y-111564485D01*
X222906666Y-111562333D01*
X222947177Y-111568797D01*
G36*
X224132903Y-111843453D02*
G01*
X224134333Y-111862075D01*
X224109433Y-111930937D01*
X224045751Y-112040495D01*
X223959810Y-112167338D01*
X223868137Y-112288058D01*
X223787257Y-112379244D01*
X223745174Y-112413366D01*
X223637227Y-112441819D01*
X223567431Y-112396010D01*
X223541696Y-112279966D01*
X223541666Y-112274737D01*
X223541666Y-112137817D01*
X223381131Y-112294575D01*
X223277750Y-112392484D01*
X223215313Y-112439237D01*
X223175980Y-112444608D01*
X223146555Y-112423111D01*
X223132358Y-112369386D01*
X223122223Y-112255598D01*
X223118333Y-112106331D01*
X223118333Y-112105611D01*
X223120726Y-111952126D01*
X223131478Y-111864954D01*
X223155943Y-111825797D01*
X223199478Y-111816354D01*
X223203000Y-111816333D01*
X223257112Y-111829621D01*
X223281934Y-111884075D01*
X223287781Y-111996250D01*
X223287895Y-112176166D01*
X223453484Y-111985666D01*
X223563681Y-111873022D01*
X223638795Y-111836034D01*
X223686000Y-111876989D01*
X223712471Y-111998177D01*
X223718910Y-112070333D01*
X223732166Y-112260833D01*
X223869358Y-112038583D01*
X223957543Y-111916133D01*
X224039138Y-111837282D01*
X224101729Y-111810299D01*
X224132903Y-111843453D01*
G37*
X224132903Y-111843453D02*
X224134333Y-111862075D01*
X224109433Y-111930937D01*
X224045751Y-112040495D01*
X223959810Y-112167338D01*
X223868137Y-112288058D01*
X223787257Y-112379244D01*
X223745174Y-112413366D01*
X223637227Y-112441819D01*
X223567431Y-112396010D01*
X223541696Y-112279966D01*
X223541666Y-112274737D01*
X223541666Y-112137817D01*
X223381131Y-112294575D01*
X223277750Y-112392484D01*
X223215313Y-112439237D01*
X223175980Y-112444608D01*
X223146555Y-112423111D01*
X223132358Y-112369386D01*
X223122223Y-112255598D01*
X223118333Y-112106331D01*
X223118333Y-112105611D01*
X223120726Y-111952126D01*
X223131478Y-111864954D01*
X223155943Y-111825797D01*
X223199478Y-111816354D01*
X223203000Y-111816333D01*
X223257112Y-111829621D01*
X223281934Y-111884075D01*
X223287781Y-111996250D01*
X223287895Y-112176166D01*
X223453484Y-111985666D01*
X223563681Y-111873022D01*
X223638795Y-111836034D01*
X223686000Y-111876989D01*
X223712471Y-111998177D01*
X223718910Y-112070333D01*
X223732166Y-112260833D01*
X223869358Y-112038583D01*
X223957543Y-111916133D01*
X224039138Y-111837282D01*
X224101729Y-111810299D01*
X224132903Y-111843453D01*
G36*
X224549130Y-111818190D02*
G01*
X224666080Y-111838616D01*
X224750658Y-111876420D01*
X224805663Y-111961059D01*
X224832245Y-112091617D01*
X224828761Y-112233692D01*
X224793574Y-112352887D01*
X224774733Y-112381326D01*
X224685217Y-112432965D01*
X224549145Y-112454829D01*
X224398899Y-112447749D01*
X224266863Y-112412558D01*
X224197677Y-112366494D01*
X224146944Y-112264138D01*
X224167239Y-112166357D01*
X224245390Y-112086626D01*
X224368228Y-112038419D01*
X224521610Y-112035074D01*
X224607251Y-112066609D01*
X224622161Y-112114539D01*
X224573121Y-112161195D01*
X224466912Y-112188909D01*
X224462416Y-112189305D01*
X224343597Y-112214568D01*
X224303676Y-112264785D01*
X224303666Y-112265822D01*
X224325079Y-112306044D01*
X224400858Y-112319367D01*
X224483583Y-112316184D01*
X224596266Y-112304235D01*
X224648114Y-112274274D01*
X224662751Y-112202356D01*
X224663500Y-112133833D01*
X224659467Y-112027487D01*
X224631618Y-111976674D01*
X224556331Y-111957450D01*
X224483583Y-111951482D01*
X224355137Y-111929575D01*
X224304783Y-111887077D01*
X224303666Y-111877399D01*
X224340186Y-111837642D01*
X224431253Y-111817886D01*
X224549130Y-111818190D01*
G37*
X224549130Y-111818190D02*
X224666080Y-111838616D01*
X224750658Y-111876420D01*
X224805663Y-111961059D01*
X224832245Y-112091617D01*
X224828761Y-112233692D01*
X224793574Y-112352887D01*
X224774733Y-112381326D01*
X224685217Y-112432965D01*
X224549145Y-112454829D01*
X224398899Y-112447749D01*
X224266863Y-112412558D01*
X224197677Y-112366494D01*
X224146944Y-112264138D01*
X224167239Y-112166357D01*
X224245390Y-112086626D01*
X224368228Y-112038419D01*
X224521610Y-112035074D01*
X224607251Y-112066609D01*
X224622161Y-112114539D01*
X224573121Y-112161195D01*
X224466912Y-112188909D01*
X224462416Y-112189305D01*
X224343597Y-112214568D01*
X224303676Y-112264785D01*
X224303666Y-112265822D01*
X224325079Y-112306044D01*
X224400858Y-112319367D01*
X224483583Y-112316184D01*
X224596266Y-112304235D01*
X224648114Y-112274274D01*
X224662751Y-112202356D01*
X224663500Y-112133833D01*
X224659467Y-112027487D01*
X224631618Y-111976674D01*
X224556331Y-111957450D01*
X224483583Y-111951482D01*
X224355137Y-111929575D01*
X224304783Y-111887077D01*
X224303666Y-111877399D01*
X224340186Y-111837642D01*
X224431253Y-111817886D01*
X224549130Y-111818190D01*
G36*
X225417547Y-111821873D02*
G01*
X225473841Y-111844875D01*
X225488927Y-111894917D01*
X225489000Y-111901000D01*
X225476535Y-111953909D01*
X225424779Y-111978929D01*
X225312185Y-111985634D01*
X225298500Y-111985666D01*
X225108000Y-111985666D01*
X225108000Y-112218500D01*
X225104325Y-112353053D01*
X225088436Y-112423149D01*
X225053036Y-112448850D01*
X225023333Y-112451333D01*
X224974404Y-112441227D01*
X224948915Y-112397532D01*
X224939569Y-112300184D01*
X224938666Y-112218500D01*
X224957292Y-112026537D01*
X225019056Y-111902108D01*
X225132791Y-111835342D01*
X225298500Y-111816333D01*
X225417547Y-111821873D01*
G37*
X225417547Y-111821873D02*
X225473841Y-111844875D01*
X225488927Y-111894917D01*
X225489000Y-111901000D01*
X225476535Y-111953909D01*
X225424779Y-111978929D01*
X225312185Y-111985634D01*
X225298500Y-111985666D01*
X225108000Y-111985666D01*
X225108000Y-112218500D01*
X225104325Y-112353053D01*
X225088436Y-112423149D01*
X225053036Y-112448850D01*
X225023333Y-112451333D01*
X224974404Y-112441227D01*
X224948915Y-112397532D01*
X224939569Y-112300184D01*
X224938666Y-112218500D01*
X224957292Y-112026537D01*
X225019056Y-111902108D01*
X225132791Y-111835342D01*
X225298500Y-111816333D01*
X225417547Y-111821873D01*
G36*
X226103016Y-111825446D02*
G01*
X226182725Y-111861493D01*
X226233726Y-111922166D01*
X226278239Y-112004338D01*
X226271565Y-112069184D01*
X226232211Y-112136145D01*
X226171158Y-112206685D01*
X226091876Y-112233133D01*
X225987215Y-112231395D01*
X225860258Y-112209226D01*
X225800911Y-112173909D01*
X225813286Y-112136816D01*
X225901492Y-112109319D01*
X225941459Y-112104795D01*
X226061107Y-112080096D01*
X226102735Y-112031198D01*
X226102833Y-112028000D01*
X226074871Y-111983846D01*
X225982182Y-111965652D01*
X225933500Y-111964500D01*
X225764166Y-111964500D01*
X225764166Y-112133833D01*
X225769033Y-112242731D01*
X225798934Y-112293367D01*
X225876819Y-112312121D01*
X225922916Y-112316305D01*
X226041037Y-112341528D01*
X226081665Y-112390096D01*
X226081666Y-112390388D01*
X226045133Y-112428400D01*
X225955397Y-112448951D01*
X225842250Y-112451313D01*
X225735487Y-112434756D01*
X225666800Y-112400533D01*
X225637822Y-112331468D01*
X225619428Y-112210576D01*
X225616000Y-112126856D01*
X225628043Y-111973926D01*
X225674334Y-111880114D01*
X225770111Y-111832130D01*
X225930611Y-111816686D01*
X225972074Y-111816333D01*
X226103016Y-111825446D01*
G37*
X226103016Y-111825446D02*
X226182725Y-111861493D01*
X226233726Y-111922166D01*
X226278239Y-112004338D01*
X226271565Y-112069184D01*
X226232211Y-112136145D01*
X226171158Y-112206685D01*
X226091876Y-112233133D01*
X225987215Y-112231395D01*
X225860258Y-112209226D01*
X225800911Y-112173909D01*
X225813286Y-112136816D01*
X225901492Y-112109319D01*
X225941459Y-112104795D01*
X226061107Y-112080096D01*
X226102735Y-112031198D01*
X226102833Y-112028000D01*
X226074871Y-111983846D01*
X225982182Y-111965652D01*
X225933500Y-111964500D01*
X225764166Y-111964500D01*
X225764166Y-112133833D01*
X225769033Y-112242731D01*
X225798934Y-112293367D01*
X225876819Y-112312121D01*
X225922916Y-112316305D01*
X226041037Y-112341528D01*
X226081665Y-112390096D01*
X226081666Y-112390388D01*
X226045133Y-112428400D01*
X225955397Y-112448951D01*
X225842250Y-112451313D01*
X225735487Y-112434756D01*
X225666800Y-112400533D01*
X225637822Y-112331468D01*
X225619428Y-112210576D01*
X225616000Y-112126856D01*
X225628043Y-111973926D01*
X225674334Y-111880114D01*
X225770111Y-111832130D01*
X225930611Y-111816686D01*
X225972074Y-111816333D01*
X226103016Y-111825446D01*
G36*
X226897974Y-111651235D02*
G01*
X226974902Y-111753022D01*
X227075629Y-111914940D01*
X227158212Y-112048195D01*
X227224767Y-112147574D01*
X227263352Y-112195457D01*
X227267000Y-112197333D01*
X227297514Y-112163697D01*
X227358728Y-112074537D01*
X227438699Y-111947473D01*
X227458370Y-111914940D01*
X227565000Y-111744157D01*
X227640043Y-111647228D01*
X227688913Y-111626315D01*
X227717028Y-111683581D01*
X227729804Y-111821189D01*
X227732666Y-112024472D01*
X227730432Y-112224117D01*
X227722441Y-112352623D01*
X227706765Y-112423432D01*
X227681473Y-112449986D01*
X227671378Y-112451333D01*
X227630644Y-112422526D01*
X227606170Y-112328451D01*
X227597295Y-112229083D01*
X227584500Y-112006833D01*
X227499833Y-112149052D01*
X227422654Y-112269414D01*
X227347171Y-112373563D01*
X227340427Y-112381886D01*
X227283717Y-112443598D01*
X227245504Y-112441337D01*
X227199397Y-112387833D01*
X227136336Y-112298553D01*
X227058149Y-112176809D01*
X227032041Y-112133833D01*
X226930975Y-111964500D01*
X226929654Y-112207916D01*
X226923525Y-112352127D01*
X226904323Y-112427966D01*
X226867831Y-112451260D01*
X226864833Y-112451333D01*
X226835327Y-112437407D01*
X226816340Y-112386374D01*
X226805808Y-112284351D01*
X226801664Y-112117457D01*
X226801333Y-112024472D01*
X226804665Y-111809779D01*
X226818271Y-111677450D01*
X226847569Y-111625323D01*
X226897974Y-111651235D01*
G37*
X226897974Y-111651235D02*
X226974902Y-111753022D01*
X227075629Y-111914940D01*
X227158212Y-112048195D01*
X227224767Y-112147574D01*
X227263352Y-112195457D01*
X227267000Y-112197333D01*
X227297514Y-112163697D01*
X227358728Y-112074537D01*
X227438699Y-111947473D01*
X227458370Y-111914940D01*
X227565000Y-111744157D01*
X227640043Y-111647228D01*
X227688913Y-111626315D01*
X227717028Y-111683581D01*
X227729804Y-111821189D01*
X227732666Y-112024472D01*
X227730432Y-112224117D01*
X227722441Y-112352623D01*
X227706765Y-112423432D01*
X227681473Y-112449986D01*
X227671378Y-112451333D01*
X227630644Y-112422526D01*
X227606170Y-112328451D01*
X227597295Y-112229083D01*
X227584500Y-112006833D01*
X227499833Y-112149052D01*
X227422654Y-112269414D01*
X227347171Y-112373563D01*
X227340427Y-112381886D01*
X227283717Y-112443598D01*
X227245504Y-112441337D01*
X227199397Y-112387833D01*
X227136336Y-112298553D01*
X227058149Y-112176809D01*
X227032041Y-112133833D01*
X226930975Y-111964500D01*
X226929654Y-112207916D01*
X226923525Y-112352127D01*
X226904323Y-112427966D01*
X226867831Y-112451260D01*
X226864833Y-112451333D01*
X226835327Y-112437407D01*
X226816340Y-112386374D01*
X226805808Y-112284351D01*
X226801664Y-112117457D01*
X226801333Y-112024472D01*
X226804665Y-111809779D01*
X226818271Y-111677450D01*
X226847569Y-111625323D01*
X226897974Y-111651235D01*
G36*
X228370329Y-111828220D02*
G01*
X228472432Y-111873598D01*
X228522840Y-111967037D01*
X228536969Y-112123110D01*
X228537000Y-112133833D01*
X228525155Y-112291022D01*
X228479357Y-112386988D01*
X228384211Y-112435675D01*
X228224320Y-112451032D01*
X228186510Y-112451333D01*
X228031621Y-112433525D01*
X227931135Y-112375049D01*
X227923011Y-112366494D01*
X227872278Y-112264138D01*
X227892572Y-112166357D01*
X227970723Y-112086626D01*
X228093561Y-112038419D01*
X228246944Y-112035074D01*
X228332584Y-112066609D01*
X228347494Y-112114539D01*
X228298454Y-112161195D01*
X228192246Y-112188909D01*
X228187750Y-112189305D01*
X228068931Y-112214568D01*
X228029010Y-112264785D01*
X228029000Y-112265822D01*
X228050412Y-112306044D01*
X228126191Y-112319367D01*
X228208916Y-112316184D01*
X228322550Y-112302877D01*
X228377099Y-112271118D01*
X228398116Y-112200224D01*
X228402557Y-112159439D01*
X228395724Y-112038770D01*
X228337815Y-111971324D01*
X228216017Y-111945403D01*
X228166583Y-111943981D01*
X228061011Y-111927204D01*
X228029000Y-111879833D01*
X228056507Y-111836008D01*
X228148050Y-111817662D01*
X228201116Y-111816333D01*
X228370329Y-111828220D01*
G37*
X228370329Y-111828220D02*
X228472432Y-111873598D01*
X228522840Y-111967037D01*
X228536969Y-112123110D01*
X228537000Y-112133833D01*
X228525155Y-112291022D01*
X228479357Y-112386988D01*
X228384211Y-112435675D01*
X228224320Y-112451032D01*
X228186510Y-112451333D01*
X228031621Y-112433525D01*
X227931135Y-112375049D01*
X227923011Y-112366494D01*
X227872278Y-112264138D01*
X227892572Y-112166357D01*
X227970723Y-112086626D01*
X228093561Y-112038419D01*
X228246944Y-112035074D01*
X228332584Y-112066609D01*
X228347494Y-112114539D01*
X228298454Y-112161195D01*
X228192246Y-112188909D01*
X228187750Y-112189305D01*
X228068931Y-112214568D01*
X228029010Y-112264785D01*
X228029000Y-112265822D01*
X228050412Y-112306044D01*
X228126191Y-112319367D01*
X228208916Y-112316184D01*
X228322550Y-112302877D01*
X228377099Y-112271118D01*
X228398116Y-112200224D01*
X228402557Y-112159439D01*
X228395724Y-112038770D01*
X228337815Y-111971324D01*
X228216017Y-111945403D01*
X228166583Y-111943981D01*
X228061011Y-111927204D01*
X228029000Y-111879833D01*
X228056507Y-111836008D01*
X228148050Y-111817662D01*
X228201116Y-111816333D01*
X228370329Y-111828220D01*
G36*
X228786437Y-111567906D02*
G01*
X228810934Y-111594605D01*
X228825008Y-111657400D01*
X228831509Y-111771257D01*
X228833291Y-111951148D01*
X228833333Y-112006833D01*
X228832271Y-112205130D01*
X228827186Y-112333738D01*
X228815225Y-112407625D01*
X228793538Y-112441760D01*
X228759273Y-112451113D01*
X228748666Y-112451333D01*
X228710895Y-112445760D01*
X228686399Y-112419060D01*
X228672325Y-112356266D01*
X228665823Y-112242408D01*
X228664041Y-112062518D01*
X228664000Y-112006833D01*
X228665061Y-111808536D01*
X228670147Y-111679928D01*
X228682107Y-111606041D01*
X228703795Y-111571905D01*
X228738060Y-111562553D01*
X228748666Y-111562333D01*
X228786437Y-111567906D01*
G37*
X228786437Y-111567906D02*
X228810934Y-111594605D01*
X228825008Y-111657400D01*
X228831509Y-111771257D01*
X228833291Y-111951148D01*
X228833333Y-112006833D01*
X228832271Y-112205130D01*
X228827186Y-112333738D01*
X228815225Y-112407625D01*
X228793538Y-112441760D01*
X228759273Y-112451113D01*
X228748666Y-112451333D01*
X228710895Y-112445760D01*
X228686399Y-112419060D01*
X228672325Y-112356266D01*
X228665823Y-112242408D01*
X228664041Y-112062518D01*
X228664000Y-112006833D01*
X228665061Y-111808536D01*
X228670147Y-111679928D01*
X228682107Y-111606041D01*
X228703795Y-111571905D01*
X228738060Y-111562553D01*
X228748666Y-111562333D01*
X228786437Y-111567906D01*
G36*
X229355535Y-111822072D02*
G01*
X229367431Y-111840751D01*
X229325733Y-111888232D01*
X229238196Y-111966983D01*
X229071558Y-112114108D01*
X229236204Y-112282721D01*
X229327594Y-112378415D01*
X229364396Y-112428673D01*
X229351706Y-112448108D01*
X229295016Y-112451333D01*
X229185224Y-112414022D01*
X229049649Y-112306308D01*
X229021841Y-112278448D01*
X228854500Y-112105563D01*
X229020303Y-111960948D01*
X229153089Y-111866010D01*
X229269968Y-111820179D01*
X229295469Y-111818095D01*
X229355535Y-111822072D01*
G37*
X229355535Y-111822072D02*
X229367431Y-111840751D01*
X229325733Y-111888232D01*
X229238196Y-111966983D01*
X229071558Y-112114108D01*
X229236204Y-112282721D01*
X229327594Y-112378415D01*
X229364396Y-112428673D01*
X229351706Y-112448108D01*
X229295016Y-112451333D01*
X229185224Y-112414022D01*
X229049649Y-112306308D01*
X229021841Y-112278448D01*
X228854500Y-112105563D01*
X229020303Y-111960948D01*
X229153089Y-111866010D01*
X229269968Y-111820179D01*
X229295469Y-111818095D01*
X229355535Y-111822072D01*
G36*
X229942739Y-111824456D02*
G01*
X230063783Y-111860156D01*
X230125418Y-111934869D01*
X230145612Y-112045797D01*
X230120621Y-112153340D01*
X230094866Y-112188866D01*
X230021140Y-112224951D01*
X229913059Y-112240542D01*
X229800367Y-112236550D01*
X229712810Y-112213886D01*
X229680000Y-112176166D01*
X229712718Y-112128828D01*
X229816545Y-112112721D01*
X229825668Y-112112666D01*
X229940490Y-112096950D01*
X230003013Y-112057625D01*
X230000319Y-112006424D01*
X229971173Y-111980488D01*
X229888482Y-111956269D01*
X229785833Y-111953471D01*
X229705147Y-111968302D01*
X229665610Y-112010860D01*
X229648837Y-112106215D01*
X229645815Y-112144416D01*
X229632798Y-112324333D01*
X229804565Y-112324333D01*
X229923222Y-112334523D01*
X229972798Y-112368417D01*
X229976333Y-112387833D01*
X229940065Y-112429995D01*
X229850034Y-112450969D01*
X229734399Y-112450948D01*
X229621321Y-112430123D01*
X229538957Y-112388689D01*
X229534857Y-112384809D01*
X229483892Y-112284234D01*
X229467554Y-112144495D01*
X229485027Y-112002920D01*
X229535495Y-111896838D01*
X229545750Y-111886394D01*
X229646146Y-111839084D01*
X229790779Y-111817815D01*
X229942739Y-111824456D01*
G37*
X229942739Y-111824456D02*
X230063783Y-111860156D01*
X230125418Y-111934869D01*
X230145612Y-112045797D01*
X230120621Y-112153340D01*
X230094866Y-112188866D01*
X230021140Y-112224951D01*
X229913059Y-112240542D01*
X229800367Y-112236550D01*
X229712810Y-112213886D01*
X229680000Y-112176166D01*
X229712718Y-112128828D01*
X229816545Y-112112721D01*
X229825668Y-112112666D01*
X229940490Y-112096950D01*
X230003013Y-112057625D01*
X230000319Y-112006424D01*
X229971173Y-111980488D01*
X229888482Y-111956269D01*
X229785833Y-111953471D01*
X229705147Y-111968302D01*
X229665610Y-112010860D01*
X229648837Y-112106215D01*
X229645815Y-112144416D01*
X229632798Y-112324333D01*
X229804565Y-112324333D01*
X229923222Y-112334523D01*
X229972798Y-112368417D01*
X229976333Y-112387833D01*
X229940065Y-112429995D01*
X229850034Y-112450969D01*
X229734399Y-112450948D01*
X229621321Y-112430123D01*
X229538957Y-112388689D01*
X229534857Y-112384809D01*
X229483892Y-112284234D01*
X229467554Y-112144495D01*
X229485027Y-112002920D01*
X229535495Y-111896838D01*
X229545750Y-111886394D01*
X229646146Y-111839084D01*
X229790779Y-111817815D01*
X229942739Y-111824456D01*
G36*
X230753139Y-111821423D02*
G01*
X230807949Y-111841790D01*
X230816067Y-111885079D01*
X230815139Y-111890416D01*
X230782011Y-111940163D01*
X230694597Y-111967820D01*
X230600369Y-111977402D01*
X230399666Y-111990305D01*
X230399666Y-112220819D01*
X230393860Y-112360443D01*
X230373514Y-112431956D01*
X230336166Y-112451333D01*
X230300465Y-112432890D01*
X230280666Y-112367021D01*
X230273102Y-112237918D01*
X230272666Y-112177656D01*
X230281754Y-112001948D01*
X230319586Y-111894017D01*
X230402012Y-111837960D01*
X230544885Y-111817873D01*
X230632821Y-111816333D01*
X230753139Y-111821423D01*
G37*
X230753139Y-111821423D02*
X230807949Y-111841790D01*
X230816067Y-111885079D01*
X230815139Y-111890416D01*
X230782011Y-111940163D01*
X230694597Y-111967820D01*
X230600369Y-111977402D01*
X230399666Y-111990305D01*
X230399666Y-112220819D01*
X230393860Y-112360443D01*
X230373514Y-112431956D01*
X230336166Y-112451333D01*
X230300465Y-112432890D01*
X230280666Y-112367021D01*
X230273102Y-112237918D01*
X230272666Y-112177656D01*
X230281754Y-112001948D01*
X230319586Y-111894017D01*
X230402012Y-111837960D01*
X230544885Y-111817873D01*
X230632821Y-111816333D01*
X230753139Y-111821423D01*
G36*
X218478641Y-109382362D02*
G01*
X218530816Y-109410227D01*
X218602951Y-109468494D01*
X218704045Y-109564616D01*
X218843100Y-109706049D01*
X219029116Y-109900246D01*
X219075500Y-109948966D01*
X219583500Y-110482833D01*
X219607124Y-109403333D01*
X219901000Y-109403333D01*
X219901000Y-110141142D01*
X219899850Y-110416894D01*
X219895732Y-110620120D01*
X219887645Y-110762936D01*
X219874586Y-110857461D01*
X219855553Y-110915811D01*
X219834476Y-110945476D01*
X219769831Y-110998992D01*
X219739226Y-111012925D01*
X219702062Y-110984178D01*
X219616365Y-110903757D01*
X219491963Y-110781325D01*
X219338688Y-110626544D01*
X219179378Y-110462592D01*
X219008026Y-110286373D01*
X218856346Y-110133469D01*
X218734192Y-110013566D01*
X218651420Y-109936348D01*
X218618462Y-109911333D01*
X218607174Y-109950991D01*
X218597849Y-110059281D01*
X218591388Y-110220174D01*
X218588694Y-110417642D01*
X218588666Y-110440500D01*
X218588666Y-110969666D01*
X218334666Y-110969666D01*
X218334666Y-110191029D01*
X218335639Y-109909909D01*
X218339137Y-109702438D01*
X218346031Y-109557616D01*
X218357191Y-109464440D01*
X218373486Y-109411910D01*
X218395786Y-109389024D01*
X218398166Y-109388024D01*
X218437425Y-109377446D01*
X218478641Y-109382362D01*
G37*
X218478641Y-109382362D02*
X218530816Y-109410227D01*
X218602951Y-109468494D01*
X218704045Y-109564616D01*
X218843100Y-109706049D01*
X219029116Y-109900246D01*
X219075500Y-109948966D01*
X219583500Y-110482833D01*
X219607124Y-109403333D01*
X219901000Y-109403333D01*
X219901000Y-110141142D01*
X219899850Y-110416894D01*
X219895732Y-110620120D01*
X219887645Y-110762936D01*
X219874586Y-110857461D01*
X219855553Y-110915811D01*
X219834476Y-110945476D01*
X219769831Y-110998992D01*
X219739226Y-111012925D01*
X219702062Y-110984178D01*
X219616365Y-110903757D01*
X219491963Y-110781325D01*
X219338688Y-110626544D01*
X219179378Y-110462592D01*
X219008026Y-110286373D01*
X218856346Y-110133469D01*
X218734192Y-110013566D01*
X218651420Y-109936348D01*
X218618462Y-109911333D01*
X218607174Y-109950991D01*
X218597849Y-110059281D01*
X218591388Y-110220174D01*
X218588694Y-110417642D01*
X218588666Y-110440500D01*
X218588666Y-110969666D01*
X218334666Y-110969666D01*
X218334666Y-110191029D01*
X218335639Y-109909909D01*
X218339137Y-109702438D01*
X218346031Y-109557616D01*
X218357191Y-109464440D01*
X218373486Y-109411910D01*
X218395786Y-109389024D01*
X218398166Y-109388024D01*
X218437425Y-109377446D01*
X218478641Y-109382362D01*
G36*
X221316136Y-109400979D02*
G01*
X221539363Y-109461730D01*
X221699314Y-109570889D01*
X221802792Y-109734927D01*
X221856599Y-109960312D01*
X221868458Y-110186500D01*
X221852576Y-110440431D01*
X221801117Y-110631374D01*
X221706791Y-110776141D01*
X221562930Y-110891162D01*
X221435291Y-110941404D01*
X221253808Y-110977910D01*
X221048603Y-110997796D01*
X220849800Y-110998177D01*
X220687522Y-110976170D01*
X220684166Y-110975301D01*
X220473051Y-110891180D01*
X220322286Y-110761418D01*
X220226807Y-110578150D01*
X220181547Y-110333511D01*
X220176166Y-110186500D01*
X220177067Y-110173824D01*
X220451333Y-110173824D01*
X220466269Y-110389822D01*
X220517873Y-110542336D01*
X220616344Y-110640024D01*
X220771876Y-110691544D01*
X220994667Y-110705556D01*
X221075377Y-110703767D01*
X221248470Y-110692878D01*
X221361417Y-110670940D01*
X221438613Y-110631554D01*
X221476148Y-110598666D01*
X221530853Y-110525470D01*
X221564110Y-110424967D01*
X221582953Y-110272467D01*
X221587049Y-110209326D01*
X221593563Y-110051433D01*
X221586220Y-109950735D01*
X221557838Y-109880020D01*
X221501240Y-109812081D01*
X221475285Y-109785772D01*
X221403588Y-109720122D01*
X221334852Y-109681717D01*
X221243548Y-109663309D01*
X221104147Y-109657651D01*
X221022833Y-109657333D01*
X220854384Y-109659832D01*
X220745232Y-109671997D01*
X220670050Y-109700828D01*
X220603509Y-109753323D01*
X220575076Y-109781076D01*
X220505932Y-109859622D01*
X220468637Y-109938937D01*
X220453658Y-110049279D01*
X220451333Y-110173824D01*
X220177067Y-110173824D01*
X220195987Y-109907832D01*
X220259999Y-109695703D01*
X220375025Y-109543633D01*
X220547889Y-109445138D01*
X220785412Y-109393737D01*
X221022833Y-109382166D01*
X221316136Y-109400979D01*
G37*
X221316136Y-109400979D02*
X221539363Y-109461730D01*
X221699314Y-109570889D01*
X221802792Y-109734927D01*
X221856599Y-109960312D01*
X221868458Y-110186500D01*
X221852576Y-110440431D01*
X221801117Y-110631374D01*
X221706791Y-110776141D01*
X221562930Y-110891162D01*
X221435291Y-110941404D01*
X221253808Y-110977910D01*
X221048603Y-110997796D01*
X220849800Y-110998177D01*
X220687522Y-110976170D01*
X220684166Y-110975301D01*
X220473051Y-110891180D01*
X220322286Y-110761418D01*
X220226807Y-110578150D01*
X220181547Y-110333511D01*
X220176166Y-110186500D01*
X220177067Y-110173824D01*
X220451333Y-110173824D01*
X220466269Y-110389822D01*
X220517873Y-110542336D01*
X220616344Y-110640024D01*
X220771876Y-110691544D01*
X220994667Y-110705556D01*
X221075377Y-110703767D01*
X221248470Y-110692878D01*
X221361417Y-110670940D01*
X221438613Y-110631554D01*
X221476148Y-110598666D01*
X221530853Y-110525470D01*
X221564110Y-110424967D01*
X221582953Y-110272467D01*
X221587049Y-110209326D01*
X221593563Y-110051433D01*
X221586220Y-109950735D01*
X221557838Y-109880020D01*
X221501240Y-109812081D01*
X221475285Y-109785772D01*
X221403588Y-109720122D01*
X221334852Y-109681717D01*
X221243548Y-109663309D01*
X221104147Y-109657651D01*
X221022833Y-109657333D01*
X220854384Y-109659832D01*
X220745232Y-109671997D01*
X220670050Y-109700828D01*
X220603509Y-109753323D01*
X220575076Y-109781076D01*
X220505932Y-109859622D01*
X220468637Y-109938937D01*
X220453658Y-110049279D01*
X220451333Y-110173824D01*
X220177067Y-110173824D01*
X220195987Y-109907832D01*
X220259999Y-109695703D01*
X220375025Y-109543633D01*
X220547889Y-109445138D01*
X220785412Y-109393737D01*
X221022833Y-109382166D01*
X221316136Y-109400979D01*
G36*
X224872143Y-109401043D02*
G01*
X225095430Y-109461785D01*
X225255510Y-109571028D01*
X225359199Y-109735248D01*
X225413316Y-109960918D01*
X225425500Y-110186500D01*
X225408373Y-110448490D01*
X225352912Y-110646342D01*
X225252999Y-110794214D01*
X225118329Y-110897255D01*
X224970558Y-110952786D01*
X224772051Y-110987499D01*
X224554608Y-110999462D01*
X224350025Y-110986745D01*
X224203644Y-110952779D01*
X223989145Y-110832049D01*
X223836398Y-110655246D01*
X223747297Y-110426177D01*
X223723737Y-110148649D01*
X223725402Y-110127879D01*
X224018551Y-110127879D01*
X224022874Y-110358752D01*
X224070220Y-110524512D01*
X224168796Y-110632834D01*
X224326808Y-110691394D01*
X224552463Y-110707866D01*
X224636321Y-110705674D01*
X224802550Y-110695411D01*
X224908981Y-110676791D01*
X224980479Y-110641922D01*
X225041912Y-110582912D01*
X225049071Y-110574669D01*
X225120749Y-110443032D01*
X225154090Y-110276282D01*
X225152037Y-110096385D01*
X225117534Y-109925309D01*
X225053524Y-109785021D01*
X224962952Y-109697490D01*
X224929778Y-109684458D01*
X224837618Y-109670856D01*
X224693899Y-109661241D01*
X224549443Y-109657911D01*
X224383621Y-109662742D01*
X224273480Y-109682810D01*
X224190423Y-109725237D01*
X224149646Y-109757463D01*
X224083268Y-109826143D01*
X224045220Y-109906670D01*
X224025544Y-110027174D01*
X224018551Y-110127879D01*
X223725402Y-110127879D01*
X223734784Y-110010876D01*
X223785433Y-109776686D01*
X223876513Y-109603392D01*
X224016726Y-109484511D01*
X224214776Y-109413564D01*
X224479365Y-109384069D01*
X224578833Y-109382327D01*
X224872143Y-109401043D01*
G37*
X224872143Y-109401043D02*
X225095430Y-109461785D01*
X225255510Y-109571028D01*
X225359199Y-109735248D01*
X225413316Y-109960918D01*
X225425500Y-110186500D01*
X225408373Y-110448490D01*
X225352912Y-110646342D01*
X225252999Y-110794214D01*
X225118329Y-110897255D01*
X224970558Y-110952786D01*
X224772051Y-110987499D01*
X224554608Y-110999462D01*
X224350025Y-110986745D01*
X224203644Y-110952779D01*
X223989145Y-110832049D01*
X223836398Y-110655246D01*
X223747297Y-110426177D01*
X223723737Y-110148649D01*
X223725402Y-110127879D01*
X224018551Y-110127879D01*
X224022874Y-110358752D01*
X224070220Y-110524512D01*
X224168796Y-110632834D01*
X224326808Y-110691394D01*
X224552463Y-110707866D01*
X224636321Y-110705674D01*
X224802550Y-110695411D01*
X224908981Y-110676791D01*
X224980479Y-110641922D01*
X225041912Y-110582912D01*
X225049071Y-110574669D01*
X225120749Y-110443032D01*
X225154090Y-110276282D01*
X225152037Y-110096385D01*
X225117534Y-109925309D01*
X225053524Y-109785021D01*
X224962952Y-109697490D01*
X224929778Y-109684458D01*
X224837618Y-109670856D01*
X224693899Y-109661241D01*
X224549443Y-109657911D01*
X224383621Y-109662742D01*
X224273480Y-109682810D01*
X224190423Y-109725237D01*
X224149646Y-109757463D01*
X224083268Y-109826143D01*
X224045220Y-109906670D01*
X224025544Y-110027174D01*
X224018551Y-110127879D01*
X223725402Y-110127879D01*
X223734784Y-110010876D01*
X223785433Y-109776686D01*
X223876513Y-109603392D01*
X224016726Y-109484511D01*
X224214776Y-109413564D01*
X224479365Y-109384069D01*
X224578833Y-109382327D01*
X224872143Y-109401043D01*
G36*
X212908098Y-109540916D02*
G01*
X212894833Y-109678500D01*
X212587916Y-109690937D01*
X212281000Y-109703375D01*
X212281000Y-110969666D01*
X211984666Y-110969666D01*
X211984666Y-109703375D01*
X211677750Y-109690937D01*
X211370833Y-109678500D01*
X211357567Y-109540916D01*
X211344302Y-109403333D01*
X212921364Y-109403333D01*
X212908098Y-109540916D01*
G37*
X212908098Y-109540916D02*
X212894833Y-109678500D01*
X212587916Y-109690937D01*
X212281000Y-109703375D01*
X212281000Y-110969666D01*
X211984666Y-110969666D01*
X211984666Y-109703375D01*
X211677750Y-109690937D01*
X211370833Y-109678500D01*
X211357567Y-109540916D01*
X211344302Y-109403333D01*
X212921364Y-109403333D01*
X212908098Y-109540916D01*
G36*
X214524666Y-109699666D02*
G01*
X213381666Y-109699666D01*
X213381666Y-110119537D01*
X213384158Y-110305879D01*
X213390859Y-110464691D01*
X213400606Y-110573949D01*
X213407362Y-110606370D01*
X213430318Y-110634460D01*
X213482760Y-110653625D01*
X213578126Y-110665440D01*
X213729855Y-110671480D01*
X213951383Y-110673319D01*
X213978862Y-110673333D01*
X214524666Y-110673333D01*
X214524666Y-110969666D01*
X213984916Y-110966983D01*
X213772512Y-110963322D01*
X213585205Y-110955284D01*
X213442361Y-110944027D01*
X213363345Y-110930709D01*
X213360500Y-110929646D01*
X213275438Y-110888936D01*
X213213896Y-110838263D01*
X213172445Y-110764530D01*
X213147658Y-110654638D01*
X213136105Y-110495486D01*
X213134360Y-110273977D01*
X213137115Y-110076079D01*
X213148833Y-109424500D01*
X213836750Y-109412868D01*
X214524666Y-109401236D01*
X214524666Y-109699666D01*
G37*
X214524666Y-109699666D02*
X213381666Y-109699666D01*
X213381666Y-110119537D01*
X213384158Y-110305879D01*
X213390859Y-110464691D01*
X213400606Y-110573949D01*
X213407362Y-110606370D01*
X213430318Y-110634460D01*
X213482760Y-110653625D01*
X213578126Y-110665440D01*
X213729855Y-110671480D01*
X213951383Y-110673319D01*
X213978862Y-110673333D01*
X214524666Y-110673333D01*
X214524666Y-110969666D01*
X213984916Y-110966983D01*
X213772512Y-110963322D01*
X213585205Y-110955284D01*
X213442361Y-110944027D01*
X213363345Y-110930709D01*
X213360500Y-110929646D01*
X213275438Y-110888936D01*
X213213896Y-110838263D01*
X213172445Y-110764530D01*
X213147658Y-110654638D01*
X213136105Y-110495486D01*
X213134360Y-110273977D01*
X213137115Y-110076079D01*
X213148833Y-109424500D01*
X213836750Y-109412868D01*
X214524666Y-109401236D01*
X214524666Y-109699666D01*
G36*
X216210098Y-109540916D02*
G01*
X216196833Y-109678500D01*
X215634541Y-109690321D01*
X215072250Y-109702143D01*
X215084208Y-110177154D01*
X215096166Y-110652166D01*
X216218000Y-110675790D01*
X216218000Y-110969666D01*
X215657083Y-110967971D01*
X215386381Y-110963603D01*
X215189825Y-110951751D01*
X215057145Y-110931468D01*
X214985594Y-110906181D01*
X214899650Y-110842851D01*
X214839765Y-110752776D01*
X214802634Y-110622655D01*
X214784949Y-110439190D01*
X214783404Y-110189081D01*
X214785523Y-110101477D01*
X214792500Y-109889645D01*
X214801463Y-109745068D01*
X214816294Y-109650355D01*
X214840876Y-109588118D01*
X214879093Y-109540966D01*
X214918610Y-109505408D01*
X214970174Y-109464855D01*
X215024810Y-109436751D01*
X215098376Y-109418822D01*
X215206733Y-109408794D01*
X215365737Y-109404392D01*
X215591249Y-109403342D01*
X215630376Y-109403333D01*
X216223364Y-109403333D01*
X216210098Y-109540916D01*
G37*
X216210098Y-109540916D02*
X216196833Y-109678500D01*
X215634541Y-109690321D01*
X215072250Y-109702143D01*
X215084208Y-110177154D01*
X215096166Y-110652166D01*
X216218000Y-110675790D01*
X216218000Y-110969666D01*
X215657083Y-110967971D01*
X215386381Y-110963603D01*
X215189825Y-110951751D01*
X215057145Y-110931468D01*
X214985594Y-110906181D01*
X214899650Y-110842851D01*
X214839765Y-110752776D01*
X214802634Y-110622655D01*
X214784949Y-110439190D01*
X214783404Y-110189081D01*
X214785523Y-110101477D01*
X214792500Y-109889645D01*
X214801463Y-109745068D01*
X214816294Y-109650355D01*
X214840876Y-109588118D01*
X214879093Y-109540966D01*
X214918610Y-109505408D01*
X214970174Y-109464855D01*
X215024810Y-109436751D01*
X215098376Y-109418822D01*
X215206733Y-109408794D01*
X215365737Y-109404392D01*
X215591249Y-109403342D01*
X215630376Y-109403333D01*
X216223364Y-109403333D01*
X216210098Y-109540916D01*
G36*
X216768333Y-110969666D02*
G01*
X216470090Y-110969666D01*
X216493166Y-109424500D01*
X216630750Y-109411234D01*
X216768333Y-109397968D01*
X216768333Y-110969666D01*
G37*
X216768333Y-110969666D02*
X216470090Y-110969666D01*
X216493166Y-109424500D01*
X216630750Y-109411234D01*
X216768333Y-109397968D01*
X216768333Y-110969666D01*
G36*
X217709789Y-109794805D02*
G01*
X217318316Y-110186277D01*
X217731241Y-110575883D01*
X218144166Y-110965490D01*
X217931440Y-110967578D01*
X217834562Y-110966225D01*
X217759293Y-110952815D01*
X217687756Y-110916671D01*
X217602072Y-110847115D01*
X217484361Y-110733467D01*
X217403333Y-110652166D01*
X217221321Y-110479423D01*
X217084807Y-110373209D01*
X216995430Y-110334788D01*
X216991642Y-110334666D01*
X216926120Y-110321636D01*
X216899387Y-110266427D01*
X216895333Y-110186500D01*
X216903802Y-110085698D01*
X216939689Y-110044570D01*
X216991642Y-110038333D01*
X217078169Y-110003977D01*
X217211931Y-109901751D01*
X217391287Y-109732922D01*
X217403333Y-109720833D01*
X217546551Y-109578774D01*
X217648506Y-109486902D01*
X217726570Y-109434330D01*
X217798118Y-109410169D01*
X217880522Y-109403534D01*
X217909987Y-109403333D01*
X218101261Y-109403333D01*
X217709789Y-109794805D01*
G37*
X217709789Y-109794805D02*
X217318316Y-110186277D01*
X217731241Y-110575883D01*
X218144166Y-110965490D01*
X217931440Y-110967578D01*
X217834562Y-110966225D01*
X217759293Y-110952815D01*
X217687756Y-110916671D01*
X217602072Y-110847115D01*
X217484361Y-110733467D01*
X217403333Y-110652166D01*
X217221321Y-110479423D01*
X217084807Y-110373209D01*
X216995430Y-110334788D01*
X216991642Y-110334666D01*
X216926120Y-110321636D01*
X216899387Y-110266427D01*
X216895333Y-110186500D01*
X216903802Y-110085698D01*
X216939689Y-110044570D01*
X216991642Y-110038333D01*
X217078169Y-110003977D01*
X217211931Y-109901751D01*
X217391287Y-109732922D01*
X217403333Y-109720833D01*
X217546551Y-109578774D01*
X217648506Y-109486902D01*
X217726570Y-109434330D01*
X217798118Y-109410169D01*
X217880522Y-109403534D01*
X217909987Y-109403333D01*
X218101261Y-109403333D01*
X217709789Y-109794805D01*
G36*
X222441000Y-110673333D02*
G01*
X223584000Y-110673333D01*
X223584000Y-110969666D01*
X222915133Y-110969666D01*
X222621720Y-110966903D01*
X222407976Y-110958386D01*
X222269074Y-110943775D01*
X222200189Y-110922729D01*
X222195466Y-110918866D01*
X222174491Y-110863806D01*
X222159347Y-110743005D01*
X222149679Y-110551012D01*
X222145134Y-110282374D01*
X222144666Y-110135700D01*
X222144666Y-109403333D01*
X222441000Y-109403333D01*
X222441000Y-110673333D01*
G37*
X222441000Y-110673333D02*
X223584000Y-110673333D01*
X223584000Y-110969666D01*
X222915133Y-110969666D01*
X222621720Y-110966903D01*
X222407976Y-110958386D01*
X222269074Y-110943775D01*
X222200189Y-110922729D01*
X222195466Y-110918866D01*
X222174491Y-110863806D01*
X222159347Y-110743005D01*
X222149679Y-110551012D01*
X222145134Y-110282374D01*
X222144666Y-110135700D01*
X222144666Y-109403333D01*
X222441000Y-109403333D01*
X222441000Y-110673333D01*
G36*
X227259098Y-109540916D02*
G01*
X227245833Y-109678500D01*
X226621416Y-109690215D01*
X225997000Y-109701930D01*
X225997000Y-110673333D01*
X226970666Y-110673333D01*
X226970666Y-110337962D01*
X226600250Y-110325731D01*
X226229833Y-110313500D01*
X226216567Y-110175916D01*
X226203302Y-110038333D01*
X226668188Y-110038333D01*
X226863824Y-110040585D01*
X227032080Y-110046678D01*
X227152413Y-110055620D01*
X227200037Y-110064029D01*
X227232734Y-110092067D01*
X227253108Y-110156127D01*
X227263681Y-110271830D01*
X227266974Y-110454796D01*
X227267000Y-110478895D01*
X227261115Y-110693012D01*
X227244201Y-110842457D01*
X227217364Y-110917638D01*
X227216200Y-110918866D01*
X227149443Y-110942892D01*
X227017583Y-110959522D01*
X226839841Y-110968978D01*
X226635437Y-110971481D01*
X226423591Y-110967255D01*
X226223524Y-110956521D01*
X226054456Y-110939502D01*
X225935607Y-110916420D01*
X225902814Y-110903677D01*
X225822791Y-110851118D01*
X225766859Y-110784827D01*
X225730859Y-110689736D01*
X225710631Y-110550778D01*
X225702015Y-110352883D01*
X225700666Y-110171364D01*
X225701650Y-109954858D01*
X225706666Y-109804991D01*
X225718812Y-109703741D01*
X225741183Y-109633084D01*
X225776878Y-109575000D01*
X225810263Y-109533581D01*
X225919859Y-109403333D01*
X227272364Y-109403333D01*
X227259098Y-109540916D01*
G37*
X227259098Y-109540916D02*
X227245833Y-109678500D01*
X226621416Y-109690215D01*
X225997000Y-109701930D01*
X225997000Y-110673333D01*
X226970666Y-110673333D01*
X226970666Y-110337962D01*
X226600250Y-110325731D01*
X226229833Y-110313500D01*
X226216567Y-110175916D01*
X226203302Y-110038333D01*
X226668188Y-110038333D01*
X226863824Y-110040585D01*
X227032080Y-110046678D01*
X227152413Y-110055620D01*
X227200037Y-110064029D01*
X227232734Y-110092067D01*
X227253108Y-110156127D01*
X227263681Y-110271830D01*
X227266974Y-110454796D01*
X227267000Y-110478895D01*
X227261115Y-110693012D01*
X227244201Y-110842457D01*
X227217364Y-110917638D01*
X227216200Y-110918866D01*
X227149443Y-110942892D01*
X227017583Y-110959522D01*
X226839841Y-110968978D01*
X226635437Y-110971481D01*
X226423591Y-110967255D01*
X226223524Y-110956521D01*
X226054456Y-110939502D01*
X225935607Y-110916420D01*
X225902814Y-110903677D01*
X225822791Y-110851118D01*
X225766859Y-110784827D01*
X225730859Y-110689736D01*
X225710631Y-110550778D01*
X225702015Y-110352883D01*
X225700666Y-110171364D01*
X225701650Y-109954858D01*
X225706666Y-109804991D01*
X225718812Y-109703741D01*
X225741183Y-109633084D01*
X225776878Y-109575000D01*
X225810263Y-109533581D01*
X225919859Y-109403333D01*
X227272364Y-109403333D01*
X227259098Y-109540916D01*
G36*
X229087333Y-109697403D02*
G01*
X228462916Y-109709118D01*
X227838500Y-109720833D01*
X227826050Y-110101833D01*
X227818534Y-110331515D01*
X227821668Y-110489787D01*
X227847534Y-110589893D01*
X227908210Y-110645077D01*
X228015778Y-110668584D01*
X228182317Y-110673658D01*
X228347306Y-110673333D01*
X228833333Y-110673333D01*
X228833333Y-110334666D01*
X228071333Y-110334666D01*
X228071333Y-110038333D01*
X228549700Y-110038333D01*
X228803392Y-110043265D01*
X228977267Y-110057938D01*
X229069383Y-110082164D01*
X229078866Y-110089133D01*
X229106231Y-110161019D01*
X229123669Y-110304785D01*
X229129666Y-110504000D01*
X229123454Y-110706327D01*
X229105827Y-110848923D01*
X229078866Y-110918866D01*
X229016333Y-110939607D01*
X228888234Y-110954951D01*
X228713494Y-110964905D01*
X228511042Y-110969472D01*
X228299805Y-110968657D01*
X228098709Y-110962465D01*
X227926683Y-110950901D01*
X227802653Y-110933969D01*
X227753833Y-110918535D01*
X227680948Y-110869961D01*
X227629649Y-110811741D01*
X227596157Y-110728991D01*
X227576690Y-110606826D01*
X227567467Y-110430363D01*
X227564707Y-110184717D01*
X227564679Y-110173895D01*
X227564701Y-109945814D01*
X227567812Y-109786463D01*
X227576655Y-109679910D01*
X227593877Y-109610218D01*
X227622122Y-109561454D01*
X227664034Y-109517684D01*
X227675348Y-109507145D01*
X227721434Y-109467578D01*
X227770173Y-109439600D01*
X227836287Y-109421205D01*
X227934495Y-109410388D01*
X228079518Y-109405142D01*
X228286078Y-109403463D01*
X228437348Y-109403333D01*
X229087333Y-109403333D01*
X229087333Y-109697403D01*
G37*
X229087333Y-109697403D02*
X228462916Y-109709118D01*
X227838500Y-109720833D01*
X227826050Y-110101833D01*
X227818534Y-110331515D01*
X227821668Y-110489787D01*
X227847534Y-110589893D01*
X227908210Y-110645077D01*
X228015778Y-110668584D01*
X228182317Y-110673658D01*
X228347306Y-110673333D01*
X228833333Y-110673333D01*
X228833333Y-110334666D01*
X228071333Y-110334666D01*
X228071333Y-110038333D01*
X228549700Y-110038333D01*
X228803392Y-110043265D01*
X228977267Y-110057938D01*
X229069383Y-110082164D01*
X229078866Y-110089133D01*
X229106231Y-110161019D01*
X229123669Y-110304785D01*
X229129666Y-110504000D01*
X229123454Y-110706327D01*
X229105827Y-110848923D01*
X229078866Y-110918866D01*
X229016333Y-110939607D01*
X228888234Y-110954951D01*
X228713494Y-110964905D01*
X228511042Y-110969472D01*
X228299805Y-110968657D01*
X228098709Y-110962465D01*
X227926683Y-110950901D01*
X227802653Y-110933969D01*
X227753833Y-110918535D01*
X227680948Y-110869961D01*
X227629649Y-110811741D01*
X227596157Y-110728991D01*
X227576690Y-110606826D01*
X227567467Y-110430363D01*
X227564707Y-110184717D01*
X227564679Y-110173895D01*
X227564701Y-109945814D01*
X227567812Y-109786463D01*
X227576655Y-109679910D01*
X227593877Y-109610218D01*
X227622122Y-109561454D01*
X227664034Y-109517684D01*
X227675348Y-109507145D01*
X227721434Y-109467578D01*
X227770173Y-109439600D01*
X227836287Y-109421205D01*
X227934495Y-109410388D01*
X228079518Y-109405142D01*
X228286078Y-109403463D01*
X228437348Y-109403333D01*
X229087333Y-109403333D01*
X229087333Y-109697403D01*
G36*
X214397666Y-110334666D02*
G01*
X213508666Y-110334666D01*
X213508666Y-110038333D01*
X214397666Y-110038333D01*
X214397666Y-110334666D01*
G37*
X214397666Y-110334666D02*
X213508666Y-110334666D01*
X213508666Y-110038333D01*
X214397666Y-110038333D01*
X214397666Y-110334666D01*
G36*
X207601014Y-109832752D02*
G01*
X207746035Y-109917636D01*
X207819517Y-109979452D01*
X207828549Y-110026540D01*
X207793666Y-110059500D01*
X207752581Y-110111601D01*
X207780381Y-110178859D01*
X207880671Y-110265516D01*
X208057055Y-110375813D01*
X208067606Y-110381836D01*
X208224253Y-110475151D01*
X208314099Y-110540794D01*
X208346900Y-110587248D01*
X208338036Y-110617018D01*
X208309413Y-110670406D01*
X208322027Y-110724672D01*
X208384564Y-110788497D01*
X208505710Y-110870563D01*
X208694151Y-110979552D01*
X208709033Y-110987828D01*
X208922635Y-111106303D01*
X209070153Y-111190670D01*
X209158800Y-111249198D01*
X209195791Y-111290157D01*
X209188339Y-111321816D01*
X209143659Y-111352443D01*
X209068965Y-111390307D01*
X209062873Y-111393404D01*
X208894919Y-111453356D01*
X208685418Y-111492134D01*
X208466089Y-111507199D01*
X208268652Y-111496010D01*
X208148266Y-111466642D01*
X207857238Y-111312304D01*
X207616186Y-111106414D01*
X207431025Y-110860778D01*
X207307670Y-110587200D01*
X207252036Y-110297488D01*
X207270039Y-110003446D01*
X207322727Y-109818989D01*
X207366028Y-109705478D01*
X207601014Y-109832752D01*
G37*
X207601014Y-109832752D02*
X207746035Y-109917636D01*
X207819517Y-109979452D01*
X207828549Y-110026540D01*
X207793666Y-110059500D01*
X207752581Y-110111601D01*
X207780381Y-110178859D01*
X207880671Y-110265516D01*
X208057055Y-110375813D01*
X208067606Y-110381836D01*
X208224253Y-110475151D01*
X208314099Y-110540794D01*
X208346900Y-110587248D01*
X208338036Y-110617018D01*
X208309413Y-110670406D01*
X208322027Y-110724672D01*
X208384564Y-110788497D01*
X208505710Y-110870563D01*
X208694151Y-110979552D01*
X208709033Y-110987828D01*
X208922635Y-111106303D01*
X209070153Y-111190670D01*
X209158800Y-111249198D01*
X209195791Y-111290157D01*
X209188339Y-111321816D01*
X209143659Y-111352443D01*
X209068965Y-111390307D01*
X209062873Y-111393404D01*
X208894919Y-111453356D01*
X208685418Y-111492134D01*
X208466089Y-111507199D01*
X208268652Y-111496010D01*
X208148266Y-111466642D01*
X207857238Y-111312304D01*
X207616186Y-111106414D01*
X207431025Y-110860778D01*
X207307670Y-110587200D01*
X207252036Y-110297488D01*
X207270039Y-110003446D01*
X207322727Y-109818989D01*
X207366028Y-109705478D01*
X207601014Y-109832752D01*
G36*
X208209538Y-109259753D02*
G01*
X208248026Y-109315188D01*
X208318084Y-109415495D01*
X208383327Y-109508674D01*
X208462126Y-109634553D01*
X208489727Y-109712055D01*
X208478577Y-109732418D01*
X208429480Y-109781725D01*
X208450509Y-109869704D01*
X208539218Y-109991416D01*
X208672083Y-110123187D01*
X208791290Y-110238436D01*
X208858000Y-110320914D01*
X208865141Y-110361716D01*
X208862583Y-110363055D01*
X208814327Y-110414206D01*
X208832312Y-110505774D01*
X208917676Y-110641369D01*
X208971807Y-110709791D01*
X209093008Y-110861052D01*
X209166083Y-110962412D01*
X209187183Y-111008379D01*
X209182581Y-111010524D01*
X209142182Y-110990443D01*
X209047767Y-110938849D01*
X208918752Y-110866378D01*
X208901967Y-110856840D01*
X208756273Y-110767201D01*
X208683217Y-110704144D01*
X208676955Y-110662478D01*
X208679717Y-110659349D01*
X208717928Y-110601264D01*
X208705599Y-110542529D01*
X208634879Y-110473827D01*
X208497916Y-110385843D01*
X208404914Y-110333239D01*
X208251848Y-110247147D01*
X208162251Y-110189402D01*
X208124867Y-110148545D01*
X208128437Y-110113118D01*
X208155061Y-110078941D01*
X208198670Y-110003591D01*
X208197223Y-109955915D01*
X208149121Y-109915759D01*
X208045535Y-109848469D01*
X207905872Y-109766397D01*
X207854409Y-109737754D01*
X207711702Y-109656283D01*
X207603129Y-109588296D01*
X207545863Y-109544793D01*
X207541118Y-109537090D01*
X207578072Y-109501777D01*
X207671627Y-109449700D01*
X207799546Y-109390087D01*
X207939591Y-109332163D01*
X208069524Y-109285157D01*
X208167107Y-109258293D01*
X208209538Y-109259753D01*
G37*
X208209538Y-109259753D02*
X208248026Y-109315188D01*
X208318084Y-109415495D01*
X208383327Y-109508674D01*
X208462126Y-109634553D01*
X208489727Y-109712055D01*
X208478577Y-109732418D01*
X208429480Y-109781725D01*
X208450509Y-109869704D01*
X208539218Y-109991416D01*
X208672083Y-110123187D01*
X208791290Y-110238436D01*
X208858000Y-110320914D01*
X208865141Y-110361716D01*
X208862583Y-110363055D01*
X208814327Y-110414206D01*
X208832312Y-110505774D01*
X208917676Y-110641369D01*
X208971807Y-110709791D01*
X209093008Y-110861052D01*
X209166083Y-110962412D01*
X209187183Y-111008379D01*
X209182581Y-111010524D01*
X209142182Y-110990443D01*
X209047767Y-110938849D01*
X208918752Y-110866378D01*
X208901967Y-110856840D01*
X208756273Y-110767201D01*
X208683217Y-110704144D01*
X208676955Y-110662478D01*
X208679717Y-110659349D01*
X208717928Y-110601264D01*
X208705599Y-110542529D01*
X208634879Y-110473827D01*
X208497916Y-110385843D01*
X208404914Y-110333239D01*
X208251848Y-110247147D01*
X208162251Y-110189402D01*
X208124867Y-110148545D01*
X208128437Y-110113118D01*
X208155061Y-110078941D01*
X208198670Y-110003591D01*
X208197223Y-109955915D01*
X208149121Y-109915759D01*
X208045535Y-109848469D01*
X207905872Y-109766397D01*
X207854409Y-109737754D01*
X207711702Y-109656283D01*
X207603129Y-109588296D01*
X207545863Y-109544793D01*
X207541118Y-109537090D01*
X207578072Y-109501777D01*
X207671627Y-109449700D01*
X207799546Y-109390087D01*
X207939591Y-109332163D01*
X208069524Y-109285157D01*
X208167107Y-109258293D01*
X208209538Y-109259753D01*
G36*
X208539445Y-108992695D02*
G01*
X208851219Y-109063437D01*
X209127870Y-109200861D01*
X209361707Y-109393943D01*
X209545040Y-109631658D01*
X209670178Y-109902984D01*
X209729432Y-110196896D01*
X209715111Y-110502370D01*
X209684522Y-110634174D01*
X209636734Y-110777363D01*
X209586363Y-110896393D01*
X209559340Y-110943625D01*
X209525737Y-110979876D01*
X209489635Y-110980858D01*
X209436547Y-110937363D01*
X209351985Y-110840184D01*
X209303476Y-110780995D01*
X209185597Y-110630022D01*
X209122692Y-110531843D01*
X209110852Y-110478413D01*
X209146169Y-110461686D01*
X209148333Y-110461666D01*
X209194644Y-110435836D01*
X209183424Y-110366330D01*
X209120953Y-110265123D01*
X209013506Y-110144189D01*
X208951260Y-110085726D01*
X208829702Y-109973198D01*
X208764782Y-109898858D01*
X208746850Y-109848220D01*
X208765812Y-109807332D01*
X208783350Y-109767754D01*
X208772268Y-109711283D01*
X208725902Y-109624222D01*
X208637587Y-109492872D01*
X208560718Y-109385766D01*
X208453341Y-109235213D01*
X208367682Y-109109853D01*
X208314262Y-109025405D01*
X208301666Y-108998684D01*
X208339702Y-108986098D01*
X208438072Y-108985164D01*
X208539445Y-108992695D01*
G37*
X208539445Y-108992695D02*
X208851219Y-109063437D01*
X209127870Y-109200861D01*
X209361707Y-109393943D01*
X209545040Y-109631658D01*
X209670178Y-109902984D01*
X209729432Y-110196896D01*
X209715111Y-110502370D01*
X209684522Y-110634174D01*
X209636734Y-110777363D01*
X209586363Y-110896393D01*
X209559340Y-110943625D01*
X209525737Y-110979876D01*
X209489635Y-110980858D01*
X209436547Y-110937363D01*
X209351985Y-110840184D01*
X209303476Y-110780995D01*
X209185597Y-110630022D01*
X209122692Y-110531843D01*
X209110852Y-110478413D01*
X209146169Y-110461686D01*
X209148333Y-110461666D01*
X209194644Y-110435836D01*
X209183424Y-110366330D01*
X209120953Y-110265123D01*
X209013506Y-110144189D01*
X208951260Y-110085726D01*
X208829702Y-109973198D01*
X208764782Y-109898858D01*
X208746850Y-109848220D01*
X208765812Y-109807332D01*
X208783350Y-109767754D01*
X208772268Y-109711283D01*
X208725902Y-109624222D01*
X208637587Y-109492872D01*
X208560718Y-109385766D01*
X208453341Y-109235213D01*
X208367682Y-109109853D01*
X208314262Y-109025405D01*
X208301666Y-108998684D01*
X208339702Y-108986098D01*
X208438072Y-108985164D01*
X208539445Y-108992695D01*
D12*
G04 #@! TO.C,+*
X238250000Y-122000000D02*
G75*
G03*
X238250000Y-122000000I-2250000J0D01*
G01*
G04 #@! TO.C,GND*
X216250000Y-122000000D02*
G75*
G03*
X216250000Y-122000000I-2250000J0D01*
G01*
G04 #@! TO.C,D5*
X233410000Y-104484000D02*
X237295000Y-104484000D01*
X233410000Y-101314000D02*
X233410000Y-104484000D01*
X237295000Y-101314000D02*
X233410000Y-101314000D01*
G04 #@! TO.C,D4*
X227910000Y-104484000D02*
X231795000Y-104484000D01*
X227910000Y-101314000D02*
X227910000Y-104484000D01*
X231795000Y-101314000D02*
X227910000Y-101314000D01*
G04 #@! TO.C,D3*
X222410000Y-104484000D02*
X226295000Y-104484000D01*
X222410000Y-101314000D02*
X222410000Y-104484000D01*
X226295000Y-101314000D02*
X222410000Y-101314000D01*
G04 #@! TO.C,D2*
X216910000Y-104484000D02*
X220795000Y-104484000D01*
X216910000Y-101314000D02*
X216910000Y-104484000D01*
X220795000Y-101314000D02*
X216910000Y-101314000D01*
G04 #@! TO.C,D1*
X211410000Y-104484000D02*
X215295000Y-104484000D01*
X211410000Y-101314000D02*
X211410000Y-104484000D01*
X215295000Y-101314000D02*
X211410000Y-101314000D01*
G04 #@! TO.C,D10*
X233410000Y-98984000D02*
X237295000Y-98984000D01*
X233410000Y-95814000D02*
X233410000Y-98984000D01*
X237295000Y-95814000D02*
X233410000Y-95814000D01*
G04 #@! TO.C,D9*
X227910000Y-98984000D02*
X231795000Y-98984000D01*
X227910000Y-95814000D02*
X227910000Y-98984000D01*
X231795000Y-95814000D02*
X227910000Y-95814000D01*
G04 #@! TO.C,D8*
X222410000Y-98984000D02*
X226295000Y-98984000D01*
X222410000Y-95814000D02*
X222410000Y-98984000D01*
X226295000Y-95814000D02*
X222410000Y-95814000D01*
G04 #@! TO.C,D7*
X216910000Y-98984000D02*
X220795000Y-98984000D01*
X216910000Y-95814000D02*
X216910000Y-98984000D01*
X220795000Y-95814000D02*
X216910000Y-95814000D01*
G04 #@! TO.C,D6*
X211410000Y-98984000D02*
X215295000Y-98984000D01*
X211410000Y-95814000D02*
X211410000Y-98984000D01*
X215295000Y-95814000D02*
X211410000Y-95814000D01*
G04 #@! TO.C,D15*
X233410000Y-93484000D02*
X237295000Y-93484000D01*
X233410000Y-90314000D02*
X233410000Y-93484000D01*
X237295000Y-90314000D02*
X233410000Y-90314000D01*
G04 #@! TO.C,D14*
X227910000Y-93484000D02*
X231795000Y-93484000D01*
X227910000Y-90314000D02*
X227910000Y-93484000D01*
X231795000Y-90314000D02*
X227910000Y-90314000D01*
G04 #@! TO.C,D13*
X222410000Y-93484000D02*
X226295000Y-93484000D01*
X222410000Y-90314000D02*
X222410000Y-93484000D01*
X226295000Y-90314000D02*
X222410000Y-90314000D01*
G04 #@! TO.C,D12*
X216910000Y-93484000D02*
X220795000Y-93484000D01*
X216910000Y-90314000D02*
X216910000Y-93484000D01*
X220795000Y-90314000D02*
X216910000Y-90314000D01*
G04 #@! TO.C,D11*
X211410000Y-93484000D02*
X215295000Y-93484000D01*
X211410000Y-90314000D02*
X211410000Y-93484000D01*
X215295000Y-90314000D02*
X211410000Y-90314000D01*
G04 #@! TO.C,D20*
X233410000Y-87984000D02*
X237295000Y-87984000D01*
X233410000Y-84814000D02*
X233410000Y-87984000D01*
X237295000Y-84814000D02*
X233410000Y-84814000D01*
G04 #@! TO.C,D19*
X227910000Y-87984000D02*
X231795000Y-87984000D01*
X227910000Y-84814000D02*
X227910000Y-87984000D01*
X231795000Y-84814000D02*
X227910000Y-84814000D01*
G04 #@! TO.C,D18*
X222410000Y-87984000D02*
X226295000Y-87984000D01*
X222410000Y-84814000D02*
X222410000Y-87984000D01*
X226295000Y-84814000D02*
X222410000Y-84814000D01*
G04 #@! TO.C,D17*
X216910000Y-87984000D02*
X220795000Y-87984000D01*
X216910000Y-84814000D02*
X216910000Y-87984000D01*
X220795000Y-84814000D02*
X216910000Y-84814000D01*
G04 #@! TO.C,D16*
X211410000Y-87984000D02*
X215295000Y-87984000D01*
X211410000Y-84814000D02*
X211410000Y-87984000D01*
X215295000Y-84814000D02*
X211410000Y-84814000D01*
G04 #@! TO.C,D25*
X233410000Y-82484000D02*
X237295000Y-82484000D01*
X233410000Y-79314000D02*
X233410000Y-82484000D01*
X237295000Y-79314000D02*
X233410000Y-79314000D01*
G04 #@! TO.C,D24*
X227910000Y-82484000D02*
X231795000Y-82484000D01*
X227910000Y-79314000D02*
X227910000Y-82484000D01*
X231795000Y-79314000D02*
X227910000Y-79314000D01*
G04 #@! TO.C,D23*
X222410000Y-82484000D02*
X226295000Y-82484000D01*
X222410000Y-79314000D02*
X222410000Y-82484000D01*
X226295000Y-79314000D02*
X222410000Y-79314000D01*
G04 #@! TO.C,D22*
X216910000Y-82484000D02*
X220795000Y-82484000D01*
X216910000Y-79314000D02*
X216910000Y-82484000D01*
X220795000Y-79314000D02*
X216910000Y-79314000D01*
G04 #@! TO.C,D21*
X215295000Y-79314000D02*
X211410000Y-79314000D01*
X211410000Y-79314000D02*
X211410000Y-82484000D01*
X211410000Y-82484000D02*
X215295000Y-82484000D01*
G04 #@! TO.C,+*
D10*
X235619047Y-119173428D02*
X236380952Y-119173428D01*
X236000000Y-119554380D02*
X236000000Y-118792476D01*
G04 #@! TO.C,GND*
X213238095Y-118602000D02*
X213142857Y-118554380D01*
X213000000Y-118554380D01*
X212857142Y-118602000D01*
X212761904Y-118697238D01*
X212714285Y-118792476D01*
X212666666Y-118982952D01*
X212666666Y-119125809D01*
X212714285Y-119316285D01*
X212761904Y-119411523D01*
X212857142Y-119506761D01*
X213000000Y-119554380D01*
X213095238Y-119554380D01*
X213238095Y-119506761D01*
X213285714Y-119459142D01*
X213285714Y-119125809D01*
X213095238Y-119125809D01*
X213714285Y-119554380D02*
X213714285Y-118554380D01*
X214285714Y-119554380D01*
X214285714Y-118554380D01*
X214761904Y-119554380D02*
X214761904Y-118554380D01*
X215000000Y-118554380D01*
X215142857Y-118602000D01*
X215238095Y-118697238D01*
X215285714Y-118792476D01*
X215333333Y-118982952D01*
X215333333Y-119125809D01*
X215285714Y-119316285D01*
X215238095Y-119411523D01*
X215142857Y-119506761D01*
X215000000Y-119554380D01*
X214761904Y-119554380D01*
G04 #@! TD*
M02*
