G04 #@! TF.GenerationSoftware,KiCad,Pcbnew,5.1.6-c6e7f7d~87~ubuntu19.10.1*
G04 #@! TF.CreationDate,2020-10-15T12:23:37+04:00*
G04 #@! TF.ProjectId,ledy,6c656479-2e6b-4696-9361-645f70636258,rev?*
G04 #@! TF.SameCoordinates,Original*
G04 #@! TF.FileFunction,Paste,Top*
G04 #@! TF.FilePolarity,Positive*
%FSLAX46Y46*%
G04 Gerber Fmt 4.6, Leading zero omitted, Abs format (unit mm)*
G04 Created by KiCad (PCBNEW 5.1.6-c6e7f7d~87~ubuntu19.10.1) date 2020-10-15 12:23:37*
%MOMM*%
%LPD*%
G01*
G04 APERTURE LIST*
G04 APERTURE END LIST*
G04 #@! TO.C,D5*
G36*
G01*
X233670000Y-103974000D02*
X233670000Y-101824000D01*
G75*
G02*
X233920000Y-101574000I250000J0D01*
G01*
X234670000Y-101574000D01*
G75*
G02*
X234920000Y-101824000I0J-250000D01*
G01*
X234920000Y-103974000D01*
G75*
G02*
X234670000Y-104224000I-250000J0D01*
G01*
X233920000Y-104224000D01*
G75*
G02*
X233670000Y-103974000I0J250000D01*
G01*
G37*
G36*
G01*
X236470000Y-103974000D02*
X236470000Y-101824000D01*
G75*
G02*
X236720000Y-101574000I250000J0D01*
G01*
X237470000Y-101574000D01*
G75*
G02*
X237720000Y-101824000I0J-250000D01*
G01*
X237720000Y-103974000D01*
G75*
G02*
X237470000Y-104224000I-250000J0D01*
G01*
X236720000Y-104224000D01*
G75*
G02*
X236470000Y-103974000I0J250000D01*
G01*
G37*
G04 #@! TD*
G04 #@! TO.C,D4*
G36*
G01*
X228170000Y-103974000D02*
X228170000Y-101824000D01*
G75*
G02*
X228420000Y-101574000I250000J0D01*
G01*
X229170000Y-101574000D01*
G75*
G02*
X229420000Y-101824000I0J-250000D01*
G01*
X229420000Y-103974000D01*
G75*
G02*
X229170000Y-104224000I-250000J0D01*
G01*
X228420000Y-104224000D01*
G75*
G02*
X228170000Y-103974000I0J250000D01*
G01*
G37*
G36*
G01*
X230970000Y-103974000D02*
X230970000Y-101824000D01*
G75*
G02*
X231220000Y-101574000I250000J0D01*
G01*
X231970000Y-101574000D01*
G75*
G02*
X232220000Y-101824000I0J-250000D01*
G01*
X232220000Y-103974000D01*
G75*
G02*
X231970000Y-104224000I-250000J0D01*
G01*
X231220000Y-104224000D01*
G75*
G02*
X230970000Y-103974000I0J250000D01*
G01*
G37*
G04 #@! TD*
G04 #@! TO.C,D3*
G36*
G01*
X222670000Y-103974000D02*
X222670000Y-101824000D01*
G75*
G02*
X222920000Y-101574000I250000J0D01*
G01*
X223670000Y-101574000D01*
G75*
G02*
X223920000Y-101824000I0J-250000D01*
G01*
X223920000Y-103974000D01*
G75*
G02*
X223670000Y-104224000I-250000J0D01*
G01*
X222920000Y-104224000D01*
G75*
G02*
X222670000Y-103974000I0J250000D01*
G01*
G37*
G36*
G01*
X225470000Y-103974000D02*
X225470000Y-101824000D01*
G75*
G02*
X225720000Y-101574000I250000J0D01*
G01*
X226470000Y-101574000D01*
G75*
G02*
X226720000Y-101824000I0J-250000D01*
G01*
X226720000Y-103974000D01*
G75*
G02*
X226470000Y-104224000I-250000J0D01*
G01*
X225720000Y-104224000D01*
G75*
G02*
X225470000Y-103974000I0J250000D01*
G01*
G37*
G04 #@! TD*
G04 #@! TO.C,D2*
G36*
G01*
X217170000Y-103974000D02*
X217170000Y-101824000D01*
G75*
G02*
X217420000Y-101574000I250000J0D01*
G01*
X218170000Y-101574000D01*
G75*
G02*
X218420000Y-101824000I0J-250000D01*
G01*
X218420000Y-103974000D01*
G75*
G02*
X218170000Y-104224000I-250000J0D01*
G01*
X217420000Y-104224000D01*
G75*
G02*
X217170000Y-103974000I0J250000D01*
G01*
G37*
G36*
G01*
X219970000Y-103974000D02*
X219970000Y-101824000D01*
G75*
G02*
X220220000Y-101574000I250000J0D01*
G01*
X220970000Y-101574000D01*
G75*
G02*
X221220000Y-101824000I0J-250000D01*
G01*
X221220000Y-103974000D01*
G75*
G02*
X220970000Y-104224000I-250000J0D01*
G01*
X220220000Y-104224000D01*
G75*
G02*
X219970000Y-103974000I0J250000D01*
G01*
G37*
G04 #@! TD*
G04 #@! TO.C,D1*
G36*
G01*
X211670000Y-103974000D02*
X211670000Y-101824000D01*
G75*
G02*
X211920000Y-101574000I250000J0D01*
G01*
X212670000Y-101574000D01*
G75*
G02*
X212920000Y-101824000I0J-250000D01*
G01*
X212920000Y-103974000D01*
G75*
G02*
X212670000Y-104224000I-250000J0D01*
G01*
X211920000Y-104224000D01*
G75*
G02*
X211670000Y-103974000I0J250000D01*
G01*
G37*
G36*
G01*
X214470000Y-103974000D02*
X214470000Y-101824000D01*
G75*
G02*
X214720000Y-101574000I250000J0D01*
G01*
X215470000Y-101574000D01*
G75*
G02*
X215720000Y-101824000I0J-250000D01*
G01*
X215720000Y-103974000D01*
G75*
G02*
X215470000Y-104224000I-250000J0D01*
G01*
X214720000Y-104224000D01*
G75*
G02*
X214470000Y-103974000I0J250000D01*
G01*
G37*
G04 #@! TD*
G04 #@! TO.C,D10*
G36*
G01*
X233670000Y-98474000D02*
X233670000Y-96324000D01*
G75*
G02*
X233920000Y-96074000I250000J0D01*
G01*
X234670000Y-96074000D01*
G75*
G02*
X234920000Y-96324000I0J-250000D01*
G01*
X234920000Y-98474000D01*
G75*
G02*
X234670000Y-98724000I-250000J0D01*
G01*
X233920000Y-98724000D01*
G75*
G02*
X233670000Y-98474000I0J250000D01*
G01*
G37*
G36*
G01*
X236470000Y-98474000D02*
X236470000Y-96324000D01*
G75*
G02*
X236720000Y-96074000I250000J0D01*
G01*
X237470000Y-96074000D01*
G75*
G02*
X237720000Y-96324000I0J-250000D01*
G01*
X237720000Y-98474000D01*
G75*
G02*
X237470000Y-98724000I-250000J0D01*
G01*
X236720000Y-98724000D01*
G75*
G02*
X236470000Y-98474000I0J250000D01*
G01*
G37*
G04 #@! TD*
G04 #@! TO.C,D9*
G36*
G01*
X228170000Y-98474000D02*
X228170000Y-96324000D01*
G75*
G02*
X228420000Y-96074000I250000J0D01*
G01*
X229170000Y-96074000D01*
G75*
G02*
X229420000Y-96324000I0J-250000D01*
G01*
X229420000Y-98474000D01*
G75*
G02*
X229170000Y-98724000I-250000J0D01*
G01*
X228420000Y-98724000D01*
G75*
G02*
X228170000Y-98474000I0J250000D01*
G01*
G37*
G36*
G01*
X230970000Y-98474000D02*
X230970000Y-96324000D01*
G75*
G02*
X231220000Y-96074000I250000J0D01*
G01*
X231970000Y-96074000D01*
G75*
G02*
X232220000Y-96324000I0J-250000D01*
G01*
X232220000Y-98474000D01*
G75*
G02*
X231970000Y-98724000I-250000J0D01*
G01*
X231220000Y-98724000D01*
G75*
G02*
X230970000Y-98474000I0J250000D01*
G01*
G37*
G04 #@! TD*
G04 #@! TO.C,D8*
G36*
G01*
X222670000Y-98474000D02*
X222670000Y-96324000D01*
G75*
G02*
X222920000Y-96074000I250000J0D01*
G01*
X223670000Y-96074000D01*
G75*
G02*
X223920000Y-96324000I0J-250000D01*
G01*
X223920000Y-98474000D01*
G75*
G02*
X223670000Y-98724000I-250000J0D01*
G01*
X222920000Y-98724000D01*
G75*
G02*
X222670000Y-98474000I0J250000D01*
G01*
G37*
G36*
G01*
X225470000Y-98474000D02*
X225470000Y-96324000D01*
G75*
G02*
X225720000Y-96074000I250000J0D01*
G01*
X226470000Y-96074000D01*
G75*
G02*
X226720000Y-96324000I0J-250000D01*
G01*
X226720000Y-98474000D01*
G75*
G02*
X226470000Y-98724000I-250000J0D01*
G01*
X225720000Y-98724000D01*
G75*
G02*
X225470000Y-98474000I0J250000D01*
G01*
G37*
G04 #@! TD*
G04 #@! TO.C,D7*
G36*
G01*
X217170000Y-98474000D02*
X217170000Y-96324000D01*
G75*
G02*
X217420000Y-96074000I250000J0D01*
G01*
X218170000Y-96074000D01*
G75*
G02*
X218420000Y-96324000I0J-250000D01*
G01*
X218420000Y-98474000D01*
G75*
G02*
X218170000Y-98724000I-250000J0D01*
G01*
X217420000Y-98724000D01*
G75*
G02*
X217170000Y-98474000I0J250000D01*
G01*
G37*
G36*
G01*
X219970000Y-98474000D02*
X219970000Y-96324000D01*
G75*
G02*
X220220000Y-96074000I250000J0D01*
G01*
X220970000Y-96074000D01*
G75*
G02*
X221220000Y-96324000I0J-250000D01*
G01*
X221220000Y-98474000D01*
G75*
G02*
X220970000Y-98724000I-250000J0D01*
G01*
X220220000Y-98724000D01*
G75*
G02*
X219970000Y-98474000I0J250000D01*
G01*
G37*
G04 #@! TD*
G04 #@! TO.C,D6*
G36*
G01*
X211670000Y-98474000D02*
X211670000Y-96324000D01*
G75*
G02*
X211920000Y-96074000I250000J0D01*
G01*
X212670000Y-96074000D01*
G75*
G02*
X212920000Y-96324000I0J-250000D01*
G01*
X212920000Y-98474000D01*
G75*
G02*
X212670000Y-98724000I-250000J0D01*
G01*
X211920000Y-98724000D01*
G75*
G02*
X211670000Y-98474000I0J250000D01*
G01*
G37*
G36*
G01*
X214470000Y-98474000D02*
X214470000Y-96324000D01*
G75*
G02*
X214720000Y-96074000I250000J0D01*
G01*
X215470000Y-96074000D01*
G75*
G02*
X215720000Y-96324000I0J-250000D01*
G01*
X215720000Y-98474000D01*
G75*
G02*
X215470000Y-98724000I-250000J0D01*
G01*
X214720000Y-98724000D01*
G75*
G02*
X214470000Y-98474000I0J250000D01*
G01*
G37*
G04 #@! TD*
G04 #@! TO.C,D15*
G36*
G01*
X233670000Y-92974000D02*
X233670000Y-90824000D01*
G75*
G02*
X233920000Y-90574000I250000J0D01*
G01*
X234670000Y-90574000D01*
G75*
G02*
X234920000Y-90824000I0J-250000D01*
G01*
X234920000Y-92974000D01*
G75*
G02*
X234670000Y-93224000I-250000J0D01*
G01*
X233920000Y-93224000D01*
G75*
G02*
X233670000Y-92974000I0J250000D01*
G01*
G37*
G36*
G01*
X236470000Y-92974000D02*
X236470000Y-90824000D01*
G75*
G02*
X236720000Y-90574000I250000J0D01*
G01*
X237470000Y-90574000D01*
G75*
G02*
X237720000Y-90824000I0J-250000D01*
G01*
X237720000Y-92974000D01*
G75*
G02*
X237470000Y-93224000I-250000J0D01*
G01*
X236720000Y-93224000D01*
G75*
G02*
X236470000Y-92974000I0J250000D01*
G01*
G37*
G04 #@! TD*
G04 #@! TO.C,D14*
G36*
G01*
X228170000Y-92974000D02*
X228170000Y-90824000D01*
G75*
G02*
X228420000Y-90574000I250000J0D01*
G01*
X229170000Y-90574000D01*
G75*
G02*
X229420000Y-90824000I0J-250000D01*
G01*
X229420000Y-92974000D01*
G75*
G02*
X229170000Y-93224000I-250000J0D01*
G01*
X228420000Y-93224000D01*
G75*
G02*
X228170000Y-92974000I0J250000D01*
G01*
G37*
G36*
G01*
X230970000Y-92974000D02*
X230970000Y-90824000D01*
G75*
G02*
X231220000Y-90574000I250000J0D01*
G01*
X231970000Y-90574000D01*
G75*
G02*
X232220000Y-90824000I0J-250000D01*
G01*
X232220000Y-92974000D01*
G75*
G02*
X231970000Y-93224000I-250000J0D01*
G01*
X231220000Y-93224000D01*
G75*
G02*
X230970000Y-92974000I0J250000D01*
G01*
G37*
G04 #@! TD*
G04 #@! TO.C,D13*
G36*
G01*
X222670000Y-92974000D02*
X222670000Y-90824000D01*
G75*
G02*
X222920000Y-90574000I250000J0D01*
G01*
X223670000Y-90574000D01*
G75*
G02*
X223920000Y-90824000I0J-250000D01*
G01*
X223920000Y-92974000D01*
G75*
G02*
X223670000Y-93224000I-250000J0D01*
G01*
X222920000Y-93224000D01*
G75*
G02*
X222670000Y-92974000I0J250000D01*
G01*
G37*
G36*
G01*
X225470000Y-92974000D02*
X225470000Y-90824000D01*
G75*
G02*
X225720000Y-90574000I250000J0D01*
G01*
X226470000Y-90574000D01*
G75*
G02*
X226720000Y-90824000I0J-250000D01*
G01*
X226720000Y-92974000D01*
G75*
G02*
X226470000Y-93224000I-250000J0D01*
G01*
X225720000Y-93224000D01*
G75*
G02*
X225470000Y-92974000I0J250000D01*
G01*
G37*
G04 #@! TD*
G04 #@! TO.C,D12*
G36*
G01*
X217170000Y-92974000D02*
X217170000Y-90824000D01*
G75*
G02*
X217420000Y-90574000I250000J0D01*
G01*
X218170000Y-90574000D01*
G75*
G02*
X218420000Y-90824000I0J-250000D01*
G01*
X218420000Y-92974000D01*
G75*
G02*
X218170000Y-93224000I-250000J0D01*
G01*
X217420000Y-93224000D01*
G75*
G02*
X217170000Y-92974000I0J250000D01*
G01*
G37*
G36*
G01*
X219970000Y-92974000D02*
X219970000Y-90824000D01*
G75*
G02*
X220220000Y-90574000I250000J0D01*
G01*
X220970000Y-90574000D01*
G75*
G02*
X221220000Y-90824000I0J-250000D01*
G01*
X221220000Y-92974000D01*
G75*
G02*
X220970000Y-93224000I-250000J0D01*
G01*
X220220000Y-93224000D01*
G75*
G02*
X219970000Y-92974000I0J250000D01*
G01*
G37*
G04 #@! TD*
G04 #@! TO.C,D11*
G36*
G01*
X211670000Y-92974000D02*
X211670000Y-90824000D01*
G75*
G02*
X211920000Y-90574000I250000J0D01*
G01*
X212670000Y-90574000D01*
G75*
G02*
X212920000Y-90824000I0J-250000D01*
G01*
X212920000Y-92974000D01*
G75*
G02*
X212670000Y-93224000I-250000J0D01*
G01*
X211920000Y-93224000D01*
G75*
G02*
X211670000Y-92974000I0J250000D01*
G01*
G37*
G36*
G01*
X214470000Y-92974000D02*
X214470000Y-90824000D01*
G75*
G02*
X214720000Y-90574000I250000J0D01*
G01*
X215470000Y-90574000D01*
G75*
G02*
X215720000Y-90824000I0J-250000D01*
G01*
X215720000Y-92974000D01*
G75*
G02*
X215470000Y-93224000I-250000J0D01*
G01*
X214720000Y-93224000D01*
G75*
G02*
X214470000Y-92974000I0J250000D01*
G01*
G37*
G04 #@! TD*
G04 #@! TO.C,D20*
G36*
G01*
X233670000Y-87474000D02*
X233670000Y-85324000D01*
G75*
G02*
X233920000Y-85074000I250000J0D01*
G01*
X234670000Y-85074000D01*
G75*
G02*
X234920000Y-85324000I0J-250000D01*
G01*
X234920000Y-87474000D01*
G75*
G02*
X234670000Y-87724000I-250000J0D01*
G01*
X233920000Y-87724000D01*
G75*
G02*
X233670000Y-87474000I0J250000D01*
G01*
G37*
G36*
G01*
X236470000Y-87474000D02*
X236470000Y-85324000D01*
G75*
G02*
X236720000Y-85074000I250000J0D01*
G01*
X237470000Y-85074000D01*
G75*
G02*
X237720000Y-85324000I0J-250000D01*
G01*
X237720000Y-87474000D01*
G75*
G02*
X237470000Y-87724000I-250000J0D01*
G01*
X236720000Y-87724000D01*
G75*
G02*
X236470000Y-87474000I0J250000D01*
G01*
G37*
G04 #@! TD*
G04 #@! TO.C,D19*
G36*
G01*
X228170000Y-87474000D02*
X228170000Y-85324000D01*
G75*
G02*
X228420000Y-85074000I250000J0D01*
G01*
X229170000Y-85074000D01*
G75*
G02*
X229420000Y-85324000I0J-250000D01*
G01*
X229420000Y-87474000D01*
G75*
G02*
X229170000Y-87724000I-250000J0D01*
G01*
X228420000Y-87724000D01*
G75*
G02*
X228170000Y-87474000I0J250000D01*
G01*
G37*
G36*
G01*
X230970000Y-87474000D02*
X230970000Y-85324000D01*
G75*
G02*
X231220000Y-85074000I250000J0D01*
G01*
X231970000Y-85074000D01*
G75*
G02*
X232220000Y-85324000I0J-250000D01*
G01*
X232220000Y-87474000D01*
G75*
G02*
X231970000Y-87724000I-250000J0D01*
G01*
X231220000Y-87724000D01*
G75*
G02*
X230970000Y-87474000I0J250000D01*
G01*
G37*
G04 #@! TD*
G04 #@! TO.C,D18*
G36*
G01*
X222670000Y-87474000D02*
X222670000Y-85324000D01*
G75*
G02*
X222920000Y-85074000I250000J0D01*
G01*
X223670000Y-85074000D01*
G75*
G02*
X223920000Y-85324000I0J-250000D01*
G01*
X223920000Y-87474000D01*
G75*
G02*
X223670000Y-87724000I-250000J0D01*
G01*
X222920000Y-87724000D01*
G75*
G02*
X222670000Y-87474000I0J250000D01*
G01*
G37*
G36*
G01*
X225470000Y-87474000D02*
X225470000Y-85324000D01*
G75*
G02*
X225720000Y-85074000I250000J0D01*
G01*
X226470000Y-85074000D01*
G75*
G02*
X226720000Y-85324000I0J-250000D01*
G01*
X226720000Y-87474000D01*
G75*
G02*
X226470000Y-87724000I-250000J0D01*
G01*
X225720000Y-87724000D01*
G75*
G02*
X225470000Y-87474000I0J250000D01*
G01*
G37*
G04 #@! TD*
G04 #@! TO.C,D17*
G36*
G01*
X217170000Y-87474000D02*
X217170000Y-85324000D01*
G75*
G02*
X217420000Y-85074000I250000J0D01*
G01*
X218170000Y-85074000D01*
G75*
G02*
X218420000Y-85324000I0J-250000D01*
G01*
X218420000Y-87474000D01*
G75*
G02*
X218170000Y-87724000I-250000J0D01*
G01*
X217420000Y-87724000D01*
G75*
G02*
X217170000Y-87474000I0J250000D01*
G01*
G37*
G36*
G01*
X219970000Y-87474000D02*
X219970000Y-85324000D01*
G75*
G02*
X220220000Y-85074000I250000J0D01*
G01*
X220970000Y-85074000D01*
G75*
G02*
X221220000Y-85324000I0J-250000D01*
G01*
X221220000Y-87474000D01*
G75*
G02*
X220970000Y-87724000I-250000J0D01*
G01*
X220220000Y-87724000D01*
G75*
G02*
X219970000Y-87474000I0J250000D01*
G01*
G37*
G04 #@! TD*
G04 #@! TO.C,D16*
G36*
G01*
X211670000Y-87474000D02*
X211670000Y-85324000D01*
G75*
G02*
X211920000Y-85074000I250000J0D01*
G01*
X212670000Y-85074000D01*
G75*
G02*
X212920000Y-85324000I0J-250000D01*
G01*
X212920000Y-87474000D01*
G75*
G02*
X212670000Y-87724000I-250000J0D01*
G01*
X211920000Y-87724000D01*
G75*
G02*
X211670000Y-87474000I0J250000D01*
G01*
G37*
G36*
G01*
X214470000Y-87474000D02*
X214470000Y-85324000D01*
G75*
G02*
X214720000Y-85074000I250000J0D01*
G01*
X215470000Y-85074000D01*
G75*
G02*
X215720000Y-85324000I0J-250000D01*
G01*
X215720000Y-87474000D01*
G75*
G02*
X215470000Y-87724000I-250000J0D01*
G01*
X214720000Y-87724000D01*
G75*
G02*
X214470000Y-87474000I0J250000D01*
G01*
G37*
G04 #@! TD*
G04 #@! TO.C,D25*
G36*
G01*
X233670000Y-81974000D02*
X233670000Y-79824000D01*
G75*
G02*
X233920000Y-79574000I250000J0D01*
G01*
X234670000Y-79574000D01*
G75*
G02*
X234920000Y-79824000I0J-250000D01*
G01*
X234920000Y-81974000D01*
G75*
G02*
X234670000Y-82224000I-250000J0D01*
G01*
X233920000Y-82224000D01*
G75*
G02*
X233670000Y-81974000I0J250000D01*
G01*
G37*
G36*
G01*
X236470000Y-81974000D02*
X236470000Y-79824000D01*
G75*
G02*
X236720000Y-79574000I250000J0D01*
G01*
X237470000Y-79574000D01*
G75*
G02*
X237720000Y-79824000I0J-250000D01*
G01*
X237720000Y-81974000D01*
G75*
G02*
X237470000Y-82224000I-250000J0D01*
G01*
X236720000Y-82224000D01*
G75*
G02*
X236470000Y-81974000I0J250000D01*
G01*
G37*
G04 #@! TD*
G04 #@! TO.C,D24*
G36*
G01*
X228170000Y-81974000D02*
X228170000Y-79824000D01*
G75*
G02*
X228420000Y-79574000I250000J0D01*
G01*
X229170000Y-79574000D01*
G75*
G02*
X229420000Y-79824000I0J-250000D01*
G01*
X229420000Y-81974000D01*
G75*
G02*
X229170000Y-82224000I-250000J0D01*
G01*
X228420000Y-82224000D01*
G75*
G02*
X228170000Y-81974000I0J250000D01*
G01*
G37*
G36*
G01*
X230970000Y-81974000D02*
X230970000Y-79824000D01*
G75*
G02*
X231220000Y-79574000I250000J0D01*
G01*
X231970000Y-79574000D01*
G75*
G02*
X232220000Y-79824000I0J-250000D01*
G01*
X232220000Y-81974000D01*
G75*
G02*
X231970000Y-82224000I-250000J0D01*
G01*
X231220000Y-82224000D01*
G75*
G02*
X230970000Y-81974000I0J250000D01*
G01*
G37*
G04 #@! TD*
G04 #@! TO.C,D23*
G36*
G01*
X222670000Y-81974000D02*
X222670000Y-79824000D01*
G75*
G02*
X222920000Y-79574000I250000J0D01*
G01*
X223670000Y-79574000D01*
G75*
G02*
X223920000Y-79824000I0J-250000D01*
G01*
X223920000Y-81974000D01*
G75*
G02*
X223670000Y-82224000I-250000J0D01*
G01*
X222920000Y-82224000D01*
G75*
G02*
X222670000Y-81974000I0J250000D01*
G01*
G37*
G36*
G01*
X225470000Y-81974000D02*
X225470000Y-79824000D01*
G75*
G02*
X225720000Y-79574000I250000J0D01*
G01*
X226470000Y-79574000D01*
G75*
G02*
X226720000Y-79824000I0J-250000D01*
G01*
X226720000Y-81974000D01*
G75*
G02*
X226470000Y-82224000I-250000J0D01*
G01*
X225720000Y-82224000D01*
G75*
G02*
X225470000Y-81974000I0J250000D01*
G01*
G37*
G04 #@! TD*
G04 #@! TO.C,D22*
G36*
G01*
X217170000Y-81974000D02*
X217170000Y-79824000D01*
G75*
G02*
X217420000Y-79574000I250000J0D01*
G01*
X218170000Y-79574000D01*
G75*
G02*
X218420000Y-79824000I0J-250000D01*
G01*
X218420000Y-81974000D01*
G75*
G02*
X218170000Y-82224000I-250000J0D01*
G01*
X217420000Y-82224000D01*
G75*
G02*
X217170000Y-81974000I0J250000D01*
G01*
G37*
G36*
G01*
X219970000Y-81974000D02*
X219970000Y-79824000D01*
G75*
G02*
X220220000Y-79574000I250000J0D01*
G01*
X220970000Y-79574000D01*
G75*
G02*
X221220000Y-79824000I0J-250000D01*
G01*
X221220000Y-81974000D01*
G75*
G02*
X220970000Y-82224000I-250000J0D01*
G01*
X220220000Y-82224000D01*
G75*
G02*
X219970000Y-81974000I0J250000D01*
G01*
G37*
G04 #@! TD*
G04 #@! TO.C,D21*
G36*
G01*
X214470000Y-81974000D02*
X214470000Y-79824000D01*
G75*
G02*
X214720000Y-79574000I250000J0D01*
G01*
X215470000Y-79574000D01*
G75*
G02*
X215720000Y-79824000I0J-250000D01*
G01*
X215720000Y-81974000D01*
G75*
G02*
X215470000Y-82224000I-250000J0D01*
G01*
X214720000Y-82224000D01*
G75*
G02*
X214470000Y-81974000I0J250000D01*
G01*
G37*
G36*
G01*
X211670000Y-81974000D02*
X211670000Y-79824000D01*
G75*
G02*
X211920000Y-79574000I250000J0D01*
G01*
X212670000Y-79574000D01*
G75*
G02*
X212920000Y-79824000I0J-250000D01*
G01*
X212920000Y-81974000D01*
G75*
G02*
X212670000Y-82224000I-250000J0D01*
G01*
X211920000Y-82224000D01*
G75*
G02*
X211670000Y-81974000I0J250000D01*
G01*
G37*
G04 #@! TD*
M02*
