G04 #@! TF.GenerationSoftware,KiCad,Pcbnew,5.1.6-c6e7f7d~87~ubuntu19.10.1*
G04 #@! TF.CreationDate,2020-10-15T12:23:37+04:00*
G04 #@! TF.ProjectId,ledy,6c656479-2e6b-4696-9361-645f70636258,rev?*
G04 #@! TF.SameCoordinates,Original*
G04 #@! TF.FileFunction,Soldermask,Top*
G04 #@! TF.FilePolarity,Negative*
%FSLAX46Y46*%
G04 Gerber Fmt 4.6, Leading zero omitted, Abs format (unit mm)*
G04 Created by KiCad (PCBNEW 5.1.6-c6e7f7d~87~ubuntu19.10.1) date 2020-10-15 12:23:37*
%MOMM*%
%LPD*%
G01*
G04 APERTURE LIST*
%ADD10C,0.300000*%
%ADD11C,4.100000*%
G04 APERTURE END LIST*
D10*
X242428571Y-105678571D02*
X242428571Y-106392857D01*
X240928571Y-106392857D01*
X241642857Y-105178571D02*
X241642857Y-104678571D01*
X242428571Y-104464285D02*
X242428571Y-105178571D01*
X240928571Y-105178571D01*
X240928571Y-104464285D01*
X242428571Y-103821428D02*
X240928571Y-103821428D01*
X240928571Y-103464285D01*
X241000000Y-103250000D01*
X241142857Y-103107142D01*
X241285714Y-103035714D01*
X241571428Y-102964285D01*
X241785714Y-102964285D01*
X242071428Y-103035714D01*
X242214285Y-103107142D01*
X242357142Y-103250000D01*
X242428571Y-103464285D01*
X242428571Y-103821428D01*
X241714285Y-102035714D02*
X242428571Y-102035714D01*
X240928571Y-102535714D02*
X241714285Y-102035714D01*
X240928571Y-101535714D01*
X242000000Y-99964285D02*
X242000000Y-99250000D01*
X242428571Y-100107142D02*
X240928571Y-99607142D01*
X242428571Y-99107142D01*
X242428571Y-97892857D02*
X242428571Y-98607142D01*
X240928571Y-98607142D01*
X240928571Y-97392857D02*
X242142857Y-97392857D01*
X242285714Y-97321428D01*
X242357142Y-97250000D01*
X242428571Y-97107142D01*
X242428571Y-96821428D01*
X242357142Y-96678571D01*
X242285714Y-96607142D01*
X242142857Y-96535714D01*
X240928571Y-96535714D01*
X242428571Y-95821428D02*
X240928571Y-95821428D01*
X242000000Y-95321428D01*
X240928571Y-94821428D01*
X242428571Y-94821428D01*
X242428571Y-94107142D02*
X240928571Y-94107142D01*
X242428571Y-93392857D02*
X240928571Y-93392857D01*
X242428571Y-92535714D01*
X240928571Y-92535714D01*
X240928571Y-91821428D02*
X242142857Y-91821428D01*
X242285714Y-91750000D01*
X242357142Y-91678571D01*
X242428571Y-91535714D01*
X242428571Y-91250000D01*
X242357142Y-91107142D01*
X242285714Y-91035714D01*
X242142857Y-90964285D01*
X240928571Y-90964285D01*
X242428571Y-90250000D02*
X240928571Y-90250000D01*
X242000000Y-89750000D01*
X240928571Y-89250000D01*
X242428571Y-89250000D01*
X242428571Y-86535714D02*
X241714285Y-87035714D01*
X242428571Y-87392857D02*
X240928571Y-87392857D01*
X240928571Y-86821428D01*
X241000000Y-86678571D01*
X241071428Y-86607142D01*
X241214285Y-86535714D01*
X241428571Y-86535714D01*
X241571428Y-86607142D01*
X241642857Y-86678571D01*
X241714285Y-86821428D01*
X241714285Y-87392857D01*
X242357142Y-85321428D02*
X242428571Y-85464285D01*
X242428571Y-85750000D01*
X242357142Y-85892857D01*
X242214285Y-85964285D01*
X241642857Y-85964285D01*
X241500000Y-85892857D01*
X241428571Y-85750000D01*
X241428571Y-85464285D01*
X241500000Y-85321428D01*
X241642857Y-85250000D01*
X241785714Y-85250000D01*
X241928571Y-85964285D01*
X241428571Y-84750000D02*
X242428571Y-84392857D01*
X241428571Y-84035714D01*
X242428571Y-81535714D02*
X242428571Y-82392857D01*
X242428571Y-81964285D02*
X240928571Y-81964285D01*
X241142857Y-82107142D01*
X241285714Y-82250000D01*
X241357142Y-82392857D01*
D11*
G04 #@! TO.C,+*
X236000000Y-122000000D03*
G04 #@! TD*
G04 #@! TO.C,GND*
X214000000Y-122000000D03*
G04 #@! TD*
G04 #@! TO.C,D5*
G36*
G01*
X233620000Y-104004000D02*
X233620000Y-101794000D01*
G75*
G02*
X233890000Y-101524000I270000J0D01*
G01*
X234700000Y-101524000D01*
G75*
G02*
X234970000Y-101794000I0J-270000D01*
G01*
X234970000Y-104004000D01*
G75*
G02*
X234700000Y-104274000I-270000J0D01*
G01*
X233890000Y-104274000D01*
G75*
G02*
X233620000Y-104004000I0J270000D01*
G01*
G37*
G36*
G01*
X236420000Y-104004000D02*
X236420000Y-101794000D01*
G75*
G02*
X236690000Y-101524000I270000J0D01*
G01*
X237500000Y-101524000D01*
G75*
G02*
X237770000Y-101794000I0J-270000D01*
G01*
X237770000Y-104004000D01*
G75*
G02*
X237500000Y-104274000I-270000J0D01*
G01*
X236690000Y-104274000D01*
G75*
G02*
X236420000Y-104004000I0J270000D01*
G01*
G37*
G04 #@! TD*
G04 #@! TO.C,D4*
G36*
G01*
X228120000Y-104004000D02*
X228120000Y-101794000D01*
G75*
G02*
X228390000Y-101524000I270000J0D01*
G01*
X229200000Y-101524000D01*
G75*
G02*
X229470000Y-101794000I0J-270000D01*
G01*
X229470000Y-104004000D01*
G75*
G02*
X229200000Y-104274000I-270000J0D01*
G01*
X228390000Y-104274000D01*
G75*
G02*
X228120000Y-104004000I0J270000D01*
G01*
G37*
G36*
G01*
X230920000Y-104004000D02*
X230920000Y-101794000D01*
G75*
G02*
X231190000Y-101524000I270000J0D01*
G01*
X232000000Y-101524000D01*
G75*
G02*
X232270000Y-101794000I0J-270000D01*
G01*
X232270000Y-104004000D01*
G75*
G02*
X232000000Y-104274000I-270000J0D01*
G01*
X231190000Y-104274000D01*
G75*
G02*
X230920000Y-104004000I0J270000D01*
G01*
G37*
G04 #@! TD*
G04 #@! TO.C,D3*
G36*
G01*
X222620000Y-104004000D02*
X222620000Y-101794000D01*
G75*
G02*
X222890000Y-101524000I270000J0D01*
G01*
X223700000Y-101524000D01*
G75*
G02*
X223970000Y-101794000I0J-270000D01*
G01*
X223970000Y-104004000D01*
G75*
G02*
X223700000Y-104274000I-270000J0D01*
G01*
X222890000Y-104274000D01*
G75*
G02*
X222620000Y-104004000I0J270000D01*
G01*
G37*
G36*
G01*
X225420000Y-104004000D02*
X225420000Y-101794000D01*
G75*
G02*
X225690000Y-101524000I270000J0D01*
G01*
X226500000Y-101524000D01*
G75*
G02*
X226770000Y-101794000I0J-270000D01*
G01*
X226770000Y-104004000D01*
G75*
G02*
X226500000Y-104274000I-270000J0D01*
G01*
X225690000Y-104274000D01*
G75*
G02*
X225420000Y-104004000I0J270000D01*
G01*
G37*
G04 #@! TD*
G04 #@! TO.C,D2*
G36*
G01*
X217120000Y-104004000D02*
X217120000Y-101794000D01*
G75*
G02*
X217390000Y-101524000I270000J0D01*
G01*
X218200000Y-101524000D01*
G75*
G02*
X218470000Y-101794000I0J-270000D01*
G01*
X218470000Y-104004000D01*
G75*
G02*
X218200000Y-104274000I-270000J0D01*
G01*
X217390000Y-104274000D01*
G75*
G02*
X217120000Y-104004000I0J270000D01*
G01*
G37*
G36*
G01*
X219920000Y-104004000D02*
X219920000Y-101794000D01*
G75*
G02*
X220190000Y-101524000I270000J0D01*
G01*
X221000000Y-101524000D01*
G75*
G02*
X221270000Y-101794000I0J-270000D01*
G01*
X221270000Y-104004000D01*
G75*
G02*
X221000000Y-104274000I-270000J0D01*
G01*
X220190000Y-104274000D01*
G75*
G02*
X219920000Y-104004000I0J270000D01*
G01*
G37*
G04 #@! TD*
G04 #@! TO.C,D1*
G36*
G01*
X211620000Y-104004000D02*
X211620000Y-101794000D01*
G75*
G02*
X211890000Y-101524000I270000J0D01*
G01*
X212700000Y-101524000D01*
G75*
G02*
X212970000Y-101794000I0J-270000D01*
G01*
X212970000Y-104004000D01*
G75*
G02*
X212700000Y-104274000I-270000J0D01*
G01*
X211890000Y-104274000D01*
G75*
G02*
X211620000Y-104004000I0J270000D01*
G01*
G37*
G36*
G01*
X214420000Y-104004000D02*
X214420000Y-101794000D01*
G75*
G02*
X214690000Y-101524000I270000J0D01*
G01*
X215500000Y-101524000D01*
G75*
G02*
X215770000Y-101794000I0J-270000D01*
G01*
X215770000Y-104004000D01*
G75*
G02*
X215500000Y-104274000I-270000J0D01*
G01*
X214690000Y-104274000D01*
G75*
G02*
X214420000Y-104004000I0J270000D01*
G01*
G37*
G04 #@! TD*
G04 #@! TO.C,D10*
G36*
G01*
X233620000Y-98504000D02*
X233620000Y-96294000D01*
G75*
G02*
X233890000Y-96024000I270000J0D01*
G01*
X234700000Y-96024000D01*
G75*
G02*
X234970000Y-96294000I0J-270000D01*
G01*
X234970000Y-98504000D01*
G75*
G02*
X234700000Y-98774000I-270000J0D01*
G01*
X233890000Y-98774000D01*
G75*
G02*
X233620000Y-98504000I0J270000D01*
G01*
G37*
G36*
G01*
X236420000Y-98504000D02*
X236420000Y-96294000D01*
G75*
G02*
X236690000Y-96024000I270000J0D01*
G01*
X237500000Y-96024000D01*
G75*
G02*
X237770000Y-96294000I0J-270000D01*
G01*
X237770000Y-98504000D01*
G75*
G02*
X237500000Y-98774000I-270000J0D01*
G01*
X236690000Y-98774000D01*
G75*
G02*
X236420000Y-98504000I0J270000D01*
G01*
G37*
G04 #@! TD*
G04 #@! TO.C,D9*
G36*
G01*
X228120000Y-98504000D02*
X228120000Y-96294000D01*
G75*
G02*
X228390000Y-96024000I270000J0D01*
G01*
X229200000Y-96024000D01*
G75*
G02*
X229470000Y-96294000I0J-270000D01*
G01*
X229470000Y-98504000D01*
G75*
G02*
X229200000Y-98774000I-270000J0D01*
G01*
X228390000Y-98774000D01*
G75*
G02*
X228120000Y-98504000I0J270000D01*
G01*
G37*
G36*
G01*
X230920000Y-98504000D02*
X230920000Y-96294000D01*
G75*
G02*
X231190000Y-96024000I270000J0D01*
G01*
X232000000Y-96024000D01*
G75*
G02*
X232270000Y-96294000I0J-270000D01*
G01*
X232270000Y-98504000D01*
G75*
G02*
X232000000Y-98774000I-270000J0D01*
G01*
X231190000Y-98774000D01*
G75*
G02*
X230920000Y-98504000I0J270000D01*
G01*
G37*
G04 #@! TD*
G04 #@! TO.C,D8*
G36*
G01*
X222620000Y-98504000D02*
X222620000Y-96294000D01*
G75*
G02*
X222890000Y-96024000I270000J0D01*
G01*
X223700000Y-96024000D01*
G75*
G02*
X223970000Y-96294000I0J-270000D01*
G01*
X223970000Y-98504000D01*
G75*
G02*
X223700000Y-98774000I-270000J0D01*
G01*
X222890000Y-98774000D01*
G75*
G02*
X222620000Y-98504000I0J270000D01*
G01*
G37*
G36*
G01*
X225420000Y-98504000D02*
X225420000Y-96294000D01*
G75*
G02*
X225690000Y-96024000I270000J0D01*
G01*
X226500000Y-96024000D01*
G75*
G02*
X226770000Y-96294000I0J-270000D01*
G01*
X226770000Y-98504000D01*
G75*
G02*
X226500000Y-98774000I-270000J0D01*
G01*
X225690000Y-98774000D01*
G75*
G02*
X225420000Y-98504000I0J270000D01*
G01*
G37*
G04 #@! TD*
G04 #@! TO.C,D7*
G36*
G01*
X217120000Y-98504000D02*
X217120000Y-96294000D01*
G75*
G02*
X217390000Y-96024000I270000J0D01*
G01*
X218200000Y-96024000D01*
G75*
G02*
X218470000Y-96294000I0J-270000D01*
G01*
X218470000Y-98504000D01*
G75*
G02*
X218200000Y-98774000I-270000J0D01*
G01*
X217390000Y-98774000D01*
G75*
G02*
X217120000Y-98504000I0J270000D01*
G01*
G37*
G36*
G01*
X219920000Y-98504000D02*
X219920000Y-96294000D01*
G75*
G02*
X220190000Y-96024000I270000J0D01*
G01*
X221000000Y-96024000D01*
G75*
G02*
X221270000Y-96294000I0J-270000D01*
G01*
X221270000Y-98504000D01*
G75*
G02*
X221000000Y-98774000I-270000J0D01*
G01*
X220190000Y-98774000D01*
G75*
G02*
X219920000Y-98504000I0J270000D01*
G01*
G37*
G04 #@! TD*
G04 #@! TO.C,D6*
G36*
G01*
X211620000Y-98504000D02*
X211620000Y-96294000D01*
G75*
G02*
X211890000Y-96024000I270000J0D01*
G01*
X212700000Y-96024000D01*
G75*
G02*
X212970000Y-96294000I0J-270000D01*
G01*
X212970000Y-98504000D01*
G75*
G02*
X212700000Y-98774000I-270000J0D01*
G01*
X211890000Y-98774000D01*
G75*
G02*
X211620000Y-98504000I0J270000D01*
G01*
G37*
G36*
G01*
X214420000Y-98504000D02*
X214420000Y-96294000D01*
G75*
G02*
X214690000Y-96024000I270000J0D01*
G01*
X215500000Y-96024000D01*
G75*
G02*
X215770000Y-96294000I0J-270000D01*
G01*
X215770000Y-98504000D01*
G75*
G02*
X215500000Y-98774000I-270000J0D01*
G01*
X214690000Y-98774000D01*
G75*
G02*
X214420000Y-98504000I0J270000D01*
G01*
G37*
G04 #@! TD*
G04 #@! TO.C,D15*
G36*
G01*
X233620000Y-93004000D02*
X233620000Y-90794000D01*
G75*
G02*
X233890000Y-90524000I270000J0D01*
G01*
X234700000Y-90524000D01*
G75*
G02*
X234970000Y-90794000I0J-270000D01*
G01*
X234970000Y-93004000D01*
G75*
G02*
X234700000Y-93274000I-270000J0D01*
G01*
X233890000Y-93274000D01*
G75*
G02*
X233620000Y-93004000I0J270000D01*
G01*
G37*
G36*
G01*
X236420000Y-93004000D02*
X236420000Y-90794000D01*
G75*
G02*
X236690000Y-90524000I270000J0D01*
G01*
X237500000Y-90524000D01*
G75*
G02*
X237770000Y-90794000I0J-270000D01*
G01*
X237770000Y-93004000D01*
G75*
G02*
X237500000Y-93274000I-270000J0D01*
G01*
X236690000Y-93274000D01*
G75*
G02*
X236420000Y-93004000I0J270000D01*
G01*
G37*
G04 #@! TD*
G04 #@! TO.C,D14*
G36*
G01*
X228120000Y-93004000D02*
X228120000Y-90794000D01*
G75*
G02*
X228390000Y-90524000I270000J0D01*
G01*
X229200000Y-90524000D01*
G75*
G02*
X229470000Y-90794000I0J-270000D01*
G01*
X229470000Y-93004000D01*
G75*
G02*
X229200000Y-93274000I-270000J0D01*
G01*
X228390000Y-93274000D01*
G75*
G02*
X228120000Y-93004000I0J270000D01*
G01*
G37*
G36*
G01*
X230920000Y-93004000D02*
X230920000Y-90794000D01*
G75*
G02*
X231190000Y-90524000I270000J0D01*
G01*
X232000000Y-90524000D01*
G75*
G02*
X232270000Y-90794000I0J-270000D01*
G01*
X232270000Y-93004000D01*
G75*
G02*
X232000000Y-93274000I-270000J0D01*
G01*
X231190000Y-93274000D01*
G75*
G02*
X230920000Y-93004000I0J270000D01*
G01*
G37*
G04 #@! TD*
G04 #@! TO.C,D13*
G36*
G01*
X222620000Y-93004000D02*
X222620000Y-90794000D01*
G75*
G02*
X222890000Y-90524000I270000J0D01*
G01*
X223700000Y-90524000D01*
G75*
G02*
X223970000Y-90794000I0J-270000D01*
G01*
X223970000Y-93004000D01*
G75*
G02*
X223700000Y-93274000I-270000J0D01*
G01*
X222890000Y-93274000D01*
G75*
G02*
X222620000Y-93004000I0J270000D01*
G01*
G37*
G36*
G01*
X225420000Y-93004000D02*
X225420000Y-90794000D01*
G75*
G02*
X225690000Y-90524000I270000J0D01*
G01*
X226500000Y-90524000D01*
G75*
G02*
X226770000Y-90794000I0J-270000D01*
G01*
X226770000Y-93004000D01*
G75*
G02*
X226500000Y-93274000I-270000J0D01*
G01*
X225690000Y-93274000D01*
G75*
G02*
X225420000Y-93004000I0J270000D01*
G01*
G37*
G04 #@! TD*
G04 #@! TO.C,D12*
G36*
G01*
X217120000Y-93004000D02*
X217120000Y-90794000D01*
G75*
G02*
X217390000Y-90524000I270000J0D01*
G01*
X218200000Y-90524000D01*
G75*
G02*
X218470000Y-90794000I0J-270000D01*
G01*
X218470000Y-93004000D01*
G75*
G02*
X218200000Y-93274000I-270000J0D01*
G01*
X217390000Y-93274000D01*
G75*
G02*
X217120000Y-93004000I0J270000D01*
G01*
G37*
G36*
G01*
X219920000Y-93004000D02*
X219920000Y-90794000D01*
G75*
G02*
X220190000Y-90524000I270000J0D01*
G01*
X221000000Y-90524000D01*
G75*
G02*
X221270000Y-90794000I0J-270000D01*
G01*
X221270000Y-93004000D01*
G75*
G02*
X221000000Y-93274000I-270000J0D01*
G01*
X220190000Y-93274000D01*
G75*
G02*
X219920000Y-93004000I0J270000D01*
G01*
G37*
G04 #@! TD*
G04 #@! TO.C,D11*
G36*
G01*
X211620000Y-93004000D02*
X211620000Y-90794000D01*
G75*
G02*
X211890000Y-90524000I270000J0D01*
G01*
X212700000Y-90524000D01*
G75*
G02*
X212970000Y-90794000I0J-270000D01*
G01*
X212970000Y-93004000D01*
G75*
G02*
X212700000Y-93274000I-270000J0D01*
G01*
X211890000Y-93274000D01*
G75*
G02*
X211620000Y-93004000I0J270000D01*
G01*
G37*
G36*
G01*
X214420000Y-93004000D02*
X214420000Y-90794000D01*
G75*
G02*
X214690000Y-90524000I270000J0D01*
G01*
X215500000Y-90524000D01*
G75*
G02*
X215770000Y-90794000I0J-270000D01*
G01*
X215770000Y-93004000D01*
G75*
G02*
X215500000Y-93274000I-270000J0D01*
G01*
X214690000Y-93274000D01*
G75*
G02*
X214420000Y-93004000I0J270000D01*
G01*
G37*
G04 #@! TD*
G04 #@! TO.C,D20*
G36*
G01*
X233620000Y-87504000D02*
X233620000Y-85294000D01*
G75*
G02*
X233890000Y-85024000I270000J0D01*
G01*
X234700000Y-85024000D01*
G75*
G02*
X234970000Y-85294000I0J-270000D01*
G01*
X234970000Y-87504000D01*
G75*
G02*
X234700000Y-87774000I-270000J0D01*
G01*
X233890000Y-87774000D01*
G75*
G02*
X233620000Y-87504000I0J270000D01*
G01*
G37*
G36*
G01*
X236420000Y-87504000D02*
X236420000Y-85294000D01*
G75*
G02*
X236690000Y-85024000I270000J0D01*
G01*
X237500000Y-85024000D01*
G75*
G02*
X237770000Y-85294000I0J-270000D01*
G01*
X237770000Y-87504000D01*
G75*
G02*
X237500000Y-87774000I-270000J0D01*
G01*
X236690000Y-87774000D01*
G75*
G02*
X236420000Y-87504000I0J270000D01*
G01*
G37*
G04 #@! TD*
G04 #@! TO.C,D19*
G36*
G01*
X228120000Y-87504000D02*
X228120000Y-85294000D01*
G75*
G02*
X228390000Y-85024000I270000J0D01*
G01*
X229200000Y-85024000D01*
G75*
G02*
X229470000Y-85294000I0J-270000D01*
G01*
X229470000Y-87504000D01*
G75*
G02*
X229200000Y-87774000I-270000J0D01*
G01*
X228390000Y-87774000D01*
G75*
G02*
X228120000Y-87504000I0J270000D01*
G01*
G37*
G36*
G01*
X230920000Y-87504000D02*
X230920000Y-85294000D01*
G75*
G02*
X231190000Y-85024000I270000J0D01*
G01*
X232000000Y-85024000D01*
G75*
G02*
X232270000Y-85294000I0J-270000D01*
G01*
X232270000Y-87504000D01*
G75*
G02*
X232000000Y-87774000I-270000J0D01*
G01*
X231190000Y-87774000D01*
G75*
G02*
X230920000Y-87504000I0J270000D01*
G01*
G37*
G04 #@! TD*
G04 #@! TO.C,D18*
G36*
G01*
X222620000Y-87504000D02*
X222620000Y-85294000D01*
G75*
G02*
X222890000Y-85024000I270000J0D01*
G01*
X223700000Y-85024000D01*
G75*
G02*
X223970000Y-85294000I0J-270000D01*
G01*
X223970000Y-87504000D01*
G75*
G02*
X223700000Y-87774000I-270000J0D01*
G01*
X222890000Y-87774000D01*
G75*
G02*
X222620000Y-87504000I0J270000D01*
G01*
G37*
G36*
G01*
X225420000Y-87504000D02*
X225420000Y-85294000D01*
G75*
G02*
X225690000Y-85024000I270000J0D01*
G01*
X226500000Y-85024000D01*
G75*
G02*
X226770000Y-85294000I0J-270000D01*
G01*
X226770000Y-87504000D01*
G75*
G02*
X226500000Y-87774000I-270000J0D01*
G01*
X225690000Y-87774000D01*
G75*
G02*
X225420000Y-87504000I0J270000D01*
G01*
G37*
G04 #@! TD*
G04 #@! TO.C,D17*
G36*
G01*
X217120000Y-87504000D02*
X217120000Y-85294000D01*
G75*
G02*
X217390000Y-85024000I270000J0D01*
G01*
X218200000Y-85024000D01*
G75*
G02*
X218470000Y-85294000I0J-270000D01*
G01*
X218470000Y-87504000D01*
G75*
G02*
X218200000Y-87774000I-270000J0D01*
G01*
X217390000Y-87774000D01*
G75*
G02*
X217120000Y-87504000I0J270000D01*
G01*
G37*
G36*
G01*
X219920000Y-87504000D02*
X219920000Y-85294000D01*
G75*
G02*
X220190000Y-85024000I270000J0D01*
G01*
X221000000Y-85024000D01*
G75*
G02*
X221270000Y-85294000I0J-270000D01*
G01*
X221270000Y-87504000D01*
G75*
G02*
X221000000Y-87774000I-270000J0D01*
G01*
X220190000Y-87774000D01*
G75*
G02*
X219920000Y-87504000I0J270000D01*
G01*
G37*
G04 #@! TD*
G04 #@! TO.C,D16*
G36*
G01*
X211620000Y-87504000D02*
X211620000Y-85294000D01*
G75*
G02*
X211890000Y-85024000I270000J0D01*
G01*
X212700000Y-85024000D01*
G75*
G02*
X212970000Y-85294000I0J-270000D01*
G01*
X212970000Y-87504000D01*
G75*
G02*
X212700000Y-87774000I-270000J0D01*
G01*
X211890000Y-87774000D01*
G75*
G02*
X211620000Y-87504000I0J270000D01*
G01*
G37*
G36*
G01*
X214420000Y-87504000D02*
X214420000Y-85294000D01*
G75*
G02*
X214690000Y-85024000I270000J0D01*
G01*
X215500000Y-85024000D01*
G75*
G02*
X215770000Y-85294000I0J-270000D01*
G01*
X215770000Y-87504000D01*
G75*
G02*
X215500000Y-87774000I-270000J0D01*
G01*
X214690000Y-87774000D01*
G75*
G02*
X214420000Y-87504000I0J270000D01*
G01*
G37*
G04 #@! TD*
G04 #@! TO.C,D25*
G36*
G01*
X233620000Y-82004000D02*
X233620000Y-79794000D01*
G75*
G02*
X233890000Y-79524000I270000J0D01*
G01*
X234700000Y-79524000D01*
G75*
G02*
X234970000Y-79794000I0J-270000D01*
G01*
X234970000Y-82004000D01*
G75*
G02*
X234700000Y-82274000I-270000J0D01*
G01*
X233890000Y-82274000D01*
G75*
G02*
X233620000Y-82004000I0J270000D01*
G01*
G37*
G36*
G01*
X236420000Y-82004000D02*
X236420000Y-79794000D01*
G75*
G02*
X236690000Y-79524000I270000J0D01*
G01*
X237500000Y-79524000D01*
G75*
G02*
X237770000Y-79794000I0J-270000D01*
G01*
X237770000Y-82004000D01*
G75*
G02*
X237500000Y-82274000I-270000J0D01*
G01*
X236690000Y-82274000D01*
G75*
G02*
X236420000Y-82004000I0J270000D01*
G01*
G37*
G04 #@! TD*
G04 #@! TO.C,D24*
G36*
G01*
X228120000Y-82004000D02*
X228120000Y-79794000D01*
G75*
G02*
X228390000Y-79524000I270000J0D01*
G01*
X229200000Y-79524000D01*
G75*
G02*
X229470000Y-79794000I0J-270000D01*
G01*
X229470000Y-82004000D01*
G75*
G02*
X229200000Y-82274000I-270000J0D01*
G01*
X228390000Y-82274000D01*
G75*
G02*
X228120000Y-82004000I0J270000D01*
G01*
G37*
G36*
G01*
X230920000Y-82004000D02*
X230920000Y-79794000D01*
G75*
G02*
X231190000Y-79524000I270000J0D01*
G01*
X232000000Y-79524000D01*
G75*
G02*
X232270000Y-79794000I0J-270000D01*
G01*
X232270000Y-82004000D01*
G75*
G02*
X232000000Y-82274000I-270000J0D01*
G01*
X231190000Y-82274000D01*
G75*
G02*
X230920000Y-82004000I0J270000D01*
G01*
G37*
G04 #@! TD*
G04 #@! TO.C,D23*
G36*
G01*
X222620000Y-82004000D02*
X222620000Y-79794000D01*
G75*
G02*
X222890000Y-79524000I270000J0D01*
G01*
X223700000Y-79524000D01*
G75*
G02*
X223970000Y-79794000I0J-270000D01*
G01*
X223970000Y-82004000D01*
G75*
G02*
X223700000Y-82274000I-270000J0D01*
G01*
X222890000Y-82274000D01*
G75*
G02*
X222620000Y-82004000I0J270000D01*
G01*
G37*
G36*
G01*
X225420000Y-82004000D02*
X225420000Y-79794000D01*
G75*
G02*
X225690000Y-79524000I270000J0D01*
G01*
X226500000Y-79524000D01*
G75*
G02*
X226770000Y-79794000I0J-270000D01*
G01*
X226770000Y-82004000D01*
G75*
G02*
X226500000Y-82274000I-270000J0D01*
G01*
X225690000Y-82274000D01*
G75*
G02*
X225420000Y-82004000I0J270000D01*
G01*
G37*
G04 #@! TD*
G04 #@! TO.C,D22*
G36*
G01*
X217120000Y-82004000D02*
X217120000Y-79794000D01*
G75*
G02*
X217390000Y-79524000I270000J0D01*
G01*
X218200000Y-79524000D01*
G75*
G02*
X218470000Y-79794000I0J-270000D01*
G01*
X218470000Y-82004000D01*
G75*
G02*
X218200000Y-82274000I-270000J0D01*
G01*
X217390000Y-82274000D01*
G75*
G02*
X217120000Y-82004000I0J270000D01*
G01*
G37*
G36*
G01*
X219920000Y-82004000D02*
X219920000Y-79794000D01*
G75*
G02*
X220190000Y-79524000I270000J0D01*
G01*
X221000000Y-79524000D01*
G75*
G02*
X221270000Y-79794000I0J-270000D01*
G01*
X221270000Y-82004000D01*
G75*
G02*
X221000000Y-82274000I-270000J0D01*
G01*
X220190000Y-82274000D01*
G75*
G02*
X219920000Y-82004000I0J270000D01*
G01*
G37*
G04 #@! TD*
G04 #@! TO.C,D21*
G36*
G01*
X214420000Y-82004000D02*
X214420000Y-79794000D01*
G75*
G02*
X214690000Y-79524000I270000J0D01*
G01*
X215500000Y-79524000D01*
G75*
G02*
X215770000Y-79794000I0J-270000D01*
G01*
X215770000Y-82004000D01*
G75*
G02*
X215500000Y-82274000I-270000J0D01*
G01*
X214690000Y-82274000D01*
G75*
G02*
X214420000Y-82004000I0J270000D01*
G01*
G37*
G36*
G01*
X211620000Y-82004000D02*
X211620000Y-79794000D01*
G75*
G02*
X211890000Y-79524000I270000J0D01*
G01*
X212700000Y-79524000D01*
G75*
G02*
X212970000Y-79794000I0J-270000D01*
G01*
X212970000Y-82004000D01*
G75*
G02*
X212700000Y-82274000I-270000J0D01*
G01*
X211890000Y-82274000D01*
G75*
G02*
X211620000Y-82004000I0J270000D01*
G01*
G37*
G04 #@! TD*
M02*
